<svg width="90" height="98" viewBox="0 0 90 98" fill="none" xmlns="http://www.w3.org/2000/svg">
<g style="mix-blend-mode:hard-light">
<g style="mix-blend-mode:hard-light">
<path d="M3.34614 7.99414H0.178223V10.919H3.34614V7.99414Z" fill="#FADD3F"/>
</g>
<g style="mix-blend-mode:hard-light">
<path d="M3.34614 0.239746H0.178223V3.16464H3.34614V0.239746Z" fill="#FADD3F"/>
</g>
<g style="mix-blend-mode:hard-light">
<path d="M3.34614 15.2363H0.178223V18.1578H3.34614V15.2363Z" fill="#FADD3F"/>
</g>
<g style="mix-blend-mode:hard-light">
<path d="M3.34614 22.479H0.178223V25.4022H3.34614V22.479Z" fill="#FADD3F"/>
</g>
<g style="mix-blend-mode:hard-light">
<path d="M3.34614 36.957H0.178223V39.8871H3.34614V36.957Z" fill="#FADD3F"/>
</g>
<g style="mix-blend-mode:hard-light">
<path d="M3.34614 29.7178H0.178223V32.6444H3.34614V29.7178Z" fill="#FADD3F"/>
</g>
<g style="mix-blend-mode:hard-light">
<path d="M3.34614 80.4028H0.178223V83.3329H3.34614V80.4028Z" fill="#FADD3F"/>
</g>
<g style="mix-blend-mode:hard-light">
<path d="M3.34614 44.2026H0.178223V47.1258H3.34614V44.2026Z" fill="#FADD3F"/>
</g>
<g style="mix-blend-mode:hard-light">
<path d="M89.3902 94.8911H0.178223V97.8143H89.3902V94.8911Z" fill="#FADD3F"/>
</g>
<g style="mix-blend-mode:hard-light">
<path d="M3.34614 73.1655H0.178223V76.0887H3.34614V73.1655Z" fill="#FADD3F"/>
</g>
<g style="mix-blend-mode:hard-light">
<path d="M3.34614 87.6455H0.178223V90.5756H3.34614V87.6455Z" fill="#FADD3F"/>
</g>
<g style="mix-blend-mode:hard-light">
<path d="M3.34614 51.4399H0.178223V54.3666H3.34614V51.4399Z" fill="#FADD3F"/>
</g>
<g style="mix-blend-mode:hard-light">
<path d="M3.34614 58.6826H0.178223V61.6058H3.34614V58.6826Z" fill="#FADD3F"/>
</g>
<g style="mix-blend-mode:hard-light">
<path d="M3.34614 65.9214H0.178223V68.8446H3.34614V65.9214Z" fill="#FADD3F"/>
</g>
<g style="mix-blend-mode:hard-light">
<g style="mix-blend-mode:hard-light">
<path d="M24.6807 48.4961H8.23096V90.5753H24.6807V48.4961Z" fill="#FADD3F"/>
</g>
<g style="mix-blend-mode:hard-light">
<path d="M44.3843 32.1602H27.9346V90.5754H44.3843V32.1602Z" fill="#FADD3F"/>
</g>
<g style="mix-blend-mode:hard-light">
<path d="M64.0884 39.8506H47.6387V90.5752H64.0884V39.8506Z" fill="#FADD3F"/>
</g>
<g style="mix-blend-mode:hard-light">
<path d="M83.7937 24.9385H67.3457V90.5755H83.7937V24.9385Z" fill="#FADD3F"/>
</g>
</g>
<g style="mix-blend-mode:hard-light">
<path d="M16.957 33.5391L15.9521 32.3275L36.0145 15.695L55.7407 23.3959L75.0947 8.74902L76.0444 10.0038L55.9872 25.1815L36.3058 17.4996L16.957 33.5391Z" fill="#FADD3F"/>
</g>
<g style="mix-blend-mode:hard-light">
<path d="M21.5938 32.9326C21.5941 33.9489 21.2931 34.9424 20.7287 35.7876C20.1644 36.6327 19.3621 37.2916 18.4232 37.6807C17.4844 38.0699 16.4513 38.1718 15.4545 37.9738C14.4577 37.7757 13.5421 37.2865 12.8234 36.568C12.1046 35.8496 11.6151 34.9341 11.4167 33.9374C11.2183 32.9406 11.32 31.9075 11.7088 30.9685C12.0976 30.0296 12.7562 29.2271 13.6012 28.6624C14.4461 28.0978 15.4396 27.7964 16.4558 27.7964C17.8182 27.7964 19.1248 28.3375 20.0883 29.3006C21.0518 30.2638 21.5933 31.5702 21.5938 32.9326Z" fill="#FADD3F"/>
</g>
<g style="mix-blend-mode:hard-light">
<path d="M41.3062 16.5979C41.3069 17.6139 41.0063 18.6072 40.4426 19.4524C39.8788 20.2976 39.0771 20.9567 38.1388 21.3464C37.2005 21.736 36.1678 21.8388 35.1711 21.6416C34.1745 21.4445 33.2587 20.9562 32.5394 20.2387C31.8202 19.5211 31.3298 18.6064 31.1303 17.6103C30.9308 16.6141 31.0311 15.5811 31.4186 14.6419C31.806 13.7027 32.4632 12.8995 33.3071 12.3337C34.151 11.768 35.1436 11.4651 36.1596 11.4634C36.8348 11.4623 37.5035 11.5942 38.1277 11.8517C38.7518 12.1092 39.3191 12.4871 39.7971 12.964C40.275 13.4408 40.6543 14.0072 40.9133 14.6308C41.1722 15.2543 41.3057 15.9227 41.3062 16.5979Z" fill="#FADD3F"/>
</g>
<g style="mix-blend-mode:hard-light">
<path d="M61.003 24.2888C61.003 25.305 60.7016 26.2984 60.1371 27.1433C59.5725 27.9883 58.7701 28.6468 57.8312 29.0357C56.8924 29.4246 55.8593 29.5263 54.8626 29.3281C53.866 29.1298 52.9505 28.6405 52.2319 27.9219C51.5134 27.2034 51.024 26.2879 50.8258 25.2912C50.6275 24.2945 50.7293 23.2615 51.1182 22.3226C51.507 21.3838 52.1656 20.5813 53.0105 20.0168C53.8554 19.4522 54.8488 19.1509 55.865 19.1509C57.2277 19.1509 58.5345 19.6922 59.4981 20.6558C60.4616 21.6193 61.003 22.9262 61.003 24.2888Z" fill="#FADD3F"/>
</g>
<g style="mix-blend-mode:hard-light">
<path d="M80.7085 9.37478C80.7085 10.391 80.4072 11.3843 79.8426 12.2293C79.2781 13.0742 78.4756 13.7327 77.5368 14.1216C76.598 14.5105 75.5649 14.6123 74.5682 14.414C73.5716 14.2158 72.6561 13.7264 71.9375 13.0079C71.219 12.2893 70.7296 11.3738 70.5313 10.3771C70.3331 9.38048 70.4348 8.3474 70.8237 7.40856C71.2126 6.46972 71.8711 5.66729 72.7161 5.10272C73.561 4.53815 74.5544 4.23682 75.5706 4.23682C76.9333 4.23682 78.2401 4.77813 79.2037 5.74169C80.1672 6.70524 80.7085 8.0121 80.7085 9.37478Z" fill="#FADD3F"/>
</g>
</g>
</svg>
