<svg width="87" height="87" viewBox="0 0 87 87" fill="none" xmlns="http://www.w3.org/2000/svg">
<g clip-path="url(#clip0_7_79204)">
<path d="M85.4092 16.4579H44.3785V16.4553L8.33253 5.49965C7.87213 5.35948 7.38216 5.44307 7.0015 5.72856C6.62083 6.0102 6.39449 6.4616 6.39449 6.93228V16.4579H2.47083C1.6452 16.4579 0.96875 17.1343 0.96875 17.96V71.0548C0.96875 71.883 1.6452 72.5569 2.47083 72.5569H33.6132V78.5035H27.9174V80.0055V81.5063H59.9549V80.0055V78.5035H54.2616V72.5569H85.404C86.2284 72.5569 86.9061 71.883 86.9061 71.0548V17.96C86.9113 17.1292 86.24 16.4579 85.4092 16.4579ZM9.39479 16.4579V8.96035L34.0595 16.4592L39.0042 17.9612L42.4405 19.0068V19.4633V68.9612L9.39865 58.916V19.462V17.96L9.39479 16.4579ZM83.9071 69.5553H45.4421V19.462H51.3424V25.0344L54.2668 23.1851L57.1912 25.0344V19.462H83.9148V69.5527H83.9058V69.5553H83.9071ZM37.3478 28.6455L25.6437 25.0832V23.1053L37.3478 26.6728V28.6455ZM37.3478 36.1868L25.6437 32.6232V30.6402L37.3478 34.205V36.1868ZM37.3478 43.7885L13.9306 36.6652V34.6924L37.3478 41.8119V43.7885ZM37.3478 51.322L13.9306 44.2039V42.2234L37.3478 49.3415V51.322ZM37.3478 58.9314L13.9306 51.8094V49.8315L37.3478 56.9484V58.9314ZM15.9342 30.2531L16.5412 28.2649L20.0688 29.3348L20.6964 31.6986L21.7226 32.0111L22.7566 32.3236L19.4695 20.6349L18.343 20.2954L17.2164 19.9559L13.9293 29.6435L14.9401 29.9534L15.9342 30.2531ZM18.3198 22.6745L19.5454 27.3389L17.0826 26.5905L18.3198 22.6745ZM58.6483 35.684C58.6483 33.9941 59.7928 33.3794 61.1998 34.3285L72.2287 41.7604C73.6318 42.7005 73.6318 44.2437 72.2287 45.1838L61.1998 52.6171C59.7916 53.5623 58.6483 52.9463 58.6483 51.2616V35.684Z" fill="#FADD3F"/>
</g>
<defs>
<clipPath id="clip0_7_79204">
<rect width="85.9374" height="85.9374" fill="white" transform="translate(0.96875 0.500977)"/>
</clipPath>
</defs>
</svg>
