<svg width="41" height="41" viewBox="0 0 41 41" fill="none" xmlns="http://www.w3.org/2000/svg">
<g clip-path="url(#clip0_7_79166)">
<path d="M30.9298 2.23323H24.7321L24.4801 1.10143C24.3936 0.707065 24.0432 0.42627 23.6391 0.42627H16.6578C16.2538 0.42627 15.9047 0.707065 15.8168 1.10143L15.5661 2.23323H9.36715C7.09958 2.23323 5.25586 4.07762 5.25586 6.34519V36.0944C5.25586 38.362 7.09958 40.2064 9.36715 40.2064H30.9299C33.1975 40.2064 35.0425 38.362 35.0425 36.0944V6.34519C35.0424 4.07762 33.1974 2.23323 30.9298 2.23323ZM32.355 36.0943C32.355 36.8798 31.7159 37.5189 30.9298 37.5189H9.36706C8.58231 37.5189 7.94323 36.8798 7.94323 36.0943V6.34519C7.94323 5.55976 8.58231 4.92077 9.36706 4.92077H14.9689L14.826 5.56373C14.7682 5.81892 14.8312 6.08662 14.9939 6.2901C15.1579 6.49416 15.406 6.61289 15.667 6.61289H24.631C24.8922 6.61289 25.1402 6.49416 25.3028 6.2901C25.4669 6.08603 25.5299 5.81901 25.4722 5.56373L25.3292 4.92077H30.9298C31.7159 4.92077 32.355 5.55984 32.355 6.34519V36.0943Z" fill="#FDCF1D"/>
<path d="M14.695 16.3484H18.3495L17.481 15.7553C16.2552 14.9188 15.9404 13.2462 16.7775 12.0206C17.6135 10.7963 19.2866 10.4794 20.5122 11.3172L20.6553 11.415V10.3895C20.6553 9.72483 20.1159 9.18555 19.4519 9.18555H14.695C14.0311 9.18555 13.4917 9.72491 13.4917 10.3895V15.1444C13.4917 15.8092 14.0311 16.3484 14.695 16.3484Z" fill="#FDCF1D"/>
<path d="M25.8843 9.74762L21.6719 13.7355L19.7534 12.4266C19.1433 12.0073 18.3059 12.1661 17.8861 12.7783C17.4674 13.391 17.625 14.227 18.2391 14.6456L21.0513 16.5661C21.281 16.7236 21.5447 16.8003 21.8085 16.8003C22.1431 16.8003 22.475 16.6757 22.7323 16.4322L27.732 11.699C28.2713 11.1892 28.2935 10.3382 27.7844 9.79951C27.2726 9.26082 26.4235 9.23783 25.8843 9.74762Z" fill="#FDCF1D"/>
<path d="M14.695 25.5795H18.3509L17.481 24.9858C16.2552 24.1491 15.9404 22.4767 16.7775 21.2511C17.6135 20.026 19.2866 19.7091 20.5122 20.5476L20.6553 20.6455V19.62C20.6553 18.9554 20.1159 18.416 19.4519 18.416H14.695C14.0311 18.416 13.4917 18.9554 13.4917 19.62V24.3756C13.4917 25.0402 14.0311 25.5795 14.695 25.5795Z" fill="#FDCF1D"/>
<path d="M25.8843 18.9789L21.6719 22.9661L19.7534 21.6572C19.1433 21.2372 18.3059 21.3954 17.8861 22.0089C17.4674 22.6218 17.625 23.4576 18.2391 23.8763L21.0513 25.7967C21.281 25.9542 21.5447 26.0309 21.8085 26.0309C22.1431 26.0309 22.475 25.9062 22.7323 25.6629L27.732 20.9302C28.2713 20.4204 28.2935 19.5701 27.7844 19.0308C27.2726 18.492 26.4235 18.4697 25.8843 18.9789Z" fill="#FDCF1D"/>
<path d="M19.4519 27.647H14.695C14.0311 27.647 13.4917 28.1863 13.4917 28.8509V33.6059C13.4917 34.2705 14.0311 34.8098 14.695 34.8098H19.4519C20.1159 34.8098 20.6553 34.2705 20.6553 33.6059V28.8509C20.6553 28.1863 20.1159 27.647 19.4519 27.647Z" fill="#FDCF1D"/>
</g>
<defs>
<clipPath id="clip0_7_79166">
<rect width="39.78" height="39.78" fill="white" transform="translate(0.259277 0.42627)"/>
</clipPath>
</defs>
</svg>
