<svg width="382" height="303" viewBox="0 0 382 303" fill="none" xmlns="http://www.w3.org/2000/svg">
<path d="M57.7686 50.6183C57.7686 50.6183 92.8124 25.7212 117.647 16.0909C145.436 5.31532 162.387 1.54575 191.77 1.50609C221.357 1.46615 238.488 5.08681 266.421 16.0909C290.868 25.7217 325.245 50.6183 325.245 50.6183C325.245 50.6183 295.173 203.61 290.953 218.79C286.732 233.97 283.322 240.953 275.39 253.02C268.273 263.846 263.355 269.398 253.759 277.427C243.582 285.944 237.055 289.966 225.007 294.393C212.54 298.974 204.882 299.657 191.77 299.751C178.047 299.85 169.962 299.318 156.951 294.393C145.197 289.944 139.068 285.576 128.99 277.427C118.918 269.283 113.166 264.244 105.777 253.02C97.9465 241.125 95.2257 233.375 91.269 218.79C87.3123 204.205 57.7686 50.6183 57.7686 50.6183Z" fill="#5B6744"/>
<path d="M65.9297 163.552L78.8287 180.548L80.7437 180.673L77.0244 162.826L65.9297 163.552Z" fill="#5B6643"/>
<path d="M56.2809 116C51.8177 115.72 48.0984 115.226 45.4975 115.006L41.4036 114.512L45.5028 114.196C48.1089 114.089 51.8336 113.756 56.302 113.672C59.4674 113.613 62.9652 113.476 66.7162 113.399L64.9858 105.112L23.6562 107.832L34.3606 121.947L68.9742 124.227L67.4179 116.774C63.3925 116.524 59.631 116.214 56.2809 116Z" fill="#5B6643"/>
<path d="M50.6147 87.8364C44.0729 87.5209 37.9531 86.9018 32.7407 86.5386C27.5284 86.1755 23.1549 85.5861 20.0792 85.3063L15.2889 84.711L20.0897 84.4848C23.1443 84.4313 27.5126 84.1872 32.7513 84.1931C37.99 84.1991 44.094 84.0562 50.6358 84.2289L60.6912 84.467L59.0557 76.6388H0L12.134 92.6285L63.0969 95.986L61.5142 88.3662L50.6147 87.8364Z" fill="#5B6643"/>
<path d="M65.6293 143.217L62.0049 142.747L65.6346 142.407C67.4283 142.312 69.8287 142.08 72.667 141.931L71.0052 133.966L44.8115 135.693L56.6185 151.248L74.8828 152.438L73.1154 143.985C70.0714 143.735 67.4969 143.39 65.6293 143.217Z" fill="#5B6643"/>
<path d="M302.57 180.548L315.469 163.552L304.743 162.844L301.029 180.649L302.57 180.548Z" fill="#5B6643"/>
<path d="M321.082 84.4848L331.354 84.2408C337.896 84.0681 344.016 84.2408 349.244 84.205C354.472 84.1693 358.845 84.4432 361.905 84.4968L366.706 84.7229L361.916 85.3182C358.867 85.598 354.53 86.1695 349.254 86.5505C343.979 86.9315 337.927 87.5328 331.386 87.8483L320.249 88.4079L318.666 95.992L369.254 92.6583L381.399 76.6388H322.712L321.082 84.4848Z" fill="#5B6643"/>
<path d="M325.683 113.672C330.151 113.756 333.876 114.089 336.482 114.196L340.581 114.512L336.487 115.006C333.886 115.226 330.157 115.72 325.704 116C322.296 116.214 318.455 116.536 314.345 116.786L312.815 124.203L347.049 121.947L357.759 107.832L316.788 105.136L315.068 113.399C318.882 113.47 322.48 113.607 325.683 113.672Z" fill="#5B6643"/>
<path d="M316.349 142.407L319.979 142.747L316.355 143.217C314.424 143.396 311.791 143.753 308.668 144.015L306.911 152.426L324.801 151.236L336.603 135.681L310.752 133.978L309.122 141.919C312.034 142.068 314.508 142.312 316.349 142.407Z" fill="#5B6643"/>
<path d="M321.082 84.4849L322.712 76.6388L328.315 49.7789C288.227 17.4196 240.174 0.0145205 190.884 0C189.908 0 188.943 0 187.967 0C139.671 0.686603 92.7212 18.0529 53.4375 49.7611L59.0561 76.6388L60.6863 84.4611L61.4987 88.3662L63.0814 95.986L64.9754 105.094L66.7058 113.381L67.4074 116.756L68.9638 124.209L70.9949 133.948L72.6567 141.913L73.0841 143.979L74.8514 152.432L77.0091 162.802L80.7338 180.661L86.8588 210.033C92.3733 236.49 105.647 260.068 124.528 276.943C143.409 293.818 166.788 303 190.874 303C214.96 303 238.339 293.818 257.219 276.943C276.1 260.068 289.374 236.49 294.889 210.033L301.019 180.638L304.712 162.832L306.88 152.414L308.637 144.003L309.075 141.907L310.726 133.978L312.815 124.203L314.361 116.786L315.068 113.399L316.788 105.136L318.698 95.9801L320.28 88.396L321.082 84.4849ZM281.863 201.955L230.758 206.331L279.985 210.539C274.549 232.492 262.896 251.833 246.804 265.611C230.712 279.388 211.067 286.844 190.867 286.84C170.667 286.836 151.024 279.372 134.937 265.588C118.849 251.804 107.202 232.458 101.773 210.504L150.573 206.337L99.9266 202.003L70.9105 62.9172L126.764 58.4048L73.5958 54.1127C107.975 29.8667 147.602 16.7564 188.141 16.2159H190.879C232.352 16.1532 273.002 29.2724 308.173 54.071L254.561 58.3988L310.848 62.9469L281.863 201.955ZM82.3059 38.4325L88.3729 34.5869L95.4054 30.4912C97.9219 29.1399 100.591 27.7588 103.382 26.3241C109.017 23.6274 115.168 20.7819 121.847 18.3769C125.165 17.0732 128.642 15.9957 132.187 14.8051C133.955 14.2098 135.775 13.7574 137.6 13.2335C139.425 12.7096 141.293 12.1858 143.155 11.7691L148.827 10.4177L154.63 9.26285C156.566 8.84615 158.539 8.57826 160.518 8.2568C162.496 7.93534 164.48 7.61982 166.49 7.42932L172.525 6.75069L178.639 6.29826C180.692 6.11372 182.696 6.11371 184.733 6.01847L187.777 5.91728C188.832 5.88156 189.834 5.91728 190.874 5.91728C199.02 5.92787 207.16 6.4346 215.258 7.43528L221.235 8.23298L227.118 9.28071C229.069 9.60217 230.995 10.0308 232.921 10.4713C234.846 10.9118 236.74 11.275 238.608 11.7691C242.338 12.7692 246.025 13.6562 249.565 14.8527C251.338 15.448 253.111 15.9183 254.841 16.5493L259.927 18.3828C261.61 18.9781 263.229 19.6389 264.838 20.2878L269.587 22.2225C272.641 23.6512 275.617 24.943 278.418 26.342C281.219 27.7409 283.91 29.0625 286.39 30.5091C288.869 31.9557 291.254 33.2415 293.427 34.5988L299.5 38.4147L304.554 41.8674L306.711 43.3497C307.381 43.8259 307.988 44.3141 308.563 44.7427L311.47 46.9572L313.892 48.8026L311.365 47.1417C309.708 46.094 307.334 44.4093 304.19 42.546L299.025 39.4029L292.768 35.9561C288.305 33.5749 283.203 31.0627 277.574 28.5148C274.762 27.2468 271.771 26.0801 268.711 24.7942C265.593 23.687 262.422 22.3713 259.083 21.2938L254.018 19.633C252.314 19.0377 250.552 18.6269 248.79 18.109C245.271 17.0553 241.626 16.21 237.933 15.2932C230.51 13.674 222.791 12.2334 214.889 11.3821C206.911 10.4385 198.895 9.98539 190.874 10.0248C189.877 10.0248 188.832 9.98912 187.877 10.0248L184.833 10.1141C182.812 10.1915 180.76 10.1796 178.777 10.3522L172.805 10.763L166.859 11.394C158.977 12.3882 151.217 13.5371 143.82 15.329C136.424 17.1208 129.301 19.0139 122.665 21.3177C116.007 23.5262 109.84 26.0801 104.168 28.5208L96.1281 32.295L88.9691 35.9561L82.7965 39.4207C80.8868 40.5042 79.188 41.6174 77.6211 42.5579C74.4821 44.4331 72.1028 46.0821 70.4515 47.1477L67.9245 48.8086L70.3407 46.9631C71.9234 45.7725 74.1972 43.9033 77.2676 41.8674C78.7818 40.8375 80.4383 39.6291 82.3059 38.4325ZM284.527 221.523C283.915 223.463 283.298 225.642 282.517 227.97C281.626 230.244 280.66 232.732 279.626 235.334C279.377 236.01 279.088 236.666 278.761 237.298L277.795 239.281L275.78 243.448C275.059 244.894 274.268 246.295 273.411 247.644L270.826 251.978C269.898 253.413 268.853 254.794 267.84 256.252L266.258 258.437C265.746 259.194 265.195 259.916 264.606 260.598C262.232 263.348 259.922 266.373 257.12 268.974C251.845 274.582 245.445 279.457 238.555 283.857L233.211 286.922C232.31 287.436 231.386 287.895 230.441 288.297L227.613 289.601L224.77 290.911C223.804 291.292 222.813 291.613 221.831 291.97C219.853 292.631 217.885 293.405 215.87 293.977C207.703 296.214 199.34 297.412 190.937 297.548L184.517 297.233C182.396 297.142 180.282 296.91 178.186 296.536L175.052 296.072L173.469 295.84L171.929 295.465L165.872 293.923C163.857 293.328 161.889 292.578 159.911 291.911C158.93 291.554 157.938 291.232 156.972 290.851L154.129 289.542L151.301 288.238C150.356 287.838 149.431 287.379 148.531 286.863L143.187 283.803C136.297 279.416 129.919 274.534 124.627 268.92C121.826 266.313 119.515 263.289 117.141 260.539C116.549 259.861 115.997 259.139 115.49 258.378L113.907 256.193C112.894 254.734 111.844 253.353 110.921 251.919C109.998 250.484 109.175 249.002 108.336 247.585C107.478 246.246 106.686 244.855 105.962 243.418C105.276 242.001 104.601 240.62 103.947 239.251C103.625 238.578 103.303 237.917 102.986 237.268C102.66 236.636 102.371 235.979 102.121 235.304C101.087 232.673 100.122 230.218 99.225 227.94C98.4442 225.606 97.8216 223.428 97.2149 221.481L96.3708 218.719C96.1334 217.844 95.9857 217.004 95.8116 216.231C95.474 214.683 95.1891 213.367 94.9569 212.296C94.498 210.158 94.25 209.021 94.25 209.021L95.1574 212.236L96.2442 216.094C96.4658 216.85 96.6715 217.677 96.9511 218.534C97.2307 219.392 97.5789 220.279 97.9166 221.225C98.6077 223.112 99.3199 225.226 100.19 227.47L103.356 234.572C103.631 235.222 103.945 235.85 104.295 236.453L105.35 238.352L107.508 242.305L108.067 243.323L108.7 244.305L109.987 246.299L112.625 250.43C113.58 251.8 114.651 253.103 115.685 254.484L117.268 256.556C117.788 257.274 118.348 257.955 118.945 258.592C121.351 261.17 123.641 264.063 126.432 266.504C131.707 271.802 138.006 276.302 144.706 280.451L149.908 283.321C150.784 283.806 151.684 284.233 152.604 284.601L155.347 285.791L158.107 286.982C159.046 287.333 160.006 287.625 160.955 287.946C162.871 288.542 164.764 289.309 166.711 289.845L172.625 291.256L174.108 291.613L175.617 291.828L178.639 292.256C180.65 292.606 182.678 292.817 184.712 292.887L190.742 293.167C198.888 293.085 207 291.969 214.925 289.839C222.665 287.458 230.167 284.482 236.935 280.404C237.363 280.166 237.795 279.939 238.217 279.689L239.441 278.862L241.879 277.225C243.513 276.197 245.098 275.072 246.627 273.855L251.101 270.284C252.546 269.093 253.87 267.706 255.231 266.456C258.022 264.015 260.317 261.098 262.718 258.538C263.315 257.901 263.875 257.221 264.395 256.503L265.978 254.431C267.033 253.056 268.088 251.746 269.038 250.383L271.676 246.251C272.515 244.882 273.459 243.638 274.155 242.251L276.313 238.298C276.667 237.661 277.009 237.03 277.368 236.405C277.72 235.804 278.034 235.176 278.307 234.524C279.447 231.988 280.502 229.621 281.473 227.422C282.348 225.172 283.055 223.053 283.752 221.166C284.089 220.213 284.411 219.32 284.717 218.475C285.023 217.629 285.203 216.796 285.424 216.04L286.511 212.188C287.102 210.093 287.413 208.974 287.413 208.974L286.711 212.248C286.479 213.32 286.184 214.629 285.857 216.189C285.683 216.963 285.53 217.814 285.297 218.689C285.065 219.564 284.823 220.552 284.527 221.523Z" fill="#FDCF1D"/>
<path d="M205.535 269.045C203.198 269.004 200.787 268.92 198.328 268.92L190.884 268.873L183.44 268.92C180.987 268.92 178.571 269.01 176.234 269.045C171.559 269.147 167.191 269.301 163.451 269.486C155.97 269.825 150.984 270.307 150.984 270.307C150.984 270.307 155.97 270.79 163.451 271.129C167.191 271.314 171.559 271.468 176.234 271.57C178.571 271.605 180.982 271.689 183.44 271.695L190.884 271.742L198.328 271.695C200.781 271.695 203.198 271.611 205.535 271.575C210.209 271.474 214.577 271.319 218.318 271.135C225.799 270.79 230.784 270.307 230.784 270.307C230.784 270.307 225.799 269.825 218.318 269.486C214.577 269.295 210.209 269.141 205.535 269.045Z" fill="#FDCF1D"/>
<g clip-path="url(#clip0_527_206)">
<path d="M159.896 144.5H103V182.997H159.896V144.5Z" fill="#FDCF1D"/>
<path d="M280 154.195H223.104V183H280V154.195Z" fill="#FDCF1D"/>
<path d="M201.978 106.158L202.116 105.874C201.566 105.622 201.105 105.21 200.793 104.691C201.103 105.209 201.564 105.621 202.113 105.87L202.452 105.21L202.688 104.722C201.673 104.237 200.962 102.997 203.027 101.611C212.335 94.6805 218.562 86.954 218.461 81.2777C218.979 72.1075 206.3 70.1319 207.941 82.5722H209.688C207.427 75.3134 216.305 72.6396 216.542 81.2642C215.628 89.4651 208.469 93.8299 201.06 100.74C198.502 103.251 200.312 105.955 201.978 106.158ZM210.466 76.0826C211.067 75.5808 211.814 75.2888 212.596 75.2509C213.377 75.213 214.149 75.4312 214.795 75.8725C215.404 76.2618 215.913 76.7888 216.281 77.4111C215.913 76.7898 215.404 76.2639 214.795 75.8759C214.15 75.4343 213.378 75.2159 212.597 75.2538C211.816 75.2918 211.069 75.584 210.47 76.086C209.035 77.3105 209.034 77.3094 210.466 76.0826ZM201.693 101.868L207.786 96.663C210.812 94.1078 213.181 91.5797 214.822 89.1737C216.613 86.5338 217.605 83.9244 217.764 81.42C217.893 79.8699 217.552 78.3169 216.785 76.9637C217.562 78.3137 217.913 79.8668 217.794 81.42C217.635 83.9278 216.647 86.5338 214.853 89.1737C213.211 91.5899 210.845 94.1112 207.82 96.663L201.693 101.872C201.06 102.627 200.901 103.4 201.233 104.101C201.267 104.169 201.301 104.234 201.338 104.295C201.299 104.231 201.264 104.166 201.233 104.098C200.901 103.397 201.06 102.627 201.693 101.868V101.868Z" fill="#FFCE00"/>
<path d="M201.043 100.747C208.452 93.8367 215.597 89.4685 216.525 81.2675C216.288 72.6464 207.42 75.3405 209.681 82.596H209.021C208.52 79.6477 209.021 77.2857 210.459 76.0623C211.059 75.5602 211.806 75.268 212.587 75.2301C213.368 75.1922 214.14 75.4106 214.785 75.8522C216.403 76.8688 217.256 78.8818 217.124 81.3489C216.836 85.9001 213.566 90.8376 207.41 96.036L201.26 101.282V101.302C200.106 102.658 200.4 103.851 200.674 104.437C201.016 105.032 201.559 105.485 202.204 105.715L201.994 106.162C200.312 105.955 198.501 103.231 201.043 100.747Z" fill="#DD970A"/>
<path d="M181.71 100.652C174.264 93.8062 167.071 89.499 166.107 81.3082C166.286 72.6837 175.181 75.2829 172.967 82.5587L174.714 82.535C176.277 70.081 163.609 72.1652 164.184 81.3319C164.12 86.9913 170.398 94.6636 179.753 101.516C181.828 102.871 181.107 104.132 180.116 104.623L180.356 105.108L180.694 105.765C181.243 105.51 181.702 105.096 182.011 104.576C181.702 105.096 181.243 105.51 180.694 105.765L180.837 106.05C182.485 105.83 184.265 103.115 181.71 100.652ZM172.138 76.0521C171.534 75.5554 170.784 75.2694 170.003 75.2376C169.222 75.2058 168.452 75.4299 167.809 75.8759C167.204 76.2717 166.7 76.8031 166.337 77.428C166.7 76.8015 167.205 76.2697 167.812 75.8759C168.454 75.4287 169.223 75.2035 170.004 75.2347C170.785 75.2659 171.534 75.5517 172.138 76.0488C173.58 77.2619 173.58 77.2631 172.138 76.0521V76.0521ZM181.554 103.986C181.52 104.054 181.486 104.118 181.449 104.183C181.486 104.119 181.52 104.053 181.551 103.986C181.889 103.281 181.713 102.512 181.077 101.76L174.937 96.6054C171.891 94.0807 169.522 91.5797 167.853 89.1771C166.046 86.5541 165.037 83.9549 164.864 81.4505C164.726 79.8991 165.056 78.3418 165.812 76.9807C165.058 78.3414 164.728 79.897 164.864 81.4471C165.04 83.9515 166.046 86.5507 167.856 89.1771C169.512 91.5763 171.894 94.0773 174.937 96.6054L181.08 101.76C181.717 102.509 181.879 103.278 181.554 103.986V103.986Z" fill="#FFCE00"/>
<path d="M181.72 100.628C174.274 93.7825 167.082 89.4786 166.117 81.2879C166.296 72.6599 175.181 75.2795 172.968 82.5553H173.628C174.112 79.6002 173.59 77.2484 172.148 76.0352C171.544 75.5379 170.794 75.2519 170.013 75.2207C169.231 75.1895 168.461 75.4148 167.819 75.8624C166.208 76.8993 165.369 78.9123 165.518 81.376C165.833 85.9272 169.133 90.8409 175.333 95.9818L181.517 101.173L181.537 101.194C182.698 102.549 182.414 103.735 182.14 104.325C181.803 104.923 181.264 105.38 180.62 105.616L180.833 106.06C182.485 105.833 184.286 103.092 181.72 100.628Z" fill="#DD970A"/>
<path d="M174.359 72.9988C174.731 86.9506 178.613 98.5099 186.256 105.809C186.682 106.219 187.125 106.616 187.579 106.999L187.873 107.246C188.252 107.555 188.635 107.86 189.031 108.151C189.031 108.185 189.031 108.222 189.031 108.256H193.874C193.874 108.219 193.874 108.185 193.874 108.151L194.189 107.91L194.646 107.572L194.9 107.365C203.7 100.218 207.921 87.9943 208.303 73.0158C208.31 72.7802 208.256 72.5469 208.147 72.338C208.064 72.1633 207.935 72.015 207.773 71.9092C207.611 71.8034 207.423 71.7442 207.23 71.7382H175.415C175.221 71.7438 175.033 71.8029 174.872 71.9087C174.71 72.0145 174.58 72.1631 174.497 72.338C174.397 72.5433 174.349 72.7704 174.359 72.9988V72.9988Z" fill="#FFCE00"/>
<path d="M202.878 124.014V124.289C202.892 124.592 202.787 124.889 202.586 125.117C202.385 125.345 202.104 125.485 201.801 125.509L180.224 125.488C179.917 125.463 179.632 125.318 179.431 125.084C179.23 124.85 179.13 124.546 179.151 124.238V124.034C179.15 123.858 179.184 123.683 179.249 123.519C179.319 123.318 179.446 123.141 179.615 123.011C179.784 122.88 179.988 122.803 180.201 122.787C184.218 122.638 186.997 121.249 188.699 118.789L188.737 118.734C188.821 118.612 188.899 118.49 188.977 118.365L189.011 118.311C189.082 118.294 189.17 117.992 189.258 117.504C189.258 117.447 189.282 117.386 189.292 117.321C189.292 117.206 189.329 117.081 189.349 116.952C189.584 115.232 189.73 113.502 189.786 111.767C189.786 111.245 189.806 110.75 189.786 110.293C189.786 110.113 189.786 109.954 189.786 109.778C189.786 109.713 189.786 109.656 189.786 109.595C189.764 109.436 189.775 109.274 189.818 109.119C189.861 108.964 189.935 108.82 190.035 108.695C190.135 108.569 190.26 108.466 190.402 108.39C190.543 108.315 190.699 108.269 190.859 108.256H192.067C192.207 108.258 192.346 108.29 192.473 108.348C192.601 108.406 192.715 108.49 192.808 108.595C192.931 108.733 193.024 108.894 193.082 109.068C193.14 109.243 193.162 109.428 193.147 109.612V109.612C193.147 109.764 193.123 109.927 193.113 110.096C193.113 110.154 193.113 110.211 193.113 110.276C193.048 112.496 193.147 114.719 193.407 116.925C193.424 117.057 193.438 117.179 193.458 117.294C193.458 117.359 193.458 117.42 193.485 117.477C193.573 117.999 193.661 118.287 193.739 118.212L193.837 118.351L193.979 118.545C194.037 118.623 194.094 118.697 194.155 118.768C196.078 121.208 198.701 122.476 201.94 122.743C202.148 122.768 202.344 122.852 202.506 122.985C202.668 123.117 202.789 123.293 202.854 123.492C202.895 123.663 202.903 123.84 202.878 124.014Z" fill="#FFCE00"/>
<path d="M189.806 109.405C190.284 109.366 190.765 109.366 191.244 109.405C191.796 109.442 192.344 109.49 192.896 109.503C193 109.506 193.103 109.519 193.204 109.544L193.106 109.629C193.106 109.781 193.082 109.944 193.072 110.113C192.81 110.317 192.519 110.48 192.209 110.598C191.92 110.703 191.615 110.757 191.308 110.757C190.765 110.753 190.235 110.588 189.785 110.283C189.785 110.103 189.785 109.944 189.765 109.768L189.704 109.723C189.75 109.621 189.784 109.515 189.806 109.405Z" fill="#DD970A"/>
<path d="M187.119 103.217C187.106 104.596 187.362 105.965 187.873 107.246C188.248 108.256 188.906 109.135 189.769 109.778C190.229 110.102 190.777 110.279 191.339 110.286C191.648 110.285 191.953 110.23 192.243 110.123C192.554 110.006 192.846 109.843 193.109 109.639C193.787 109.077 194.323 108.363 194.673 107.555C195.149 106.491 195.437 105.352 195.523 104.19C195.546 103.895 195.56 103.593 195.563 103.288V103.217C195.563 99.313 193.671 96.1479 191.339 96.1479C189.105 96.1479 187.278 99.0555 187.129 102.736C187.122 102.895 187.119 103.054 187.119 103.217Z" fill="#FFCE00"/>
<path d="M190.686 107.246C190.656 107.165 190.622 107.084 190.591 106.999C190.447 106.617 190.305 106.221 190.165 105.809C187.714 98.5099 186.469 86.9506 186.35 72.9988C186.347 72.7718 186.364 72.545 186.401 72.321C186.462 71.9618 186.57 71.7212 186.696 71.7212H178.661C178.49 71.7356 178.327 71.8002 178.193 71.9069C178.058 72.0136 177.959 72.1577 177.906 72.321C177.814 72.535 177.769 72.766 177.774 72.9988C178.082 86.9506 181.287 98.5099 187.589 105.809C187.946 106.218 188.31 106.615 188.682 106.999L188.926 107.246C189.238 107.555 189.556 107.86 189.881 108.151C189.881 108.185 189.881 108.222 189.881 108.256H191.055C191.055 108.222 191.055 108.185 191.055 108.151C190.93 107.86 190.808 107.555 190.686 107.246Z" fill="#FFEFB1"/>
<path d="M192.236 109.269C192.236 109.557 192.236 109.842 192.236 110.123C192.236 112.716 192.324 115.074 192.517 116.952V117.067C192.664 117.078 192.805 117.131 192.922 117.22C193.039 117.31 193.128 117.431 193.178 117.57C193.228 117.709 193.236 117.859 193.203 118.002C193.169 118.146 193.094 118.277 192.988 118.379C192.948 118.411 192.905 118.44 192.859 118.463C194.139 122.53 198.132 124.106 202.861 124.289V124.014C202.877 123.717 202.782 123.425 202.594 123.195C202.406 122.965 202.139 122.813 201.845 122.77C198.525 122.493 195.844 121.157 193.905 118.572C193.854 118.511 193.807 118.443 193.759 118.379C193.883 118.376 194.002 118.332 194.098 118.253C194.184 118.181 194.253 118.091 194.299 117.989C194.345 117.887 194.368 117.776 194.365 117.664C194.368 117.48 194.304 117.302 194.186 117.162C194.133 117.098 194.067 117.046 193.992 117.009C193.917 116.973 193.836 116.953 193.753 116.952H193.34C193.079 114.745 192.981 112.521 193.045 110.3C193.045 110.069 193.069 109.845 193.089 109.622C193.767 109.06 194.303 108.346 194.653 107.538C203.609 100.421 207.924 88.1062 208.31 72.9717C208.317 72.7362 208.263 72.5028 208.154 72.2939H208.994V69.1356H204.834C204.834 69.8472 204.797 71.013 204.766 71.7178C204.766 71.9178 204.766 72.1177 204.739 72.3177C204.174 83.8803 201.649 94.4704 195.563 103.291C194.902 104.247 194.199 105.182 193.455 106.097C193.409 106.84 193.243 107.57 192.964 108.26C192.91 108.376 192.849 108.489 192.781 108.598C192.632 108.846 192.448 109.072 192.236 109.269Z" fill="#DD970A"/>
<path d="M188.171 118.362H194.7" stroke="#DD970A" stroke-width="6.72" stroke-miterlimit="10" stroke-linecap="round"/>
<path d="M192.003 117.22H194.7" stroke="#DD970A" stroke-width="6.72" stroke-miterlimit="10" stroke-linecap="round"/>
<path d="M189.833 117.22H192.003" stroke="#FFCE00" stroke-width="6.72" stroke-miterlimit="10" stroke-linecap="round"/>
<path d="M189.024 118.362H188.174C187.873 118.362 187.583 118.242 187.37 118.028C187.157 117.815 187.037 117.525 187.037 117.223C187.037 116.921 187.157 116.631 187.37 116.418C187.583 116.204 187.873 116.084 188.174 116.084H189.701C190.327 116.084 190.148 116.593 190.148 117.223C190.148 117.523 190.03 117.81 189.819 118.023C189.609 118.236 189.323 118.358 189.024 118.362Z" fill="#DD970A"/>
<path d="M189.877 111.299H192.798" stroke="#DD970A" stroke-width="6.72" stroke-miterlimit="10" stroke-linecap="round"/>
<path d="M190.967 110.333H192.798" stroke="#DD970A" stroke-width="6.72" stroke-miterlimit="10" stroke-linecap="round"/>
<path d="M189.877 110.333H190.293" stroke="#DD970A" stroke-width="6.72" stroke-miterlimit="10" stroke-linecap="round"/>
<path d="M186.77 106.311H196.02" stroke="#DD970A" stroke-width="6.72" stroke-miterlimit="10" stroke-linecap="round"/>
<path d="M192.855 105.057H196.02" stroke="#DD970A" stroke-width="6.72" stroke-miterlimit="10" stroke-linecap="round"/>
<path d="M186.77 105.057H192.855" stroke="#FFCE00" stroke-width="6.72" stroke-miterlimit="10" stroke-linecap="round"/>
<path d="M174.331 72.9175L208.343 74.0595V72.0838H174.331V72.9175Z" fill="#DD970A"/>
<path d="M209.031 69H173.841V72.1787H209.031V69Z" fill="#FFCE00"/>
<path d="M175.963 69C175.963 69.9285 175.963 71.2908 175.997 72.1821H180.156C180.156 71.2942 180.177 69.9285 180.184 69H175.963Z" fill="#FFEFB1"/>
<path d="M202.878 124.014V124.289C202.892 124.592 202.787 124.889 202.586 125.117C202.385 125.345 202.104 125.485 201.801 125.509L180.224 125.488C179.917 125.463 179.632 125.318 179.431 125.084C179.23 124.85 179.13 124.546 179.151 124.238V124.034C179.15 123.858 179.184 123.683 179.249 123.519H202.8C202.855 123.678 202.882 123.846 202.878 124.014V124.014Z" fill="#C16D08"/>
<path d="M140.81 131.182L140.915 130.971C140.51 130.788 140.171 130.485 139.943 130.104C140.171 130.485 140.51 130.788 140.915 130.971L141.151 130.487L141.327 130.128C140.593 129.772 140.058 128.864 141.578 127.847C148.408 122.764 152.981 117.087 152.906 112.936C153.285 106.203 143.981 104.752 145.186 113.885H146.465C144.807 108.558 151.326 106.596 151.498 112.926C150.821 118.941 145.572 122.15 140.136 127.22C138.271 129.047 139.588 131.032 140.81 131.182ZM147.054 109.124C147.494 108.754 148.043 108.538 148.617 108.51C149.191 108.482 149.758 108.643 150.232 108.968C150.678 109.254 151.052 109.64 151.322 110.096C151.052 109.64 150.678 109.254 150.232 108.968C149.758 108.644 149.191 108.484 148.617 108.512C148.044 108.541 147.495 108.755 147.054 109.124V109.124ZM140.623 128.05L145.105 124.228C147.065 122.636 148.802 120.787 150.27 118.731C151.586 116.793 152.3 114.878 152.429 113.038C152.524 111.9 152.274 110.761 151.712 109.768C152.274 110.762 152.524 111.903 152.429 113.041C152.314 114.878 151.586 116.793 150.27 118.731C148.804 120.787 147.067 122.636 145.108 124.228L140.603 128.033C140.139 128.589 140.024 129.155 140.265 129.67C140.285 129.72 140.31 129.767 140.339 129.812C140.312 129.768 140.285 129.718 140.261 129.67C140.021 129.155 140.139 128.589 140.603 128.033L140.623 128.05Z" fill="#FFCE00"/>
<path d="M140.126 127.206C145.566 122.123 150.822 118.931 151.489 112.912C151.32 106.582 144.807 108.558 146.466 113.885H145.985C145.616 111.719 145.985 109.988 147.038 109.09C147.479 108.721 148.027 108.507 148.601 108.479C149.174 108.45 149.742 108.61 150.216 108.934C151.401 109.686 152.027 111.157 151.932 112.97C151.719 116.311 149.319 119.937 144.801 123.75L140.286 127.6V127.616C139.439 128.616 139.656 129.487 139.859 129.917C140.109 130.354 140.507 130.686 140.979 130.856L140.827 131.195C139.588 131.032 138.255 129.03 140.126 127.206Z" fill="#DD970A"/>
<path d="M125.934 127.139C120.465 122.113 115.191 118.955 114.481 112.939C114.613 106.609 121.142 108.534 119.52 113.858L120.8 113.841C121.947 104.691 112.65 106.23 113.073 112.956C113.025 117.111 117.632 122.743 124.499 127.772C126.022 128.789 125.494 129.694 124.763 130.053L124.939 130.392L125.179 130.873C125.58 130.685 125.916 130.382 126.144 130.002C125.916 130.384 125.579 130.688 125.176 130.877L125.281 131.087C126.506 130.941 127.813 128.945 125.934 127.139ZM118.911 109.083C118.468 108.718 117.917 108.508 117.344 108.485C116.77 108.461 116.204 108.626 115.733 108.954C115.288 109.244 114.917 109.634 114.65 110.093C114.918 109.633 115.288 109.242 115.733 108.951C116.204 108.623 116.77 108.458 117.344 108.481C117.917 108.505 118.468 108.715 118.911 109.08C119.967 109.967 119.967 109.969 118.911 109.083ZM125.819 129.585C125.796 129.636 125.772 129.684 125.745 129.731C125.772 129.684 125.796 129.636 125.819 129.585C126.06 129.07 125.938 128.504 125.481 127.952L120.966 124.17C118.996 122.594 117.248 120.76 115.767 118.717C114.437 116.789 113.699 114.881 113.57 113.045C113.47 111.906 113.713 110.763 114.267 109.764C113.713 110.762 113.47 111.904 113.57 113.041C113.699 114.881 114.437 116.789 115.767 118.714C117.246 120.758 118.995 122.593 120.966 124.167L125.474 127.952C125.941 128.504 126.07 129.067 125.819 129.585V129.585Z" fill="#FFCE00"/>
<path d="M125.941 127.122C120.475 122.096 115.198 118.938 114.491 112.923C114.623 106.592 121.145 108.517 119.521 113.854H120.001C120.357 111.686 119.974 109.957 118.918 109.069C118.475 108.704 117.924 108.494 117.351 108.471C116.777 108.448 116.211 108.613 115.74 108.941C114.559 109.703 113.943 111.177 114.048 112.99C114.278 116.328 116.701 119.937 121.243 123.709L125.786 127.522C126.639 128.515 126.432 129.389 126.229 129.819C125.983 130.258 125.588 130.595 125.115 130.768L125.271 131.107C126.507 130.941 127.82 128.931 125.941 127.122Z" fill="#DD970A"/>
<path d="M120.539 106.84C120.813 117.084 123.663 125.566 129.271 130.924C129.586 131.226 129.911 131.517 130.243 131.798L130.459 131.978C130.737 132.208 131.018 132.429 131.309 132.656V132.734H134.87C134.868 132.708 134.868 132.682 134.87 132.656L135.1 132.483C135.215 132.395 135.327 132.31 135.438 132.219C135.499 132.171 135.564 132.12 135.624 132.066C142.072 126.82 145.179 117.85 145.464 106.853C145.469 106.679 145.429 106.506 145.349 106.352C145.287 106.223 145.191 106.114 145.072 106.036C144.952 105.958 144.814 105.915 144.672 105.911H121.331C121.189 105.915 121.05 105.958 120.931 106.036C120.811 106.114 120.716 106.223 120.654 106.352C120.577 106.503 120.538 106.67 120.539 106.84Z" fill="#FFCE00"/>
<path d="M141.474 144.289V144.489C141.484 144.712 141.408 144.93 141.26 145.097C141.113 145.264 140.907 145.367 140.685 145.384H124.838C124.613 145.364 124.405 145.257 124.257 145.085C124.11 144.914 124.035 144.691 124.05 144.466V144.317C124.05 144.187 124.074 144.058 124.121 143.937C124.172 143.789 124.266 143.659 124.391 143.564C124.515 143.469 124.665 143.413 124.821 143.402C127.769 143.29 129.81 142.27 131.059 140.463L131.086 140.423C131.147 140.338 131.205 140.247 131.262 140.155L131.289 140.114C131.34 140.114 131.404 139.881 131.469 139.521C131.469 139.481 131.486 139.433 131.492 139.386C131.499 139.338 131.523 139.213 131.536 139.118C131.71 137.855 131.816 136.584 131.855 135.309C131.855 134.926 131.871 134.56 131.855 134.228C131.855 134.096 131.855 133.97 131.855 133.852C131.855 133.804 131.855 133.76 131.855 133.716C131.839 133.6 131.847 133.481 131.879 133.368C131.91 133.255 131.964 133.149 132.037 133.057C132.111 132.965 132.202 132.889 132.306 132.834C132.409 132.778 132.523 132.744 132.64 132.734H133.516C133.619 132.735 133.721 132.759 133.814 132.802C133.908 132.846 133.991 132.909 134.058 132.988C134.147 133.089 134.215 133.208 134.257 133.337C134.299 133.466 134.314 133.602 134.302 133.737V133.737C134.302 133.852 134.285 133.971 134.278 134.096C134.278 134.137 134.278 134.181 134.278 134.225C134.23 135.856 134.303 137.488 134.495 139.108C134.495 139.203 134.518 139.294 134.532 139.376C134.545 139.457 134.532 139.471 134.552 139.511C134.616 139.894 134.681 140.104 134.738 140.053L134.809 140.152L134.914 140.297L135.043 140.46C136.454 142.249 138.38 143.171 140.746 143.378C140.899 143.395 141.045 143.456 141.165 143.553C141.285 143.651 141.374 143.78 141.423 143.927C141.46 144.044 141.478 144.167 141.474 144.289Z" fill="#FFCE00"/>
<path d="M131.878 133.564C132.23 133.533 132.583 133.533 132.934 133.564C133.34 133.588 133.743 133.625 134.146 133.635C134.222 133.638 134.298 133.648 134.373 133.666L134.302 133.727C134.302 133.838 134.285 133.957 134.278 134.065C134.086 134.215 133.873 134.335 133.645 134.421C133.428 134.501 133.199 134.541 132.968 134.54C132.571 134.539 132.182 134.421 131.851 134.201C131.851 134.072 131.851 133.947 131.851 133.825L131.804 133.794C131.837 133.721 131.862 133.643 131.878 133.564Z" fill="#DD970A"/>
<path d="M129.908 129.023C129.897 130.034 130.085 131.038 130.459 131.978C130.734 132.72 131.217 133.366 131.85 133.838C132.189 134.076 132.591 134.206 133.005 134.211C133.235 134.212 133.465 134.172 133.682 134.093C133.91 134.006 134.123 133.885 134.314 133.733C134.813 133.322 135.207 132.798 135.465 132.205C135.814 131.425 136.024 130.59 136.088 129.738C136.105 129.518 136.115 129.297 136.118 129.06V129.009C136.118 126.142 134.731 123.818 133.018 123.818C131.377 123.818 130.036 125.953 129.928 128.657C129.908 128.779 129.908 128.904 129.908 129.023Z" fill="#FFCE00"/>
<path d="M132.524 131.978C132.5 131.92 132.477 131.859 132.456 131.798C132.348 131.518 132.243 131.227 132.141 130.924C130.344 125.566 129.434 117.084 129.342 106.84C129.338 106.672 129.351 106.504 129.38 106.338C129.424 106.074 129.501 105.897 129.593 105.897H123.7C123.575 105.908 123.455 105.956 123.357 106.034C123.258 106.113 123.184 106.218 123.145 106.338C123.078 106.496 123.045 106.668 123.05 106.84C123.277 117.084 125.626 125.566 130.26 130.924C130.519 131.224 130.786 131.516 131.062 131.798L131.241 131.978C131.471 132.208 131.701 132.429 131.942 132.656C131.943 132.682 131.943 132.708 131.942 132.734H132.795V132.656C132.703 132.429 132.612 132.208 132.524 131.978Z" fill="#FFEFB1"/>
<path d="M133.665 133.466C133.665 133.676 133.665 133.886 133.665 134.093C133.665 135.994 133.729 137.725 133.868 139.105V139.189C133.975 139.198 134.078 139.238 134.163 139.304C134.248 139.37 134.313 139.459 134.349 139.561C134.384 139.663 134.39 139.772 134.365 139.877C134.34 139.982 134.285 140.077 134.207 140.152C134.178 140.176 134.146 140.196 134.112 140.213C135.053 143.208 137.98 144.354 141.453 144.489V144.289C141.467 144.073 141.399 143.859 141.263 143.689C141.127 143.52 140.933 143.408 140.719 143.375C138.282 143.171 136.319 142.192 134.887 140.294L134.782 140.148C134.87 140.147 134.954 140.116 135.022 140.06C135.085 140.007 135.135 139.94 135.169 139.865C135.203 139.79 135.22 139.709 135.219 139.626C135.22 139.492 135.173 139.361 135.087 139.257C135.048 139.21 134.999 139.172 134.944 139.145C134.889 139.119 134.829 139.105 134.768 139.105H134.467C134.275 137.484 134.203 135.852 134.251 134.221C134.251 134.052 134.251 133.882 134.281 133.733C134.78 133.322 135.174 132.798 135.432 132.205C142.005 126.979 145.173 117.941 145.457 106.84C145.462 106.665 145.423 106.493 145.342 106.338H145.938V104.003H142.892C142.892 104.525 142.864 105.379 142.841 105.897C142.841 106.043 142.841 106.192 142.824 106.338C142.411 114.827 140.556 122.604 136.088 129.074C135.604 129.775 135.073 130.463 134.542 131.134C134.506 131.679 134.384 132.214 134.18 132.72C134.14 132.808 134.095 132.892 134.044 132.974C133.939 133.154 133.812 133.319 133.665 133.466V133.466Z" fill="#DD970A"/>
<path d="M130.676 140.138H135.472" stroke="#DD970A" stroke-width="4.93" stroke-miterlimit="10" stroke-linecap="round"/>
<path d="M133.489 139.301H135.473" stroke="#DD970A" stroke-width="4.93" stroke-miterlimit="10" stroke-linecap="round"/>
<path d="M131.898 139.301H133.489" stroke="#FFCE00" stroke-width="4.93" stroke-miterlimit="10" stroke-linecap="round"/>
<path d="M131.303 140.138H130.676C130.464 140.125 130.265 140.031 130.12 139.876C129.974 139.72 129.894 139.516 129.894 139.303C129.894 139.09 129.974 138.885 130.12 138.73C130.265 138.575 130.464 138.481 130.676 138.467H131.824C132.284 138.467 132.162 138.84 132.162 139.301C132.162 139.413 132.14 139.524 132.096 139.627C132.053 139.73 131.989 139.824 131.909 139.902C131.829 139.98 131.734 140.041 131.63 140.081C131.526 140.122 131.414 140.141 131.303 140.138V140.138Z" fill="#DD970A"/>
<path d="M131.929 134.953H134.075" stroke="#DD970A" stroke-width="4.93" stroke-miterlimit="10" stroke-linecap="round"/>
<path d="M132.73 134.245H134.074" stroke="#DD970A" stroke-width="4.93" stroke-miterlimit="10" stroke-linecap="round"/>
<path d="M131.929 134.245H132.237" stroke="#DD970A" stroke-width="4.93" stroke-miterlimit="10" stroke-linecap="round"/>
<path d="M129.65 131.29H136.44" stroke="#DD970A" stroke-width="4.93" stroke-miterlimit="10" stroke-linecap="round"/>
<path d="M134.115 130.372H136.44" stroke="#DD970A" stroke-width="4.93" stroke-miterlimit="10" stroke-linecap="round"/>
<path d="M129.65 130.372H134.115" stroke="#FFCE00" stroke-width="4.93" stroke-miterlimit="10" stroke-linecap="round"/>
<path d="M120.519 106.782L145.484 107.619V106.169H120.519V106.782Z" fill="#DD970A"/>
<path d="M145.992 103.905H120.16V106.24H145.992V103.905Z" fill="#FFCE00"/>
<path d="M121.717 103.905C121.717 104.583 121.717 105.599 121.74 106.24H124.787C124.787 105.589 124.787 104.586 124.807 103.905H121.717Z" fill="#FFEFB1"/>
<path d="M141.474 144.289V144.489C141.484 144.712 141.408 144.93 141.26 145.097C141.113 145.264 140.907 145.367 140.685 145.384H124.838C124.613 145.364 124.405 145.257 124.257 145.085C124.11 144.914 124.035 144.691 124.05 144.466V144.317C124.05 144.187 124.074 144.058 124.121 143.937H141.409C141.45 144.05 141.472 144.169 141.474 144.289V144.289Z" fill="#C16D08"/>
<path d="M260.288 139.992L260.393 139.782C259.988 139.599 259.649 139.296 259.422 138.915C259.65 139.296 259.989 139.599 260.393 139.782L260.63 139.298L260.806 138.939C260.072 138.583 259.537 137.674 261.056 136.658C267.887 131.575 272.459 125.898 272.385 121.747C272.764 115.013 263.46 113.563 264.664 122.696H265.944C264.285 117.369 270.804 115.407 270.977 121.737C270.3 127.752 265.05 130.961 259.615 136.031C257.75 137.857 259.066 139.843 260.288 139.992ZM266.533 117.935C266.973 117.565 267.522 117.349 268.096 117.321C268.67 117.293 269.237 117.453 269.711 117.779C270.157 118.065 270.53 118.451 270.801 118.907C270.53 118.451 270.157 118.065 269.711 117.779C269.236 117.455 268.669 117.295 268.096 117.323C267.522 117.352 266.974 117.566 266.533 117.935ZM260.102 136.861L264.583 133.039C266.543 131.447 268.281 129.598 269.748 127.542C271.065 125.603 271.779 123.689 271.908 121.849C272.002 120.711 271.752 119.572 271.19 118.578C271.752 119.573 272.003 120.713 271.908 121.852C271.793 123.689 271.065 125.603 269.748 127.542C268.282 129.598 266.546 131.447 264.587 133.039L260.082 136.844C259.618 137.4 259.503 137.966 259.743 138.481C259.764 138.531 259.789 138.578 259.818 138.623C259.791 138.579 259.763 138.528 259.74 138.481C259.499 137.966 259.618 137.4 260.082 136.844L260.102 136.861Z" fill="#FFCE00"/>
<path d="M259.604 136.017C265.043 130.934 270.3 127.742 270.966 121.723C270.797 115.393 264.285 117.369 265.943 122.696H265.463C265.094 120.53 265.463 118.799 266.515 117.901C266.956 117.532 267.505 117.318 268.078 117.289C268.652 117.261 269.219 117.421 269.694 117.745C270.878 118.497 271.504 119.968 271.41 121.781C271.196 125.122 268.797 128.748 264.278 132.561L259.763 136.41V136.427C258.917 137.427 259.134 138.298 259.337 138.728C259.587 139.165 259.984 139.497 260.457 139.667L260.305 140.006C259.066 139.843 257.732 137.841 259.604 136.017Z" fill="#DD970A"/>
<path d="M245.413 135.95C239.943 130.924 234.67 127.766 233.959 121.75C234.091 115.42 240.62 117.345 238.999 122.669L240.278 122.652C241.426 113.502 232.128 115.041 232.551 121.767C232.504 125.922 237.11 131.554 243.978 136.583C245.501 137.6 244.973 138.505 244.242 138.864L244.418 139.203L244.658 139.684C245.059 139.496 245.395 139.193 245.623 138.813C245.394 139.195 245.057 139.499 244.655 139.687L244.76 139.898C245.985 139.752 247.291 137.756 245.413 135.95ZM238.39 117.894C237.946 117.529 237.396 117.319 236.822 117.296C236.249 117.272 235.683 117.437 235.211 117.765C234.766 118.054 234.395 118.444 234.128 118.904C234.396 118.444 234.767 118.053 235.211 117.762C235.683 117.434 236.249 117.269 236.822 117.292C237.396 117.316 237.946 117.526 238.39 117.891C239.446 118.778 239.446 118.78 238.39 117.894ZM245.298 138.396C245.274 138.447 245.25 138.495 245.223 138.542C245.25 138.495 245.274 138.447 245.298 138.396C245.538 137.881 245.416 137.315 244.959 136.763L240.444 132.981C238.475 131.405 236.726 129.571 235.245 127.528C233.915 125.6 233.177 123.692 233.049 121.855C232.948 120.717 233.191 119.574 233.746 118.575C233.191 119.573 232.949 120.715 233.049 121.852C233.177 123.692 233.915 125.6 235.245 127.525C236.724 129.569 238.473 131.403 240.444 132.978L244.952 136.763C245.42 137.315 245.548 137.878 245.298 138.396Z" fill="#FFCE00"/>
<path d="M245.419 135.933C239.953 130.907 234.676 127.749 233.969 121.733C234.101 115.403 240.623 117.328 238.998 122.665H239.479C239.817 120.497 239.452 118.768 238.396 117.88C237.952 117.515 237.402 117.305 236.828 117.282C236.255 117.259 235.689 117.424 235.218 117.752C234.036 118.514 233.42 119.988 233.525 121.801C233.755 125.139 236.179 128.748 240.721 132.52L245.263 136.333C246.116 137.325 245.91 138.2 245.707 138.63C245.46 139.069 245.065 139.406 244.593 139.579L244.749 139.918C245.984 139.752 247.297 137.742 245.419 135.933Z" fill="#DD970A"/>
<path d="M240.018 115.651C240.292 125.895 243.142 134.377 248.75 139.735C249.065 140.037 249.39 140.328 249.721 140.609L249.938 140.789C250.216 141.019 250.496 141.24 250.788 141.467V141.545H254.348C254.347 141.519 254.347 141.493 254.348 141.467L254.578 141.294C254.693 141.206 254.805 141.121 254.917 141.029C254.978 140.982 255.042 140.931 255.103 140.877C261.551 135.631 264.658 126.661 264.942 115.664C264.947 115.49 264.908 115.317 264.827 115.163C264.766 115.034 264.67 114.925 264.55 114.847C264.431 114.769 264.293 114.726 264.15 114.722H240.81C240.667 114.726 240.529 114.769 240.409 114.847C240.29 114.925 240.194 115.034 240.133 115.163C240.056 115.314 240.016 115.481 240.018 115.651V115.651Z" fill="#FFCE00"/>
<path d="M260.951 153.1V153.3C260.962 153.523 260.885 153.741 260.738 153.908C260.591 154.075 260.384 154.178 260.163 154.195H244.316C244.091 154.175 243.882 154.068 243.735 153.896C243.588 153.725 243.513 153.502 243.527 153.277V153.128C243.527 152.998 243.552 152.869 243.598 152.748C243.65 152.6 243.744 152.47 243.868 152.375C243.993 152.28 244.143 152.224 244.299 152.213C247.247 152.101 249.288 151.081 250.537 149.274L250.564 149.234C250.625 149.149 250.682 149.058 250.74 148.966L250.767 148.925C250.818 148.925 250.882 148.692 250.946 148.332C250.946 148.292 250.946 148.244 250.97 148.197C250.994 148.149 251 148.024 251.014 147.929C251.187 146.666 251.293 145.394 251.332 144.12C251.332 143.737 251.332 143.371 251.332 143.039C251.332 142.907 251.332 142.781 251.332 142.663C251.332 142.615 251.332 142.571 251.332 142.527C251.317 142.411 251.325 142.292 251.356 142.179C251.388 142.066 251.442 141.96 251.515 141.868C251.588 141.776 251.68 141.7 251.783 141.645C251.887 141.589 252 141.555 252.117 141.545H252.994C253.097 141.546 253.199 141.57 253.292 141.613C253.385 141.657 253.468 141.72 253.535 141.799C253.625 141.9 253.692 142.019 253.734 142.148C253.776 142.277 253.792 142.413 253.779 142.548V142.548C253.779 142.663 253.762 142.781 253.755 142.907C253.755 142.948 253.755 142.992 253.755 143.036C253.708 144.666 253.78 146.299 253.972 147.919C253.972 148.014 253.996 148.105 254.009 148.187C254.023 148.268 254.009 148.282 254.03 148.322C254.094 148.705 254.158 148.915 254.216 148.864L254.287 148.963L254.392 149.108L254.52 149.271C255.932 151.06 257.858 151.982 260.224 152.189C260.377 152.206 260.522 152.267 260.642 152.364C260.762 152.462 260.852 152.591 260.9 152.738C260.938 152.855 260.955 152.978 260.951 153.1V153.1Z" fill="#FFCE00"/>
<path d="M251.356 142.375C251.707 142.344 252.06 142.344 252.412 142.375C252.818 142.399 253.221 142.436 253.623 142.446C253.7 142.449 253.776 142.459 253.85 142.476L253.779 142.537C253.779 142.649 253.762 142.768 253.755 142.876C253.564 143.026 253.35 143.146 253.122 143.232C252.906 143.312 252.676 143.352 252.446 143.351C252.048 143.35 251.66 143.232 251.329 143.012C251.329 142.883 251.329 142.758 251.329 142.636L251.281 142.605C251.315 142.532 251.34 142.454 251.356 142.375V142.375Z" fill="#DD970A"/>
<path d="M249.386 137.834C249.376 138.845 249.563 139.849 249.938 140.789C250.212 141.531 250.695 142.177 251.329 142.649C251.667 142.887 252.07 143.017 252.483 143.022C252.714 143.023 252.943 142.983 253.16 142.903C253.388 142.817 253.602 142.696 253.793 142.544C254.291 142.133 254.686 141.609 254.944 141.016C255.292 140.236 255.503 139.401 255.566 138.549C255.583 138.329 255.594 138.108 255.597 137.871V137.82C255.597 134.953 254.209 132.629 252.497 132.629C250.855 132.629 249.515 134.763 249.406 137.468C249.386 137.59 249.386 137.715 249.386 137.834Z" fill="#FFCE00"/>
<path d="M252.002 140.789C251.979 140.731 251.955 140.67 251.935 140.609C251.826 140.329 251.721 140.038 251.62 139.735C249.823 134.377 248.912 125.895 248.821 115.651C248.817 115.483 248.829 115.315 248.858 115.149C248.902 114.885 248.98 114.708 249.071 114.708H243.179C243.053 114.719 242.934 114.767 242.835 114.845C242.736 114.924 242.663 115.029 242.624 115.149C242.556 115.307 242.524 115.478 242.529 115.651C242.756 125.895 245.105 134.377 249.738 139.735C249.998 140.035 250.265 140.327 250.54 140.609L250.72 140.789C250.95 141.019 251.18 141.24 251.42 141.467C251.422 141.493 251.422 141.519 251.42 141.545H252.273V141.467C252.182 141.24 252.09 141.019 252.002 140.789Z" fill="#FFEFB1"/>
<path d="M253.143 142.277C253.143 142.487 253.143 142.697 253.143 142.903C253.143 144.805 253.207 146.536 253.346 147.916V148C253.453 148.009 253.555 148.049 253.641 148.115C253.726 148.181 253.79 148.27 253.826 148.372C253.862 148.473 253.867 148.583 253.842 148.688C253.817 148.793 253.762 148.888 253.684 148.963C253.655 148.987 253.623 149.007 253.589 149.024C254.53 152.019 257.458 153.165 260.931 153.3V153.1C260.944 152.884 260.876 152.67 260.741 152.5C260.605 152.331 260.411 152.219 260.196 152.185C257.759 151.982 255.796 151.003 254.364 149.105L254.26 148.959C254.347 148.958 254.432 148.927 254.5 148.871C254.563 148.818 254.613 148.751 254.647 148.676C254.681 148.601 254.698 148.52 254.696 148.437C254.698 148.302 254.651 148.171 254.564 148.068C254.525 148.021 254.477 147.983 254.422 147.956C254.367 147.93 254.307 147.916 254.246 147.916H253.945C253.753 146.295 253.68 144.663 253.728 143.032C253.728 142.863 253.728 142.693 253.759 142.544C254.257 142.133 254.651 141.609 254.909 141.016C261.482 135.79 264.65 126.752 264.935 115.651C264.94 115.476 264.9 115.304 264.82 115.149H265.415V112.814H262.369C262.369 113.336 262.342 114.19 262.318 114.708C262.318 114.854 262.318 115.003 262.301 115.149C261.888 123.638 260.034 131.415 255.566 137.885C255.082 138.586 254.551 139.274 254.019 139.945C253.984 140.49 253.861 141.025 253.657 141.531C253.617 141.618 253.572 141.703 253.522 141.785C253.417 141.965 253.289 142.13 253.143 142.277V142.277Z" fill="#DD970A"/>
<path d="M250.154 148.949H254.95" stroke="#DD970A" stroke-width="4.93" stroke-miterlimit="10" stroke-linecap="round"/>
<path d="M252.967 148.112H254.95" stroke="#DD970A" stroke-width="4.93" stroke-miterlimit="10" stroke-linecap="round"/>
<path d="M251.376 148.112H252.967" stroke="#FFCE00" stroke-width="4.93" stroke-miterlimit="10" stroke-linecap="round"/>
<path d="M250.78 148.949H250.154C249.942 148.936 249.743 148.842 249.597 148.687C249.452 148.531 249.371 148.327 249.371 148.114C249.371 147.901 249.452 147.696 249.597 147.541C249.743 147.386 249.942 147.292 250.154 147.278H251.301C251.762 147.278 251.64 147.651 251.64 148.112C251.64 148.224 251.617 148.335 251.574 148.438C251.53 148.541 251.467 148.634 251.387 148.713C251.306 148.791 251.211 148.852 251.107 148.892C251.003 148.933 250.892 148.952 250.78 148.949V148.949Z" fill="#DD970A"/>
<path d="M251.406 143.764H253.552" stroke="#DD970A" stroke-width="4.93" stroke-miterlimit="10" stroke-linecap="round"/>
<path d="M252.209 143.056H253.553" stroke="#DD970A" stroke-width="4.93" stroke-miterlimit="10" stroke-linecap="round"/>
<path d="M251.406 143.056H251.714" stroke="#DD970A" stroke-width="4.93" stroke-miterlimit="10" stroke-linecap="round"/>
<path d="M249.129 140.101H255.919" stroke="#DD970A" stroke-width="4.93" stroke-miterlimit="10" stroke-linecap="round"/>
<path d="M253.593 139.183H255.918" stroke="#DD970A" stroke-width="4.93" stroke-miterlimit="10" stroke-linecap="round"/>
<path d="M249.129 139.183H253.593" stroke="#FFCE00" stroke-width="4.93" stroke-miterlimit="10" stroke-linecap="round"/>
<path d="M239.997 115.593L264.962 116.43V114.98H239.997V115.593Z" fill="#DD970A"/>
<path d="M265.469 112.716H239.638V115.051H265.469V112.716Z" fill="#FFCE00"/>
<path d="M241.195 112.716C241.195 113.394 241.195 114.41 241.219 115.051H244.265C244.265 114.4 244.265 113.397 244.285 112.716H241.195Z" fill="#FFEFB1"/>
<path d="M260.951 153.1V153.3C260.962 153.523 260.885 153.741 260.738 153.908C260.591 154.075 260.384 154.178 260.163 154.195H244.316C244.091 154.175 243.882 154.068 243.735 153.896C243.588 153.725 243.513 153.502 243.527 153.277V153.128C243.527 152.998 243.552 152.869 243.598 152.748H260.887C260.928 152.861 260.95 152.98 260.951 153.1Z" fill="#C16D08"/>
<path d="M163.051 125.071V183H219.947V125.071H163.051ZM202.746 170.949H180.252V165.06H187.359V147.228H180.252V141.724C181.296 141.727 182.339 141.662 183.376 141.531C184.236 141.437 185.077 141.208 185.867 140.853C186.579 140.536 187.189 140.026 187.63 139.382C188.047 138.698 188.28 137.917 188.307 137.115H195.794V165.053H202.739L202.746 170.949Z" fill="#FDCF1D"/>
<rect x="173" y="136" width="35" height="39" fill="#FDCF1D"/>
</g>
<defs>
<clipPath id="clip0_527_206">
<rect width="177" height="114" fill="white" transform="translate(103 69)"/>
</clipPath>
</defs>
</svg>
