<svg width="41" height="41" viewBox="0 0 41 41" fill="none" xmlns="http://www.w3.org/2000/svg">
<path d="M28.0378 5.26437C27.7846 5.01196 27.3749 5.01276 27.1226 5.26597C26.8703 5.51918 26.871 5.92894 27.1243 6.18119C29.4804 8.52917 30.4929 12.2886 29.5865 15.3235C29.4843 15.666 29.6789 16.0265 30.0215 16.1288C30.0833 16.1473 30.1456 16.156 30.207 16.156C30.4857 16.156 30.743 15.9745 30.827 15.6939C31.88 12.1676 30.7592 7.97614 28.0378 5.26437Z" fill="#FDCF1D"/>
<path d="M25.1923 3.24038C23.7434 2.53184 22.1209 2.15732 20.5 2.15732C20.1426 2.15732 19.8528 2.44696 19.8528 2.80451C19.8528 3.16206 20.1426 3.45171 20.5 3.45171C21.9248 3.45171 23.3508 3.78075 24.6235 4.40312C24.7151 4.44788 24.8119 4.4691 24.9074 4.4691C25.1468 4.4691 25.377 4.33561 25.4893 4.10603C25.6464 3.78499 25.5133 3.39733 25.1923 3.24038Z" fill="#FDCF1D"/>
<path d="M20.5001 4.31464C15.7818 4.31464 11.9431 8.1532 11.9431 12.8716C11.9431 17.5899 15.7817 21.4285 20.5001 21.4285C25.2184 21.4285 29.0569 17.59 29.0569 12.8716C29.0569 8.1532 25.2184 4.31464 20.5001 4.31464ZM20.5 20.1341C16.4954 20.1341 13.2375 16.8761 13.2375 12.8716C13.2375 8.86709 16.4955 5.6091 20.5 5.6091C24.5045 5.6091 27.7625 8.86709 27.7625 12.8716C27.7625 16.8761 24.5045 20.1341 20.5 20.1341Z" fill="#FDCF1D"/>
<path d="M39.7067 35.2973L32.6037 17.2515C33.1003 15.8837 33.3714 14.4088 33.3714 12.8716C33.3715 5.77414 27.5973 0 20.4999 0C13.4025 0 7.62829 5.77414 7.62829 12.8716C7.62829 14.4088 7.89959 15.8837 8.396 17.2515L1.29304 35.2973C1.20047 35.5325 1.25324 35.7999 1.42822 35.9823C1.60311 36.1647 1.86825 36.2286 2.10696 36.1459L9.76726 33.4948L13.5653 40.656C13.678 40.8684 13.8985 40.9999 14.137 40.9999C14.1492 40.9999 14.1613 40.9996 14.1736 40.9989C14.4259 40.9846 14.6468 40.8248 14.7394 40.5898L20.5 25.9546L26.2606 40.5898C26.3532 40.825 26.5741 40.9847 26.8265 40.999C26.8387 40.9997 26.8509 41 26.863 41C27.1016 41 27.3221 40.8685 27.4347 40.6561L31.2328 33.4949L38.8932 36.146C39.1318 36.2284 39.397 36.1647 39.572 35.9824C39.7468 35.7999 39.7992 35.5325 39.7067 35.2973ZM14.0499 38.8074L10.6511 32.3988C10.5362 32.1821 10.3132 32.0548 10.0792 32.0548C10.0089 32.0548 9.93735 32.0663 9.86768 32.0904L3.01257 34.4629C3.01257 34.4629 9.13184 18.9165 9.132 18.916C9.10622 18.9816 9.35886 19.3261 9.3985 19.3938C9.49404 19.5569 9.59317 19.7178 9.69575 19.8765C9.89963 20.1919 10.1174 20.4982 10.3482 20.7945C10.8056 21.3817 11.3143 21.929 11.8664 22.4281C12.9668 23.4225 14.2396 24.2232 15.6125 24.7844C16.7588 25.253 17.9755 25.5551 19.2076 25.6784C19.2108 25.6788 19.2139 25.6792 19.2171 25.6796L14.0499 38.8074ZM21.6981 24.3846C15.7231 24.998 10.1137 20.7723 9.09108 14.8457C8.97865 14.1941 8.92276 13.5329 8.92276 12.8716C8.92268 6.48796 14.1162 1.29439 20.4999 1.29439C26.8836 1.29439 32.0771 6.48795 32.0771 12.8716C32.0771 18.6986 27.5434 23.7601 21.7449 24.3797C21.7292 24.3813 21.7136 24.383 21.6981 24.3846ZM31.1321 32.0904C30.8307 31.9861 30.4982 32.1169 30.3486 32.3988L26.9498 38.8073L21.7826 25.6796C21.7858 25.6792 21.789 25.6788 21.7922 25.6784C23.3961 25.5177 24.9677 25.0549 26.4012 24.3174C27.7233 23.6372 28.9243 22.7262 29.9356 21.6362C30.3127 21.2298 30.6634 20.7989 30.9848 20.3471C31.1468 20.1194 31.3013 19.8864 31.4482 19.6486C31.4978 19.5682 31.9097 18.9788 31.868 18.916L37.9874 34.4629L31.1321 32.0904Z" fill="#FDCF1D"/>
</svg>
