<svg width="382" height="303" viewBox="0 0 382 303" fill="none" xmlns="http://www.w3.org/2000/svg">
<path d="M57.7686 50.6183C57.7686 50.6183 92.8124 25.7212 117.647 16.0909C145.436 5.31532 162.387 1.54575 191.77 1.50609C221.357 1.46615 238.488 5.08681 266.421 16.0909C290.868 25.7217 325.245 50.6183 325.245 50.6183C325.245 50.6183 295.173 203.61 290.953 218.79C286.732 233.97 283.322 240.953 275.39 253.02C268.273 263.846 263.355 269.398 253.759 277.427C243.582 285.944 237.055 289.966 225.007 294.393C212.54 298.974 204.882 299.657 191.77 299.751C178.047 299.85 169.962 299.318 156.951 294.393C145.197 289.944 139.068 285.576 128.99 277.427C118.918 269.283 113.166 264.244 105.777 253.02C97.9465 241.125 95.2257 233.375 91.269 218.79C87.3123 204.205 57.7686 50.6183 57.7686 50.6183Z" fill="#5B6744"/>
<path d="M65.9297 163.552L78.8287 180.548L80.7437 180.673L77.0244 162.826L65.9297 163.552Z" fill="#5B6643"/>
<path d="M56.2809 116C51.8177 115.72 48.0984 115.226 45.4975 115.006L41.4036 114.512L45.5028 114.196C48.1089 114.089 51.8336 113.756 56.302 113.672C59.4674 113.613 62.9652 113.476 66.7162 113.399L64.9858 105.112L23.6562 107.832L34.3606 121.947L68.9742 124.227L67.4179 116.774C63.3925 116.524 59.631 116.214 56.2809 116Z" fill="#5B6643"/>
<path d="M50.6147 87.8364C44.0729 87.5209 37.9531 86.9018 32.7407 86.5386C27.5284 86.1755 23.1549 85.5861 20.0792 85.3063L15.2889 84.711L20.0897 84.4848C23.1443 84.4313 27.5126 84.1872 32.7513 84.1931C37.99 84.1991 44.094 84.0562 50.6358 84.2289L60.6912 84.467L59.0557 76.6388H0L12.134 92.6285L63.0969 95.986L61.5142 88.3662L50.6147 87.8364Z" fill="#5B6643"/>
<path d="M65.6293 143.217L62.0049 142.747L65.6346 142.407C67.4283 142.312 69.8287 142.08 72.667 141.931L71.0052 133.966L44.8115 135.693L56.6185 151.248L74.8828 152.438L73.1154 143.985C70.0714 143.735 67.4969 143.39 65.6293 143.217Z" fill="#5B6643"/>
<path d="M302.57 180.548L315.469 163.552L304.743 162.844L301.029 180.649L302.57 180.548Z" fill="#5B6643"/>
<path d="M321.082 84.4848L331.354 84.2408C337.896 84.0681 344.016 84.2408 349.244 84.205C354.472 84.1693 358.845 84.4432 361.905 84.4968L366.706 84.7229L361.916 85.3182C358.867 85.598 354.53 86.1695 349.254 86.5505C343.979 86.9315 337.927 87.5328 331.386 87.8483L320.249 88.4079L318.666 95.992L369.254 92.6583L381.399 76.6388H322.712L321.082 84.4848Z" fill="#5B6643"/>
<path d="M325.683 113.672C330.151 113.756 333.876 114.089 336.482 114.196L340.581 114.512L336.487 115.006C333.886 115.226 330.157 115.72 325.704 116C322.296 116.214 318.455 116.536 314.345 116.786L312.815 124.203L347.049 121.947L357.759 107.832L316.788 105.136L315.068 113.399C318.882 113.47 322.48 113.607 325.683 113.672Z" fill="#5B6643"/>
<path d="M316.349 142.407L319.979 142.747L316.355 143.217C314.424 143.396 311.791 143.753 308.668 144.015L306.911 152.426L324.801 151.236L336.603 135.681L310.752 133.978L309.122 141.919C312.034 142.068 314.508 142.312 316.349 142.407Z" fill="#5B6643"/>
<path d="M321.082 84.4849L322.712 76.6388L328.315 49.7789C288.227 17.4196 240.174 0.0145205 190.884 0C189.908 0 188.943 0 187.967 0C139.671 0.686603 92.7212 18.0529 53.4375 49.7611L59.0561 76.6388L60.6863 84.4611L61.4987 88.3662L63.0814 95.986L64.9754 105.094L66.7058 113.381L67.4074 116.756L68.9638 124.209L70.9949 133.948L72.6567 141.913L73.0841 143.979L74.8514 152.432L77.0091 162.802L80.7338 180.661L86.8588 210.033C92.3733 236.49 105.647 260.068 124.528 276.943C143.409 293.818 166.788 303 190.874 303C214.96 303 238.339 293.818 257.219 276.943C276.1 260.068 289.374 236.49 294.889 210.033L301.019 180.638L304.712 162.832L306.88 152.414L308.637 144.003L309.075 141.907L310.726 133.978L312.815 124.203L314.361 116.786L315.068 113.399L316.788 105.136L318.698 95.9801L320.28 88.396L321.082 84.4849ZM281.863 201.955L230.758 206.331L279.985 210.539C274.549 232.492 262.896 251.833 246.804 265.611C230.712 279.388 211.067 286.844 190.867 286.84C170.667 286.836 151.024 279.372 134.937 265.588C118.849 251.804 107.202 232.458 101.773 210.504L150.573 206.337L99.9266 202.003L70.9105 62.9172L126.764 58.4048L73.5958 54.1127C107.975 29.8667 147.602 16.7564 188.141 16.2159H190.879C232.352 16.1532 273.002 29.2724 308.173 54.071L254.561 58.3988L310.848 62.9469L281.863 201.955ZM82.3059 38.4325L88.3729 34.5869L95.4054 30.4912C97.9219 29.1399 100.591 27.7588 103.382 26.3241C109.017 23.6274 115.168 20.7819 121.847 18.3769C125.165 17.0732 128.642 15.9957 132.187 14.8051C133.955 14.2098 135.775 13.7574 137.6 13.2335C139.425 12.7096 141.293 12.1858 143.155 11.7691L148.827 10.4177L154.63 9.26285C156.566 8.84615 158.539 8.57826 160.518 8.2568C162.496 7.93534 164.48 7.61982 166.49 7.42932L172.525 6.75069L178.639 6.29826C180.692 6.11372 182.696 6.11371 184.733 6.01847L187.777 5.91728C188.832 5.88156 189.834 5.91728 190.874 5.91728C199.02 5.92787 207.16 6.4346 215.258 7.43528L221.235 8.23298L227.118 9.28071C229.069 9.60217 230.995 10.0308 232.921 10.4713C234.846 10.9118 236.74 11.275 238.608 11.7691C242.338 12.7692 246.025 13.6562 249.565 14.8527C251.338 15.448 253.111 15.9183 254.841 16.5493L259.927 18.3828C261.61 18.9781 263.229 19.6389 264.838 20.2878L269.587 22.2225C272.641 23.6512 275.617 24.943 278.418 26.342C281.219 27.7409 283.91 29.0625 286.39 30.5091C288.869 31.9557 291.254 33.2415 293.427 34.5988L299.5 38.4147L304.554 41.8674L306.711 43.3497C307.381 43.8259 307.988 44.3141 308.563 44.7427L311.47 46.9572L313.892 48.8026L311.365 47.1417C309.708 46.094 307.334 44.4093 304.19 42.546L299.025 39.4029L292.768 35.9561C288.305 33.5749 283.203 31.0627 277.574 28.5148C274.762 27.2468 271.771 26.0801 268.711 24.7942C265.593 23.687 262.422 22.3713 259.083 21.2938L254.018 19.633C252.314 19.0377 250.552 18.6269 248.79 18.109C245.271 17.0553 241.626 16.21 237.933 15.2932C230.51 13.674 222.791 12.2334 214.889 11.3821C206.911 10.4385 198.895 9.98539 190.874 10.0248C189.877 10.0248 188.832 9.98912 187.877 10.0248L184.833 10.1141C182.812 10.1915 180.76 10.1796 178.777 10.3522L172.805 10.763L166.859 11.394C158.977 12.3882 151.217 13.5371 143.82 15.329C136.424 17.1208 129.301 19.0139 122.665 21.3177C116.007 23.5262 109.84 26.0801 104.168 28.5208L96.1281 32.295L88.9691 35.9561L82.7965 39.4207C80.8868 40.5042 79.188 41.6174 77.6211 42.5579C74.4821 44.4331 72.1028 46.0821 70.4515 47.1477L67.9245 48.8086L70.3407 46.9631C71.9234 45.7725 74.1972 43.9033 77.2676 41.8674C78.7818 40.8375 80.4383 39.6291 82.3059 38.4325ZM284.527 221.523C283.915 223.463 283.298 225.642 282.517 227.97C281.626 230.244 280.66 232.732 279.626 235.334C279.377 236.01 279.088 236.666 278.761 237.298L277.795 239.281L275.78 243.448C275.059 244.894 274.268 246.295 273.411 247.644L270.826 251.978C269.898 253.413 268.853 254.794 267.84 256.252L266.258 258.437C265.746 259.194 265.195 259.916 264.606 260.598C262.232 263.348 259.922 266.373 257.12 268.974C251.845 274.582 245.445 279.457 238.555 283.857L233.211 286.922C232.31 287.436 231.386 287.895 230.441 288.297L227.613 289.601L224.77 290.911C223.804 291.292 222.813 291.613 221.831 291.97C219.853 292.631 217.885 293.405 215.87 293.977C207.703 296.214 199.34 297.412 190.937 297.548L184.517 297.233C182.396 297.142 180.282 296.91 178.186 296.536L175.052 296.072L173.469 295.84L171.929 295.465L165.872 293.923C163.857 293.328 161.889 292.578 159.911 291.911C158.93 291.554 157.938 291.232 156.972 290.851L154.129 289.542L151.301 288.238C150.356 287.838 149.431 287.379 148.531 286.863L143.187 283.803C136.297 279.416 129.919 274.534 124.627 268.92C121.826 266.313 119.515 263.289 117.141 260.539C116.549 259.861 115.997 259.139 115.49 258.378L113.907 256.193C112.894 254.734 111.844 253.353 110.921 251.919C109.998 250.484 109.175 249.002 108.336 247.585C107.478 246.246 106.686 244.855 105.962 243.418C105.276 242.001 104.601 240.62 103.947 239.251C103.625 238.578 103.303 237.917 102.986 237.268C102.66 236.636 102.371 235.979 102.121 235.304C101.087 232.673 100.122 230.218 99.225 227.94C98.4442 225.606 97.8216 223.428 97.2149 221.481L96.3708 218.719C96.1334 217.844 95.9857 217.004 95.8116 216.231C95.474 214.683 95.1891 213.367 94.9569 212.296C94.498 210.158 94.25 209.021 94.25 209.021L95.1574 212.236L96.2442 216.094C96.4658 216.85 96.6715 217.677 96.9511 218.534C97.2307 219.392 97.5789 220.279 97.9166 221.225C98.6077 223.112 99.3199 225.226 100.19 227.47L103.356 234.572C103.631 235.222 103.945 235.85 104.295 236.453L105.35 238.352L107.508 242.305L108.067 243.323L108.7 244.305L109.987 246.299L112.625 250.43C113.58 251.8 114.651 253.103 115.685 254.484L117.268 256.556C117.788 257.274 118.348 257.955 118.945 258.592C121.351 261.17 123.641 264.063 126.432 266.504C131.707 271.802 138.006 276.302 144.706 280.451L149.908 283.321C150.784 283.806 151.684 284.233 152.604 284.601L155.347 285.791L158.107 286.982C159.046 287.333 160.006 287.625 160.955 287.946C162.871 288.542 164.764 289.309 166.711 289.845L172.625 291.256L174.108 291.613L175.617 291.828L178.639 292.256C180.65 292.606 182.678 292.817 184.712 292.887L190.742 293.167C198.888 293.085 207 291.969 214.925 289.839C222.665 287.458 230.167 284.482 236.935 280.404C237.363 280.166 237.795 279.939 238.217 279.689L239.441 278.862L241.879 277.225C243.513 276.197 245.098 275.072 246.627 273.855L251.101 270.284C252.546 269.093 253.87 267.706 255.231 266.456C258.022 264.015 260.317 261.098 262.718 258.538C263.315 257.901 263.875 257.221 264.395 256.503L265.978 254.431C267.033 253.056 268.088 251.746 269.038 250.383L271.676 246.251C272.515 244.882 273.459 243.638 274.155 242.251L276.313 238.298C276.667 237.661 277.009 237.03 277.368 236.405C277.72 235.804 278.034 235.176 278.307 234.524C279.447 231.988 280.502 229.621 281.473 227.422C282.348 225.172 283.055 223.053 283.752 221.166C284.089 220.213 284.411 219.32 284.717 218.475C285.023 217.629 285.203 216.796 285.424 216.04L286.511 212.188C287.102 210.093 287.413 208.974 287.413 208.974L286.711 212.248C286.479 213.32 286.184 214.629 285.857 216.189C285.683 216.963 285.53 217.814 285.297 218.689C285.065 219.564 284.823 220.552 284.527 221.523Z" fill="#FDCF1D"/>
<path d="M205.535 269.045C203.198 269.004 200.787 268.92 198.328 268.92L190.884 268.873L183.44 268.92C180.987 268.92 178.571 269.01 176.234 269.045C171.559 269.147 167.191 269.301 163.451 269.486C155.97 269.825 150.984 270.307 150.984 270.307C150.984 270.307 155.97 270.79 163.451 271.129C167.191 271.314 171.559 271.468 176.234 271.57C178.571 271.605 180.982 271.689 183.44 271.695L190.884 271.742L198.328 271.695C200.781 271.695 203.198 271.611 205.535 271.575C210.209 271.474 214.577 271.319 218.318 271.135C225.799 270.79 230.784 270.307 230.784 270.307C230.784 270.307 225.799 269.825 218.318 269.486C214.577 269.295 210.209 269.141 205.535 269.045Z" fill="#FDCF1D"/>
<path d="M180.73 193.824C180.583 193.434 180.569 193.007 180.692 192.609C180.815 192.211 181.067 191.865 181.408 191.627C182.579 190.717 184.68 190.303 184.316 181.786C184.301 181.466 184.182 181.16 183.977 180.914C183.772 180.668 183.493 180.495 183.182 180.422C182.56 180.285 181.96 180.065 181.398 179.768C181.253 179.689 181.129 179.575 181.038 179.437C180.946 179.3 180.89 179.141 180.874 178.977C180.857 178.812 180.881 178.646 180.943 178.493C181.005 178.339 181.104 178.204 181.23 178.097C181.837 177.626 182.511 176.733 182.354 175.13C182.476 172.876 182.26 170.617 181.715 168.427C181.494 167.527 181.347 166.611 181.276 165.688C181.198 164.813 181.105 163.767 181.034 162.903C181.005 162.521 180.941 162.143 180.841 161.774C180.27 159.648 179.889 157.476 179.703 155.282C179.656 154.555 179.496 153.839 179.228 153.161C178.44 151.136 176.92 146.733 177.152 143.341C177.175 143.016 177.087 142.694 176.902 142.426C176.717 142.159 176.446 141.962 176.135 141.87C174.757 141.487 172.62 140.613 172.17 138.806C172.17 138.806 171.05 131.185 174.839 128.278C174.968 128.187 175.076 128.07 175.157 127.935C175.239 127.8 175.292 127.65 175.313 127.493C175.334 127.337 175.323 127.178 175.28 127.026C175.237 126.875 175.164 126.733 175.064 126.611L174.604 126.068C173.973 125.327 173.613 124.392 173.583 123.418L173.491 120.301C173.488 120.182 173.457 120.066 173.4 119.962C173.344 119.858 173.263 119.769 173.164 119.703C173.066 119.637 172.953 119.595 172.836 119.582C172.718 119.568 172.599 119.584 172.488 119.626C171.289 120.087 169.277 120.697 168.235 120.205C168.235 120.205 163.146 118.505 162.265 115.112C162.265 115.112 161.452 110.766 164.763 108.049L165.858 107.021C166.314 106.594 166.678 106.079 166.929 105.507C167.179 104.934 167.31 104.317 167.314 103.692C167.314 102.446 167.357 100.889 167.453 99.9036L168.042 93.9293C168.042 93.9293 167.767 91.5761 172.923 90.1263C172.923 90.1263 175.863 89.13 178.896 88.1801C181.929 87.2302 181.451 86.0375 181.451 86.0375C181.451 86.0375 181.355 84.4948 182.543 83.7235C182.796 83.5541 182.994 83.3136 183.112 83.0322C183.229 82.7508 183.261 82.441 183.203 82.1416C183.095 81.4899 182.897 80.8566 182.614 80.2597C182.479 79.9866 182.283 79.7482 182.041 79.5625C181.799 79.3768 181.518 79.2489 181.219 79.1884C180.759 79.1027 180.085 78.7777 179.574 77.6993C179.574 77.6993 180.024 76.7494 180.645 77.1101L180.588 71.093C180.588 71.093 181.469 65.1866 187.474 65.0224C187.474 65.0224 192.766 64.4117 195.207 69.5718C195.207 69.5718 196.766 73.5784 196.869 74.189L197.751 75.2068C197.751 75.2068 198.025 76.0781 196.716 76.3709C196.485 76.4298 196.278 76.5573 196.122 76.7364C195.965 76.9155 195.866 77.1379 195.838 77.3743C195.688 78.5349 195.246 80.5239 193.986 81.5988C193.986 81.5988 193.833 82.9165 196.466 83.4271C197.44 83.5977 198.382 83.9193 199.257 84.3806C201.069 85.3733 204.134 87.1552 206.015 88.7979C206.997 89.4649 207.94 90.1874 208.841 90.9619C209.642 91.6926 210.149 92.6905 210.268 93.7686L210.471 95.4649C210.593 96.5012 210.914 97.5041 211.417 98.418L211.692 98.9144C211.994 99.4715 212.274 100.04 212.534 100.621L212.655 100.9C213.199 102.131 213.855 103.31 214.614 104.421C215.62 105.885 217.112 108.124 218.325 110.134C218.801 110.915 219.048 111.813 219.039 112.727C218.996 115.355 218.682 121.151 216.773 125.1C216.773 125.1 214.874 129.407 213.244 130.892C213.244 130.892 212.173 132.678 209.786 131.121L213.879 139.131L212.523 140.127L219.659 152.165L218.304 152.982L208.805 136.867C208.805 136.867 210.118 141.098 207.132 141.302C207.132 141.302 205.776 141.505 204.962 140.013C204.962 140.013 205.415 145.694 204.102 149.633L202.025 154.125C201.547 155.161 201.293 156.287 201.28 157.428L201.23 162.628C201.231 163.934 201.645 165.207 202.414 166.263C202.793 166.795 203.092 167.359 203.017 167.738C203.017 167.738 203.085 170.73 202.475 172.498C202.238 173.136 202.071 173.798 201.979 174.472L201.779 176.308C201.641 177.136 201.817 177.985 202.272 178.69C203.074 179.857 204.22 181.989 203.342 183.668C203.342 183.668 202.457 184.821 201.779 184.821C201.833 184.927 201.863 185.043 201.868 185.162C201.873 185.28 201.852 185.399 201.807 185.509C201.762 185.618 201.694 185.717 201.607 185.798C201.52 185.879 201.417 185.941 201.305 185.978C201.305 185.978 200.809 187.107 201.351 187.607H204.744C204.744 187.607 206.643 187.471 206.825 190.367L206.778 193.356V193.809H194.208L194.161 190.278L193.879 184.807C193.865 184.525 193.768 184.253 193.602 184.025C193.437 183.797 193.208 183.622 192.944 183.521C192.231 183.243 191.417 182.546 191.788 180.782C191.788 180.782 193.619 180.307 193.687 179.286C193.687 179.286 193.28 175.554 193.33 173.823C193.33 173.823 193.576 170.105 192.777 167.116C192.384 165.61 192.18 164.06 192.17 162.503C192.117 157.718 191.892 148.758 190.968 147.312C190.968 147.312 189.897 156.5 189.701 160.074C189.567 162.258 189.575 164.448 189.726 166.631C189.799 167.788 190.094 168.921 190.597 169.966C191.121 171.002 191.667 172.766 190.514 174.512C190.607 175.243 190.981 175.909 191.556 176.369C191.683 176.732 191.688 177.126 191.573 177.493C191.457 177.86 191.226 178.179 190.914 178.404C190.717 178.54 190.556 178.722 190.446 178.934C190.336 179.146 190.28 179.383 190.283 179.622L190.514 184.978L190.968 193.306C189.611 193.626 188.217 193.759 186.825 193.702C186.211 193.702 185.594 193.681 184.98 193.702L180.73 193.824Z" fill="#FDCF1D"/>
<path d="M146.38 178.526C146.672 178.924 146.877 179.381 146.98 179.865L147.729 183.811C147.764 183.986 147.808 184.16 147.861 184.332C148.194 185.404 148.737 186.398 149.459 187.257C150.53 188.456 152.343 188.578 153.367 187.324C153.742 186.849 153.998 186.291 154.112 185.696C154.303 184.667 154.198 183.604 153.809 182.632L153.206 181.011C152.944 180.289 152.635 179.586 152.282 178.904C151.636 177.672 150.48 175.051 150.969 172.801C151.015 172.622 151.115 172.462 151.255 172.343C151.396 172.223 151.57 172.15 151.754 172.134C152.182 172.073 152.731 171.634 152.874 169.87C152.954 168.784 152.758 167.695 152.303 166.706C151.683 165.328 150.933 164.012 150.062 162.778C148.716 160.847 148.13 158.487 148.418 156.15C148.541 155.114 148.739 154.089 149.01 153.082C149.407 151.646 149.377 150.124 148.924 148.704L147.283 143.705C147.283 143.705 145.606 138.499 145.927 133.756C145.989 132.62 146.438 131.54 147.201 130.696C147.704 130.153 148.346 129.725 149.038 129.875L154.815 132.51C155.908 133.01 157.096 133.268 158.298 133.267H158.58C158.71 133.268 158.839 133.242 158.959 133.193C159.079 133.143 159.189 133.071 159.281 132.979C159.373 132.887 159.446 132.778 159.496 132.657C159.546 132.537 159.572 132.408 159.572 132.278V126.5C159.572 126.256 159.475 126.021 159.302 125.849C159.129 125.676 158.895 125.579 158.651 125.579H153.656C153.485 125.578 153.318 125.527 153.176 125.432C153.034 125.337 152.923 125.202 152.857 125.044C152.792 124.886 152.774 124.712 152.807 124.544C152.84 124.376 152.922 124.222 153.042 124.1L155.75 121.39C156.018 121.123 156.23 120.806 156.375 120.457C156.521 120.107 156.595 119.733 156.596 119.355V114.784C156.599 114.128 156.363 113.493 155.932 112.998C154.202 111.006 149.445 106.242 145.891 105.071L141.966 103.575C141.966 103.575 140.121 97.3253 136.471 99.4322C132.821 101.539 130.509 101.539 130.509 101.539L131.351 97.9681C131.351 97.9681 133.246 98.8109 133.456 96.2826C133.456 96.2826 133.456 87.5052 127.772 87.016C127.772 87.016 119.776 86.3018 118.302 90.5262C118.302 90.5262 116.407 95.5256 117.945 97.5467C117.945 97.5467 119.786 99.8393 119.276 102.603C119.276 102.603 119.155 105.528 115.769 107.306C115.769 107.306 110.059 110.138 110.905 119.312V126.193H107.983V128.029H89V130.064H106.259V146.565L107.451 129.996L108.575 146.565L108.293 129.853H111.861C111.861 129.853 112.75 132.731 116.329 132.753C116.797 132.743 117.251 132.909 117.604 133.216C117.957 133.524 118.183 133.952 118.238 134.417C118.363 135.799 118.837 137.606 120.318 138.659C120.655 138.882 120.938 139.176 121.147 139.521C121.356 139.867 121.486 140.254 121.528 140.655C121.635 142.037 121.581 144.166 120.618 145.965C120.084 147.005 119.83 148.165 119.879 149.333C119.985 151.621 120.607 153.855 121.699 155.868C121.841 156.147 121.909 156.458 121.895 156.771C121.881 157.084 121.787 157.388 121.62 157.653C120.978 158.667 120.243 160.571 121.563 162.96C121.821 163.451 121.931 164.007 121.881 164.559C121.731 166.788 121.603 172.262 123.74 174.18C123.74 174.18 124.675 177.365 125.799 177.926L128.325 179.236V183.357C128.325 183.357 122.259 181.015 122.527 185.039C122.527 185.039 122.43 190.281 127.39 191.406L132.064 192.063L132.439 192.809L136.364 193.841C136.364 193.841 139.358 193.841 137.956 190.845L136.646 186.917C136.646 186.917 135.265 182.511 134.826 179.758C134.792 179.545 134.782 179.33 134.794 179.115C134.876 177.729 135.101 172.109 133.724 168.988C133.619 168.767 133.544 168.532 133.502 168.291C133.288 166.956 132.628 162.349 133.367 159.699C133.488 159.308 133.577 158.906 133.631 158.5L134.409 150.968C134.409 150.968 136.279 158.739 138.245 161.078L140.189 163.478C140.504 163.865 140.725 164.319 140.835 164.806C141.224 166.524 142.305 170.798 143.722 172.53C143.953 172.829 144.12 173.173 144.211 173.54C144.496 174.608 145.195 176.819 146.38 178.526Z" fill="#FDCF1D"/>
<path d="M236.602 178.84C236.311 179.24 236.107 179.696 236.003 180.179L235.254 184.125C235.221 184.301 235.177 184.476 235.122 184.646C234.789 185.717 234.247 186.711 233.527 187.571C232.438 188.771 230.64 188.892 229.602 187.642C229.227 187.166 228.972 186.606 228.859 186.01C228.665 184.983 228.769 183.921 229.159 182.95L229.766 181.325C230.026 180.603 230.333 179.9 230.686 179.218C231.336 177.987 232.488 175.365 231.999 173.119C231.954 172.94 231.855 172.779 231.714 172.658C231.573 172.538 231.399 172.465 231.214 172.448C230.786 172.387 230.237 171.952 230.094 170.184C230.013 169.099 230.211 168.011 230.669 167.024C231.287 165.646 232.036 164.33 232.906 163.096C234.254 161.167 234.84 158.807 234.551 156.471C234.429 155.435 234.233 154.408 233.962 153.4C233.562 151.964 233.591 150.443 234.044 149.022L235.685 144.044C235.685 144.044 237.362 138.834 237.041 134.092C236.982 132.956 236.534 131.875 235.771 131.032C235.264 130.493 234.622 130.061 233.933 130.211L228.153 132.849C227.06 133.347 225.874 133.605 224.674 133.607H224.399C224.136 133.606 223.885 133.501 223.699 133.315C223.513 133.129 223.408 132.877 223.407 132.614V126.815C223.406 126.691 223.43 126.569 223.477 126.455C223.524 126.341 223.594 126.237 223.682 126.151C223.77 126.064 223.874 125.996 223.989 125.951C224.103 125.905 224.226 125.883 224.349 125.886H229.345C229.516 125.886 229.683 125.835 229.825 125.739C229.967 125.644 230.078 125.509 230.143 125.351C230.209 125.193 230.226 125.019 230.193 124.852C230.16 124.684 230.079 124.529 229.958 124.408L227.25 121.697C226.983 121.43 226.771 121.113 226.627 120.763C226.482 120.414 226.408 120.04 226.408 119.662V115.091C226.403 114.435 226.637 113.8 227.068 113.306C228.802 111.309 233.555 106.546 237.113 105.378L241.038 103.878C241.038 103.878 242.886 97.629 246.533 99.7359C250.179 101.843 252.495 101.843 252.495 101.843L251.653 98.2718C251.653 98.2718 249.758 99.1146 249.548 96.5863C249.548 96.5863 249.548 87.8124 255.232 87.3196C255.232 87.3196 263.232 86.6055 264.702 90.8299C264.702 90.8299 266.597 95.8293 265.059 97.8504C265.059 97.8504 263.214 100.147 263.724 102.907C263.724 102.907 263.846 105.832 267.232 107.61C267.232 107.61 272.941 110.442 272.095 119.615V126.497H275.021V128.321H294V130.361H276.741V146.858L275.549 130.289L274.425 146.858L274.707 130.15H271.139C271.139 130.15 270.25 133.007 266.672 133.046C266.204 133.037 265.75 133.202 265.398 133.509C265.045 133.817 264.82 134.245 264.766 134.71C264.638 136.092 264.167 137.899 262.682 138.952C262.346 139.175 262.063 139.469 261.854 139.815C261.645 140.16 261.514 140.547 261.473 140.948C261.369 142.334 261.423 144.459 262.383 146.258C262.918 147.299 263.174 148.46 263.125 149.629C263.016 151.916 262.394 154.148 261.305 156.161C261.16 156.439 261.091 156.751 261.105 157.064C261.119 157.377 261.215 157.682 261.384 157.946C262.026 158.957 262.761 160.864 261.437 163.249C261.179 163.742 261.069 164.299 261.119 164.852C261.269 167.077 261.401 172.551 259.26 174.473C259.26 174.473 258.326 177.654 257.202 178.215L254.679 179.533V183.654C254.679 183.654 260.745 181.311 260.481 185.339C260.481 185.339 260.574 190.581 255.614 191.703L250.939 192.36L250.565 193.106L246.64 194.138C246.64 194.138 243.646 194.138 245.048 191.142L246.358 187.214C246.358 187.214 247.739 182.807 248.181 180.054C248.212 179.841 248.222 179.626 248.21 179.411C248.128 178.026 247.903 172.405 249.28 169.284C249.383 169.063 249.456 168.828 249.498 168.588C249.712 167.256 250.372 162.646 249.633 159.996C249.514 159.604 249.426 159.202 249.369 158.796L248.592 151.265C248.592 151.265 246.722 159.035 244.756 161.374L242.811 163.774C242.497 164.161 242.276 164.616 242.165 165.102C241.776 166.824 240.699 171.095 239.279 172.83C239.048 173.128 238.882 173.471 238.793 173.837C238.49 174.923 237.791 177.133 236.602 178.84Z" fill="#FDCF1D"/>
</svg>
