<svg width="382" height="303" viewBox="0 0 382 303" fill="none" xmlns="http://www.w3.org/2000/svg">
<path d="M57.7686 50.6182C57.7686 50.6182 92.8124 25.7211 117.647 16.0909C145.436 5.3153 162.387 1.54573 191.77 1.50606C221.357 1.46613 238.488 5.08678 266.421 16.0909C290.868 25.7217 325.245 50.6182 325.245 50.6182C325.245 50.6182 295.173 203.61 290.953 218.79C286.732 233.97 283.322 240.953 275.39 253.02C268.273 263.846 263.355 269.398 253.759 277.427C243.582 285.944 237.055 289.966 225.007 294.393C212.54 298.974 204.882 299.657 191.77 299.751C178.047 299.85 169.962 299.318 156.951 294.393C145.197 289.944 139.068 285.576 128.99 277.427C118.918 269.283 113.166 264.244 105.777 253.02C97.9465 241.125 95.2257 233.375 91.269 218.79C87.3123 204.205 57.7686 50.6182 57.7686 50.6182Z" fill="#5B6744"/>
<path d="M65.9297 163.552L78.8287 180.548L80.7437 180.673L77.0244 162.826L65.9297 163.552Z" fill="#5B6643"/>
<path d="M56.2809 116C51.8177 115.72 48.0984 115.226 45.4975 115.006L41.4036 114.512L45.5028 114.196C48.1089 114.089 51.8336 113.756 56.302 113.672C59.4674 113.613 62.9652 113.476 66.7162 113.399L64.9858 105.112L23.6562 107.832L34.3606 121.947L68.9742 124.227L67.4179 116.774C63.3925 116.524 59.631 116.214 56.2809 116Z" fill="#5B6643"/>
<path d="M50.6147 87.8364C44.0729 87.5209 37.9531 86.9018 32.7407 86.5386C27.5284 86.1755 23.1549 85.5861 20.0792 85.3063L15.2889 84.711L20.0897 84.4848C23.1443 84.4313 27.5126 84.1872 32.7513 84.1931C37.99 84.1991 44.094 84.0562 50.6358 84.2289L60.6912 84.467L59.0557 76.6388H0L12.134 92.6285L63.0969 95.986L61.5142 88.3662L50.6147 87.8364Z" fill="#5B6643"/>
<path d="M65.6293 143.217L62.0049 142.747L65.6346 142.407C67.4283 142.312 69.8287 142.08 72.667 141.931L71.0052 133.966L44.8115 135.693L56.6185 151.248L74.8828 152.438L73.1154 143.985C70.0714 143.735 67.4969 143.39 65.6293 143.217Z" fill="#5B6643"/>
<path d="M302.57 180.548L315.469 163.552L304.743 162.844L301.029 180.649L302.57 180.548Z" fill="#5B6643"/>
<path d="M321.082 84.4848L331.354 84.2408C337.896 84.0681 344.016 84.2408 349.244 84.205C354.472 84.1693 358.845 84.4432 361.905 84.4968L366.706 84.7229L361.916 85.3182C358.867 85.598 354.53 86.1695 349.254 86.5505C343.979 86.9315 337.927 87.5328 331.386 87.8483L320.249 88.4079L318.666 95.992L369.254 92.6583L381.399 76.6388H322.712L321.082 84.4848Z" fill="#5B6643"/>
<path d="M325.683 113.672C330.151 113.756 333.876 114.089 336.482 114.196L340.581 114.512L336.487 115.006C333.886 115.226 330.157 115.72 325.704 116C322.296 116.214 318.455 116.536 314.345 116.786L312.815 124.203L347.049 121.947L357.759 107.832L316.788 105.136L315.068 113.398C318.882 113.47 322.48 113.607 325.683 113.672Z" fill="#5B6643"/>
<path d="M316.349 142.407L319.979 142.747L316.355 143.217C314.424 143.396 311.791 143.753 308.668 144.015L306.911 152.426L324.801 151.236L336.603 135.681L310.752 133.978L309.122 141.919C312.034 142.068 314.508 142.312 316.349 142.407Z" fill="#5B6643"/>
<path d="M321.082 84.4849L322.712 76.6388L328.315 49.7789C288.227 17.4196 240.174 0.0145205 190.884 0C189.908 0 188.943 0 187.967 0C139.671 0.686603 92.7212 18.0529 53.4375 49.7611L59.0561 76.6388L60.6863 84.4611L61.4987 88.3662L63.0814 95.986L64.9754 105.094L66.7058 113.381L67.4074 116.756L68.9638 124.209L70.9949 133.948L72.6567 141.913L73.0841 143.979L74.8514 152.432L77.0091 162.802L80.7338 180.661L86.8588 210.033C92.3733 236.49 105.647 260.068 124.528 276.943C143.409 293.818 166.788 303 190.874 303C214.96 303 238.339 293.818 257.219 276.943C276.1 260.068 289.374 236.49 294.889 210.033L301.019 180.638L304.712 162.832L306.88 152.414L308.637 144.003L309.075 141.907L310.726 133.978L312.815 124.203L314.361 116.786L315.068 113.399L316.788 105.136L318.698 95.9801L320.28 88.396L321.082 84.4849ZM281.863 201.955L230.758 206.331L279.985 210.539C274.549 232.492 262.896 251.833 246.804 265.611C230.712 279.388 211.067 286.844 190.867 286.84C170.667 286.836 151.024 279.372 134.937 265.588C118.849 251.804 107.202 232.458 101.773 210.504L150.573 206.337L99.9266 202.003L70.9105 62.9172L126.764 58.4048L73.5958 54.1127C107.975 29.8667 147.602 16.7564 188.141 16.2159H190.879C232.352 16.1532 273.002 29.2724 308.173 54.071L254.561 58.3988L310.848 62.9469L281.863 201.955ZM82.3059 38.4325L88.3729 34.5869L95.4054 30.4912C97.9219 29.1399 100.591 27.7588 103.382 26.3241C109.017 23.6274 115.168 20.7819 121.847 18.3769C125.165 17.0732 128.642 15.9957 132.187 14.8051C133.955 14.2098 135.775 13.7574 137.6 13.2335C139.425 12.7096 141.293 12.1858 143.155 11.7691L148.827 10.4177L154.63 9.26285C156.566 8.84615 158.539 8.57826 160.518 8.2568C162.496 7.93534 164.48 7.61982 166.49 7.42932L172.525 6.75069L178.639 6.29826C180.692 6.11372 182.696 6.11371 184.733 6.01847L187.777 5.91728C188.832 5.88156 189.834 5.91728 190.874 5.91728C199.02 5.92787 207.16 6.4346 215.258 7.43528L221.235 8.23298L227.118 9.28071C229.07 9.60217 230.995 10.0308 232.921 10.4713C234.846 10.9118 236.74 11.275 238.608 11.7691C242.338 12.7692 246.025 13.6562 249.565 14.8527C251.338 15.448 253.111 15.9183 254.841 16.5493L259.927 18.3828C261.61 18.9781 263.229 19.6389 264.838 20.2878L269.587 22.2225C272.641 23.6512 275.617 24.943 278.418 26.342C281.219 27.7409 283.91 29.0625 286.39 30.5091C288.869 31.9557 291.254 33.2415 293.427 34.5988L299.5 38.4147L304.554 41.8674L306.711 43.3497C307.381 43.8259 307.988 44.3141 308.563 44.7427L311.47 46.9572L313.892 48.8026L311.365 47.1418C309.708 46.094 307.334 44.4093 304.19 42.546L299.025 39.4029L292.768 35.9561C288.305 33.5749 283.203 31.0627 277.574 28.5148C274.762 27.2468 271.771 26.0801 268.711 24.7942C265.593 23.687 262.422 22.3713 259.083 21.2938L254.018 19.633C252.314 19.0377 250.552 18.6269 248.79 18.109C245.271 17.0553 241.626 16.21 237.933 15.2932C230.51 13.674 222.791 12.2334 214.889 11.3821C206.911 10.4385 198.895 9.98539 190.874 10.0248C189.877 10.0248 188.832 9.98912 187.877 10.0248L184.833 10.1141C182.812 10.1915 180.76 10.1796 178.777 10.3522L172.805 10.763L166.859 11.394C158.977 12.3882 151.217 13.5371 143.82 15.329C136.424 17.1208 129.301 19.0139 122.665 21.3177C116.007 23.5262 109.84 26.0801 104.168 28.5208L96.1281 32.295L88.9691 35.9561L82.7965 39.4207C80.8868 40.5042 79.188 41.6174 77.6211 42.5579C74.4821 44.4331 72.1028 46.0821 70.4515 47.1477L67.9245 48.8086L70.3407 46.9631C71.9234 45.7725 74.1972 43.9033 77.2676 41.8674C78.7818 40.8375 80.4383 39.6291 82.3059 38.4325ZM284.527 221.523C283.915 223.463 283.298 225.642 282.517 227.97C281.626 230.244 280.66 232.732 279.626 235.334C279.377 236.01 279.088 236.666 278.761 237.298L277.795 239.281L275.78 243.448C275.059 244.894 274.268 246.295 273.411 247.644L270.826 251.978C269.898 253.413 268.853 254.794 267.84 256.253L266.258 258.437C265.746 259.194 265.195 259.916 264.606 260.598C262.232 263.348 259.922 266.373 257.12 268.974C251.845 274.582 245.445 279.457 238.555 283.857L233.211 286.922C232.31 287.436 231.386 287.895 230.441 288.297L227.613 289.601L224.77 290.911C223.804 291.292 222.813 291.613 221.831 291.97C219.853 292.631 217.885 293.405 215.87 293.977C207.703 296.214 199.34 297.412 190.937 297.548L184.517 297.233C182.396 297.142 180.282 296.91 178.186 296.536L175.052 296.072L173.469 295.84L171.929 295.465L165.872 293.923C163.857 293.328 161.889 292.578 159.911 291.911C158.93 291.554 157.938 291.232 156.972 290.851L154.129 289.542L151.301 288.238C150.356 287.838 149.431 287.379 148.531 286.863L143.187 283.803C136.297 279.416 129.919 274.534 124.627 268.92C121.826 266.313 119.515 263.289 117.141 260.539C116.549 259.861 115.997 259.139 115.49 258.378L113.907 256.193C112.894 254.734 111.844 253.353 110.921 251.919C109.998 250.484 109.175 249.002 108.336 247.585C107.478 246.246 106.686 244.855 105.962 243.418C105.276 242.001 104.601 240.62 103.947 239.251C103.625 238.578 103.303 237.917 102.986 237.268C102.66 236.636 102.371 235.979 102.121 235.304C101.087 232.673 100.122 230.218 99.225 227.94C98.4442 225.606 97.8216 223.428 97.2149 221.481L96.3708 218.719C96.1334 217.844 95.9857 217.004 95.8116 216.231C95.474 214.683 95.1891 213.367 94.9569 212.296C94.498 210.158 94.25 209.021 94.25 209.021L95.1574 212.236L96.2442 216.094C96.4658 216.85 96.6715 217.677 96.9511 218.534C97.2307 219.392 97.5789 220.279 97.9166 221.225C98.6077 223.112 99.3199 225.226 100.19 227.47L103.356 234.572C103.631 235.222 103.945 235.85 104.295 236.453L105.35 238.352L107.508 242.305L108.067 243.323L108.7 244.305L109.987 246.299L112.625 250.43C113.58 251.8 114.651 253.103 115.685 254.484L117.268 256.556C117.788 257.274 118.348 257.955 118.945 258.592C121.351 261.17 123.641 264.063 126.432 266.504C131.707 271.802 138.006 276.302 144.706 280.451L149.908 283.321C150.784 283.806 151.684 284.233 152.604 284.601L155.347 285.791L158.107 286.982C159.046 287.333 160.006 287.625 160.955 287.946C162.871 288.542 164.764 289.309 166.711 289.845L172.625 291.256L174.108 291.613L175.617 291.828L178.639 292.256C180.65 292.606 182.678 292.817 184.712 292.887L190.742 293.167C198.888 293.085 207 291.969 214.925 289.839C222.665 287.458 230.167 284.482 236.936 280.404C237.363 280.166 237.795 279.939 238.217 279.689L239.441 278.862L241.879 277.225C243.513 276.197 245.098 275.072 246.627 273.855L251.101 270.284C252.546 269.093 253.87 267.706 255.231 266.456C258.022 264.015 260.317 261.098 262.718 258.538C263.315 257.901 263.875 257.221 264.395 256.503L265.978 254.431C267.033 253.056 268.088 251.746 269.038 250.383L271.676 246.251C272.515 244.882 273.459 243.638 274.155 242.251L276.313 238.298C276.667 237.661 277.009 237.03 277.368 236.405C277.72 235.804 278.034 235.176 278.307 234.524C279.447 231.988 280.502 229.621 281.473 227.422C282.348 225.172 283.055 223.053 283.752 221.166C284.089 220.213 284.411 219.32 284.717 218.475C285.023 217.63 285.203 216.796 285.424 216.04L286.511 212.188C287.102 210.093 287.413 208.974 287.413 208.974L286.711 212.248C286.479 213.32 286.184 214.629 285.857 216.189C285.683 216.963 285.53 217.814 285.298 218.689C285.065 219.564 284.823 220.552 284.527 221.523Z" fill="#FDCF1D"/>
<path d="M205.535 269.045C203.198 269.004 200.787 268.92 198.328 268.92L190.884 268.873L183.44 268.92C180.987 268.92 178.571 269.01 176.234 269.045C171.559 269.147 167.191 269.301 163.451 269.486C155.97 269.825 150.984 270.307 150.984 270.307C150.984 270.307 155.97 270.79 163.451 271.129C167.191 271.314 171.559 271.468 176.234 271.57C178.571 271.605 180.982 271.689 183.44 271.695L190.884 271.742L198.328 271.695C200.781 271.695 203.198 271.611 205.535 271.575C210.209 271.474 214.577 271.319 218.318 271.135C225.799 270.79 230.784 270.307 230.784 270.307C230.784 270.307 225.799 269.825 218.318 269.486C214.577 269.295 210.209 269.141 205.535 269.045Z" fill="#FDCF1D"/>
</svg>
