<svg width="66" height="37" viewBox="0 0 66 37" fill="none" xmlns="http://www.w3.org/2000/svg">
<path d="M11.3085 11.7607C11.3114 11.7608 11.3175 11.7608 11.3264 11.7607C11.3482 11.7606 11.3869 11.7597 11.44 11.7563C11.5466 11.7496 11.7089 11.7329 11.908 11.6927C12.3081 11.6118 12.8396 11.4395 13.3688 11.0758C14.3711 10.3871 15.5957 8.84945 15.5957 5.2316C15.5957 3.67465 15.1912 2.66429 14.5543 2.03632C13.9149 1.40593 12.8784 1 11.2746 1C9.71225 1 8.66033 1.40388 8.00302 2.04183C7.35258 2.67311 6.93597 3.68207 6.95159 5.22096L11.3085 11.7607ZM11.3085 11.7607L11.2872 11.7599L11.2593 11.7603C9.96492 11.7802 8.95445 11.2437 8.22354 10.2073C7.46419 9.13055 6.97546 7.45896 6.9516 5.2214L11.3085 11.7607ZM11.3064 11.7607L11.3063 11.7607L11.3064 11.7607Z" stroke="#FADD3F" stroke-width="2"/>
<path d="M14.7244 14.7704L14.8481 14.8747L14.9985 14.9347L20.3105 17.0522C20.3177 17.0569 20.3626 17.0873 20.4347 17.1893C20.5292 17.3229 20.6338 17.528 20.7376 17.8153C20.9457 18.3912 21.0995 19.1503 21.2123 19.9612C21.3239 20.7627 21.3894 21.5674 21.4365 22.2195C21.4416 22.2897 21.4465 22.359 21.4512 22.4267H1.09376C1.09852 22.3587 1.10344 22.2892 1.10851 22.2187C1.15544 21.5664 1.22067 20.7619 1.33196 19.9605C1.44457 19.1496 1.59806 18.3908 1.80589 17.815C1.90956 17.5278 2.01398 17.3227 2.10837 17.1892C2.18035 17.0874 2.22517 17.0569 2.23246 17.0522L7.54418 14.9345L7.69448 14.8746L7.81821 14.7703L8.94416 13.8215L10.5696 15.4334L11.2747 16.1326L11.9788 15.4324L13.5987 13.8216L14.7244 14.7704ZM13.7097 13.7112C13.7097 13.7112 13.7097 13.7112 13.7097 13.7112L13.7097 13.7112Z" stroke="#FADD3F" stroke-width="2"/>
<path d="M54.7613 11.7607C54.7643 11.7608 54.7703 11.7608 54.7793 11.7607C54.801 11.7606 54.8397 11.7597 54.8928 11.7563C54.9994 11.7496 55.1618 11.7329 55.3609 11.6927C55.761 11.6118 56.2925 11.4395 56.8217 11.0758C57.824 10.3871 59.0486 8.84945 59.0486 5.2316C59.0486 3.67465 58.644 2.66429 58.0071 2.03632C57.3678 1.40593 56.3313 1 54.7275 1C53.1651 1 52.1132 1.40388 51.4559 2.04182C50.8055 2.67309 50.3889 3.68206 50.4047 5.22102L54.7613 11.7607ZM54.7613 11.7607L54.7401 11.7599L54.7121 11.7603C53.4178 11.7802 52.4073 11.2437 51.6764 10.2073C50.9171 9.13056 50.4284 7.45893 50.4047 5.22131L54.7613 11.7607ZM54.7593 11.7607L54.7592 11.7607L54.7593 11.7607Z" stroke="#FADD3F" stroke-width="2"/>
<path d="M58.1785 14.7704L58.3022 14.8747L58.4526 14.9347L63.7645 17.0522C63.7718 17.0568 63.8166 17.0873 63.8887 17.1893C63.9832 17.3228 64.0877 17.528 64.1915 17.8153C64.3996 18.3912 64.5534 19.1503 64.6663 19.9612C64.7779 20.7627 64.8434 21.5674 64.8905 22.2196C64.8956 22.2898 64.9005 22.359 64.9053 22.4267H44.5479C44.5526 22.3587 44.5575 22.2891 44.5626 22.2186C44.6095 21.5663 44.6748 20.7618 44.7861 19.9604C44.8987 19.1496 45.0522 18.3907 45.26 17.815C45.3637 17.5278 45.4681 17.3227 45.5625 17.1892C45.6344 17.0874 45.6793 17.0569 45.6866 17.0522L50.9984 14.9345L51.1487 14.8746L51.2725 14.7703L52.3983 13.8215L54.0237 15.4334L54.7288 16.1326L55.4329 15.4324L57.0528 13.8216L58.1785 14.7704Z" stroke="#FADD3F" stroke-width="2"/>
<path d="M33.1773 19.7535L33.1788 19.7535C33.1794 19.7535 33.1803 19.7535 33.1814 19.7535C33.1875 19.7536 33.2002 19.7538 33.219 19.7536C33.2566 19.7533 33.3185 19.7519 33.4013 19.7466C33.5671 19.7361 33.814 19.7106 34.1145 19.6499C34.7176 19.528 35.5197 19.2682 36.3195 18.7186C37.8631 17.658 39.6288 15.3547 39.6288 10.1616C39.6288 7.90401 39.0414 6.3616 38.0425 5.37674C37.0411 4.38943 35.4633 3.80176 33.1429 3.80176C30.8789 3.80176 29.2821 4.38738 28.257 5.38223C27.2389 6.3704 26.6317 7.91139 26.6544 10.1509L33.1773 19.7535ZM33.1773 19.7535L33.1555 19.7525M33.1773 19.7535L33.1555 19.7525M33.1555 19.7525L33.1276 19.753M33.1555 19.7525L33.1276 19.753M33.1276 19.753C31.1685 19.783 29.6218 18.9606 28.5183 17.3959M33.1276 19.753L28.5183 17.3959M28.5183 17.3959C27.3863 15.7909 26.6886 13.3486 26.6544 10.1514L28.5183 17.3959Z" stroke="#FADD3F" stroke-width="2"/>
<path d="M46.0125 26.7184L46.0133 26.7187C46.0758 26.7435 46.1997 26.8217 46.3622 27.0515C46.5235 27.2794 46.6854 27.6046 46.8387 28.0287C47.1457 28.8784 47.3667 29.979 47.5269 31.1298C47.6858 32.2712 47.7787 33.4141 47.8451 34.3336C47.8572 34.5014 47.8686 34.6639 47.8794 34.818C47.8853 34.9017 47.8909 34.9829 47.8965 35.0612H18.3849C18.3905 34.9818 18.3962 34.8994 18.4021 34.8144C18.4128 34.661 18.4241 34.4993 18.4361 34.3325C18.5023 33.4129 18.5948 32.2702 18.7533 31.129C18.9131 29.9785 19.1337 28.8782 19.4403 28.0287C19.5934 27.6046 19.7552 27.2796 19.9163 27.0516C20.0787 26.8219 20.2026 26.7436 20.2652 26.7187L20.2655 26.7186L27.745 23.7363L27.8953 23.6764L28.019 23.5722L29.7705 22.0965L29.7711 22.096C29.8376 22.0399 29.9343 22.0444 29.9949 22.1047L29.9957 22.1055L32.4383 24.5273L33.1433 25.2264L33.8474 24.5263L36.2829 22.1049L36.2834 22.1044C36.3444 22.0437 36.4414 22.0399 36.5069 22.0952L36.5079 22.0961L38.2589 23.5721L38.3827 23.6764L38.5331 23.7364L46.0125 26.7184Z" stroke="#FADD3F" stroke-width="2"/>
</svg>
