<svg width="45" height="45" viewBox="0 0 45 45" fill="none" xmlns="http://www.w3.org/2000/svg">
<g clip-path="url(#clip0_335_143)">
<path d="M13.1022 44.25H8.07718C5.60222 44.25 3.57716 41.85 3.57716 39V33.75L3.50219 31.575C3.42722 29.325 3.05219 27.15 2.67717 24.975C2.15221 22.5 2.15221 19.8751 2.67717 17.2501L3.27719 14.25C3.42722 13.3501 4.10221 12.75 4.85217 12.75H16.3272C17.0771 12.75 17.6772 13.3501 17.9022 14.1751L18.5022 17.2501C19.0272 19.8001 19.0272 22.5 18.5772 25.0501C18.2021 27.2251 17.8272 29.4001 17.7521 31.65L17.6021 33.7501V39.0001C17.6022 41.9249 15.5771 44.25 13.1022 44.25Z" fill="#FCCE1D"/>
<path d="M3.57727 39V33.75L3.50231 31.575C3.42734 29.325 3.05231 27.15 2.67729 24.975C2.15232 22.5 2.15232 19.875 2.67729 17.2501L3.27731 14.25C3.42734 13.425 4.10233 12.825 4.77732 12.825H3.80227C2.90228 12.825 2.15223 13.425 2.0023 14.25L1.25234 17.2501C0.652315 19.8001 0.652315 22.5 1.17737 25.0501C1.62736 27.2251 2.00239 29.4001 2.15232 31.65L2.30235 33.7501V39.0001C2.30235 41.925 4.70235 44.25 7.55234 44.25H8.00233C5.60234 44.2499 3.57727 41.9249 3.57727 39Z" fill="white"/>
<path d="M19.8521 17.25L19.1771 14.2499C18.9521 13.4249 18.2022 12.8249 17.3772 12.8249H16.3272C17.0771 12.8249 17.6771 13.4249 17.9021 14.2499L18.5022 17.3249C19.0271 19.875 19.0271 22.5749 18.5771 25.1249C18.2021 27.2999 17.8272 29.4749 17.7521 31.7249L17.6021 33.7499V38.9999C17.6021 41.9248 15.5771 44.2499 13.1021 44.2499H13.552C16.477 44.2499 18.802 41.8499 18.802 38.9999V33.7499L18.9521 31.5749C19.1021 29.3249 19.477 27.1499 19.927 24.9749C20.4522 22.5 20.4522 19.875 19.8521 17.25Z" fill="#FD9808"/>
<path d="M7.55225 12.75H4.6272V2.24996C4.6272 1.42494 5.30219 0.749954 6.12721 0.749954C6.95222 0.749954 7.62722 1.42494 7.62722 2.24996V12.7499H7.55225V12.75Z" fill="#FCCE1D"/>
<path d="M12.8772 12.75H9.8772V9.75001C9.8772 8.92499 10.5522 8.25 11.3772 8.25C12.2022 8.25 12.8772 8.92499 12.8772 9.75001V12.75Z" fill="#FCCE1D"/>
<path d="M18.1272 12.75H15.1272V9.75001C15.1272 8.92499 15.8022 8.25 16.6272 8.25C17.4522 8.25 18.1272 8.92499 18.1272 9.75001V12.75Z" fill="#FCCE1D"/>
<path d="M15.0522 23.25H17.3022V15.75H15.0522V23.25Z" fill="#33A9F8"/>
<path d="M3.80225 23.25H15.0523V15.75H3.80225V23.25Z" fill="#54C9FD"/>
<path d="M37.0271 44.25H32.0021C29.5272 44.25 27.5021 41.85 27.5021 39V33.75L27.4271 31.575C27.3522 29.325 26.9771 27.15 26.6021 24.975C26.1521 22.425 26.1521 19.725 26.6771 17.175L27.2771 14.1C27.4271 13.275 28.1021 12.675 28.8521 12.675H40.3271C41.0771 12.675 41.6771 13.275 41.9021 14.1L42.5021 17.175C43.0271 19.725 43.0271 22.425 42.5771 24.975C42.202 27.15 41.8271 29.325 41.752 31.575L41.527 33.75V39C41.5271 41.9249 39.5021 44.25 37.0271 44.25Z" fill="#FCCE1D"/>
<path d="M27.5021 39V33.75L27.4271 31.575C27.3521 29.325 26.9771 27.15 26.6021 24.975C26.1521 22.425 26.1521 19.725 26.677 17.175L27.2771 14.1C27.4271 13.275 28.1021 12.675 28.7771 12.675H27.7271C26.8271 12.675 26.077 13.275 25.9271 14.1L25.2521 17.25C24.6521 19.8 24.6521 22.5 25.1771 25.05C25.6271 27.225 26.0021 29.4 26.1521 31.6499L26.3021 33.75V39C26.3021 41.9249 28.7021 44.25 31.5521 44.25H32.0021C29.5271 44.25 27.5021 41.9249 27.5021 39Z" fill="white"/>
<path d="M43.8522 17.25L43.1773 14.2499C42.9523 13.35 42.2023 12.7499 41.3022 12.7499H40.2522C41.0022 12.7499 41.6022 13.35 41.8272 14.175L42.4272 17.25C42.9522 19.8 42.9522 22.5 42.5022 25.05C42.1271 27.225 41.7522 29.4 41.6772 31.6499L41.5271 33.75V39C41.5271 41.9249 39.5022 44.25 37.0271 44.25H37.5521C40.477 44.25 42.802 41.85 42.802 39V33.75L42.9521 31.575C43.1021 29.325 43.477 27.15 43.927 24.975C44.4523 22.5 44.4523 19.875 43.8522 17.25Z" fill="#FD9808"/>
<path d="M31.5523 12.75H28.5522V2.24996C28.5522 1.42494 29.2272 0.749954 30.0523 0.749954C30.8773 0.749954 31.5523 1.42494 31.5523 2.24996V12.75Z" fill="#FCCE1D"/>
<path d="M36.8023 12.75H33.8022V9.75001C33.8022 8.92499 34.4772 8.25 35.3023 8.25C36.1273 8.25 36.8023 8.92499 36.8023 9.75001V12.75Z" fill="#FCCE1D"/>
<path d="M42.0523 12.75H39.0522V9.75001C39.0522 8.92499 39.7272 8.25 40.5523 8.25C41.3773 8.25 42.0523 8.92499 42.0523 9.75001V12.75Z" fill="#FCCE1D"/>
<path d="M39.0522 23.25H41.3023V15.75H39.0522V23.25Z" fill="#33A9F8"/>
<path d="M27.8022 23.25H39.0522V15.75H27.8022V23.25Z" fill="#54C9FD"/>
<path d="M13.5522 45H7.55221C4.25223 45 1.55218 42.3 1.55218 39V33.75L1.40215 31.65C1.32718 29.7749 1.02712 27.7499 0.427191 25.1999C-0.17283 22.5749 -0.0977715 19.7249 0.502161 17.0999L1.17715 14.025C1.47712 12.825 2.52713 12 3.80214 12H17.3771C18.5771 12 19.6271 12.825 19.9271 14.025L20.6021 17.0999C21.2021 19.7249 21.2021 22.5749 20.6771 25.1999C20.1521 27.7499 19.8521 29.7749 19.7021 31.65L19.5521 33.825V39C19.5522 42.3 16.8521 45 13.5522 45ZM3.80214 13.5C3.27718 13.5 2.82719 13.875 2.75213 14.4L2.07714 17.475C1.47712 19.9499 1.47712 22.5 2.00217 24.9749C2.60219 27.5999 2.90216 29.6999 2.97713 31.65L3.0521 33.75V39C3.0521 41.4749 5.07707 43.5 7.55212 43.5H13.5522C16.0271 43.5 18.0522 41.475 18.0522 39V33.75L18.2022 31.575C18.2772 29.625 18.6522 27.5249 19.1772 24.9C19.7021 22.425 19.7021 19.875 19.1022 17.4L18.4272 14.325C18.2772 13.8 17.7522 13.5 17.3022 13.5H3.80214Z" fill="black"/>
<path d="M7.55221 13.5H4.62716C4.17716 13.5 3.8772 13.2 3.8772 12.75V2.24997C3.8772 1.05002 4.85215 0 6.12717 0C7.32721 0 8.37713 0.974957 8.37713 2.24997V12.7499C8.30217 13.2 8.0022 13.5 7.55221 13.5ZM5.37721 12H6.80225V2.24997C6.80225 1.87494 6.50228 1.50001 6.05229 1.50001C5.67726 1.50001 5.30233 1.79998 5.30233 2.24997L5.37721 12Z" fill="black"/>
<path d="M12.8772 13.5H9.87716C9.42716 13.5 9.1272 13.2 9.1272 12.75V9.75001C9.1272 8.475 10.1022 7.50005 11.3772 7.50005C12.6522 7.50005 13.6271 8.475 13.6271 9.75001V12.75C13.6272 13.2 13.2522 13.5 12.8772 13.5ZM10.6272 12H12.1272V9.75001C12.1272 9.30002 11.8272 9.00005 11.3773 9.00005C10.9273 9.00005 10.6273 9.30002 10.6273 9.75001V12H10.6272Z" fill="black"/>
<path d="M18.1272 13.5H15.1272C14.6772 13.5 14.3772 13.2 14.3772 12.75V9.75001C14.3772 8.475 15.3522 7.50005 16.6272 7.50005C17.9022 7.50005 18.8771 8.475 18.8771 9.75001V12.75C18.8772 13.2 18.5022 13.5 18.1272 13.5ZM15.8772 12H17.3772V9.75001C17.3772 9.30002 17.0772 9.00005 16.6273 9.00005C16.1773 9.00005 15.8773 9.30002 15.8773 9.75001V12H15.8772Z" fill="black"/>
<path d="M17.3022 24H3.80221C3.35221 24 3.05225 23.7 3.05225 23.25V15.7501C3.05225 15.3001 3.35221 15.0001 3.80221 15.0001H17.3022C17.7522 15.0001 18.0522 15.3001 18.0522 15.7501V23.25C18.0522 23.7 17.7522 24 17.3022 24ZM4.55225 22.5H16.5522V16.4999H4.55225V22.5Z" fill="black"/>
<path d="M7.55221 34.4999H6.05221C5.60221 34.4999 5.30225 34.2 5.30225 33.75C5.30225 33.3 5.60221 33 6.05221 33H7.55221C8.00221 33 8.30217 33.3 8.30217 33.75C8.30217 34.2 8.00221 34.4999 7.55221 34.4999Z" fill="black"/>
<path d="M6.05217 27H3.80221C3.35221 27 3.05225 26.7 3.05225 26.25C3.05225 25.8 3.35221 25.5001 3.80221 25.5001H6.05217C6.50217 25.5001 6.80213 25.8 6.80213 26.25C6.80213 26.7 6.50217 27 6.05217 27Z" fill="black"/>
<path d="M11.3022 34.4999H9.80221C9.35221 34.4999 9.05225 34.2 9.05225 33.75C9.05225 33.3 9.35221 33 9.80221 33H11.3022C11.7522 33 12.0522 33.3 12.0522 33.75C12.0522 34.2 11.7522 34.4999 11.3022 34.4999Z" fill="black"/>
<path d="M15.0522 34.4999H13.5522C13.1022 34.4999 12.8022 34.2 12.8022 33.75C12.8022 33.3 13.1022 33 13.5522 33H15.0522C15.5022 33 15.8022 33.3 15.8022 33.75C15.8022 34.2 15.5022 34.4999 15.0522 34.4999Z" fill="black"/>
<path d="M7.55221 31.5H6.05221C5.60221 31.5 5.30225 31.2 5.30225 30.75C5.30225 30.3001 5.60221 30.0001 6.05221 30.0001H7.55221C8.00221 30.0001 8.30217 30.3001 8.30217 30.75C8.30217 31.2 8.00221 31.5 7.55221 31.5Z" fill="black"/>
<path d="M11.3022 31.5H9.80221C9.35221 31.5 9.05225 31.2 9.05225 30.75C9.05225 30.3001 9.35221 30.0001 9.80221 30.0001H11.3022C11.7522 30.0001 12.0522 30.3001 12.0522 30.75C12.0522 31.2 11.7522 31.5 11.3022 31.5Z" fill="black"/>
<path d="M15.0522 31.5H13.5522C13.1022 31.5 12.8022 31.2 12.8022 30.75C12.8022 30.3001 13.1022 30.0001 13.5522 30.0001H15.0522C15.5022 30.0001 15.8022 30.3001 15.8022 30.75C15.8023 31.2 15.5022 31.5 15.0522 31.5Z" fill="black"/>
<path d="M7.55221 37.5H6.05221C5.60221 37.5 5.30225 37.2 5.30225 36.75C5.30225 36.3 5.60221 36 6.05221 36H7.55221C8.00221 36 8.30217 36.3 8.30217 36.75C8.30217 37.2 8.00221 37.5 7.55221 37.5Z" fill="black"/>
<path d="M11.3022 37.5H9.80221C9.35221 37.5 9.05225 37.2 9.05225 36.75C9.05225 36.3 9.35221 36 9.80221 36H11.3022C11.7522 36 12.0522 36.3 12.0522 36.75C12.0522 37.2 11.7522 37.5 11.3022 37.5Z" fill="black"/>
<path d="M15.0522 37.5H13.5522C13.1022 37.5 12.8022 37.2 12.8022 36.75C12.8022 36.3 13.1022 36 13.5522 36H15.0522C15.5022 36 15.8022 36.3 15.8022 36.75C15.8023 37.2 15.5022 37.5 15.0522 37.5Z" fill="black"/>
<path d="M7.55221 40.5H6.05221C5.60221 40.5 5.30225 40.2 5.30225 39.75C5.30225 39.3 5.60221 39.0001 6.05221 39.0001H7.55221C8.00221 39.0001 8.30217 39.3 8.30217 39.75C8.30217 40.1999 8.00221 40.5 7.55221 40.5Z" fill="black"/>
<path d="M11.3022 40.5H9.80221C9.35221 40.5 9.05225 40.2 9.05225 39.75C9.05225 39.3 9.35221 39.0001 9.80221 39.0001H11.3022C11.7522 39.0001 12.0522 39.3 12.0522 39.75C12.0522 40.1999 11.7522 40.5 11.3022 40.5Z" fill="black"/>
<path d="M15.0522 40.5H13.5522C13.1022 40.5 12.8022 40.2 12.8022 39.75C12.8022 39.3 13.1022 39.0001 13.5522 39.0001H15.0522C15.5022 39.0001 15.8022 39.3 15.8022 39.75C15.8023 40.1999 15.5022 40.5 15.0522 40.5Z" fill="black"/>
<path d="M17.3022 27H8.30221C7.85221 27 7.55225 26.7 7.55225 26.25C7.55225 25.8 7.85221 25.5001 8.30221 25.5001H17.3022C17.7522 25.5001 18.0521 25.8 18.0521 26.25C18.0521 26.7 17.7522 27 17.3022 27Z" fill="black"/>
<path d="M37.5522 45H31.5522C28.2522 45 25.5522 42.3 25.5522 39V33.75L25.4021 31.65C25.3272 29.7749 25.0271 27.7499 24.4272 25.1999C23.8272 22.5749 23.9022 19.7249 24.5022 17.0999L25.1772 14.025C25.4771 12.8249 26.5271 12 27.7272 12H41.3021C42.5022 12 43.5521 12.825 43.8522 14.025L44.5272 17.0999C45.1272 19.7249 45.1272 22.5749 44.6021 25.1999C44.0772 27.7499 43.7771 29.7749 43.6272 31.65L43.5522 33.825V39C43.5523 42.3 40.8523 45 37.5522 45ZM27.8023 13.5C27.2774 13.5 26.8274 13.875 26.7523 14.4L26.0773 17.475C25.4773 19.9499 25.4773 22.5 26.0023 24.9749C26.5273 27.5999 26.9023 29.6999 26.9773 31.65L27.0523 33.75V39C27.0523 41.4749 29.0772 43.5 31.5523 43.5H37.5523C40.0273 43.5 42.0524 41.475 42.0524 39V33.75L42.2024 31.575C42.2774 29.625 42.6524 27.5249 43.1773 24.9C43.7023 22.425 43.7023 19.875 43.1024 17.4L42.4274 14.325C42.2774 13.8 41.7524 13.5 41.3024 13.5H27.8023Z" fill="black"/>
<path d="M31.5521 13.5H28.6272C28.1772 13.5 27.8772 13.2 27.8772 12.75V2.24997C27.8772 1.04993 28.8522 0 30.1272 0C31.4022 0 32.3771 0.974957 32.3771 2.24997V12.7499C32.3021 13.2 32.0021 13.5 31.5521 13.5ZM29.3771 12H30.8022V2.24997C30.8022 1.87494 30.5022 1.50001 30.0522 1.50001C29.6022 1.50001 29.3022 1.79998 29.3022 2.24997L29.3771 12Z" fill="black"/>
<path d="M36.8772 13.5H33.8772C33.4272 13.5 33.1272 13.2 33.1272 12.75V9.75001C33.1272 8.475 34.1022 7.50005 35.3772 7.50005C36.6522 7.50005 37.6271 8.475 37.6271 9.75001V12.75C37.6272 13.2 37.2522 13.5 36.8772 13.5ZM34.6272 12H36.1272V9.75001C36.1272 9.30002 35.8272 9.00005 35.3773 9.00005C34.9273 9.00005 34.6273 9.30002 34.6273 9.75001V12H34.6272Z" fill="black"/>
<path d="M42.1272 13.5H39.1272C38.6772 13.5 38.3772 13.2 38.3772 12.75V9.75001C38.3772 8.475 39.3522 7.50005 40.6272 7.50005C41.9022 7.50005 42.8771 8.475 42.8771 9.75001V12.75C42.8772 13.2 42.5022 13.5 42.1272 13.5ZM39.8772 12H41.3772V9.75001C41.3772 9.30002 41.0772 9.00005 40.6273 9.00005C40.1773 9.00005 39.8773 9.30002 39.8773 9.75001V12H39.8772Z" fill="black"/>
<path d="M41.3022 24H27.8022C27.3522 24 27.0522 23.7 27.0522 23.25V15.7501C27.0522 15.3001 27.3522 15.0001 27.8022 15.0001H41.3022C41.7522 15.0001 42.0522 15.3001 42.0522 15.7501V23.25C42.0522 23.7 41.7522 24 41.3022 24ZM28.5522 22.5H40.5521V16.4999H28.5522V22.5Z" fill="black"/>
<path d="M31.5522 34.4999H30.0522C29.6022 34.4999 29.3022 34.2 29.3022 33.75C29.3022 33.3 29.6022 33 30.0522 33H31.5522C32.0022 33 32.3022 33.3 32.3022 33.75C32.3022 34.2 32.0022 34.4999 31.5522 34.4999Z" fill="black"/>
<path d="M30.0522 27H27.8022C27.3522 27 27.0522 26.7 27.0522 26.25C27.0522 25.8 27.3522 25.5001 27.8022 25.5001H30.0522C30.5022 25.5001 30.8021 25.8 30.8021 26.25C30.8021 26.7 30.5022 27 30.0522 27Z" fill="black"/>
<path d="M35.3022 34.4999H33.8022C33.3522 34.4999 33.0522 34.2 33.0522 33.75C33.0522 33.3 33.3522 33 33.8022 33H35.3022C35.7522 33 36.0522 33.3 36.0522 33.75C36.0522 34.2 35.7522 34.4999 35.3022 34.4999Z" fill="black"/>
<path d="M39.0522 34.4999H37.5522C37.1022 34.4999 36.8022 34.2 36.8022 33.75C36.8022 33.3 37.1022 33 37.5522 33H39.0522C39.5022 33 39.8022 33.3 39.8022 33.75C39.8022 34.2 39.5022 34.4999 39.0522 34.4999Z" fill="black"/>
<path d="M31.5522 31.5H30.0522C29.6022 31.5 29.3022 31.2 29.3022 30.75C29.3022 30.3001 29.6022 30.0001 30.0522 30.0001H31.5522C32.0022 30.0001 32.3022 30.3001 32.3022 30.75C32.3022 31.2 32.0022 31.5 31.5522 31.5Z" fill="black"/>
<path d="M35.3022 31.5H33.8022C33.3522 31.5 33.0522 31.2 33.0522 30.75C33.0522 30.3001 33.3522 30.0001 33.8022 30.0001H35.3022C35.7522 30.0001 36.0522 30.3001 36.0522 30.75C36.0522 31.2 35.7522 31.5 35.3022 31.5Z" fill="black"/>
<path d="M39.0522 31.5H37.5522C37.1022 31.5 36.8022 31.2 36.8022 30.75C36.8022 30.3001 37.1022 30.0001 37.5522 30.0001H39.0522C39.5022 30.0001 39.8022 30.3001 39.8022 30.75C39.8023 31.2 39.5022 31.5 39.0522 31.5Z" fill="black"/>
<path d="M31.5522 37.5H30.0522C29.6022 37.5 29.3022 37.2 29.3022 36.75C29.3022 36.3 29.6022 36 30.0522 36H31.5522C32.0022 36 32.3022 36.3 32.3022 36.75C32.3022 37.2 32.0022 37.5 31.5522 37.5Z" fill="black"/>
<path d="M35.3022 37.5H33.8022C33.3522 37.5 33.0522 37.2 33.0522 36.75C33.0522 36.3 33.3522 36 33.8022 36H35.3022C35.7522 36 36.0522 36.3 36.0522 36.75C36.0522 37.2 35.7522 37.5 35.3022 37.5Z" fill="black"/>
<path d="M39.0522 37.5H37.5522C37.1022 37.5 36.8022 37.2 36.8022 36.75C36.8022 36.3 37.1022 36 37.5522 36H39.0522C39.5022 36 39.8022 36.3 39.8022 36.75C39.8023 37.2 39.5022 37.5 39.0522 37.5Z" fill="black"/>
<path d="M31.5522 40.5H30.0522C29.6022 40.5 29.3022 40.2 29.3022 39.75C29.3022 39.3 29.6022 39.0001 30.0522 39.0001H31.5522C32.0022 39.0001 32.3022 39.3 32.3022 39.75C32.3022 40.1999 32.0022 40.5 31.5522 40.5Z" fill="black"/>
<path d="M35.3022 40.5H33.8022C33.3522 40.5 33.0522 40.2 33.0522 39.75C33.0522 39.3 33.3522 39.0001 33.8022 39.0001H35.3022C35.7522 39.0001 36.0522 39.3 36.0522 39.75C36.0522 40.1999 35.7522 40.5 35.3022 40.5Z" fill="black"/>
<path d="M39.0522 40.5H37.5522C37.1022 40.5 36.8022 40.2 36.8022 39.75C36.8022 39.3 37.1022 39.0001 37.5522 39.0001H39.0522C39.5022 39.0001 39.8022 39.3 39.8022 39.75C39.8023 40.1999 39.5022 40.5 39.0522 40.5Z" fill="black"/>
<path d="M41.3023 27H32.3022C31.8522 27 31.5522 26.7 31.5522 26.25C31.5522 25.8 31.8522 25.5001 32.3022 25.5001H41.3022C41.7522 25.5001 42.0521 25.8 42.0521 26.25C42.0521 26.7 41.7523 27 41.3023 27Z" fill="black"/>
</g>
<defs>
<clipPath id="clip0_335_143">
<rect width="45" height="45" fill="white"/>
</clipPath>
</defs>
</svg>
