<svg width="307" height="101" viewBox="0 0 307 101" fill="none" xmlns="http://www.w3.org/2000/svg">
<path d="M15.1549 1.95548H151.056L153.989 4.39975V7.34838L142.07 7.75662V9.28828H151.056H288.913L304.067 26.3982V56.668V64.5287L284.513 88.4825H228.295H222.918L218.412 93.0798H249.438V96.3042H218.029H206.785H186.742H119.208V92.2633H152.684L149.59 88.4825H145.679H20.0435L12.2483 88.1808L4.08338 77.5665V72.6675L12.2483 82.8736L11.4885 77.9722L2.93359 67.4618V51.3297V17.1099L15.1549 1.95548Z" fill="#5B6643"/>
<path d="M12.5316 83.4191L0 67.9545V17.3188L14.0371 0H150.158L154.546 4.60118H15.5794L3.73156 19.2258V66.0474L12.5316 76.9109V83.4191ZM149.284 87.71H12.9516L3.97686 76.6384V83.1467L11.4185 92.3112H153.69L149.284 87.71ZM249.754 96.1026H118.57L122.958 100.704H245.369L249.754 96.1026ZM307 64.8328V26.5211L291.362 7.24231H139.629L144.016 11.8435H289.829L303.268 28.4282V62.9257L282.532 88.5235H222.109L217.725 93.1172H284.077L307 64.8328Z" fill="#FED221"/>
<path d="M28.181 10.0704H16.5742L18.2748 7.91241H29.546L28.181 10.0704Z" fill="#F79421"/>
<path d="M42.2239 10.0704H30.2656L31.6249 7.91241H43.2375L42.2239 10.0704Z" fill="#F79421"/>
<path d="M56.2927 10.0704H43.9609L44.9575 7.91241H56.9328L56.2927 10.0704Z" fill="#FAA64E"/>
<path d="M69.6954 10.0704H58.373L58.9158 7.91241H69.9036L69.6954 10.0704Z" fill="#F79521"/>
<path opacity="0.2" d="M83.5969 10.0704H71.3457L71.5227 7.91241H83.4199L83.5969 10.0704Z" fill="#F79521"/>
<path opacity="0.2" d="M97.2893 10.0704H85.2593L85.0381 7.91241H96.7127L97.2893 10.0704Z" fill="#F79521"/>
<path opacity="0.2" d="M110.981 10.0704H98.6408L98.0088 7.91241H109.984L110.981 10.0704Z" fill="#F79521"/>
<path opacity="0.2" d="M125.393 10.0704H113.434L112.421 7.91241H124.033L125.393 10.0704Z" fill="#F79521"/>
<path opacity="0.2" d="M139.086 10.0704H126.834L125.394 7.91241H137.291L139.086 10.0704Z" fill="#F79521"/>
</svg>
