<svg preserveAspectRatio="none" viewBox="0 0 451 197" fill="none" xmlns="http://www.w3.org/2000/svg">
<path fill-rule="evenodd" clip-rule="evenodd" d="M8.70561 0H146.325L155.053 9.00753H161.749L153.028 0H159.724L168.437 9.00753H175.132L166.389 0H173.084L181.797 9.00753H188.485L179.772 0H186.46L195.181 9.00753H201.906L193.193 0H199.881L208.602 9.00753H215.29L206.577 0H213.242L221.963 9.00753H228.65L219.937 0H226.625L235.346 9.00753H242.034L234.756 1.48304H241.444L248.729 9.00753H255.417L250.127 3.5437H256.823L262.113 9.00753H450.076V188.058L444.62 193.615H331.13L325.085 187.371H303.736L295.031 196.402H16.1794L0 179.69V9.00753L8.71313 0H8.70561ZM2.87919 11.9892V178.449L8.65271 184.412H447.19V11.9892H2.87919ZM17.3734 193.389H170.25L176.077 187.371H11.5395L17.3734 193.389ZM173.137 193.389H209.199L215.025 187.371H178.971L173.137 193.389ZM93.2149 9.00753H150.95L145.124 2.98949H99.0262L93.1998 9.00753H93.2149ZM446.638 187.371H329.181L332.332 190.625H443.419L446.623 187.371H446.638ZM7.21687 16.4696H442.852V179.909H10.7762L7.21687 176.568V16.4696ZM8.66027 17.9604V175.904L11.3279 178.41H441.409V17.9604H8.66027Z" fill="#FADD3F"/>
</svg>
