<svg preserveAspectRatio="none" viewBox="0 0 195 61" fill="none" xmlns="http://www.w3.org/2000/svg">
<path d="M193.39 16.87V4.99997C193.39 3.67389 192.863 2.40213 191.926 1.46445C190.988 0.526765 189.716 0 188.39 0H97.36H6.32999C5.0039 0 3.73215 0.526765 2.79446 1.46445C1.85678 2.40213 1.32999 3.67389 1.32999 4.99997C1.32999 4.99997 1.32999 5.00002 1.32999 5.05002V16.83C0.920804 17.1477 0.588664 17.5538 0.358368 18.0179C0.128071 18.4819 0.00557915 18.992 0 19.51V40.65C0.00426062 41.1584 0.126636 41.6588 0.357452 42.1117C0.588269 42.5647 0.921195 42.9578 1.32999 43.26V55.07C1.32999 56.3961 1.85678 57.6678 2.79446 58.6055C3.73215 59.5432 5.0039 60.07 6.32999 60.07H188.41C189.736 60.07 191.008 59.5432 191.946 58.6055C192.883 57.6678 193.41 56.3961 193.41 55.07V43.18C193.818 42.8638 194.148 42.4592 194.377 41.9967C194.606 41.5342 194.726 41.0259 194.73 40.51V19.46C194.725 18.9536 194.601 18.4555 194.368 18.0057C194.135 17.5559 193.8 17.1669 193.39 16.87ZM136.94 56.26L136.35 55.33C135.944 54.7098 135.389 54.2016 134.736 53.8521C134.082 53.5027 133.351 53.3231 132.61 53.33H61.89C61.1871 53.3306 60.4956 53.5076 59.8788 53.8448C59.2621 54.182 58.7399 54.6686 58.36 55.26L57.7 56.31H11.14C11.2442 55.9184 11.2979 55.5152 11.3 55.11C11.3 53.7839 10.7732 52.5121 9.83554 51.5744C8.89786 50.6368 7.62607 50.11 6.29999 50.11C5.89481 50.1121 5.49157 50.1658 5.10001 50.27V9.81998C5.49252 9.91932 5.89516 9.97304 6.29999 9.98001C7.62607 9.98001 8.89786 9.45322 9.83554 8.51553C10.7732 7.57785 11.3 6.30609 11.3 4.98001C11.298 4.57812 11.2442 4.17816 11.14 3.79001H183.62C183.516 4.17816 183.462 4.57812 183.46 4.98001C183.46 6.30609 183.987 7.57785 184.924 8.51553C185.862 9.45322 187.134 9.98001 188.46 9.98001C188.865 9.97304 189.267 9.91932 189.66 9.81998V50.25C189.268 50.1458 188.865 50.092 188.46 50.09C187.134 50.09 185.862 50.6168 184.924 51.5545C183.987 52.4922 183.46 53.7639 183.46 55.09C183.462 55.4952 183.516 55.8984 183.62 56.29L136.94 56.26Z" fill="url(#paint0_linear_1129_969)"/>
<path d="M183.62 3.81012C183.516 4.19827 183.462 4.59823 183.46 5.00012C183.46 6.3262 183.987 7.59802 184.924 8.53571C185.862 9.47339 187.134 10.0001 188.46 10.0001C188.865 9.99315 189.267 9.93949 189.66 9.84015V50.2501C189.268 50.1459 188.865 50.0922 188.46 50.0901C187.134 50.0901 185.862 50.6169 184.924 51.5546C183.987 52.4923 183.46 53.7641 183.46 55.0901C183.462 55.4953 183.516 55.8986 183.62 56.2902H136.94L136.35 55.3602C135.944 54.74 135.389 54.2317 134.735 53.8823C134.082 53.5328 133.351 53.3533 132.61 53.3602H61.8899C61.187 53.3608 60.4955 53.5378 59.8787 53.875C59.262 54.2122 58.7398 54.6988 58.3599 55.2902L57.6999 56.3401H11.1399C11.2441 55.9486 11.2978 55.5453 11.2999 55.1401C11.2999 53.8141 10.7731 52.5423 9.83544 51.6046C8.89776 50.6669 7.62597 50.1401 6.29989 50.1401C5.89471 50.1422 5.49146 50.196 5.09991 50.3002V9.82013C5.49241 9.91947 5.89506 9.97319 6.29989 9.98016C7.62597 9.98016 8.89776 9.45337 9.83544 8.51569C10.7731 7.578 11.2999 6.30625 11.2999 4.98016C11.2979 4.57827 11.2441 4.17831 11.1399 3.79016H183.62M183.62 3.16016H11.1399C11.0454 3.16087 10.9524 3.18282 10.8676 3.22437C10.7828 3.26591 10.7084 3.32597 10.6499 3.40015C10.5895 3.47472 10.5472 3.5623 10.5263 3.65601C10.5055 3.74971 10.5067 3.84697 10.5299 3.94012C10.6177 4.2664 10.6647 4.60229 10.6699 4.94012C10.6699 6.09209 10.213 7.19702 9.39934 8.01251C8.58572 8.82801 7.48184 9.28751 6.32989 9.29016C5.99252 9.27916 5.6573 9.23221 5.32989 9.15015C5.28036 9.14044 5.22942 9.14044 5.17989 9.15015C5.09679 9.14879 5.01426 9.16419 4.93722 9.19537C4.86017 9.22656 4.79018 9.27289 4.73141 9.33167C4.67263 9.39044 4.62627 9.46043 4.59508 9.53748C4.5639 9.61452 4.54854 9.69705 4.54989 9.78015V50.2501C4.5506 50.3446 4.57255 50.4376 4.6141 50.5225C4.65564 50.6073 4.71573 50.6817 4.78991 50.7402C4.90079 50.8288 5.03796 50.878 5.17989 50.8801H5.32989C5.65641 50.7936 5.99215 50.7466 6.32989 50.7402C7.48011 50.7428 8.5825 51.2009 9.39583 52.0142C10.2092 52.8276 10.6672 53.9299 10.6699 55.0801C10.6675 55.4346 10.6205 55.7874 10.5299 56.1301C10.5072 56.2227 10.5058 56.3193 10.5258 56.4125C10.5459 56.5057 10.5868 56.5932 10.6455 56.6683C10.7042 56.7434 10.7793 56.8042 10.8649 56.8461C10.9505 56.888 11.0445 56.9099 11.1399 56.9102H57.6999C57.8053 56.9092 57.9088 56.8822 58.0012 56.8316C58.0937 56.781 58.1722 56.7084 58.2299 56.6201L58.8899 55.5701C59.2108 55.0657 59.6542 54.6507 60.1788 54.364C60.7034 54.0772 61.2921 53.928 61.8899 53.9302H132.62C133.255 53.9232 133.882 54.0772 134.441 54.378C135.001 54.6788 135.475 55.1165 135.82 55.6501L136.41 56.5801C136.466 56.6697 136.544 56.7433 136.637 56.7941C136.73 56.8448 136.834 56.871 136.94 56.8701H183.62C183.716 56.8695 183.81 56.8476 183.897 56.8062C183.983 56.7647 184.059 56.7045 184.12 56.6301C184.176 56.5534 184.215 56.4654 184.234 56.3722C184.253 56.279 184.252 56.1828 184.23 56.0901C184.139 55.7474 184.092 55.3947 184.09 55.0402C184.093 53.8899 184.551 52.7876 185.364 51.9742C186.177 51.1609 187.28 50.7028 188.43 50.7001C188.784 50.7019 189.137 50.7489 189.48 50.8401H189.63C189.772 50.8396 189.91 50.7901 190.02 50.7001C190.094 50.6417 190.154 50.5673 190.196 50.4825C190.237 50.3977 190.259 50.3046 190.26 50.2101V9.82013C190.26 9.72412 190.238 9.62934 190.197 9.54279C190.155 9.45623 190.095 9.38013 190.02 9.32013C189.909 9.23298 189.771 9.18703 189.63 9.19012C189.58 9.18042 189.529 9.18042 189.48 9.19012C189.136 9.27638 188.784 9.32336 188.43 9.33014C187.278 9.32749 186.174 8.86805 185.36 8.05255C184.547 7.23705 184.09 6.13212 184.09 4.98016C184.092 4.64279 184.136 4.30697 184.22 3.98016C184.23 3.91391 184.23 3.84641 184.22 3.78015C184.22 3.61478 184.155 3.45606 184.039 3.3382C183.923 3.22033 183.765 3.15277 183.6 3.15015L183.62 3.16016Z" fill="url(#paint1_linear_1129_969)"/>
<defs>
<linearGradient id="paint0_linear_1129_969" x1="97.36" y1="0.83" x2="97.36" y2="58.67" gradientUnits="userSpaceOnUse">
<stop stop-color="#FFD976"/>
<stop offset="1" stop-color="#FAA64E"/>
</linearGradient>
<linearGradient id="paint1_linear_1129_969" x1="97.3699" y1="53.0102" x2="97.3699" y2="4.13015" gradientUnits="userSpaceOnUse">
<stop stop-color="#FFD976"/>
<stop offset="1" stop-color="#FAA64E"/>
</linearGradient>
</defs>
</svg>
