<svg preserveAspectRatio="none" viewBox="0 0 195 61" fill="none" xmlns="http://www.w3.org/2000/svg">
<g clip-path="url(#clip0_1783_279)">
<path d="M193.37 16.84V4.97C193.37 3.64392 192.844 2.37216 191.906 1.43448C190.968 0.496797 189.697 -0.0299683 188.37 -0.0299683H6.31046C4.98437 -0.0299683 3.71261 0.496797 2.77493 1.43448C1.83725 2.37216 1.31046 3.64392 1.31046 4.97C1.31046 4.97 1.31046 4.97 1.31046 4.97C1.31046 4.97 1.31046 4.97005 1.31046 5.02005V16.8C0.901272 17.1178 0.569133 17.5238 0.338837 17.9879C0.10854 18.4519 -0.0139521 18.962 -0.0195312 19.48V40.62C-0.0152706 41.1284 0.107104 41.6288 0.337921 42.0818C0.568738 42.5347 0.901664 42.9278 1.31046 43.23V55.04C1.31046 56.3661 1.83725 57.6378 2.77493 58.5755C3.71261 59.5132 4.98437 60.04 6.31046 60.04H188.39C189.717 60.04 190.988 59.5132 191.926 58.5755C192.864 57.6378 193.39 56.3661 193.39 55.04V43.1501C193.798 42.8339 194.129 42.4293 194.357 41.9668C194.586 41.5043 194.707 40.9959 194.71 40.48V19.43C194.705 18.9236 194.581 18.4255 194.348 17.9757C194.116 17.5259 193.781 17.1369 193.37 16.84V16.84ZM136.92 56.23L136.33 55.3C135.925 54.6798 135.37 54.1717 134.716 53.8222C134.062 53.4727 133.332 53.2931 132.59 53.3H61.8705C61.1676 53.3006 60.476 53.4777 59.8593 53.8148C59.2426 54.152 58.7204 54.6386 58.3405 55.23L57.6805 56.28H11.1205C11.2246 55.8884 11.2784 55.4852 11.2805 55.08C11.2805 53.754 10.7537 52.4821 9.81601 51.5445C8.87833 50.6068 7.60654 50.08 6.28046 50.08C5.87528 50.0821 5.47203 50.1358 5.08047 50.24V9.79001C5.47298 9.88935 5.87563 9.94307 6.28046 9.95004C7.60654 9.95004 8.87833 9.42325 9.81601 8.48557C10.7537 7.54788 11.2805 6.27613 11.2805 4.95004C11.2784 4.54815 11.2247 4.14819 11.1205 3.76004H183.6C183.496 4.14819 183.443 4.54815 183.44 4.95004C183.44 6.27613 183.967 7.54788 184.905 8.48557C185.843 9.42325 187.114 9.95004 188.44 9.95004C188.845 9.94307 189.248 9.88935 189.64 9.79001V50.22C189.249 50.1158 188.846 50.0621 188.44 50.06C187.114 50.06 185.843 50.5868 184.905 51.5245C183.967 52.4622 183.44 53.7339 183.44 55.06C183.443 55.4652 183.496 55.8685 183.6 56.26L136.92 56.23Z" fill="url(#paint0_linear_1783_279)"/>
<path d="M183.6 3.77997C183.496 4.16812 183.442 4.56808 183.44 4.96997C183.44 6.29605 183.967 7.56787 184.905 8.50555C185.842 9.44324 187.114 9.96997 188.44 9.96997C188.845 9.963 189.248 9.90934 189.64 9.81V50.22C189.249 50.1158 188.846 50.062 188.44 50.06C187.114 50.06 185.842 50.5868 184.905 51.5245C183.967 52.4622 183.44 53.7339 183.44 55.06C183.442 55.4652 183.496 55.8684 183.6 56.26H136.92L136.33 55.33C135.925 54.7098 135.369 54.2016 134.716 53.8521C134.062 53.5026 133.331 53.3231 132.59 53.33H61.8704C61.1675 53.3306 60.4759 53.5077 59.8592 53.8448C59.2425 54.182 58.7202 54.6686 58.3404 55.26L57.6804 56.31H11.1204C11.2245 55.9184 11.2783 55.5152 11.2804 55.11C11.2804 53.7839 10.7536 52.5121 9.81591 51.5745C8.87823 50.6368 7.60644 50.11 6.28036 50.11C5.87518 50.112 5.47193 50.1658 5.08037 50.27V9.78998C5.47288 9.88932 5.87553 9.94304 6.28036 9.95001C7.60644 9.95001 8.87823 9.42322 9.81591 8.48553C10.7536 7.54785 11.2804 6.27609 11.2804 4.95001C11.2783 4.54812 11.2246 4.14816 11.1204 3.76001H183.6M183.6 3.13H11.1204C11.0259 3.13072 10.9329 3.15267 10.848 3.19421C10.7632 3.23576 10.6888 3.29582 10.6304 3.37C10.5699 3.44457 10.5276 3.53215 10.5068 3.62585C10.486 3.71956 10.4872 3.81682 10.5104 3.90997C10.5982 4.23624 10.6452 4.57214 10.6504 4.90997C10.6504 6.06193 10.1934 7.16686 9.37981 7.98236C8.56619 8.79786 7.46231 9.25736 6.31035 9.26001C5.97299 9.24901 5.63777 9.20206 5.31035 9.12C5.26083 9.11029 5.20989 9.11029 5.16036 9.12C5.07725 9.11864 4.99473 9.13404 4.91768 9.16522C4.84064 9.1964 4.77065 9.24274 4.71187 9.30151C4.6531 9.36029 4.60673 9.43028 4.57555 9.50732C4.54437 9.58437 4.529 9.66689 4.53036 9.75V50.22C4.53107 50.3144 4.55302 50.4075 4.59456 50.4923C4.63611 50.5771 4.6962 50.6516 4.77038 50.71C4.88125 50.7986 5.01843 50.8478 5.16036 50.85H5.31035C5.63688 50.7635 5.97262 50.7165 6.31035 50.71C7.46058 50.7127 8.56297 51.1707 9.3763 51.9841C10.1896 52.7974 10.6477 53.8998 10.6504 55.05C10.648 55.4045 10.601 55.7572 10.5104 56.1C10.4877 56.1926 10.4863 56.2891 10.5063 56.3823C10.5263 56.4755 10.5672 56.563 10.626 56.6381C10.6847 56.7132 10.7597 56.774 10.8454 56.8159C10.931 56.8578 11.025 56.8797 11.1204 56.88H57.6804C57.7858 56.879 57.8892 56.852 57.9817 56.8015C58.0742 56.7509 58.1527 56.6782 58.2103 56.59L58.8704 55.54C59.1913 55.0355 59.6347 54.6206 60.1593 54.3338C60.6838 54.047 61.2725 53.8978 61.8704 53.9H132.6C133.236 53.893 133.862 54.0471 134.422 54.3478C134.981 54.6486 135.456 55.0863 135.8 55.62L136.39 56.55C136.447 56.6395 136.525 56.7132 136.618 56.7639C136.71 56.8147 136.815 56.8408 136.92 56.84H183.6C183.696 56.8393 183.791 56.8175 183.877 56.776C183.964 56.7345 184.04 56.6744 184.1 56.6C184.157 56.5232 184.195 56.4352 184.214 56.342C184.233 56.2488 184.232 56.1526 184.21 56.06C184.12 55.7173 184.073 55.3645 184.07 55.01C184.073 53.8598 184.531 52.7574 185.344 51.9441C186.158 51.1308 187.26 50.6726 188.41 50.67C188.765 50.6717 189.118 50.7188 189.46 50.81H189.61C189.753 50.8094 189.89 50.76 190 50.67C190.075 50.6115 190.135 50.5371 190.176 50.4523C190.218 50.3675 190.24 50.2744 190.24 50.18V9.78998C190.24 9.69397 190.219 9.59919 190.177 9.51263C190.136 9.42608 190.075 9.34998 190 9.28998C189.889 9.20283 189.751 9.15688 189.61 9.15997C189.561 9.15027 189.51 9.15027 189.46 9.15997C189.117 9.24623 188.765 9.29321 188.41 9.29999C187.258 9.29734 186.155 8.8379 185.341 8.0224C184.527 7.2069 184.07 6.10197 184.07 4.95001C184.073 4.61263 184.117 4.27682 184.2 3.95001C184.211 3.88376 184.211 3.81625 184.2 3.75C184.2 3.58463 184.135 3.42591 184.019 3.30804C183.903 3.19018 183.746 3.12262 183.58 3.12L183.6 3.13Z" fill="url(#paint1_linear_1783_279)"/>
<path d="M85.9796 56.24C85.9796 56.058 85.9257 55.8801 85.8246 55.7289C85.7235 55.5776 85.5798 55.4596 85.4117 55.39C85.2436 55.3204 85.0586 55.3021 84.8802 55.3376C84.7017 55.3731 84.5378 55.4608 84.4091 55.5895C84.2804 55.7181 84.1928 55.882 84.1573 56.0605C84.1218 56.2389 84.1401 56.4239 84.2097 56.592C84.2793 56.7601 84.3972 56.9038 84.5485 57.0049C84.6998 57.106 84.8777 57.1599 85.0597 57.1599C85.3029 57.1573 85.5353 57.0596 85.7073 56.8876C85.8793 56.7156 85.977 56.4832 85.9796 56.24Z" fill="#5B6643"/>
<path d="M89.8398 57.32C90.4362 57.32 90.9198 56.8364 90.9198 56.24C90.9198 55.6435 90.4362 55.16 89.8398 55.16C89.2433 55.16 88.7598 55.6435 88.7598 56.24C88.7598 56.8364 89.2433 57.32 89.8398 57.32Z" fill="#5B6643"/>
<path d="M94.6298 57.32C95.2263 57.32 95.7098 56.8364 95.7098 56.24C95.7098 55.6435 95.2263 55.16 94.6298 55.16C94.0333 55.16 93.5498 55.6435 93.5498 56.24C93.5498 56.8364 94.0333 57.32 94.6298 57.32Z" fill="#5B6643"/>
<path d="M100.5 56.24C100.502 56.0236 100.44 55.8115 100.321 55.6307C100.202 55.4499 100.032 55.3087 99.832 55.2249C99.6325 55.1412 99.4125 55.1188 99.2001 55.1605C98.9878 55.2023 98.7926 55.3063 98.6396 55.4593C98.4866 55.6124 98.3825 55.8075 98.3408 56.0199C98.299 56.2322 98.3215 56.4522 98.4052 56.6518C98.489 56.8513 98.6302 57.0215 98.811 57.1405C98.9918 57.2595 99.2039 57.322 99.4203 57.32C99.7059 57.3174 99.9791 57.2028 100.181 57.0008C100.383 56.7988 100.498 56.5256 100.5 56.24V56.24Z" fill="#5B6643"/>
<path d="M104.2 57.32C104.797 57.32 105.28 56.8364 105.28 56.24C105.28 55.6435 104.797 55.16 104.2 55.16C103.604 55.16 103.12 55.6435 103.12 56.24C103.12 56.8364 103.604 57.32 104.2 57.32Z" fill="#5B6643"/>
<path d="M109.91 56.24C109.912 56.0552 109.859 55.8741 109.757 55.7196C109.656 55.5651 109.511 55.4444 109.34 55.3727C109.17 55.3011 108.982 55.2819 108.801 55.3174C108.619 55.353 108.453 55.4418 108.322 55.5724C108.192 55.7031 108.103 55.8697 108.067 56.051C108.032 56.2324 108.051 56.4202 108.122 56.5905C108.194 56.7609 108.315 56.906 108.469 57.0074C108.624 57.1089 108.805 57.1619 108.99 57.16C109.233 57.1574 109.465 57.0596 109.637 56.8876C109.809 56.7157 109.907 56.4832 109.91 56.24V56.24Z" fill="#5B6643"/>
<path d="M78.1598 54.89H63.4498C62.7824 54.9129 62.1326 55.1094 61.5645 55.4601C60.9963 55.8109 60.5293 56.3037 60.2098 56.89L59.7998 57.57H75.4598C76.1724 57.57 76.8562 57.2883 77.3619 56.7863C77.8677 56.2842 78.1545 55.6026 78.1598 54.89Z" fill="#5B6643"/>
<path d="M116.36 54.89H131.07C131.738 54.9129 132.388 55.1094 132.956 55.4601C133.524 55.8109 133.991 56.3037 134.31 56.89L134.72 57.57H119.06C118.348 57.57 117.664 57.2883 117.158 56.7863C116.652 56.2842 116.366 55.6026 116.36 54.89V54.89Z" fill="#5B6643"/>
<path d="M7.79004 4.96997C7.79004 4.57215 7.63201 4.19067 7.35071 3.90936C7.0694 3.62806 6.68786 3.46997 6.29004 3.46997C5.89221 3.46997 5.51067 3.62806 5.22937 3.90936C4.94807 4.19067 4.79004 4.57215 4.79004 4.96997C4.79004 5.3678 4.94807 5.74934 5.22937 6.03064C5.51067 6.31194 5.89221 6.46997 6.29004 6.46997C6.68786 6.46997 7.0694 6.31194 7.35071 6.03064C7.63201 5.74934 7.79004 5.3678 7.79004 4.96997V4.96997Z" fill="#5B6643"/>
<path d="M7.79004 55.03C7.79004 54.6321 7.63201 54.2507 7.35071 53.9694C7.0694 53.6881 6.68786 53.53 6.29004 53.53C5.89221 53.53 5.51067 53.6881 5.22937 53.9694C4.94807 54.2507 4.79004 54.6321 4.79004 55.03C4.79004 55.4278 4.94807 55.8093 5.22937 56.0906C5.51067 56.3719 5.89221 56.53 6.29004 56.53C6.68786 56.53 7.0694 56.3719 7.35071 56.0906C7.63201 55.8093 7.79004 55.4278 7.79004 55.03V55.03Z" fill="#5B6643"/>
<path d="M189.88 4.96996C189.88 4.67527 189.793 4.38723 189.629 4.1422C189.466 3.89718 189.233 3.70621 188.961 3.59344C188.688 3.48066 188.389 3.45111 188.1 3.5086C187.811 3.56609 187.545 3.70799 187.337 3.91637C187.128 4.12475 186.987 4.39028 186.929 4.67931C186.872 4.96835 186.901 5.26795 187.014 5.54021C187.127 5.81248 187.318 6.04513 187.563 6.20885C187.808 6.37258 188.096 6.46001 188.39 6.46001C188.786 6.46001 189.165 6.30298 189.444 6.02355C189.723 5.74412 189.88 5.36514 189.88 4.96996Z" fill="#5B6643"/>
<path d="M189.88 55.03C189.88 54.7353 189.793 54.4472 189.629 54.2022C189.466 53.9572 189.233 53.7662 188.961 53.6534C188.688 53.5407 188.389 53.5111 188.1 53.5686C187.811 53.6261 187.545 53.768 187.337 53.9764C187.128 54.1848 186.987 54.4503 186.929 54.7393C186.872 55.0283 186.901 55.328 187.014 55.6002C187.127 55.8725 187.318 56.1051 187.563 56.2689C187.808 56.4326 188.096 56.52 188.39 56.52C188.786 56.52 189.165 56.363 189.444 56.0835C189.723 55.8041 189.88 55.4251 189.88 55.03Z" fill="#5B6643"/>
</g>
<defs>
<linearGradient id="paint0_linear_1783_279" x1="97.3405" y1="0.800031" x2="97.3405" y2="58.64" gradientUnits="userSpaceOnUse">
<stop stop-color="#FFD976"/>
<stop offset="1" stop-color="#FAA64E"/>
</linearGradient>
<linearGradient id="paint1_linear_1783_279" x1="97.3504" y1="52.98" x2="97.3504" y2="4.1" gradientUnits="userSpaceOnUse">
<stop stop-color="#FFD976"/>
<stop offset="1" stop-color="#FAA64E"/>
</linearGradient>
<clipPath id="clip0_1783_279">
<rect width="194.68" height="60.01" fill="white"/>
</clipPath>
</defs>
</svg>
