<svg width="470" height="74" viewBox="0 0 470 74" fill="none" xmlns="http://www.w3.org/2000/svg">
<path fill-rule="evenodd" clip-rule="evenodd" d="M467.664 73.2609H1.95519L0 68.537H44.4307C48.7412 68.5971 52.9883 67.4957 56.7263 65.3485C60.4643 63.2013 63.5554 60.0874 65.6751 56.3337L93.1785 9.18673C94.7643 6.3663 97.0804 4.02497 99.8834 2.40871C102.687 0.792442 105.873 -0.0391066 109.109 0.00141312H360.576C363.812 -0.0391066 366.998 0.792442 369.801 2.40871C372.605 4.02497 374.921 6.3663 376.506 9.18673L403.944 56.3205C406.066 60.0753 409.159 63.1897 412.9 65.3369C416.64 67.4841 420.889 68.585 425.202 68.5239H469.619L467.664 73.2609Z" fill="#E8C007"/>
<path fill-rule="evenodd" clip-rule="evenodd" d="M106.626 13.3411L78.8077 61.1179C78.2754 62.0504 77.9969 63.1063 78 64.1801C78.0032 65.2539 78.2878 66.3081 78.8256 67.2376C79.3633 68.167 80.1354 68.9392 81.0647 69.4771C81.9941 70.0151 83.0482 70.2999 84.122 70.3032H384.889C385.963 70.2999 387.017 70.0151 387.946 69.4771C388.876 68.9392 389.648 68.167 390.185 67.2376C390.723 66.3081 391.008 65.2539 391.011 64.1801C391.014 63.1063 390.736 62.0504 390.203 61.1179L362.385 13.3411C361.439 11.7078 360.082 10.3506 358.448 9.40451C356.81 8.46976 354.954 7.98534 353.068 8.00048H115.916C114.033 7.98255 112.178 8.46816 110.545 9.40707C108.911 10.346 107.559 11.7041 106.626 13.3411V13.3411Z" fill="#FFDB3A"/>
<path fill-rule="evenodd" clip-rule="evenodd" d="M85 64.0612H385.767L357.948 16.2844C357.566 15.578 356.997 14.9909 356.302 14.588C355.607 14.1851 354.815 13.982 354.012 14.0013H116.794C115.987 13.988 115.191 14.1871 114.485 14.5786C113.787 14.9881 113.211 15.5771 112.818 16.2844L85 64.0612Z" fill="#5B6744"/>
<path style="mix-blend-mode:screen" fill-rule="evenodd" clip-rule="evenodd" d="M359.486 22.1609L355.983 16.138C355.735 15.6617 355.356 15.2657 354.892 14.9962C354.427 14.7267 353.895 14.5948 353.359 14.6158H116.154C115.615 14.6049 115.082 14.7313 114.606 14.9832C114.144 15.2657 113.764 15.6637 113.504 16.138L110 22.1609H359.486Z" fill="url(#paint0_linear_426_77)"/>
<path style="mix-blend-mode:screen" d="M112.013 21.2535L161.207 21.4897L111.738 21.7128L112.013 21.2535ZM109.389 25.7937L161.233 26.0299L109.113 26.2792L109.389 25.7937ZM106.764 30.3339L161.246 30.5832L106.463 30.8456L106.764 30.3339ZM104.14 34.8741L161.26 35.1365L103.825 35.4121L104.14 34.8741ZM101.516 39.4142L161.286 39.6898L101.188 39.9654L101.516 39.4142ZM98.8912 43.9413L161.299 44.2431L98.55 44.5318L98.8912 43.9413ZM96.2668 48.4815L161.325 48.7964L95.9125 49.0982L96.2668 48.4815ZM93.6424 53.0216L161.338 53.3366L93.275 53.6646L93.6424 53.0216ZM91.0181 57.5618L161.351 57.8898L90.6244 58.231L91.0181 57.5618ZM88.3937 62.102L161.378 62.4431L88 62.7974L88.3937 62.102Z" fill="url(#paint1_linear_426_77)"/>
<path style="mix-blend-mode:screen" opacity="0.5" d="M359.502 21.2535L310.308 21.4897L359.778 21.7128L359.502 21.2535ZM362.127 25.7937L310.282 26.0299L362.402 26.2792L362.127 25.7937ZM364.751 30.3339L310.269 30.5832L365.053 30.8456L364.751 30.3339ZM367.375 34.8741L310.256 35.1365L367.69 35.4121L367.375 34.8741ZM370 39.4142L310.23 39.6898L370.328 39.9654L370 39.4142ZM372.624 43.9413L310.216 44.2431L372.965 44.5318L372.624 43.9413ZM375.248 48.4815L310.19 48.7964L375.603 49.0982L375.248 48.4815ZM377.873 53.0216L310.177 53.3366L378.24 53.6646L377.873 53.0216ZM380.497 57.5618L310.164 57.8898L380.891 58.231L380.497 57.5618ZM383.122 62.102L310.138 62.4431L383.515 62.7974L383.122 62.102Z" fill="url(#paint2_linear_426_77)"/>
<defs>
<linearGradient id="paint0_linear_426_77" x1="234.75" y1="22.1609" x2="234.75" y2="14.6158" gradientUnits="userSpaceOnUse">
<stop stop-color="#010101"/>
<stop offset="1" stop-color="#3CAA49"/>
</linearGradient>
<linearGradient id="paint1_linear_426_77" x1="87.8294" y1="42.0255" x2="161.207" y2="42.0255" gradientUnits="userSpaceOnUse">
<stop stop-color="#079A48"/>
<stop offset="1" stop-color="#010101"/>
</linearGradient>
<linearGradient id="paint2_linear_426_77" x1="310.308" y1="42.0255" x2="383.686" y2="42.0255" gradientUnits="userSpaceOnUse">
<stop stop-color="#010101"/>
<stop offset="1" stop-color="#079A48"/>
</linearGradient>
</defs>
</svg>
