<svg preserveAspectRatio="none" viewBox="0 0 587 667" fill="none" xmlns="http://www.w3.org/2000/svg">
<path d="M551.131 0H34.8568C22.7387 0 12.915 9.82793 12.915 21.9513V645.049C12.915 657.172 22.7387 667 34.8568 667H551.131C563.249 667 573.073 657.172 573.073 645.049V21.9513C573.073 9.82793 563.249 0 551.131 0Z" fill="#191717"/>
<path d="M416.002 50.8522H170.841L162.037 15.2247L144.504 0H440.148L425.313 18.2597L416.002 50.8522Z" fill="#191717"/>
<path d="M577.877 260.207L573.073 257.073V21.2328C573.073 18.4435 572.523 15.6814 571.456 13.1045C570.389 10.5276 568.824 8.18639 566.852 6.21458C564.88 4.24277 562.539 2.67904 559.963 1.61272C557.386 0.546398 554.625 -0.00162379 551.837 3.61393e-06H438.698C435.165 -0.00209399 431.707 1.02848 428.751 2.96511C425.794 4.90173 423.467 7.66008 422.056 10.9014L411.296 35.6028C410.118 38.3019 408.178 40.5987 405.715 42.2115C403.252 43.8244 400.372 44.6833 397.428 44.6831H188.573C185.629 44.6833 182.749 43.8244 180.285 42.2115C177.822 40.5987 175.882 38.3019 174.704 35.6028L163.944 10.9014C162.533 7.66008 160.206 4.90173 157.25 2.96511C154.293 1.02848 150.836 -0.00209399 147.302 3.61393e-06H34.1386C28.5097 3.61393e-06 23.1114 2.23704 19.1312 6.21896C15.1511 10.2009 12.915 15.6015 12.915 21.2328V257.073L8.53164 259.935C5.90184 261.66 3.7442 264.016 2.2544 266.787C0.764601 269.558 -0.0102472 272.657 0.000102332 275.804V391.754C-0.00153516 394.737 0.740399 397.673 2.15872 400.297C3.57704 402.92 5.62697 405.149 8.12299 406.78L12.915 409.915V645.767C12.9183 651.397 15.1554 656.796 19.1349 660.777C23.1144 664.759 28.5107 666.997 34.1386 667H551.837C557.467 667 562.866 664.763 566.849 660.782C570.831 656.8 573.07 651.4 573.073 645.767V409.927L577.456 407.053C580.088 405.342 582.251 403.002 583.752 400.244C585.252 397.487 586.042 394.398 586.05 391.258V275.246C586.044 272.257 585.293 269.317 583.866 266.692C582.439 264.066 580.381 261.837 577.877 260.207ZM557.941 624.497C554.135 623.274 550.065 623.124 546.179 624.064C542.293 625.004 538.742 626.997 535.915 629.826C533.088 632.654 531.095 636.207 530.155 640.095C529.216 643.983 529.366 648.054 530.589 651.862H458.931L456.034 647.316C454.355 644.697 452.045 642.542 449.317 641.049C446.589 639.555 443.529 638.771 440.42 638.768H144.986C142.05 638.769 139.162 639.511 136.589 640.925C134.015 642.339 131.84 644.379 130.264 646.857L127.057 651.899H55.3993C56.6223 648.091 56.7722 644.02 55.8326 640.132C54.8929 636.244 52.9001 632.691 50.0731 629.863C47.2461 627.035 43.6944 625.041 39.8085 624.101C35.9225 623.161 31.8527 623.311 28.0464 624.534V419.825V247.163V42.4904C31.8506 43.7032 35.915 43.8458 39.7949 42.9027C43.6747 41.9596 47.2206 39.9671 50.0445 37.1433C52.8684 34.3194 54.8616 30.7729 55.8061 26.8918C56.7505 23.0107 56.6098 18.9444 55.3993 15.138H147.24C147.828 15.1367 148.404 15.3071 148.896 15.6284C149.389 15.9497 149.777 16.4078 150.014 16.9466L160.774 41.6728C163.135 47.0795 167.024 51.6778 171.963 54.9022C176.902 58.1265 182.675 59.8362 188.573 59.821H397.477C403.364 59.8226 409.123 58.1066 414.05 54.8832C418.976 51.6597 422.856 47.0688 425.214 41.6728L435.974 16.8971C436.21 16.3582 436.599 15.9001 437.091 15.5788C437.584 15.2575 438.16 15.0871 438.748 15.0885H530.589C529.369 18.8957 529.221 22.9656 530.162 26.8513C531.103 30.737 533.096 34.288 535.923 37.1144C538.749 39.9409 542.3 41.9333 546.184 42.873C550.068 43.8126 554.136 43.6631 557.941 42.4409V247.163V419.837V624.497Z" fill="url(#paint0_linear_1079_251)"/>
<path d="M530.589 15.1379C529.369 18.9452 529.221 23.0151 530.162 26.9008C531.103 30.7864 533.096 34.3375 535.923 37.1639C538.749 39.9904 542.3 41.9828 546.184 42.9225C550.068 43.8621 554.137 43.7126 557.942 42.4904V247.163V419.837V624.497C554.135 623.274 550.065 623.124 546.179 624.064C542.293 625.004 538.742 626.997 535.915 629.826C533.088 632.654 531.095 636.207 530.155 640.095C529.216 643.982 529.366 648.054 530.589 651.862H458.931L456.034 647.316C454.355 644.697 452.045 642.542 449.317 641.049C446.589 639.555 443.529 638.771 440.42 638.768H144.986C142.05 638.769 139.162 639.511 136.589 640.925C134.015 642.339 131.84 644.379 130.264 646.857L127.057 651.899H55.3994C56.6224 648.091 56.7724 644.02 55.8327 640.132C54.8931 636.244 52.9002 632.691 50.0732 629.863C47.2462 627.035 43.6946 625.041 39.8086 624.101C35.9226 623.161 31.8528 623.311 28.0465 624.534V419.825V247.163V42.4904C31.8508 43.7031 35.9151 43.8458 39.795 42.9027C43.6748 41.9596 47.2207 39.9671 50.0446 37.1432C52.8685 34.3194 54.8617 30.7729 55.8062 26.8917C56.7506 23.0106 56.6099 18.9444 55.3994 15.1379H147.24C147.828 15.1366 148.404 15.3071 148.897 15.6283C149.389 15.9496 149.778 16.4078 150.014 16.9466L160.774 41.6728C163.135 47.0794 167.024 51.6778 171.963 54.9021C176.902 58.1265 182.675 59.8362 188.573 59.821H397.477C403.364 59.8226 409.123 58.1065 414.05 54.8831C418.976 51.6597 422.856 47.0688 425.214 41.6728L435.974 16.897C436.21 16.3582 436.599 15.9001 437.091 15.5788C437.584 15.2575 438.16 15.0871 438.748 15.0884H530.589M530.589 13.5647H438.698C437.815 13.5654 436.951 13.8235 436.212 14.3075C435.474 14.7915 434.892 15.4804 434.538 16.29L423.839 41.041C421.605 46.1732 417.921 50.5411 413.24 53.6086C408.559 56.6762 403.085 58.3101 397.49 58.3097H188.573C182.977 58.3116 177.502 56.6784 172.821 53.6107C168.14 50.5429 164.456 46.1741 162.223 41.041L151.425 16.3396C151.072 15.53 150.49 14.8411 149.751 14.357C149.012 13.873 148.148 13.6149 147.265 13.6143H55.3994C55.1589 13.6133 54.9216 13.6688 54.7065 13.7764C54.4914 13.884 54.3046 14.0406 54.1611 14.2337C54.0229 14.4289 53.9309 14.6531 53.8923 14.8892C53.8537 15.1254 53.8694 15.3672 53.9382 15.5963C54.5825 17.5976 54.9084 19.6877 54.9041 21.7903C54.9061 24.9792 54.1551 28.1235 52.712 30.967C51.269 33.8104 49.1749 36.2725 46.6003 38.1527C44.0257 40.0329 41.0435 41.2779 37.8967 41.7863C34.7499 42.2946 31.5276 42.052 28.4923 41.0781C28.3445 41.0293 28.1898 41.0042 28.0341 41.0038C27.7123 41.002 27.3989 41.1065 27.1426 41.3012C26.9459 41.4411 26.7865 41.6273 26.6786 41.8433C26.5706 42.0593 26.5174 42.2985 26.5235 42.5399V247.175C26.5175 247.245 26.5175 247.316 26.5235 247.386V419.577C26.5169 419.647 26.5169 419.718 26.5235 419.788V624.497C26.5195 624.738 26.5737 624.977 26.6814 625.192C26.7892 625.408 26.9474 625.595 27.1426 625.736C27.4025 625.922 27.7144 626.022 28.0341 626.021C28.1888 626.019 28.3426 625.998 28.4923 625.959C32.0331 624.823 35.8184 624.685 39.4325 625.56C43.0466 626.435 46.3497 628.29 48.979 630.92C51.6084 633.551 53.4623 636.855 54.3372 640.471C55.2121 644.087 55.074 647.874 53.9382 651.416C53.8685 651.643 53.8524 651.883 53.8911 652.117C53.9297 652.352 54.0222 652.574 54.1611 652.766C54.3025 652.962 54.4889 653.12 54.7045 653.228C54.92 653.335 55.1584 653.39 55.3994 653.386H127.057C127.304 653.381 127.547 653.316 127.763 653.195C127.979 653.074 128.162 652.901 128.295 652.692L131.502 647.65C132.93 645.372 134.913 643.495 137.265 642.195C139.618 640.895 142.262 640.214 144.949 640.217H440.42C443.289 640.205 446.115 640.925 448.63 642.307C451.145 643.69 453.267 645.691 454.796 648.121L457.693 652.68C457.826 652.889 458.009 653.061 458.225 653.182C458.441 653.303 458.684 653.369 458.931 653.373H530.589C530.827 653.376 531.062 653.321 531.275 653.214C531.488 653.107 531.673 652.95 531.813 652.758C531.953 652.565 532.046 652.342 532.083 652.106C532.12 651.871 532.1 651.63 532.025 651.404C531.388 649.401 531.062 647.312 531.059 645.21C531.066 639.84 533.201 634.692 536.996 630.895C540.791 627.098 545.937 624.962 551.305 624.956C553.406 624.951 555.495 625.277 557.496 625.922C557.65 625.961 557.808 625.981 557.966 625.984C558.286 625.982 558.597 625.883 558.858 625.699C559.051 625.555 559.207 625.368 559.315 625.153C559.422 624.938 559.478 624.701 559.477 624.46V419.825C559.482 419.78 559.482 419.734 559.477 419.689V247.311C559.484 247.266 559.484 247.22 559.477 247.175V42.4904C559.48 42.2495 559.425 42.0114 559.318 41.7959C559.21 41.5804 559.052 41.3938 558.858 41.2516C558.601 41.0586 558.288 40.9543 557.966 40.9543C557.807 40.9548 557.648 40.9799 557.496 41.0286C555.495 41.6732 553.406 41.9992 551.305 41.9949C545.938 41.985 540.794 39.848 537 36.0517C533.205 32.2554 531.069 27.1094 531.059 21.7407C531.057 19.6899 531.37 17.6509 531.988 15.6954C532.066 15.5109 532.108 15.3133 532.112 15.1132C532.113 14.9137 532.076 14.7158 532 14.531C531.925 14.3462 531.814 14.1782 531.674 14.0365C531.533 13.8948 531.366 13.7824 531.182 13.7057C530.998 13.629 530.8 13.5895 530.601 13.5895L530.589 13.5647Z" fill="#F79623"/>
<path d="M12.5684 387.294C12.6418 389.109 13.1848 390.873 14.1441 392.415C15.1035 393.957 16.4463 395.223 18.0414 396.09L28.0588 402.172V387.059C28.9261 386.543 29.6445 385.81 30.1434 384.933C30.6423 384.056 30.9046 383.064 30.9046 382.054C30.9046 381.045 30.6423 380.053 30.1434 379.175C29.6445 378.298 28.9261 377.565 28.0588 377.049V367.647C28.9261 367.131 29.6445 366.399 30.1434 365.521C30.6423 364.644 30.9046 363.652 30.9046 362.642C30.9046 361.633 30.6423 360.641 30.1434 359.763C29.6445 358.886 28.9261 358.154 28.0588 357.638V348.248C28.9259 347.73 29.6439 346.996 30.1425 346.118C30.6411 345.24 30.9032 344.247 30.9032 343.237C30.9032 342.227 30.6411 341.234 30.1425 340.356C29.6439 339.477 28.9259 338.743 28.0588 338.226V328.836C28.9261 328.32 29.6445 327.588 30.1434 326.71C30.6423 325.833 30.9046 324.841 30.9046 323.831C30.9046 322.822 30.6423 321.83 30.1434 320.952C29.6445 320.075 28.9261 319.342 28.0588 318.826V309.424C28.9261 308.908 29.6445 308.176 30.1434 307.298C30.6423 306.421 30.9046 305.429 30.9046 304.419C30.9046 303.41 30.6423 302.418 30.1434 301.54C29.6445 300.663 28.9261 299.931 28.0588 299.415V290.025C28.9261 289.509 29.6445 288.776 30.1434 287.899C30.6423 287.022 30.9046 286.029 30.9046 285.02C30.9046 284.011 30.6423 283.018 30.1434 282.141C29.6445 281.264 28.9261 280.531 28.0588 280.015V264.853L18.0414 270.947C16.4448 271.812 15.1006 273.078 14.141 274.62C13.1814 276.162 12.6394 277.928 12.5684 279.743V387.294Z" fill="#191717"/>
<path d="M573.432 279.743C573.358 277.927 572.814 276.161 571.852 274.619C570.89 273.077 569.544 271.812 567.946 270.947L557.929 264.853V279.978C557.064 280.496 556.349 281.23 555.852 282.107C555.356 282.984 555.095 283.975 555.095 284.983C555.095 285.991 555.356 286.982 555.852 287.859C556.349 288.736 557.064 289.469 557.929 289.988V299.34C557.064 299.859 556.349 300.592 555.852 301.469C555.356 302.346 555.095 303.337 555.095 304.345C555.095 305.353 555.356 306.344 555.852 307.221C556.349 308.098 557.064 308.832 557.929 309.35V318.752C557.064 319.27 556.349 320.004 555.852 320.881C555.356 321.758 555.095 322.749 555.095 323.757C555.095 324.765 555.356 325.756 555.852 326.633C556.349 327.51 557.064 328.243 557.929 328.762V338.152C557.065 338.671 556.35 339.406 555.853 340.284C555.357 341.162 555.096 342.154 555.096 343.162C555.096 344.171 555.357 345.163 555.853 346.041C556.35 346.919 557.065 347.653 557.929 348.173V357.563C557.064 358.082 556.349 358.815 555.852 359.692C555.356 360.569 555.095 361.56 555.095 362.568C555.095 363.576 555.356 364.567 555.852 365.444C556.349 366.321 557.064 367.055 557.929 367.573V376.975C557.064 377.493 556.349 378.227 555.852 379.104C555.356 379.981 555.095 380.972 555.095 381.98C555.095 382.988 555.356 383.979 555.852 384.856C556.349 385.733 557.064 386.466 557.929 386.985V402.16L567.959 396.077C569.552 395.208 570.894 393.942 571.853 392.401C572.812 390.859 573.356 389.096 573.432 387.282V279.743Z" fill="#191717"/>
<path d="M245.731 651.23C245.73 650.465 245.504 649.718 245.079 649.082C244.654 648.446 244.049 647.95 243.343 647.658C242.636 647.366 241.859 647.29 241.109 647.44C240.359 647.591 239.671 647.96 239.131 648.502C238.591 649.043 238.224 649.733 238.077 650.484C237.929 651.234 238.007 652.012 238.302 652.718C238.596 653.424 239.093 654.027 239.73 654.45C240.367 654.873 241.115 655.098 241.88 655.095C242.902 655.092 243.882 654.683 244.603 653.959C245.325 653.234 245.731 652.253 245.731 651.23V651.23Z" fill="#191717"/>
<path d="M266.384 651.23C266.384 650.333 266.118 649.456 265.62 648.71C265.121 647.964 264.413 647.383 263.584 647.04C262.755 646.697 261.843 646.608 260.964 646.784C260.084 646.96 259.277 647.393 258.643 648.029C258.01 648.664 257.579 649.473 257.406 650.353C257.232 651.234 257.324 652.146 257.669 652.974C258.014 653.802 258.597 654.509 259.343 655.006C260.09 655.503 260.968 655.767 261.865 655.764C262.46 655.766 263.049 655.65 263.599 655.422C264.149 655.195 264.648 654.861 265.069 654.439C265.489 654.018 265.821 653.517 266.047 652.966C266.273 652.416 266.388 651.826 266.384 651.23V651.23Z" fill="#191717"/>
<path d="M286.394 651.23C286.394 650.334 286.128 649.457 285.63 648.711C285.132 647.966 284.424 647.385 283.596 647.041C282.768 646.698 281.857 646.608 280.978 646.783C280.099 646.958 279.291 647.39 278.658 648.024C278.024 648.658 277.592 649.466 277.417 650.346C277.242 651.225 277.332 652.137 277.675 652.965C278.018 653.794 278.599 654.502 279.344 655C280.09 655.498 280.966 655.764 281.862 655.764C282.458 655.766 283.048 655.65 283.598 655.422C284.149 655.195 284.649 654.861 285.07 654.44C285.491 654.019 285.825 653.518 286.052 652.967C286.28 652.416 286.396 651.826 286.394 651.23V651.23Z" fill="#191717"/>
<path d="M306.367 651.23C306.367 650.334 306.101 649.457 305.603 648.711C305.105 647.966 304.397 647.385 303.569 647.041C302.741 646.698 301.83 646.608 300.951 646.783C300.071 646.958 299.264 647.39 298.63 648.024C297.996 648.658 297.565 649.466 297.39 650.346C297.215 651.225 297.305 652.137 297.648 652.965C297.991 653.794 298.572 654.502 299.317 655C300.062 655.498 300.938 655.764 301.835 655.764C302.43 655.766 303.02 655.65 303.571 655.422C304.122 655.195 304.622 654.861 305.043 654.44C305.464 654.019 305.798 653.518 306.025 652.967C306.252 652.416 306.368 651.826 306.367 651.23V651.23Z" fill="#191717"/>
<path d="M326.352 651.23C326.352 650.333 326.086 649.456 325.587 648.71C325.089 647.964 324.38 647.383 323.552 647.04C322.723 646.697 321.811 646.608 320.931 646.784C320.052 646.96 319.244 647.393 318.611 648.029C317.978 648.664 317.547 649.473 317.374 650.353C317.2 651.234 317.292 652.146 317.637 652.974C317.982 653.802 318.564 654.509 319.311 655.006C320.058 655.503 320.936 655.767 321.832 655.764C322.427 655.764 323.016 655.647 323.565 655.419C324.114 655.191 324.613 654.857 325.033 654.435C325.453 654.014 325.785 653.514 326.012 652.964C326.238 652.414 326.354 651.825 326.352 651.23V651.23Z" fill="#191717"/>
<path d="M345.669 651.23C345.669 650.465 345.442 649.718 345.017 649.082C344.592 648.446 343.988 647.95 343.281 647.658C342.575 647.366 341.797 647.29 341.047 647.44C340.298 647.591 339.609 647.96 339.07 648.502C338.53 649.043 338.163 649.733 338.015 650.484C337.867 651.234 337.946 652.012 338.24 652.718C338.534 653.424 339.031 654.027 339.668 654.45C340.305 654.873 341.054 655.098 341.818 655.095C342.841 655.092 343.82 654.683 344.542 653.959C345.264 653.234 345.669 652.253 345.669 651.23V651.23Z" fill="#191717"/>
<path d="M213.04 645.594H151.611C146.299 645.594 141.284 648.703 138.052 654.03L136.331 656.879H201.76C204.752 656.879 207.621 655.69 209.736 653.574C211.852 651.457 213.04 648.587 213.04 645.594V645.594Z" fill="#191717"/>
<path d="M372.625 645.594H434.054C439.366 645.594 444.369 648.703 447.601 654.03L449.334 656.879H383.905C380.914 656.879 378.044 655.69 375.929 653.574C373.813 651.457 372.625 648.587 372.625 645.594V645.594Z" fill="#191717"/>
<path d="M41.2209 21.7654C41.2209 20.4816 40.8404 19.2265 40.1275 18.1591C39.4145 17.0916 38.4011 16.2596 37.2155 15.7683C36.0299 15.277 34.7253 15.1484 33.4667 15.3989C32.2081 15.6494 31.0519 16.2676 30.1445 17.1754C29.2371 18.0832 28.6192 19.2399 28.3688 20.499C28.1185 21.7582 28.247 23.0634 28.738 24.2495C29.2291 25.4356 30.0608 26.4494 31.1278 27.1627C32.1948 27.876 33.4493 28.2567 34.7326 28.2567C35.5851 28.2583 36.4295 28.0915 37.2175 27.7659C38.0054 27.4402 38.7213 26.9622 39.3242 26.3591C39.927 25.756 40.4049 25.0397 40.7304 24.2515C41.0559 23.4632 41.2226 22.6183 41.2209 21.7654Z" fill="#191717"/>
<path d="M34.6837 651.726C38.2672 651.726 41.1721 648.819 41.1721 645.234C41.1721 641.649 38.2672 638.743 34.6837 638.743C31.1003 638.743 28.1953 641.649 28.1953 645.234C28.1953 648.819 31.1003 651.726 34.6837 651.726Z" fill="#191717"/>
<path d="M557.805 21.7655C557.808 20.4787 557.429 19.2201 556.716 18.1489C556.003 17.0778 554.989 16.2423 553.801 15.7481C552.613 15.254 551.306 15.1234 550.044 15.373C548.782 15.6225 547.623 16.241 546.712 17.15C545.802 18.0591 545.181 19.2179 544.93 20.4798C544.678 21.7417 544.806 23.05 545.297 24.2391C545.789 25.4282 546.622 26.4447 547.692 27.1599C548.761 27.875 550.018 28.2568 551.304 28.2568C552.158 28.2584 553.003 28.0917 553.791 27.7662C554.58 27.4408 555.297 26.9629 555.901 26.3599C556.504 25.757 556.983 25.0408 557.31 24.2525C557.637 23.4641 557.805 22.619 557.805 21.7655V21.7655Z" fill="#191717"/>
<path d="M551.317 651.726C554.9 651.726 557.805 648.819 557.805 645.234C557.805 641.649 554.9 638.743 551.317 638.743C547.733 638.743 544.828 641.649 544.828 645.234C544.828 648.819 547.733 651.726 551.317 651.726Z" fill="#191717"/>
<defs>
<linearGradient id="paint0_linear_1079_251" x1="290.542" y1="10.0218" x2="295.487" y2="661.289" gradientUnits="userSpaceOnUse">
<stop stop-color="#FFD976"/>
<stop offset="1" stop-color="#FAA64E"/>
</linearGradient>
</defs>
</svg>
