<svg width="44" height="44" viewBox="0 0 44 44" fill="none" xmlns="http://www.w3.org/2000/svg">
<path fill-rule="evenodd" clip-rule="evenodd" d="M21.9991 1.93335L29.1493 15.2944L43.9983 16.0682V18.0014L33.5678 28.966L35.5953 42.0665V43.9997L21.9991 37.4153L8.40303 43.9997V42.0665L10.4305 28.966L0 18.0014V16.0682L14.8496 15.2944L21.9991 1.93335Z" fill="#4D4D4D"/>
<path fill-rule="evenodd" clip-rule="evenodd" d="M21.9991 0L29.1493 13.361L43.9983 16.068L33.5678 27.0327L35.5953 42.0664L21.9991 35.482L8.40303 42.0664L10.4305 27.0327L0 16.068L14.8496 13.361L21.9991 0Z" fill="#999999"/>
<path fill-rule="evenodd" clip-rule="evenodd" d="M21.9999 2.99878L15.7719 14.6365L2.8374 16.9945L11.9233 26.5452L10.1569 39.6402L21.9999 33.9052L33.843 39.6402L32.0765 26.5452L41.1625 16.9945L28.2274 14.6365L21.9999 2.99878Z" fill="url(#paint0_radial_19_2982)"/>
<path fill-rule="evenodd" clip-rule="evenodd" d="M21.999 35.4819V33.905L10.1559 39.64L8.40283 42.0663L21.999 35.4819Z" fill="url(#paint1_radial_19_2982)"/>
<path fill-rule="evenodd" clip-rule="evenodd" d="M10.1559 39.6404L11.9224 26.5454L10.4303 27.033L8.40283 42.0667L10.1559 39.6404Z" fill="url(#paint2_radial_19_2982)"/>
<path fill-rule="evenodd" clip-rule="evenodd" d="M0 16.0684L10.4305 27.033L11.9226 26.5454L2.83662 16.9947L0 16.0684Z" fill="url(#paint3_radial_19_2982)"/>
<path fill-rule="evenodd" clip-rule="evenodd" d="M2.83662 16.9944L15.7711 14.6365L14.8496 13.3611L0 16.0681L2.83662 16.9944Z" fill="url(#paint4_radial_19_2982)"/>
<path fill-rule="evenodd" clip-rule="evenodd" d="M21.9996 0L14.8501 13.361L15.7716 14.6364L21.9996 2.99868V0Z" fill="url(#paint5_radial_19_2982)"/>
<path fill-rule="evenodd" clip-rule="evenodd" d="M21.999 35.4819V33.905L33.8421 39.64L35.5951 42.0663L21.999 35.4819Z" fill="url(#paint6_radial_19_2982)"/>
<path fill-rule="evenodd" clip-rule="evenodd" d="M33.8441 39.6404L32.0776 26.5454L33.5697 27.033L35.5972 42.0667L33.8441 39.6404Z" fill="url(#paint7_radial_19_2982)"/>
<path fill-rule="evenodd" clip-rule="evenodd" d="M44.0002 16.0684L33.5697 27.033L32.0776 26.5454L41.1636 16.9947L44.0002 16.0684Z" fill="url(#paint8_radial_19_2982)"/>
<path fill-rule="evenodd" clip-rule="evenodd" d="M41.1626 16.9944L28.2275 14.6365L29.1502 13.3611L43.9992 16.0681L41.1626 16.9944Z" fill="url(#paint9_radial_19_2982)"/>
<path fill-rule="evenodd" clip-rule="evenodd" d="M21.9989 0L29.149 13.361L28.2264 14.6364L21.9989 2.99868V0Z" fill="url(#paint10_radial_19_2982)"/>
<path style="mix-blend-mode:screen" opacity="0.5" fill-rule="evenodd" clip-rule="evenodd" d="M10.4129 37.727L32.5905 15.4322L28.2254 14.6364L25.0841 8.76538L9.70996 24.2207L11.9213 26.5451L10.4129 37.727Z" fill="url(#paint11_radial_19_2982)"/>
<path style="mix-blend-mode:screen" opacity="0.5" fill-rule="evenodd" clip-rule="evenodd" d="M32.2269 27.668L24.7144 35.2202L28.7244 37.162L32.9365 32.927L32.2269 27.668Z" fill="url(#paint12_radial_19_2982)"/>
<path fill-rule="evenodd" clip-rule="evenodd" d="M8.40283 44L21.999 37.4156V35.4824L8.40283 42.0668V44Z" fill="url(#paint13_radial_19_2982)"/>
<path fill-rule="evenodd" clip-rule="evenodd" d="M21.999 37.4156L35.5951 44V42.0668L21.999 35.4824V37.4156Z" fill="url(#paint14_radial_19_2982)"/>
<path fill-rule="evenodd" clip-rule="evenodd" d="M10.2022 28.7258L10.4305 27.033L0 16.0684V18.0016L10.2022 28.7258Z" fill="url(#paint15_radial_19_2982)"/>
<path fill-rule="evenodd" clip-rule="evenodd" d="M43.9988 16.0684L33.5684 27.033L33.7966 28.7258L43.9988 18.0016V16.0684Z" fill="url(#paint16_radial_19_2982)"/>
<path style="mix-blend-mode:screen" fill-rule="evenodd" clip-rule="evenodd" d="M19.2513 5.13428L16.6587 9.97891C17.1777 10.093 17.7295 10.6001 17.5808 11.2549L20.1734 6.41027C19.8006 6.39441 19.2628 5.70729 19.2513 5.13489V5.13428Z" fill="url(#paint17_radial_19_2982)"/>
<path style="mix-blend-mode:screen" fill-rule="evenodd" clip-rule="evenodd" d="M5.64327 16.4823L12.624 15.2106C12.1785 15.1373 11.5533 14.3269 11.702 13.9346L4.72363 15.2069C5.2912 15.3778 5.93282 15.9673 5.64509 16.4823H5.64327Z" fill="url(#paint18_radial_19_2982)"/>
<path fill-rule="evenodd" clip-rule="evenodd" d="M5.43231 19.7233L2.77537 17.1182L0.701172 16.2969L2.86885 16.8516C6.91952 16.187 13.1233 15.1905 15.5308 14.5461L15.0063 13.5789L15.7505 14.3911L21.252 4.39429L15.8646 14.8659C12.8526 15.3492 6.80905 16.4275 3.02789 17.0529L5.43231 19.7239V19.7233Z" fill="white"/>
<path style="mix-blend-mode:screen" fill-rule="evenodd" clip-rule="evenodd" d="M28.7232 38.7378C28.5198 38.2533 28.5277 37.3837 28.7232 37.161L24.7168 35.2192C24.9857 35.6794 24.9936 36.3445 24.7168 36.7961L28.7232 38.7378Z" fill="url(#paint19_radial_19_2982)"/>
<defs>
<radialGradient id="paint0_radial_19_2982" cx="0" cy="0" r="1" gradientUnits="userSpaceOnUse" gradientTransform="translate(17.3107 6.3575) scale(41.0203 41.237)">
<stop stop-color="#FCF800"/>
<stop offset="1" stop-color="#FC9700"/>
</radialGradient>
<radialGradient id="paint1_radial_19_2982" cx="0" cy="0" r="1" gradientUnits="userSpaceOnUse" gradientTransform="translate(18.8236 40.2112) scale(27.0466 27.1895)">
<stop stop-color="#BD5F00"/>
<stop offset="1" stop-color="#EBA82C"/>
</radialGradient>
<radialGradient id="paint2_radial_19_2982" cx="0" cy="0" r="1" gradientUnits="userSpaceOnUse" gradientTransform="translate(8.1497 43.1065) scale(19.5043 19.6074)">
<stop stop-color="#F9C433"/>
<stop offset="1" stop-color="#FF9F33"/>
</radialGradient>
<radialGradient id="paint3_radial_19_2982" cx="0" cy="0" r="1" gradientUnits="userSpaceOnUse" gradientTransform="translate(13.1056 27.3168) scale(14.2341 14.3093)">
<stop stop-color="#CF8100"/>
<stop offset="1" stop-color="#DE9000"/>
</radialGradient>
<radialGradient id="paint4_radial_19_2982" cx="0" cy="0" r="1" gradientUnits="userSpaceOnUse" gradientTransform="translate(0.70779 15.5659) scale(12.4567 12.5226)">
<stop stop-color="#FFF8C9"/>
<stop offset="1" stop-color="#FFD23B"/>
</radialGradient>
<radialGradient id="paint5_radial_19_2982" cx="0" cy="0" r="1" gradientUnits="userSpaceOnUse" gradientTransform="translate(18.502 2.74055) scale(11.3216 11.3814)">
<stop stop-color="#FFF8C9"/>
<stop offset="1" stop-color="#FFE89C"/>
</radialGradient>
<radialGradient id="paint6_radial_19_2982" cx="0" cy="0" r="1" gradientUnits="userSpaceOnUse" gradientTransform="translate(25.0742 23.7221) scale(26.8638 27.0058)">
<stop stop-color="#BD5F00"/>
<stop offset="1" stop-color="#EBA82C"/>
</radialGradient>
<radialGradient id="paint7_radial_19_2982" cx="0" cy="0" r="1" gradientUnits="userSpaceOnUse" gradientTransform="translate(33.2334 27.6298) scale(36.2242 36.4156)">
<stop stop-color="#BD5F00"/>
<stop offset="1" stop-color="#EBA82C"/>
</radialGradient>
<radialGradient id="paint8_radial_19_2982" cx="0" cy="0" r="1" gradientUnits="userSpaceOnUse" gradientTransform="translate(34.7182 28.0246) scale(19.3264 19.4286)">
<stop stop-color="#CF8100"/>
<stop offset="1" stop-color="#DE9000"/>
</radialGradient>
<radialGradient id="paint9_radial_19_2982" cx="0" cy="0" r="1" gradientUnits="userSpaceOnUse" gradientTransform="translate(29.7742 12.8509) scale(15.7462 15.8294)">
<stop stop-color="#CF8100"/>
<stop offset="1" stop-color="#EBA82C"/>
</radialGradient>
<radialGradient id="paint10_radial_19_2982" cx="0" cy="0" r="1" gradientUnits="userSpaceOnUse" gradientTransform="translate(22.6557 0.136082) scale(17.9934 18.0885)">
<stop stop-color="#F9C433"/>
<stop offset="1" stop-color="#FF9F33"/>
</radialGradient>
<radialGradient id="paint11_radial_19_2982" cx="0" cy="0" r="1" gradientUnits="userSpaceOnUse" gradientTransform="translate(17.6844 6.43979) scale(31.4056 31.5716)">
<stop stop-color="#FFF261"/>
<stop offset="0.11" stop-color="#FAEE5F"/>
<stop offset="0.23" stop-color="#EDE15A"/>
<stop offset="0.36" stop-color="#D6CB52"/>
<stop offset="0.5" stop-color="#B7AD46"/>
<stop offset="0.64" stop-color="#8E8736"/>
<stop offset="0.78" stop-color="#5C5823"/>
<stop offset="0.92" stop-color="#23210D"/>
<stop offset="1"/>
</radialGradient>
<radialGradient id="paint12_radial_19_2982" cx="0" cy="0" r="1" gradientUnits="userSpaceOnUse" gradientTransform="translate(36.3692 23.397) scale(20.9587 21.0695)">
<stop stop-color="#FFF261"/>
<stop offset="0.11" stop-color="#FAEE5F"/>
<stop offset="0.23" stop-color="#EDE15A"/>
<stop offset="0.36" stop-color="#D6CB52"/>
<stop offset="0.5" stop-color="#B7AD46"/>
<stop offset="0.64" stop-color="#8E8736"/>
<stop offset="0.78" stop-color="#5C5823"/>
<stop offset="0.92" stop-color="#23210D"/>
<stop offset="1"/>
</radialGradient>
<radialGradient id="paint13_radial_19_2982" cx="0" cy="0" r="1" gradientUnits="userSpaceOnUse" gradientTransform="translate(15.8419 56.2584) scale(21.1153 21.2269)">
<stop stop-color="#DE8128"/>
<stop offset="1" stop-color="#994115"/>
</radialGradient>
<radialGradient id="paint14_radial_19_2982" cx="0" cy="0" r="1" gradientUnits="userSpaceOnUse" gradientTransform="translate(33.6861 44.3338) scale(21.4292 21.5424)">
<stop stop-color="#DE8128"/>
<stop offset="1" stop-color="#994115"/>
</radialGradient>
<radialGradient id="paint15_radial_19_2982" cx="0" cy="0" r="1" gradientUnits="userSpaceOnUse" gradientTransform="translate(-0.0783061 15.9805) scale(21.8814 21.997)">
<stop stop-color="#DE8128"/>
<stop offset="1" stop-color="#994115"/>
</radialGradient>
<radialGradient id="paint16_radial_19_2982" cx="0" cy="0" r="1" gradientUnits="userSpaceOnUse" gradientTransform="translate(46.4876 15.704) scale(19.6251 19.7288)">
<stop stop-color="#DE8128"/>
<stop offset="1" stop-color="#994115"/>
</radialGradient>
<radialGradient id="paint17_radial_19_2982" cx="0" cy="0" r="1" gradientUnits="userSpaceOnUse" gradientTransform="translate(18.1714 4.99392) scale(10.2976 10.352)">
<stop stop-color="#FFFACF"/>
<stop offset="1"/>
</radialGradient>
<radialGradient id="paint18_radial_19_2982" cx="0" cy="0" r="1" gradientUnits="userSpaceOnUse" gradientTransform="translate(4.91727 17.5063) scale(11.3046 11.3644)">
<stop stop-color="#FFFACF"/>
<stop offset="1"/>
</radialGradient>
<radialGradient id="paint19_radial_19_2982" cx="0" cy="0" r="1" gradientUnits="userSpaceOnUse" gradientTransform="translate(29.865 43.7875) scale(11.1231 11.1819)">
<stop stop-color="#FFF261"/>
<stop offset="0.11" stop-color="#FAEE5F"/>
<stop offset="0.23" stop-color="#EDE15A"/>
<stop offset="0.36" stop-color="#D6CB52"/>
<stop offset="0.5" stop-color="#B7AD46"/>
<stop offset="0.64" stop-color="#8E8736"/>
<stop offset="0.78" stop-color="#5C5823"/>
<stop offset="0.92" stop-color="#23210D"/>
<stop offset="1"/>
</radialGradient>
</defs>
</svg>
