<svg preserveAspectRatio="none" viewBox="0 0 422 881" fill="none" xmlns="http://www.w3.org/2000/svg">
<path fill-rule="evenodd" clip-rule="evenodd" d="M314.813 0L324.072 11.4112H406.776V99.0097L416.035 110.405V144.074L421.588 150.892V245.598L416.035 252.416V350.974L406.776 362.369V698.403L416.035 709.798V880.982H269.63L262.571 855.968H158.965L151.919 880.982H5.50053V775.042L0 768.224V279.429L5.53982 272.611V126.603L1.11321 121.171V61.3754L5.53982 55.9438V0H51.0762L60.3485 11.4112H91.4657L100.725 0H178.177L187.45 11.4112H255.551L264.81 0H314.813ZM272.131 876.614H377.178L382.901 869.571H276.204L274.973 865.219L269.145 844.556H152.39L145.371 869.619H14.799V137.885L9.07584 130.826V876.614H149.404L156.463 851.616H265.072L272.131 876.614ZM278.68 865.219H403.24V15.8274H18.335V865.219H142.856L149.915 840.205H271.712L278.771 865.219H278.68ZM412.473 712.103V832.984L406.75 840.027V705.124L412.473 712.167V712.103ZM412.473 839.769V876.549H382.613L388.336 869.506H406.776V846.877L412.499 839.834L412.473 839.769ZM9.01037 124.153V4.36785H49.1379L54.8611 11.4112H14.7597V131.196L9.03655 124.153H9.01037ZM5.47431 275.512V292.613L1.54537 297.448V280.283L5.47431 275.448V275.512ZM1.54537 691.053L5.47431 695.889V772.205L1.54537 767.37V691.053ZM102.585 4.36785H176.278L182.002 11.4112H96.9138L102.637 4.36785H102.585ZM266.709 4.36785H312.809L318.532 11.4112H261.065L266.788 4.36785H266.709ZM412.539 112.774V348.605L406.815 355.648V105.731L412.539 112.774Z" fill="#E8C007"/>
</svg>
