<svg preserveAspectRatio="none" viewBox="0 0 461 1005" fill="none" xmlns="http://www.w3.org/2000/svg">
<path fill-rule="evenodd" clip-rule="evenodd" d="M4.55821 67H456.442L461 72.6449V999.355L456.442 1005H4.55821L0 999.355V72.6449L4.55821 67Z" fill="#E8C007"/>
<path fill-rule="evenodd" clip-rule="evenodd" d="M450.139 999H6.86102L5 1005H452L450.139 999Z" fill="#E8C007"/>
<path fill-rule="evenodd" clip-rule="evenodd" d="M4 998.5L457 997L452 993.5L9.63387 994L4 998.5Z" fill="#FFDB3A"/>
<path fill-rule="evenodd" clip-rule="evenodd" d="M452 78.3084V993.692L457 997V75L452 78.3084Z" fill="#FFDB3A"/>
<path fill-rule="evenodd" clip-rule="evenodd" d="M9 78.3084L9.5 994L4 998.5V75L9 78.3084Z" fill="#FFDB3A"/>
<path fill-rule="evenodd" clip-rule="evenodd" d="M4 75H457.5L452 78.5H9L4 75Z" fill="#FFDB3A"/>
<path fill-rule="evenodd" clip-rule="evenodd" d="M9 78H452V994H9V78Z" fill="#191717"/>
<g style="mix-blend-mode:screen" opacity="0.2">
<path fill-rule="evenodd" clip-rule="evenodd" d="M452 994V78H406.511L9 830.225V994H452Z" fill="#191717"/>
</g>
<path fill-rule="evenodd" clip-rule="evenodd" d="M454.131 73H8.86934L7 68.2929H49.4799C53.6011 68.3528 57.6618 67.2554 61.2357 65.1158C64.8096 62.9762 67.7649 59.8734 69.7915 56.133L96.0874 9.15402C97.6035 6.34363 99.8179 4.01064 102.498 2.40013C105.178 0.78962 108.225 -0.0389673 111.318 0.00140809H351.745C354.838 -0.0389673 357.885 0.78962 360.565 2.40013C363.245 4.01064 365.459 6.34363 366.975 9.15402L393.208 56.12C395.237 59.8614 398.195 62.9647 401.771 65.1042C405.347 67.2438 409.41 68.3407 413.533 68.2799H456L454.131 73Z" fill="#E8C007"/>
<path fill-rule="evenodd" clip-rule="evenodd" d="M109.171 13.3411L82.5152 61.1179C82.0051 62.0504 81.7382 63.1063 81.7412 64.1801C81.7442 65.2539 82.017 66.3081 82.5323 67.2376C83.0476 68.167 83.7874 68.9392 84.6779 69.4771C85.5684 70.0151 86.5785 70.2999 87.6075 70.3032H375.809C376.838 70.2999 377.848 70.0151 378.739 69.4771C379.629 68.9392 380.369 68.167 380.884 67.2376C381.4 66.3081 381.672 65.2539 381.675 64.1801C381.678 63.1063 381.412 62.0504 380.902 61.1179L354.245 13.3411C353.339 11.7078 352.038 10.3506 350.473 9.40451C348.904 8.46976 347.125 7.98534 345.318 8.00048H118.074C116.268 7.98255 114.491 8.46816 112.926 9.40707C111.361 10.346 110.065 11.7041 109.171 13.3411Z" fill="#FFDB3A"/>
<path fill-rule="evenodd" clip-rule="evenodd" d="M88.4487 64.0612H376.65L349.994 16.2844C349.628 15.578 349.082 14.9909 348.417 14.588C347.751 14.1851 346.991 13.982 346.222 14.0013H118.915C118.141 13.988 117.378 14.1871 116.702 14.5786C116.033 14.9881 115.482 15.5771 115.105 16.2844L88.4487 64.0612Z" fill="#5B6744"/>
<path style="mix-blend-mode:screen" fill-rule="evenodd" clip-rule="evenodd" d="M351.468 22.161L348.111 16.1381C347.873 15.6618 347.51 15.2658 347.065 14.9963C346.62 14.7268 346.11 14.5949 345.596 14.6159H118.301C117.785 14.605 117.274 14.7314 116.818 14.9834C116.375 15.2658 116.011 15.6638 115.761 16.1381L112.404 22.161H351.468Z" fill="url(#paint0_linear_7_63767)"/>
<path style="mix-blend-mode:screen" d="M114.333 21.2534L161.472 21.4896L114.069 21.7127L114.333 21.2534ZM111.818 25.7936L161.497 26.0298L111.554 26.2791L111.818 25.7936ZM109.304 30.3338L161.51 30.5831L109.014 30.8455L109.304 30.3338ZM106.789 34.8739L161.522 35.1364L106.487 35.4119L106.789 34.8739ZM104.274 39.4141L161.547 39.6897L103.96 39.9652L104.274 39.4141ZM101.759 43.9412L161.56 44.243L101.433 44.5317L101.759 43.9412ZM99.2447 48.4813L161.585 48.7963L98.9052 49.0981L99.2447 48.4813ZM96.73 53.0215L161.598 53.3364L96.3779 53.6645L96.73 53.0215ZM94.2152 57.5617L161.61 57.8897L93.838 58.2309L94.2152 57.5617ZM91.7005 62.1019L161.635 62.443L91.3232 62.7973L91.7005 62.1019Z" fill="url(#paint1_linear_7_63767)"/>
<path style="mix-blend-mode:screen" opacity="0.5" d="M351.483 21.2534L304.345 21.4896L351.747 21.7127L351.483 21.2534ZM353.998 25.7936L304.319 26.0298L354.262 26.2791L353.998 25.7936ZM356.513 30.3338L304.307 30.5831L356.802 30.8455L356.513 30.3338ZM359.028 34.8739L304.294 35.1364L359.329 35.4119L359.028 34.8739ZM361.542 39.4141L304.269 39.6897L361.857 39.9652L361.542 39.4141ZM364.057 43.9412L304.257 44.243L364.384 44.5317L364.057 43.9412ZM366.572 48.4813L304.231 48.7963L366.911 49.0981L366.572 48.4813ZM369.087 53.0215L304.219 53.3364L369.439 53.6645L369.087 53.0215ZM371.601 57.5617L304.206 57.8897L371.979 58.2309L371.601 57.5617ZM374.116 62.1019L304.181 62.443L374.493 62.7973L374.116 62.1019Z" fill="url(#paint2_linear_7_63767)"/>
<defs>
<linearGradient id="paint0_linear_7_63767" x1="231.942" y1="22.161" x2="231.942" y2="14.6159" gradientUnits="userSpaceOnUse">
<stop stop-color="#010101"/>
<stop offset="1" stop-color="#3CAA49"/>
</linearGradient>
<linearGradient id="paint1_linear_7_63767" x1="91.1598" y1="42.0254" x2="161.472" y2="42.0254" gradientUnits="userSpaceOnUse">
<stop stop-color="#079A48"/>
<stop offset="1" stop-color="#010101"/>
</linearGradient>
<linearGradient id="paint2_linear_7_63767" x1="304.345" y1="42.0254" x2="374.657" y2="42.0254" gradientUnits="userSpaceOnUse">
<stop stop-color="#010101"/>
<stop offset="1" stop-color="#079A48"/>
</linearGradient>
</defs>
</svg>
