<svg width="40" height="40" viewBox="0 0 40 40" fill="none" xmlns="http://www.w3.org/2000/svg">
<g clip-path="url(#clip0_7_66950)">
<path d="M24.331 13.3987L17.915 21.0939L15.669 18.4011C15.459 18.1491 15.2014 17.9409 14.9109 17.7884C14.6205 17.636 14.3028 17.5422 13.9762 17.5125C13.6495 17.4828 13.3201 17.5178 13.0069 17.6153C12.6938 17.7129 12.4029 17.8712 12.1509 18.0812C11.8989 18.2912 11.6907 18.5488 11.5382 18.8393C11.3858 19.1297 11.292 19.4474 11.2623 19.774C11.2326 20.1007 11.2676 20.4301 11.3651 20.7432C11.4627 21.0564 11.621 21.3473 11.831 21.5993L15.9961 26.5993C16.2302 26.881 16.5234 27.1077 16.8549 27.2634C17.1865 27.4191 17.5482 27.5 17.9145 27.5002C18.2807 27.5004 18.6426 27.4201 18.9743 27.2648C19.306 27.1095 19.5995 26.8832 19.834 26.6018L28.169 16.6018C28.3808 16.35 28.5408 16.0588 28.6399 15.745C28.7389 15.4312 28.775 15.1009 28.7461 14.7731C28.7172 14.4453 28.6239 14.1265 28.4715 13.8348C28.319 13.5432 28.1105 13.2845 27.8579 13.0737C27.6052 12.8628 27.3134 12.7039 26.9993 12.6061C26.6851 12.5083 26.3546 12.4735 26.027 12.5037C25.6993 12.5339 25.3808 12.6285 25.0898 12.7821C24.7987 12.9357 24.5409 13.1452 24.331 13.3987Z" fill="#FDCF1D"/>
<path d="M20 0C16.0444 0 12.1776 1.17298 8.8886 3.37061C5.59962 5.56824 3.03617 8.69181 1.52242 12.3463C0.00866572 16.0009 -0.387401 20.0222 0.384303 23.9018C1.15601 27.7814 3.06082 31.3451 5.85787 34.1421C8.65492 36.9392 12.2186 38.844 16.0982 39.6157C19.9778 40.3874 23.9992 39.9913 27.6537 38.4776C31.3082 36.9638 34.4318 34.4004 36.6294 31.1114C38.827 27.8224 40 23.9556 40 20C39.9944 14.6974 37.8854 9.61361 34.1359 5.8641C30.3864 2.1146 25.3026 0.00564707 20 0V0ZM20 35C17.0333 35 14.1332 34.1203 11.6665 32.472C9.19972 30.8238 7.27713 28.4811 6.14182 25.7403C5.0065 22.9994 4.70945 19.9834 5.28823 17.0736C5.86701 14.1639 7.29562 11.4912 9.39341 9.3934C11.4912 7.29561 14.1639 5.867 17.0737 5.28822C19.9834 4.70944 22.9994 5.00649 25.7403 6.14181C28.4812 7.27712 30.8238 9.19971 32.4721 11.6664C34.1203 14.1332 35 17.0333 35 20C34.9957 23.9769 33.4139 27.7897 30.6018 30.6018C27.7897 33.4139 23.9769 34.9957 20 35Z" fill="#FDCF1D"/>
</g>
<defs>
<clipPath id="clip0_7_66950">
<rect width="40" height="40" fill="white"/>
</clipPath>
</defs>
</svg>
