<svg preserveAspectRatio="none" viewBox="-1560 -150 2003 970" fill="none" xmlns="http://www.w3.org/2000/svg">
<path fill-rule="evenodd" clip-rule="evenodd" d="M439.168 62.2988H2.83187L1 58.2817H42.6285C46.667 58.3328 50.6463 57.3962 54.1485 55.5703C57.6508 53.7444 60.5469 51.0964 62.5329 47.9044L88.3017 7.81211C89.7875 5.4137 91.9575 3.42271 94.5837 2.04829C97.21 0.673868 100.196 -0.033255 103.227 0.00120168H338.835C341.866 -0.033255 344.852 0.673868 347.478 2.04829C350.104 3.42271 352.274 5.4137 353.76 7.81211L379.467 47.8932C381.455 51.0861 384.353 53.7345 387.858 55.5604C391.362 57.3863 395.344 58.3225 399.384 58.2706H441L439.168 62.2988Z" fill="#E8C007"/>
<path fill-rule="evenodd" clip-rule="evenodd" d="M103.43 11.141L77.7457 49.4208C77.2542 50.1679 76.9971 51.0139 77 51.8743C77.0029 52.7346 77.2657 53.5793 77.7622 54.324C78.2587 55.0687 78.9716 55.6874 79.8296 56.1184C80.6877 56.5494 81.661 56.7776 82.6524 56.7802H360.348C361.339 56.7776 362.312 56.5494 363.17 56.1184C364.028 55.6874 364.741 55.0687 365.238 54.324C365.734 53.5793 365.997 52.7346 366 51.8743C366.003 51.0139 365.746 50.1679 365.254 49.4208L339.57 11.141C338.696 9.83232 337.443 8.74493 335.935 7.9869C334.423 7.23795 332.709 6.84983 330.968 6.86196H112.008C110.268 6.84759 108.556 7.23667 107.048 7.98895C105.54 8.74123 104.291 9.8294 103.43 11.141V11.141Z" fill="#FFDB3A"/>
<path fill-rule="evenodd" clip-rule="evenodd" d="M81 53.1499H362.797L336.733 13.7874C336.376 13.2054 335.842 12.7217 335.191 12.3897C334.54 12.0577 333.797 11.8904 333.045 11.9063H110.789C110.033 11.8954 109.287 12.0594 108.625 12.382C107.971 12.7193 107.432 13.2046 107.064 13.7874L81 53.1499Z" fill="#5B6744"/>
<path style="mix-blend-mode:screen" fill-rule="evenodd" clip-rule="evenodd" d="M338.175 18.6287L334.892 13.6665C334.659 13.2741 334.305 12.9478 333.869 12.7258C333.434 12.5038 332.936 12.3951 332.433 12.4124H110.189C109.684 12.4034 109.185 12.5076 108.739 12.7151C108.306 12.9478 107.95 13.2758 107.706 13.6665L104.423 18.6287H338.175Z" fill="url(#paint0_linear_19_3757)"/>
<path style="mix-blend-mode:screen" d="M106.31 17.8813L152.401 18.076L106.051 18.2597L106.31 17.8813ZM103.851 21.6219L152.425 21.8165L103.593 22.0219L103.851 21.6219V21.6219ZM101.392 25.3625L152.438 25.5679L101.109 25.7841L101.392 25.3625ZM98.933 29.1031L152.45 29.3193L98.638 29.5463L98.933 29.1031ZM96.4742 32.8436L152.475 33.0707L96.1668 33.2977L96.4742 32.8436V32.8436ZM94.0153 36.5734L152.487 36.822L93.6956 37.0599L94.0153 36.5734ZM91.5565 40.314L152.511 40.5734L91.2245 40.8221L91.5565 40.314V40.314ZM89.0976 44.0545L152.524 44.314L88.7534 44.5843L89.0976 44.0545ZM86.6387 47.7951L152.536 48.0654L86.2699 48.3465L86.6387 47.7951V47.7951ZM84.1799 51.5357L152.561 51.8168L83.811 52.1087L84.1799 51.5357Z" fill="url(#paint1_linear_19_3757)"/>
<path style="mix-blend-mode:screen" opacity="0.5" d="M338.19 17.8813L292.098 18.076L338.448 18.2597L338.19 17.8813ZM340.648 21.6219L292.074 21.8165L340.907 22.0219L340.648 21.6219ZM343.107 25.3625L292.061 25.5679L343.39 25.7841L343.107 25.3625ZM345.566 29.1031L292.049 29.3193L345.861 29.5463L345.566 29.1031ZM348.025 32.8436L292.025 33.0707L348.332 33.2977L348.025 32.8436V32.8436ZM350.484 36.5734L292.012 36.822L350.804 37.0599L350.484 36.5734V36.5734ZM352.943 40.314L291.988 40.5734L353.275 40.8221L352.943 40.314ZM355.402 44.0545L291.975 44.314L355.746 44.5843L355.402 44.0545ZM357.86 47.7951L291.963 48.0654L358.229 48.3465L357.86 47.7951ZM360.319 51.5357L291.938 51.8168L360.688 52.1087L360.319 51.5357Z" fill="url(#paint2_linear_19_3757)"/>
<path d="M142.711 42.5798C145.489 42.5798 148.027 41.3778 149.817 39.508L146.985 36.9437C145.917 38.1724 144.394 39.0005 142.711 39.0005C139.64 39.0005 137.022 36.2759 137.022 33.0705C137.022 29.8918 139.64 27.1672 142.711 27.1672C144.394 27.1672 145.917 27.9953 146.959 29.224L149.817 26.6597C148.027 24.7632 145.489 23.5879 142.711 23.5879C137.422 23.5879 132.962 27.9151 132.962 33.0705C132.962 38.2258 137.422 42.5798 142.711 42.5798ZM160.243 28.1288C158.48 28.1288 156.958 28.9035 156.103 30.1322V23.5879H152.203V42.2593H156.103V34.0855C156.103 32.5897 157.358 31.4144 158.988 31.4144C160.537 31.4144 161.632 32.5897 161.632 34.2992V42.2593H165.372V33.4712C165.372 30.3192 163.262 28.1288 160.243 28.1288ZM174.79 42.5798C178.93 42.5798 182.323 39.321 182.323 35.341C182.323 31.3609 178.93 28.1288 174.79 28.1288C170.65 28.1288 167.257 31.3609 167.257 35.341C167.257 39.321 170.65 42.5798 174.79 42.5798ZM174.79 39.2943C172.706 39.2943 170.997 37.5046 170.997 35.341C170.997 33.1773 172.706 31.4144 174.79 31.4144C176.873 31.4144 178.583 33.1773 178.583 35.341C178.583 37.5046 176.873 39.2943 174.79 39.2943ZM191.198 42.5798C195.338 42.5798 198.73 39.321 198.73 35.341C198.73 31.3609 195.338 28.1288 191.198 28.1288C187.057 28.1288 183.665 31.3609 183.665 35.341C183.665 39.321 187.057 42.5798 191.198 42.5798ZM191.198 39.2943C189.114 39.2943 187.405 37.5046 187.405 35.341C187.405 33.1773 189.114 31.4144 191.198 31.4144C193.281 31.4144 194.991 33.1773 194.991 35.341C194.991 37.5046 193.281 39.2943 191.198 39.2943ZM205.407 42.5798C208.8 42.5798 211.043 40.8436 211.043 38.119C211.043 35.1006 208.399 34.2992 205.995 33.6849C204.152 33.1773 203.377 32.9636 203.377 32.2157C203.377 31.4411 204.179 30.9336 205.22 30.9336C206.502 30.9336 207.998 31.5479 209.227 32.3493L210.669 29.8384C209.12 28.8233 207.197 28.1288 205.22 28.1288C201.961 28.1288 199.825 29.9986 199.825 32.6164C199.825 35.341 202.015 36.1156 204.873 36.8101C206.369 37.1841 207.491 37.558 207.491 38.4395C207.491 39.2409 206.796 39.7217 205.487 39.7217C204.018 39.7217 202.202 39.0539 200.759 38.0388L199.183 40.4963C200.866 41.8319 203.217 42.5798 205.407 42.5798ZM219.391 39.5614C217.494 39.5614 216.185 38.2525 215.838 36.3827H226.255C226.255 31.2541 223.638 28.1288 219.31 28.1288C215.277 28.1288 212.125 31.1472 212.125 35.3143C212.125 39.5614 215.411 42.5798 219.524 42.5798C221.554 42.5798 223.932 41.725 225.16 40.4429L222.97 38.1991C222.088 39.0005 220.646 39.5614 219.391 39.5614ZM219.337 31.1472C221.1 31.1472 222.195 32.3493 222.516 34.0588H215.865C216.292 32.2958 217.601 31.1472 219.337 31.1472ZM235.995 42.2593H245.638C249.164 42.2593 251.675 40.2292 251.675 37.2909C251.675 35.2608 250.42 33.5513 248.283 32.5897C249.912 31.7349 250.874 30.3726 250.874 28.5028C250.874 25.8316 248.577 23.9084 245.291 23.9084H235.995V42.2593ZM239.922 31.3075V27.2741H244.329C245.772 27.2741 246.814 28.1288 246.814 29.2774C246.814 30.4527 245.772 31.3075 244.329 31.3075H239.922ZM239.922 38.8936V34.4061H244.917C246.493 34.4061 247.615 35.341 247.615 36.6498C247.615 37.9587 246.493 38.8936 244.917 38.8936H239.922ZM260.152 28.1288C258.229 28.1288 256.333 28.6631 254.383 29.6514L255.691 32.2424C256.787 31.6815 257.989 31.2541 259.271 31.2541C261.541 31.2541 262.476 32.5363 262.476 34.0054V34.2992C261.301 33.8184 260.045 33.578 258.924 33.578C255.745 33.578 253.207 35.4478 253.207 38.1724C253.207 40.8169 255.451 42.5798 258.389 42.5798C259.912 42.5798 261.488 41.9654 262.476 40.8703V42.2593H266.243V34.0054C266.243 30.3993 263.758 28.1288 260.152 28.1288ZM259.271 39.8819C257.935 39.8819 256.92 39.1874 256.92 38.0656C256.92 36.9437 258.069 36.1156 259.485 36.1156C260.553 36.1156 261.595 36.3026 262.476 36.6498V37.9053C262.182 39.1874 260.767 39.8819 259.271 39.8819ZM276.254 38.8402C275.986 39.1073 275.479 39.2943 274.945 39.2943C274.197 39.2943 273.636 38.6532 273.636 37.745V31.6013H276.628V28.4494H273.636V24.6563H269.869V28.4494H267.973V31.6013H269.869V38.3594C269.869 40.8436 271.579 42.5798 274.036 42.5798C275.132 42.5798 276.387 42.099 277.188 41.3778L276.254 38.8402ZM286.792 38.8402C286.525 39.1073 286.017 39.2943 285.483 39.2943C284.735 39.2943 284.174 38.6532 284.174 37.745V31.6013H287.166V28.4494H284.174V24.6563H280.408V28.4494H278.512V31.6013H280.408V38.3594C280.408 40.8436 282.118 42.5798 284.575 42.5798C285.67 42.5798 286.926 42.099 287.727 41.3778L286.792 38.8402ZM290.065 42.2593H293.965V23.5879H290.065V42.2593ZM303.569 39.5614C301.672 39.5614 300.363 38.2525 300.016 36.3827H310.434C310.434 31.2541 307.816 28.1288 303.489 28.1288C299.455 28.1288 296.303 31.1472 296.303 35.3143C296.303 39.5614 299.589 42.5798 303.702 42.5798C305.732 42.5798 308.11 41.725 309.338 40.4429L307.148 38.1991C306.267 39.0005 304.824 39.5614 303.569 39.5614ZM303.515 31.1472C305.278 31.1472 306.373 32.3493 306.694 34.0588H300.043C300.47 32.2958 301.779 31.1472 303.515 31.1472Z" fill="white"/>
<path d="M442.356 58.5955H0V805.56H442.356V58.5955Z" fill="url(#paint3_radial_19_3757)"/>
<path d="M431.494 70.4993V793.656H10.8618V70.4993H431.494ZM442.356 58.5955H0V805.56H442.356V58.5955Z" fill="#FFDB3A"/>
<path d="M3.74023 788.215V800.476H14.5167L3.74023 788.215Z" fill="#EEEDF1"/>
<path d="M438.587 788.215V800.476H427.818L438.587 788.215Z" fill="#EEEDF1"/>
<defs>
<linearGradient id="paint0_linear_19_3757" x1="221.305" y1="18.6287" x2="221.305" y2="12.4124" gradientUnits="userSpaceOnUse">
<stop stop-color="#010101"/>
<stop offset="1" stop-color="#3CAA49"/>
</linearGradient>
<linearGradient id="paint1_linear_19_3757" x1="83.6512" y1="34.995" x2="152.401" y2="34.995" gradientUnits="userSpaceOnUse">
<stop stop-color="#079A48"/>
<stop offset="1" stop-color="#010101"/>
</linearGradient>
<linearGradient id="paint2_linear_19_3757" x1="292.098" y1="34.995" x2="360.848" y2="34.995" gradientUnits="userSpaceOnUse">
<stop stop-color="#010101"/>
<stop offset="1" stop-color="#079A48"/>
</linearGradient>
<radialGradient id="paint3_radial_19_3757" cx="0" cy="0" r="1" gradientUnits="userSpaceOnUse" gradientTransform="translate(221.178 432.078) scale(287.28 314.839)">
<stop stop-color="#272626"/>
<stop offset="1" stop-color="#161616"/>
</radialGradient>
</defs>
</svg>
