<svg width="40" height="40" viewBox="0 0 40 40" fill="none" xmlns="http://www.w3.org/2000/svg">
<path d="M37.01 14.957L39.7624 12.2591C39.9016 12.1197 39.9917 11.9065 39.9917 11.6933C39.9917 11.4719 39.9098 11.2669 39.7542 11.1111L36.969 8.32303L39.7542 5.59238C39.9098 5.43656 39.9999 5.23156 39.9999 5.01016C39.9999 4.78877 39.918 4.58377 39.7624 4.42795L35.5765 0.237787C35.4208 0.0819672 35.2161 0 34.9949 0C34.7738 0 34.5689 0.0901639 34.4133 0.245984L31.6854 3.03402L28.9002 0.245984C28.7447 0.0901639 28.5316 0.00819672 28.3187 0.00819672C28.0975 0.00819672 27.8927 0.0983607 27.737 0.25418L25.042 3.00943L22.2896 0.25418C21.9701 -0.0656557 21.454 -0.0656557 21.1346 0.25418L16.9486 4.44443C16.7929 4.60025 16.7111 4.80525 16.7111 5.02664C16.7111 5.24803 16.8011 5.45303 16.9486 5.60885L23.0514 11.718L11.7223 23.0586L5.61951 16.9495C5.46385 16.7937 5.2591 16.7117 5.03787 16.7117C4.81672 16.7117 4.61189 16.8019 4.45623 16.9495L0.253934 21.107C-0.0655738 21.4268 -0.0655738 21.9434 0.253934 22.2632L3.00631 25.0184L0.245738 27.708C0.090082 27.8639 0 28.0689 0 28.2902C0 28.5116 0.0818852 28.7166 0.237541 28.8725L3.0391 31.6769L0.253934 34.4075C0.0982787 34.5634 0.00819672 34.7684 0.00819672 34.9898C0.00819672 35.2111 0.090082 35.4161 0.245738 35.572L4.43172 39.7622C4.58738 39.918 4.79213 40 5.01336 40C5.23451 40 5.43934 39.9098 5.595 39.754L8.32287 36.966L11.0998 39.7458C11.2555 39.9016 11.4602 39.9836 11.6815 39.9836C11.9027 39.9836 12.1075 39.8934 12.2631 39.7376L14.9746 36.9906L17.7352 39.754C17.899 39.918 18.1038 39.9918 18.3168 39.9918C18.5298 39.9918 18.7346 39.9098 18.8984 39.754L23.0844 35.5638C23.4039 35.2439 23.4039 34.7274 23.0844 34.4075L16.9816 28.2984L28.3107 16.9577L34.4135 23.0668C34.5774 23.2308 34.7821 23.3046 34.9952 23.3046C35.2082 23.3046 35.4129 23.2226 35.5768 23.0668L39.7628 18.8766C39.9184 18.7207 40.0003 18.5157 40.0003 18.2943C40.0003 18.073 39.9102 17.868 39.7628 17.7121L37.01 14.957ZM34.9949 1.97623L38.0094 4.99385L35.8059 7.15869L34.3232 5.67451L32.8405 4.19033L34.9949 1.97623ZM28.3105 1.97623L38.0094 11.677L35.8386 13.8172L26.1807 4.14926L28.3105 1.97623ZM5.01336 38.0238L1.99885 35.0061L4.20238 32.8413L7.17598 35.818L5.01336 38.0238ZM11.6813 38.0156L8.90434 35.2357L4.78393 31.1111L1.99057 28.3148L4.16959 26.191L8.99451 31.0208L13.8276 35.8589L11.6813 38.0156ZM21.3393 35.0061L18.3166 38.032L15.5561 35.2685L4.75115 24.4526L1.99057 21.6892L5.01328 18.6634L21.3393 35.0061ZM15.8181 27.1505L12.8527 24.182L24.1818 12.8413L27.1472 15.8098L15.8181 27.1505ZM34.9867 21.3366L28.1958 14.5388L24.7635 11.103L18.6607 4.99385L21.6834 1.96803L24.4439 4.73148L35.2488 15.5474L38.0093 18.3108L34.9867 21.3366Z" fill="#FDCF1D"/>
</svg>
