<svg width="100" height="100" viewBox="0 0 100 100" fill="none" xmlns="http://www.w3.org/2000/svg">
<path d="M15.625 96.875H25C26.7259 96.875 28.125 95.4759 28.125 93.75L28.125 65.625C28.125 63.8991 26.7259 62.5 25 62.5H15.625C13.8991 62.5 12.5 63.8991 12.5 65.625L12.5 93.75C12.5 95.4759 13.8991 96.875 15.625 96.875Z" stroke="#FDCF1D" stroke-width="3.125" stroke-linejoin="round"/>
<path d="M12.5 93.75H6.25C5.4212 93.75 4.62634 93.4208 4.04029 92.8347C3.45424 92.2487 3.125 91.4538 3.125 90.625L3.125 68.75C3.125 67.9212 3.45424 67.1263 4.04029 66.5403C4.62634 65.9542 5.4212 65.625 6.25 65.625H12.5L12.5 93.75Z" stroke="#FDCF1D" stroke-width="3.125" stroke-linejoin="round"/>
<path d="M84.375 62.5H75C73.2741 62.5 71.875 63.8991 71.875 65.625V93.75C71.875 95.4759 73.2741 96.875 75 96.875H84.375C86.1009 96.875 87.5 95.4759 87.5 93.75V65.625C87.5 63.8991 86.1009 62.5 84.375 62.5Z" stroke="#FDCF1D" stroke-width="3.125" stroke-linejoin="round"/>
<path d="M87.5 65.625H93.75C94.5788 65.625 95.3737 65.9542 95.9597 66.5403C96.5458 67.1263 96.875 67.9212 96.875 68.75V90.625C96.875 91.4538 96.5458 92.2487 95.9597 92.8347C95.3737 93.4208 94.5788 93.75 93.75 93.75H87.5V65.625Z" stroke="#FDCF1D" stroke-width="3.125" stroke-linejoin="round"/>
<path d="M71.875 73.4375H28.125V85.9375H71.875V73.4375Z" stroke="#FDCF1D" stroke-width="3.125" stroke-linejoin="round"/>
<path d="M23.4375 56.25H32.8125C34.5384 56.25 35.9375 54.8509 35.9375 53.125V31.25C35.9375 29.5241 34.5384 28.125 32.8125 28.125H23.4375C21.7116 28.125 20.3125 29.5241 20.3125 31.25L20.3125 53.125C20.3125 54.8509 21.7116 56.25 23.4375 56.25Z" stroke="#FDCF1D" stroke-width="3.125" stroke-linejoin="round"/>
<path d="M20.3125 53.125H14.0625C13.2337 53.125 12.4388 52.7958 11.8528 52.2097C11.2667 51.6237 10.9375 50.8288 10.9375 50L10.9375 34.375C10.9375 33.5462 11.2667 32.7513 11.8528 32.1653C12.4388 31.5792 13.2337 31.25 14.0625 31.25H20.3125L20.3125 53.125Z" stroke="#FDCF1D" stroke-width="3.125" stroke-linejoin="round"/>
<path d="M78.125 28.125H68.75C67.0241 28.125 65.625 29.5241 65.625 31.25V53.125C65.625 54.8509 67.0241 56.25 68.75 56.25H78.125C79.8509 56.25 81.25 54.8509 81.25 53.125V31.25C81.25 29.5241 79.8509 28.125 78.125 28.125Z" stroke="#FDCF1D" stroke-width="3.125" stroke-linejoin="round"/>
<path d="M81.25 31.25H87.5C88.3288 31.25 89.1237 31.5792 89.7097 32.1653C90.2958 32.7513 90.625 33.5462 90.625 34.375V50C90.625 50.8288 90.2958 51.6237 89.7097 52.2097C89.1237 52.7958 88.3288 53.125 87.5 53.125H81.25V31.25Z" stroke="#FDCF1D" stroke-width="3.125" stroke-linejoin="round"/>
<path d="M65.625 37.5H35.9375V46.875H65.625V37.5Z" stroke="#FDCF1D" stroke-width="3.125" stroke-linejoin="round"/>
<path d="M37.5 23.4375L29.6875 15.625H40.625L35.9375 6.25L46.875 10.9375L50 3.125L54.6875 10.9375L62.5 6.25L59.375 15.625H70.3125L62.5 23.4375" stroke="#FDCF1D" stroke-width="3.125" stroke-linejoin="round"/>
</svg>
