<svg width="100" height="100" viewBox="0 0 100 100" fill="none" xmlns="http://www.w3.org/2000/svg">
<path fill-rule="evenodd" clip-rule="evenodd" d="M92.1875 67.1875H7.8125V54.6875C7.8125 53.825 7.1125 53.125 6.25 53.125C5.3875 53.125 4.6875 53.825 4.6875 54.6875V75C4.6875 76.2438 5.18125 77.436 6.06094 78.3141C6.93906 79.1938 8.13125 79.6875 9.375 79.6875H15.625C16.4875 79.6875 17.1875 78.9875 17.1875 78.125C17.1875 77.2625 16.4875 76.5625 15.625 76.5625H9.375C8.96094 76.5625 8.5625 76.3985 8.27031 76.1047C7.97656 75.8125 7.8125 75.4141 7.8125 75V70.3125H92.1875V75C92.1875 75.4141 92.0234 75.8125 91.7297 76.1047C91.4375 76.3985 91.0391 76.5625 90.625 76.5625H21.875C21.0125 76.5625 20.3125 77.2625 20.3125 78.125C20.3125 78.9875 21.0125 79.6875 21.875 79.6875H41.5719C41.3219 83.8782 40.2359 89.2922 36.2328 92.1875H33.5938C32.7313 92.1875 32.0312 92.8875 32.0312 93.75C32.0312 94.6125 32.7313 95.3125 33.5938 95.3125H66.4062C67.2687 95.3125 67.9688 94.6125 67.9688 93.75C67.9688 92.8875 67.2687 92.1875 66.4062 92.1875H63.7672C59.7641 89.2906 58.6781 83.8782 58.4281 79.6875H90.625C91.8688 79.6875 93.0609 79.1938 93.9391 78.3141C94.8187 77.436 95.3125 76.2438 95.3125 75C95.3125 65.5813 95.3125 37.5438 95.3125 28.125C95.3125 26.8813 94.8187 25.6891 93.9391 24.811C93.0609 23.9313 91.8688 23.4375 90.625 23.4375H75C74.1375 23.4375 73.4375 24.1375 73.4375 25C73.4375 25.8625 74.1375 26.5625 75 26.5625H90.625C91.0391 26.5625 91.4375 26.7266 91.7297 27.0203C92.0234 27.3125 92.1875 27.711 92.1875 28.125V67.1875ZM55.3031 79.6875H44.6969C44.4547 83.6422 43.4703 88.5625 40.6578 92.1875H59.3422C56.5297 88.5625 55.5453 83.6407 55.3031 79.6875ZM23.4375 60.9375H14.0625C13.2 60.9375 12.5 61.6375 12.5 62.5C12.5 63.3625 13.2 64.0625 14.0625 64.0625H23.4375C23.4375 64.925 24.1375 65.625 25 65.625C25.8625 65.625 26.5625 64.925 26.5625 64.0625H85.9375C86.8 64.0625 87.5 63.3625 87.5 62.5C87.5 61.6375 86.8 60.9375 85.9375 60.9375H26.5625C26.5625 60.075 25.8625 59.375 25 59.375C24.1375 59.375 23.4375 60.075 23.4375 60.9375ZM67.1875 32.8125H32.8125C30.2234 32.8125 28.125 34.911 28.125 37.5C28.125 41.986 28.125 50.2016 28.125 54.6875C28.125 57.2766 30.2234 59.375 32.8125 59.375H67.1875C69.7766 59.375 71.875 57.2766 71.875 54.6875C71.875 50.2016 71.875 41.986 71.875 37.5C71.875 34.911 69.7766 32.8125 67.1875 32.8125ZM67.1875 35.9375C68.05 35.9375 68.75 36.6375 68.75 37.5V54.6875C68.75 55.55 68.05 56.25 67.1875 56.25H32.8125C31.95 56.25 31.25 55.55 31.25 54.6875V37.5C31.25 36.6375 31.95 35.9375 32.8125 35.9375H67.1875ZM56.9797 47.475C57.4922 47.2047 57.8125 46.6735 57.8125 46.0938C57.8125 45.5141 57.4922 44.9828 56.9797 44.7125L46.6281 39.2438C46.1437 38.9875 45.5609 39.0047 45.0922 39.2875C44.6234 39.5688 44.3359 40.0766 44.3359 40.625V51.5625C44.3359 52.111 44.6234 52.6188 45.0922 52.9C45.5609 53.1828 46.1437 53.2 46.6281 52.9438L56.9797 47.475ZM25 23.4375H9.375C8.13125 23.4375 6.93906 23.9313 6.06094 24.811C5.18125 25.6891 4.6875 26.8813 4.6875 28.125C4.6875 32.0453 4.6875 41.5328 4.6875 49.2188C4.6875 50.0813 5.3875 50.7813 6.25 50.7813C7.1125 50.7813 7.8125 50.0813 7.8125 49.2188V28.125C7.8125 27.711 7.97656 27.3125 8.27031 27.0203C8.5625 26.7266 8.96094 26.5625 9.375 26.5625H25C25.8625 26.5625 26.5625 25.8625 26.5625 25C26.5625 24.1375 25.8625 23.4375 25 23.4375ZM52.9047 46.0938L47.4609 48.9703V43.2172L52.9047 46.0938ZM32.0891 14.2407C32.0906 14.2391 49.2516 4.87815 49.2516 4.87815C49.7188 4.62346 50.2812 4.62346 50.7484 4.87815L67.9359 14.2531C68.4375 14.5266 68.75 15.0531 68.75 15.625C68.75 16.1969 68.4375 16.7235 67.9359 16.9969L62.5 19.961V26.5625C62.5 29.1516 60.4016 31.25 57.8125 31.25H42.1875C39.5984 31.25 37.5 29.1516 37.5 26.5625V19.961L34.375 18.2578V26.5625C34.375 27.425 33.675 28.125 32.8125 28.125C31.95 28.125 31.25 27.425 31.25 26.5625V15.625C31.25 15.0235 31.5906 14.5016 32.0891 14.2407ZM59.375 21.6656L50.7484 26.3719C50.2812 26.6266 49.7188 26.6266 49.2516 26.3719L40.625 21.6656V26.5625C40.625 27.425 41.325 28.125 42.1875 28.125H57.8125C58.675 28.125 59.375 27.425 59.375 26.5625V21.6656ZM38.9406 14.0625H45.3125C46.175 14.0625 46.875 14.7625 46.875 15.625C46.875 16.4875 46.175 17.1875 45.3125 17.1875H38.9406L50 23.2203L63.925 15.625L50 8.02971L38.9406 14.0625Z" fill="#FDCF1D"/>
</svg>
