<svg width="25" height="24" viewBox="0 0 25 24" fill="none" xmlns="http://www.w3.org/2000/svg">
<path fill-rule="evenodd" clip-rule="evenodd" d="M12.3493 1.0249L16.3631 8.10854L24.6986 8.51877V9.5437L18.8434 15.3568L19.9816 22.3023V23.3273L12.3493 19.8364L4.71708 23.3273V22.3023L5.8552 15.3568L0 9.5437V8.51877L8.3359 8.10854L12.3493 1.0249Z" fill="#4D4D4D"/>
<path fill-rule="evenodd" clip-rule="evenodd" d="M12.3493 0L16.3631 7.08363L24.6986 8.5188L18.8434 14.3319L19.9816 22.3024L12.3493 18.8115L4.71708 22.3024L5.8552 14.3319L0 8.5188L8.3359 7.08363L12.3493 0Z" fill="#999999"/>
<path fill-rule="evenodd" clip-rule="evenodd" d="M12.3498 1.58984L8.8536 7.75984L1.59277 9.00995L6.69321 14.0735L5.70161 21.0161L12.3498 17.9756L18.9979 21.0161L18.0063 14.0735L23.1067 9.00995L15.8456 7.75984L12.3498 1.58984Z" fill="url(#paint0_radial_19_3188)"/>
<path fill-rule="evenodd" clip-rule="evenodd" d="M12.349 18.8116V17.9756L5.7009 21.0161L4.7168 22.3024L12.349 18.8116Z" fill="url(#paint1_radial_19_3188)"/>
<path fill-rule="evenodd" clip-rule="evenodd" d="M5.7009 21.0161L6.6925 14.0735L5.85492 14.332L4.7168 22.3024L5.7009 21.0161Z" fill="url(#paint2_radial_19_3188)"/>
<path fill-rule="evenodd" clip-rule="evenodd" d="M0 8.5188L5.8552 14.3319L6.69278 14.0734L1.59235 9.00991L0 8.5188Z" fill="url(#paint3_radial_19_3188)"/>
<path fill-rule="evenodd" clip-rule="evenodd" d="M1.59235 9.00978L8.85317 7.75967L8.3359 7.0835L0 8.51866L1.59235 9.00978Z" fill="url(#paint4_radial_19_3188)"/>
<path fill-rule="evenodd" clip-rule="evenodd" d="M12.3494 0L8.33594 7.08364L8.8532 7.75981L12.3494 1.58981V0Z" fill="url(#paint5_radial_19_3188)"/>
<path fill-rule="evenodd" clip-rule="evenodd" d="M12.3491 18.8116V17.9756L18.9973 21.0161L19.9814 22.3024L12.3491 18.8116Z" fill="url(#paint6_radial_19_3188)"/>
<path fill-rule="evenodd" clip-rule="evenodd" d="M18.9979 21.0161L18.0063 14.0735L18.8439 14.332L19.982 22.3024L18.9979 21.0161Z" fill="url(#paint7_radial_19_3188)"/>
<path fill-rule="evenodd" clip-rule="evenodd" d="M24.6991 8.5188L18.8439 14.3319L18.0063 14.0734L23.1068 9.00991L24.6991 8.5188Z" fill="url(#paint8_radial_19_3188)"/>
<path fill-rule="evenodd" clip-rule="evenodd" d="M23.1064 9.00978L15.8452 7.75967L16.3632 7.0835L24.6987 8.51866L23.1064 9.00978Z" fill="url(#paint9_radial_19_3188)"/>
<path fill-rule="evenodd" clip-rule="evenodd" d="M12.3491 0L16.3629 7.08364L15.8449 7.75981L12.3491 1.58981V0Z" fill="url(#paint10_radial_19_3188)"/>
<path style="mix-blend-mode:screen" opacity="0.5" fill-rule="evenodd" clip-rule="evenodd" d="M5.84552 20.0018L18.295 8.18176L15.8447 7.75988L14.0812 4.64722L5.45093 12.8412L6.6923 14.0735L5.84552 20.0018Z" fill="url(#paint11_radial_19_3188)"/>
<path style="mix-blend-mode:screen" opacity="0.5" fill-rule="evenodd" clip-rule="evenodd" d="M18.091 14.6687L13.8738 18.6727L16.1248 19.7021L18.4893 17.4569L18.091 14.6687Z" fill="url(#paint12_radial_19_3188)"/>
<path fill-rule="evenodd" clip-rule="evenodd" d="M4.7168 23.3273L12.349 19.8365V18.8115L4.7168 22.3024V23.3273Z" fill="url(#paint13_radial_19_3188)"/>
<path fill-rule="evenodd" clip-rule="evenodd" d="M12.3491 19.8365L19.9814 23.3273V22.3024L12.3491 18.8115V19.8365Z" fill="url(#paint14_radial_19_3188)"/>
<path fill-rule="evenodd" clip-rule="evenodd" d="M5.72707 15.2294L5.85519 14.3319L0 8.5188V9.54374L5.72707 15.2294Z" fill="url(#paint15_radial_19_3188)"/>
<path fill-rule="evenodd" clip-rule="evenodd" d="M24.6985 8.5188L18.8433 14.3319L18.9714 15.2294L24.6985 9.54374V8.5188Z" fill="url(#paint16_radial_19_3188)"/>
<path style="mix-blend-mode:screen" fill-rule="evenodd" clip-rule="evenodd" d="M10.8067 2.72192L9.35132 5.29041C9.64266 5.35091 9.95241 5.61976 9.86893 5.9669L11.3243 3.39842C11.1151 3.39001 10.8132 3.02572 10.8067 2.72225V2.72192Z" fill="url(#paint17_radial_19_3188)"/>
<path style="mix-blend-mode:screen" fill-rule="evenodd" clip-rule="evenodd" d="M3.1681 8.73842L7.08679 8.06419C6.83668 8.02537 6.4857 7.59572 6.56918 7.3877L2.65186 8.06225C2.97046 8.15284 3.33064 8.46537 3.16912 8.73842H3.1681Z" fill="url(#paint18_radial_19_3188)"/>
<path fill-rule="evenodd" clip-rule="evenodd" d="M3.0494 10.4566L1.55792 9.07547L0.393555 8.64L1.61039 8.93408C3.88426 8.58176 7.36678 8.05344 8.71822 7.7118L8.4238 7.199L8.84157 7.62962L11.9298 2.32959L8.90563 7.88132C7.2148 8.13756 3.82224 8.70923 1.69967 9.04085L3.0494 10.4569V10.4566Z" fill="white"/>
<path style="mix-blend-mode:screen" fill-rule="evenodd" clip-rule="evenodd" d="M16.124 20.5378C16.0098 20.2809 16.0143 19.8199 16.124 19.7018L13.875 18.6724C14.026 18.9163 14.0304 19.2689 13.875 19.5084L16.124 20.5378Z" fill="url(#paint19_radial_19_3188)"/>
<defs>
<radialGradient id="paint0_radial_19_3188" cx="0" cy="0" r="1" gradientUnits="userSpaceOnUse" gradientTransform="translate(9.71742 3.37054) scale(23.0269 21.8627)">
<stop stop-color="#FCF800"/>
<stop offset="1" stop-color="#FC9700"/>
</radialGradient>
<radialGradient id="paint1_radial_19_3188" cx="0" cy="0" r="1" gradientUnits="userSpaceOnUse" gradientTransform="translate(10.5665 21.3189) scale(15.1827 14.4151)">
<stop stop-color="#BD5F00"/>
<stop offset="1" stop-color="#EBA82C"/>
</radialGradient>
<radialGradient id="paint2_radial_19_3188" cx="0" cy="0" r="1" gradientUnits="userSpaceOnUse" gradientTransform="translate(4.5747 22.8537) scale(10.9488 10.3953)">
<stop stop-color="#F9C433"/>
<stop offset="1" stop-color="#FF9F33"/>
</radialGradient>
<radialGradient id="paint3_radial_19_3188" cx="0" cy="0" r="1" gradientUnits="userSpaceOnUse" gradientTransform="translate(7.35691 14.4824) scale(7.99038 7.5864)">
<stop stop-color="#CF8100"/>
<stop offset="1" stop-color="#DE9000"/>
</radialGradient>
<radialGradient id="paint4_radial_19_3188" cx="0" cy="0" r="1" gradientUnits="userSpaceOnUse" gradientTransform="translate(0.397321 8.2524) scale(6.99264 6.63911)">
<stop stop-color="#FFF8C9"/>
<stop offset="1" stop-color="#FFD23B"/>
</radialGradient>
<radialGradient id="paint5_radial_19_3188" cx="0" cy="0" r="1" gradientUnits="userSpaceOnUse" gradientTransform="translate(10.3859 1.45296) scale(6.35542 6.03411)">
<stop stop-color="#FFF8C9"/>
<stop offset="1" stop-color="#FFE89C"/>
</radialGradient>
<radialGradient id="paint6_radial_19_3188" cx="0" cy="0" r="1" gradientUnits="userSpaceOnUse" gradientTransform="translate(14.0754 12.5769) scale(15.0801 14.3177)">
<stop stop-color="#BD5F00"/>
<stop offset="1" stop-color="#EBA82C"/>
</radialGradient>
<radialGradient id="paint7_radial_19_3188" cx="0" cy="0" r="1" gradientUnits="userSpaceOnUse" gradientTransform="translate(18.6551 14.6484) scale(20.3346 19.3065)">
<stop stop-color="#BD5F00"/>
<stop offset="1" stop-color="#EBA82C"/>
</radialGradient>
<radialGradient id="paint8_radial_19_3188" cx="0" cy="0" r="1" gradientUnits="userSpaceOnUse" gradientTransform="translate(19.4886 14.8577) scale(10.849 10.3005)">
<stop stop-color="#CF8100"/>
<stop offset="1" stop-color="#DE9000"/>
</radialGradient>
<radialGradient id="paint9_radial_19_3188" cx="0" cy="0" r="1" gradientUnits="userSpaceOnUse" gradientTransform="translate(16.7135 6.81303) scale(8.8392 8.3923)">
<stop stop-color="#CF8100"/>
<stop offset="1" stop-color="#EBA82C"/>
</radialGradient>
<radialGradient id="paint10_radial_19_3188" cx="0" cy="0" r="1" gradientUnits="userSpaceOnUse" gradientTransform="translate(12.7178 0.0721468) scale(10.1007 9.59001)">
<stop stop-color="#F9C433"/>
<stop offset="1" stop-color="#FF9F33"/>
</radialGradient>
<radialGradient id="paint11_radial_19_3188" cx="0" cy="0" r="1" gradientUnits="userSpaceOnUse" gradientTransform="translate(9.92744 3.41425) scale(17.6297 16.7384)">
<stop stop-color="#FFF261"/>
<stop offset="0.11" stop-color="#FAEE5F"/>
<stop offset="0.23" stop-color="#EDE15A"/>
<stop offset="0.36" stop-color="#D6CB52"/>
<stop offset="0.5" stop-color="#B7AD46"/>
<stop offset="0.64" stop-color="#8E8736"/>
<stop offset="0.78" stop-color="#5C5823"/>
<stop offset="0.92" stop-color="#23210D"/>
<stop offset="1"/>
</radialGradient>
<radialGradient id="paint12_radial_19_3188" cx="0" cy="0" r="1" gradientUnits="userSpaceOnUse" gradientTransform="translate(20.4163 12.4043) scale(11.7653 11.1704)">
<stop stop-color="#FFF261"/>
<stop offset="0.11" stop-color="#FAEE5F"/>
<stop offset="0.23" stop-color="#EDE15A"/>
<stop offset="0.36" stop-color="#D6CB52"/>
<stop offset="0.5" stop-color="#B7AD46"/>
<stop offset="0.64" stop-color="#8E8736"/>
<stop offset="0.78" stop-color="#5C5823"/>
<stop offset="0.92" stop-color="#23210D"/>
<stop offset="1"/>
</radialGradient>
<radialGradient id="paint13_radial_19_3188" cx="0" cy="0" r="1" gradientUnits="userSpaceOnUse" gradientTransform="translate(8.89276 29.8263) scale(11.8532 11.2539)">
<stop stop-color="#DE8128"/>
<stop offset="1" stop-color="#994115"/>
</radialGradient>
<radialGradient id="paint14_radial_19_3188" cx="0" cy="0" r="1" gradientUnits="userSpaceOnUse" gradientTransform="translate(18.9097 23.5043) scale(12.0294 11.4212)">
<stop stop-color="#DE8128"/>
<stop offset="1" stop-color="#994115"/>
</radialGradient>
<radialGradient id="paint15_radial_19_3188" cx="0" cy="0" r="1" gradientUnits="userSpaceOnUse" gradientTransform="translate(-0.0439574 8.47221) scale(12.2832 11.6622)">
<stop stop-color="#DE8128"/>
<stop offset="1" stop-color="#994115"/>
</radialGradient>
<radialGradient id="paint16_radial_19_3188" cx="0" cy="0" r="1" gradientUnits="userSpaceOnUse" gradientTransform="translate(26.0956 8.32565) scale(11.0166 10.4597)">
<stop stop-color="#DE8128"/>
<stop offset="1" stop-color="#994115"/>
</radialGradient>
<radialGradient id="paint17_radial_19_3188" cx="0" cy="0" r="1" gradientUnits="userSpaceOnUse" gradientTransform="translate(10.2005 2.64751) scale(5.78058 5.48832)">
<stop stop-color="#FFFACF"/>
<stop offset="1"/>
</radialGradient>
<radialGradient id="paint18_radial_19_3188" cx="0" cy="0" r="1" gradientUnits="userSpaceOnUse" gradientTransform="translate(2.76056 9.2813) scale(6.34589 6.02506)">
<stop stop-color="#FFFACF"/>
<stop offset="1"/>
</radialGradient>
<radialGradient id="paint19_radial_19_3188" cx="0" cy="0" r="1" gradientUnits="userSpaceOnUse" gradientTransform="translate(16.7649 23.215) scale(6.244 5.92832)">
<stop stop-color="#FFF261"/>
<stop offset="0.11" stop-color="#FAEE5F"/>
<stop offset="0.23" stop-color="#EDE15A"/>
<stop offset="0.36" stop-color="#D6CB52"/>
<stop offset="0.5" stop-color="#B7AD46"/>
<stop offset="0.64" stop-color="#8E8736"/>
<stop offset="0.78" stop-color="#5C5823"/>
<stop offset="0.92" stop-color="#23210D"/>
<stop offset="1"/>
</radialGradient>
</defs>
</svg>
