<svg width="112" height="134" viewBox="0 0 112 134" fill="none" xmlns="http://www.w3.org/2000/svg">
<g clip-path="url(#clip0_19_3108)">
<path d="M97.4836 3.37402H14.186C8.20916 3.37402 3.36401 8.23362 3.36401 14.2282V119.774C3.36401 125.769 8.20916 130.629 14.186 130.629H97.4836C103.46 130.629 108.306 125.769 108.306 119.774V14.2282C108.306 8.23362 103.46 3.37402 97.4836 3.37402Z" fill="#5B6B38"/>
<path d="M91.4236 3.37129C93.6415 3.37094 95.8377 3.80878 97.8869 4.65982C99.9361 5.51087 101.798 6.75844 103.366 8.33129C104.935 9.90414 106.179 11.7715 107.028 13.8266C107.877 15.8818 108.314 18.0845 108.314 20.309V113.685C108.314 115.91 107.877 118.113 107.028 120.168C106.179 122.223 104.935 124.09 103.366 125.663C101.798 127.236 99.9361 128.484 97.8869 129.335C95.8377 130.186 93.6415 130.623 91.4236 130.623H20.2514C18.0327 130.625 15.8354 130.187 13.7852 129.337C11.7349 128.486 9.87179 127.239 8.3023 125.666C6.7328 124.093 5.48767 122.226 4.63803 120.17C3.78839 118.114 3.3509 115.911 3.35055 113.685V20.309C3.35126 15.8166 5.13106 11.5084 8.29849 8.33208C11.4659 5.15572 15.7616 3.37129 20.2406 3.37129H91.4236ZM91.4236 0.00805664H20.2514C14.8824 0.0144908 9.73507 2.15654 5.93859 5.96435C2.1421 9.77215 0.00641505 14.9348 0 20.3198V113.685C0.00641505 119.07 2.1421 124.233 5.93859 128.041C9.73507 131.849 14.8824 133.991 20.2514 133.997H91.4236C96.7931 133.991 101.941 131.85 105.738 128.042C109.535 124.234 111.671 119.071 111.678 113.685V20.309C111.668 14.9254 109.531 9.76511 105.734 5.95956C101.938 2.15402 96.7912 0.0137698 91.4236 0.00805664V0.00805664Z" fill="url(#paint0_linear_19_3108)"/>
<path d="M85.9855 16.6353H25.6812C20.646 16.6353 16.5642 20.7293 16.5642 25.7795V86.2636C16.5642 91.3139 20.646 95.4079 25.6812 95.4079H85.9855C91.0207 95.4079 95.1025 91.3139 95.1025 86.2636V25.7795C95.1025 20.7293 91.0207 16.6353 85.9855 16.6353Z" fill="#292222"/>
<path d="M86.228 16.6354C88.5806 16.639 90.8358 17.5779 92.4993 19.2464C94.1629 20.9149 95.099 23.1769 95.1026 25.5365V86.5069C95.099 88.8666 94.1629 91.1285 92.4993 92.797C90.8358 94.4655 88.5806 95.4045 86.228 95.408H25.4361C23.0835 95.4045 20.8283 94.4655 19.1648 92.797C17.5012 91.1285 16.5651 88.8666 16.5615 86.5069V25.5365C16.5651 23.1769 17.5012 20.9149 19.1648 19.2464C20.8283 17.5779 23.0835 16.639 25.4361 16.6354H86.2253M86.2253 14.9497H25.4361C22.6376 14.9526 19.9545 16.0689 17.9756 18.0537C15.9967 20.0384 14.8837 22.7296 14.8809 25.5365V86.5069C14.8837 89.3138 15.9967 92.005 17.9756 93.9898C19.9545 95.9745 22.6376 97.0908 25.4361 97.0937H86.2253C89.0238 97.0908 91.7069 95.9745 93.6858 93.9898C95.6647 92.005 96.7777 89.3138 96.7805 86.5069V25.5365C96.7777 22.7296 95.6647 20.0384 93.6858 18.0537C91.7069 16.0689 89.0238 14.9526 86.2253 14.9497V14.9497Z" fill="#211100"/>
</g>
<defs>
<linearGradient id="paint0_linear_19_3108" x1="55.8334" y1="133.997" x2="55.8334" y2="-0.00274979" gradientUnits="userSpaceOnUse">
<stop stop-color="#BE6D00"/>
<stop offset="0.24" stop-color="#BF7003"/>
<stop offset="0.4" stop-color="#C4790B"/>
<stop offset="0.55" stop-color="#CB891A"/>
<stop offset="0.69" stop-color="#D69F2F"/>
<stop offset="0.81" stop-color="#E4BC49"/>
<stop offset="0.93" stop-color="#F4DE6A"/>
<stop offset="1" stop-color="#FFF57F"/>
</linearGradient>
<clipPath id="clip0_19_3108">
<rect width="111.667" height="134" fill="white"/>
</clipPath>
</defs>
</svg>
