<svg width="64" height="64" viewBox="0 0 64 64" fill="none" xmlns="http://www.w3.org/2000/svg">
<path d="M52.3162 25.8027C52.1346 25.7682 50.7406 25.5034 48.7327 25.1476V16.6234C48.733 7.45712 41.2756 0 32.1095 0C22.9433 0 15.4862 7.45712 15.4862 16.6232V25.1082C13.3616 25.4836 11.8716 25.7668 11.6835 25.8026C11.0823 25.9173 10.6475 26.4429 10.6475 27.055V41.4142C10.6475 45.8874 14.1808 51.0434 21.1496 56.7388C26.1905 60.8586 31.1483 63.712 31.357 63.8314C31.5532 63.9439 31.7718 63.9999 31.9905 63.9999C32.209 63.9999 32.4275 63.9438 32.6236 63.8316C32.8325 63.7121 37.795 60.8589 42.8403 56.7391C49.8157 51.0436 53.3526 45.8875 53.3526 41.4142V27.055C53.3525 26.443 52.9175 25.9174 52.3162 25.8027ZM18.036 16.6232C18.036 8.86312 24.3493 2.54975 32.1095 2.54975C39.8696 2.54975 46.183 8.86325 46.183 16.6232V24.7054C45.2177 24.5418 44.1901 24.3721 43.1387 24.2052V16.6232C43.1387 10.5417 38.191 5.594 32.1095 5.594C26.028 5.594 21.0802 10.5417 21.0802 16.6232V24.1695C20.0321 24.335 19.0047 24.5039 18.036 24.6675V16.6232ZM40.589 16.6232V23.8151C37.2293 23.3217 33.9505 22.9311 31.9916 22.9311C31.9913 22.9311 31.9907 22.9311 31.9903 22.9311C30.0781 22.9313 26.9061 23.3045 23.6301 23.7819V16.6232C23.6301 11.9476 27.4338 8.14375 32.1096 8.14375C36.7853 8.14375 40.589 11.9476 40.589 16.6232ZM50.8028 41.4142H50.8027C50.8027 45.028 47.5005 49.6371 41.2528 54.7436C37.3935 57.8981 33.4848 60.3427 31.9907 61.2434C30.5018 60.3455 26.6157 57.9131 22.7633 54.7645C16.5052 49.6497 13.1973 45.0334 13.1973 41.4142V28.114C16.6546 27.4763 27.8046 25.4814 31.9908 25.481C31.9913 25.481 31.9913 25.481 31.992 25.481C36.1827 25.481 47.3435 27.4765 50.8028 28.1141V41.4142Z" fill="#FDCF1D"/>
<path d="M35.415 41.6091C36.2517 40.7521 36.7339 39.5926 36.7339 38.3769C36.7339 35.8271 34.6594 33.7524 32.1095 33.7524C29.5597 33.7524 27.4851 35.8269 27.4851 38.3769C27.4851 39.6293 27.9892 40.8106 28.8646 41.6718L28.0194 46.5322C27.9549 46.9029 28.0575 47.2832 28.2997 47.5712C28.542 47.8592 28.8991 48.0254 29.2754 48.0254H34.9437C35.3169 48.0254 35.6714 47.8618 35.9135 47.5781C36.1557 47.2942 36.2612 46.9184 36.2026 46.5498L35.415 41.6091ZM33.307 40.0704C32.9112 40.3511 32.7092 40.8319 32.7855 41.3109L33.4495 45.4758H30.7911L31.5036 41.3799C31.5899 40.8834 31.3759 40.3828 30.9574 40.1023C30.38 39.7153 30.0352 39.0704 30.0352 38.3771C30.0352 37.2331 30.9659 36.3024 32.1097 36.3024C33.2536 36.3024 34.1842 37.2331 34.1842 38.3771C34.1842 39.0478 33.8564 39.6808 33.307 40.0704Z" fill="#FDCF1D"/>
<path d="M16.3188 29.3228C15.6147 29.3228 15.0439 29.8935 15.0439 30.5976V32.255C15.0439 32.9591 15.6147 33.5299 16.3188 33.5299C17.0229 33.5299 17.5937 32.9591 17.5937 32.255V30.5976C17.5937 29.8935 17.0229 29.3228 16.3188 29.3228Z" fill="#FDCF1D"/>
<path d="M16.3188 35.6973C15.6147 35.6973 15.0439 36.268 15.0439 36.9721V41.3228C15.0439 42.0269 15.6147 42.5976 16.3188 42.5976C17.0229 42.5976 17.5937 42.0269 17.5937 41.3228V36.9721C17.5937 36.268 17.0229 35.6973 16.3188 35.6973Z" fill="#FDCF1D"/>
</svg>
