<svg preserveAspectRatio="none" viewBox="0 0 1260 729" fill="none" xmlns="http://www.w3.org/2000/svg">
<path d="M4 53.9596L45.7947 12.4727H295.071L336 12.4727L605 14.3801L857.5 12.4727L956.323 14.3801H1201.12L1245.9 54.9133V374.887V537.497V618.801V659.454L1204.11 700.106H967.269L955.328 724.426H621.965H294.075L281.139 700.106H42.3118L4 659.454V618.801V537.497V374.887V53.9596Z" fill="#030100"/>
<path d="M1203.77 13.2137H954.314L905 13.2136L348.5 13.2137H295.687H46.2319L4 53.6697V660.531C20.4929 676.33 29.7393 685.187 46.2319 700.987H280.903L293.083 725H956.917L969.098 700.987H1203.77C1220.26 685.187 1229.51 676.33 1246 660.531V53.6697C1229.51 37.8703 1220.26 29.0127 1203.77 13.2137Z" stroke="#FFCF06" stroke-width="8" stroke-linecap="round" stroke-linejoin="round"/>
<path d="M276.911 709.898H51.1797L58.3801 724.074H284.092L276.911 709.898Z" fill="#FFCF06" stroke="#FFCF06" stroke-miterlimit="10"/>
<path d="M321.432 717.127H302.678L294.186 700.432H312.939L321.432 717.127Z" fill="#FFCF06" stroke="#FFCF06" stroke-miterlimit="10"/>
<path d="M350.732 717.127H331.979L323.486 700.432H342.24L350.732 717.127Z" fill="#FFCF06" stroke="#FFCF06" stroke-miterlimit="10"/>
<path d="M380.031 717.127H361.278L352.785 700.432H371.538L380.031 717.127Z" fill="#FFCF06" stroke="#FFCF06" stroke-miterlimit="10"/>
<path d="M409.33 717.127H390.577L382.084 700.432H400.837L409.33 717.127Z" fill="#FFCF06" stroke="#FFCF06" stroke-miterlimit="10"/>
<path d="M438.632 717.127H419.878L411.385 700.432H430.139L438.632 717.127Z" fill="#FFCF06" stroke="#FFCF06" stroke-miterlimit="10"/>
<path d="M467.931 717.127H449.176L440.684 700.432H459.438L467.931 717.127Z" fill="#FFCF06" stroke="#FFCF06" stroke-miterlimit="10"/>
<path d="M497.229 717.127H478.475L469.982 700.432H488.736L497.229 717.127Z" fill="#FFCF06" stroke="#FFCF06" stroke-miterlimit="10"/>
<path d="M526.529 717.127H507.776L499.283 700.432H518.037L526.529 717.127Z" fill="#FFCF06" stroke="#FFCF06" stroke-miterlimit="10"/>
<path d="M555.828 717.127H537.075L528.582 700.432H547.335L555.828 717.127Z" fill="#FFCF06" stroke="#FFCF06" stroke-miterlimit="10"/>
<path d="M585.127 717.127H566.374L557.881 700.432H576.634L585.127 717.127Z" fill="#FFCF06" stroke="#FFCF06" stroke-miterlimit="10"/>
<path d="M614.429 717.127H595.674L587.182 700.432H605.936L614.429 717.127Z" fill="#FFCF06" stroke="#FFCF06" stroke-miterlimit="10"/>
<path d="M927.262 717.127H946.016L954.509 700.432H935.754L927.262 717.127Z" fill="#FFCF06" stroke="#FFCF06" stroke-miterlimit="10"/>
<path d="M897.963 717.127H916.716L925.21 700.432H906.456L897.963 717.127Z" fill="#FFCF06" stroke="#FFCF06" stroke-miterlimit="10"/>
<path d="M868.664 717.127H887.417L895.91 700.432H877.157L868.664 717.127Z" fill="#FFCF06" stroke="#FFCF06" stroke-miterlimit="10"/>
<path d="M839.365 717.127H858.119L866.611 700.432H847.858L839.365 717.127Z" fill="#FFCF06" stroke="#FFCF06" stroke-miterlimit="10"/>
<path d="M810.064 717.127H828.818L837.311 700.432H818.557L810.064 717.127Z" fill="#FFCF06" stroke="#FFCF06" stroke-miterlimit="10"/>
<path d="M780.766 717.127H799.519L808.012 700.432H789.258L780.766 717.127Z" fill="#FFCF06" stroke="#FFCF06" stroke-miterlimit="10"/>
<path d="M751.467 717.127H770.221L778.714 700.432H759.96L751.467 717.127Z" fill="#FFCF06" stroke="#FFCF06" stroke-miterlimit="10"/>
<path d="M722.166 717.127H740.921L749.413 700.432H730.659L722.166 717.127Z" fill="#FFCF06" stroke="#FFCF06" stroke-miterlimit="10"/>
<path d="M692.867 717.127H711.62L720.113 700.432H701.36L692.867 717.127Z" fill="#FFCF06" stroke="#FFCF06" stroke-miterlimit="10"/>
<path d="M663.568 717.127H682.322L690.815 700.432H672.061L663.568 717.127Z" fill="#FFCF06" stroke="#FFCF06" stroke-miterlimit="10"/>
<path d="M634.268 717.127H653.021L661.514 700.432H642.76L634.268 717.127Z" fill="#FFCF06" stroke="#FFCF06" stroke-miterlimit="10"/>
<path d="M977.641 709.898H1203.37L1196.17 724.074H970.459L977.641 709.898Z" fill="#FFCF06" stroke="#FFCF06" stroke-miterlimit="10"/>
<circle cx="1228.5" cy="31.5" r="31.5" fill="#FF0101"/>
<path d="M1238.76 15.1188C1235.34 18.5386 1231.92 21.9583 1228.5 25.3796C1225.08 21.9612 1221.66 18.5407 1218.24 15.1188C1214.28 11.1631 1208.15 17.2942 1212.11 21.2528C1215.53 24.6697 1218.95 28.0909 1222.36 31.5063C1218.94 34.9246 1215.52 38.3459 1212.11 41.7598C1208.15 45.7155 1214.28 51.8466 1218.24 47.8945C1221.66 44.474 1225.08 41.0543 1228.5 37.6338C1231.92 41.0535 1235.34 44.4719 1238.76 47.8945C1242.71 51.848 1248.85 45.7119 1244.89 41.7613C1241.47 38.3415 1238.05 34.9232 1234.63 31.5005L1244.89 21.2397C1248.85 17.2855 1242.72 11.1515 1238.76 15.1065" fill="white"/>
</svg>
