<svg width="40" height="40" viewBox="0 0 40 40" fill="none" xmlns="http://www.w3.org/2000/svg">
<path fill-rule="evenodd" clip-rule="evenodd" d="M20 38.3332C9.87474 38.3332 1.66663 30.1251 1.66663 19.9998C1.66663 9.87462 9.87474 1.6665 20 1.6665C30.1252 1.6665 38.3333 9.87462 38.3333 19.9998C38.3333 30.1251 30.1252 38.3332 20 38.3332ZM20 34.9998C28.2842 34.9998 35 28.2841 35 19.9998C35 11.7156 28.2842 4.99984 20 4.99984C11.7157 4.99984 4.99996 11.7156 4.99996 19.9998C4.99996 28.2841 11.7157 34.9998 20 34.9998ZM20.0005 28.3304C19.0797 28.3304 18.3333 27.5842 18.3333 26.6637C18.3333 25.7433 19.0797 24.9971 20.0005 24.9971C20.9213 24.9971 21.6677 25.7433 21.6677 26.6637C21.6677 27.5842 20.9213 28.3304 20.0005 28.3304ZM21.6666 23.3332H18.3333C18.3333 20.4971 19.3743 19.2826 21.7546 18.0925C23.1243 17.4076 23.3333 17.1638 23.3333 15.8332C23.3333 14.2605 22.1286 13.3332 20 13.3332C18.159 13.3332 16.6666 14.8256 16.6666 16.6665H13.3333C13.3333 12.9846 16.3181 9.99984 20 9.99984C23.8072 9.99984 26.6666 12.2009 26.6666 15.8332C26.6666 18.6693 25.6257 19.8837 23.2453 21.0739C21.8757 21.7587 21.6666 22.0026 21.6666 23.3332Z" fill="#FDCF1D"/>
</svg>
