<svg width="109" height="104" viewBox="0 0 109 104" fill="none" xmlns="http://www.w3.org/2000/svg">
<g filter="url(#filter0_d_19_3468)">
<path d="M101.611 53.9973C102.692 53.0492 103.376 51.6626 103.376 50.1191C103.376 48.5756 102.692 47.189 101.611 46.2409L104.868 38.792C105.082 38.303 105.034 37.7396 104.74 37.2937C104.446 36.8477 103.946 36.5788 103.41 36.5788H94.6616C91.8652 27.5242 86.2038 19.3902 78.6204 13.5726C70.4569 7.30995 60.68 4 50.347 4C37.9674 4 26.3285 8.79729 17.5747 17.5081C8.82098 26.2188 4 37.8003 4 50.1189C4 62.4379 8.82098 74.0196 17.5749 82.7302C18.5247 83.6754 19.5106 84.5717 20.5256 85.4234L16.4704 92.1784C15.7584 93.3638 15.5529 94.7542 15.8922 96.0933C16.2315 97.4323 17.0744 98.5594 18.2651 99.2676C19.0703 99.7468 19.9906 100 20.9262 100C22.747 100 24.4573 99.035 25.3897 97.4813L29.1792 91.1694C35.6487 94.4815 42.8618 96.2382 50.347 96.2382C57.8281 96.2382 65.0171 94.5017 71.5138 91.1674L75.3045 97.4815C76.2374 99.0348 77.9477 100 79.7679 100C80.7037 100 81.6241 99.747 82.429 99.2678C83.6203 98.5596 84.4632 97.4323 84.8021 96.0933C85.1414 94.7542 84.936 93.364 84.2243 92.1786L80.1681 85.4224C86.974 79.7155 92.0587 72.0862 94.6614 63.659H103.41C103.946 63.659 104.446 63.3903 104.74 62.9441C105.034 62.4981 105.082 61.9348 104.868 61.446L101.611 53.9973ZM50.3472 55.2888H63.5729C61.4738 60.6535 56.2924 64.253 50.3472 64.253C42.5152 64.253 36.1433 57.9125 36.1433 50.1189C36.1433 42.3253 42.5152 35.9848 50.3472 35.9848C56.2926 35.9848 61.4734 39.5844 63.5725 44.949H50.3472C47.4825 44.949 45.1518 47.2681 45.1518 50.1189C45.152 52.9697 47.4827 55.2888 50.3472 55.2888ZM50.3472 52.1248C49.2356 52.1248 48.3314 51.225 48.3314 50.1189C48.3314 49.0128 49.2356 48.1129 50.3472 48.1129H75.167V52.1246H50.3472V52.1248ZM66.9369 44.9492C65.9115 41.6989 63.9171 38.7775 61.2272 36.627C58.1568 34.1725 54.2929 32.8208 50.3472 32.8208C40.7619 32.8208 32.9638 40.5806 32.9638 50.1189C32.9638 59.6571 40.7619 67.4169 50.3472 67.4169C54.2929 67.4169 58.157 66.0652 61.2272 63.6107C63.9171 61.4605 65.9115 58.5392 66.9373 55.2886H79.7233C77.2462 69.3817 64.9202 79.8001 50.3472 79.8001C33.9 79.8001 20.5192 66.4851 20.5192 50.1187C20.5192 33.7521 33.9 20.4369 50.3472 20.4369C64.9206 20.4369 77.246 30.8553 79.7233 44.9488H66.9369V44.9492ZM78.3464 52.1248V48.1131H98.181C99.2922 48.1131 100.197 49.013 100.197 50.1191C100.197 51.2252 99.2922 52.125 98.181 52.125H78.3464V52.1248ZM90.5658 44.9492H86.4814L88.7582 39.7427H92.8428L90.5658 44.9492ZM22.6604 95.8589C22.2931 96.4706 21.6448 96.8361 20.9262 96.8361C20.565 96.8361 20.2091 96.7378 19.8965 96.5519C19.4339 96.277 19.1068 95.8395 18.9752 95.3201C18.8437 94.8007 18.9234 94.2615 19.1997 93.8015L23.0452 87.3962C24.1351 88.1902 25.2548 88.934 26.4025 89.6257L22.6604 95.8589ZM81.4953 93.8015C81.7715 94.2617 81.8512 94.8007 81.7196 95.3203C81.588 95.8397 81.261 96.277 80.7982 96.5521C80.4857 96.7379 80.1298 96.8361 79.7684 96.8361C79.05 96.8361 78.402 96.4706 78.0343 95.8587L74.2888 89.6195C75.4337 88.9287 76.5538 88.1861 77.6467 87.3911L81.4953 93.8015ZM76.6789 84.1604C69.0768 89.992 59.9716 93.0747 50.3472 93.0747C26.5445 93.0747 7.17953 73.8048 7.17953 50.1191C7.17953 26.4334 26.5445 7.16371 50.3472 7.16371C59.9716 7.16371 69.0768 10.2462 76.6793 16.0783C83.4841 21.2988 88.6267 28.5198 91.3235 36.5789H87.7161C87.0835 36.5789 86.5108 36.9523 86.2583 37.5298L83.0137 44.9496H82.9466C80.432 29.0749 66.6617 17.2736 50.347 17.2736C32.1469 17.2736 17.3395 32.008 17.3395 50.1193C17.3395 68.23 32.1465 82.9646 50.347 82.9646C66.6615 82.9646 80.4319 71.1636 82.9466 55.2891H83.0137L86.2583 62.709C86.5106 63.2863 87.0833 63.6598 87.7161 63.6598H91.3235C88.6265 71.7186 83.4837 78.9401 76.6789 84.1604ZM88.758 60.4953L86.4812 55.2888H90.5656L92.8426 60.4953H88.758ZM96.3104 60.4955V60.4953L94.0333 55.2888H98.181C98.355 55.2888 98.5272 55.2799 98.6969 55.2632L100.985 60.4955H96.3104ZM98.6971 44.9747C98.5272 44.9581 98.3554 44.9492 98.1812 44.9492H94.0335L96.3106 39.7427H100.985L98.6971 44.9747Z" fill="#FFDB3A"/>
</g>
<defs>
<filter id="filter0_d_19_3468" x="0" y="0" width="109" height="104" filterUnits="userSpaceOnUse" color-interpolation-filters="sRGB">
<feFlood flood-opacity="0" result="BackgroundImageFix"/>
<feColorMatrix in="SourceAlpha" type="matrix" values="0 0 0 0 0 0 0 0 0 0 0 0 0 0 0 0 0 0 127 0" result="hardAlpha"/>
<feOffset/>
<feGaussianBlur stdDeviation="2"/>
<feComposite in2="hardAlpha" operator="out"/>
<feColorMatrix type="matrix" values="0 0 0 0 1 0 0 0 0 0.858824 0 0 0 0 0.227451 0 0 0 0.5 0"/>
<feBlend mode="normal" in2="BackgroundImageFix" result="effect1_dropShadow_19_3468"/>
<feBlend mode="normal" in="SourceGraphic" in2="effect1_dropShadow_19_3468" result="shape"/>
</filter>
</defs>
</svg>
