<svg width="22" height="22" viewBox="0 0 22 22" fill="none" xmlns="http://www.w3.org/2000/svg">
<path d="M11 1L14 7L21 8.5L16.5 13.1803L17 20L11 17L5 20L5.81737 13.1803L1.5 8.5L6.5 7.5L8 7L9 4.5L11 1Z" fill="#191717"/>
<path fill-rule="evenodd" clip-rule="evenodd" d="M10.9996 17.7411V16.9526L5.07798 19.8203L4.20117 21.0333L10.9996 17.7411Z" fill="url(#paint0_radial_19_3732)"/>
<path fill-rule="evenodd" clip-rule="evenodd" d="M5.07798 19.8203L5.96111 13.2727L5.21515 13.5164L4.20117 21.0333L5.07798 19.8203Z" fill="url(#paint1_radial_19_3732)"/>
<path fill-rule="evenodd" clip-rule="evenodd" d="M0 8.03394L5.21551 13.5163L5.96147 13.2726L1.4185 8.49731L0 8.03394Z" fill="url(#paint2_radial_19_3732)"/>
<path fill-rule="evenodd" clip-rule="evenodd" d="M1.4185 8.49733L7.88596 7.31832L7.42501 6.68042L0 8.03396L1.4185 8.49733Z" fill="#FCB233"/>
<path fill-rule="evenodd" clip-rule="evenodd" d="M11 0L7.42505 6.68048L7.88599 7.31838L11 1.49936V0Z" fill="url(#paint3_radial_19_3732)"/>
<path fill-rule="evenodd" clip-rule="evenodd" d="M11 17.7411V16.9526L16.9218 19.8203L17.7983 21.0333L11 17.7411Z" fill="url(#paint4_radial_19_3732)"/>
<path fill-rule="evenodd" clip-rule="evenodd" d="M16.9219 19.8203L16.0386 13.2727L16.7845 13.5164L17.7985 21.0333L16.9219 19.8203Z" fill="url(#paint5_radial_19_3732)"/>
<path fill-rule="evenodd" clip-rule="evenodd" d="M22.0002 8.03394L16.7845 13.5163L16.0386 13.2726L20.5815 8.49731L22.0002 8.03394Z" fill="url(#paint6_radial_19_3732)"/>
<path fill-rule="evenodd" clip-rule="evenodd" d="M20.5817 8.49733L14.1143 7.31832L14.5754 6.68042L22.0004 8.03396L20.5817 8.49733Z" fill="url(#paint7_radial_19_3732)"/>
<path fill-rule="evenodd" clip-rule="evenodd" d="M11 0L14.5751 6.68048L14.1139 7.31838L11 1.49936V0Z" fill="url(#paint8_radial_19_3732)"/>
<path fill-rule="evenodd" clip-rule="evenodd" d="M4.20117 21.9999L10.9996 18.7076V17.741L4.20117 21.0332V21.9999Z" fill="url(#paint9_radial_19_3732)"/>
<path fill-rule="evenodd" clip-rule="evenodd" d="M11 18.7076L17.7983 21.9999V21.0332L11 17.741V18.7076Z" fill="url(#paint10_radial_19_3732)"/>
<path fill-rule="evenodd" clip-rule="evenodd" d="M5.10124 14.3629L5.21551 13.5163L0 8.03394V9.00061L5.10124 14.3629Z" fill="url(#paint11_radial_19_3732)"/>
<path fill-rule="evenodd" clip-rule="evenodd" d="M22.0003 8.03394L16.7847 13.5163L16.8988 14.3629L22.0003 9.00061V8.03394Z" fill="url(#paint12_radial_19_3732)"/>
<path style="mix-blend-mode:screen" fill-rule="evenodd" clip-rule="evenodd" d="M9.62629 2.56714L8.33008 4.98936C8.58963 5.04639 8.86558 5.29995 8.79103 5.62725L10.0873 3.20503C9.90105 3.19716 9.63335 2.85352 9.62629 2.56714V2.56714Z" fill="url(#paint13_radial_19_3732)"/>
<path style="mix-blend-mode:screen" fill-rule="evenodd" clip-rule="evenodd" d="M2.82199 8.24152L6.31132 7.60542C6.08836 7.56887 5.77582 7.16377 5.85037 6.96753L2.36108 7.60358C2.645 7.68925 2.96583 7.98382 2.82199 8.24152V8.24152Z" fill="url(#paint14_radial_19_3732)"/>
<path fill-rule="evenodd" clip-rule="evenodd" d="M2.7164 9.86183L1.3879 8.5593L0.35083 8.14872L1.43475 8.42621C3.46008 8.0938 6.56214 7.59544 7.76595 7.27329L7.50351 6.78942L7.87585 7.19549L10.6265 2.19702L7.93286 7.43298C6.42659 7.67466 3.40499 8.21386 1.5142 8.52647L2.7164 9.86183H2.7164Z" fill="#FDCF1D"/>
<path style="mix-blend-mode:screen" fill-rule="evenodd" clip-rule="evenodd" d="M14.3623 19.3694C14.2604 19.1271 14.2645 18.6923 14.3623 18.581C13.694 18.2573 13.0257 17.9337 12.3574 17.6101C12.4919 17.8401 12.4959 18.1726 12.3574 18.3986C13.0257 18.7222 13.694 19.0458 14.3623 19.3694Z" fill="url(#paint15_radial_19_3732)"/>
<defs>
<radialGradient id="paint0_radial_19_3732" cx="0" cy="0" r="1" gradientUnits="userSpaceOnUse" gradientTransform="translate(9.41174 20.1057) scale(13.5237 13.5949)">
<stop stop-color="#BD5F00"/>
<stop offset="1" stop-color="#EBA82C"/>
</radialGradient>
<radialGradient id="paint1_radial_19_3732" cx="0" cy="0" r="1" gradientUnits="userSpaceOnUse" gradientTransform="translate(4.07485 21.5534) scale(9.75251 9.80386)">
<stop stop-color="#F9C433"/>
<stop offset="1" stop-color="#FF9F33"/>
</radialGradient>
<radialGradient id="paint2_radial_19_3732" cx="0" cy="0" r="1" gradientUnits="userSpaceOnUse" gradientTransform="translate(6.55309 13.6581) scale(7.11727 7.15474)">
<stop stop-color="#CF8100"/>
<stop offset="1" stop-color="#DE9000"/>
</radialGradient>
<radialGradient id="paint3_radial_19_3732" cx="0" cy="0" r="1" gradientUnits="userSpaceOnUse" gradientTransform="translate(9.25112 1.3703) scale(5.66097 5.69078)">
<stop stop-color="#FFF8C9"/>
<stop offset="1" stop-color="#FFE89C"/>
</radialGradient>
<radialGradient id="paint4_radial_19_3732" cx="0" cy="0" r="1" gradientUnits="userSpaceOnUse" gradientTransform="translate(12.5375 11.8613) scale(13.4323 13.503)">
<stop stop-color="#BD5F00"/>
<stop offset="1" stop-color="#EBA82C"/>
</radialGradient>
<radialGradient id="paint5_radial_19_3732" cx="0" cy="0" r="1" gradientUnits="userSpaceOnUse" gradientTransform="translate(16.6166 13.8148) scale(18.1125 18.2079)">
<stop stop-color="#BD5F00"/>
<stop offset="1" stop-color="#EBA82C"/>
</radialGradient>
<radialGradient id="paint6_radial_19_3732" cx="0" cy="0" r="1" gradientUnits="userSpaceOnUse" gradientTransform="translate(17.359 14.0122) scale(9.66365 9.71453)">
<stop stop-color="#CF8100"/>
<stop offset="1" stop-color="#DE9000"/>
</radialGradient>
<radialGradient id="paint7_radial_19_3732" cx="0" cy="0" r="1" gradientUnits="userSpaceOnUse" gradientTransform="translate(14.8875 6.42551) scale(7.8733 7.91476)">
<stop stop-color="#CF8100"/>
<stop offset="1" stop-color="#EBA82C"/>
</radialGradient>
<radialGradient id="paint8_radial_19_3732" cx="0" cy="0" r="1" gradientUnits="userSpaceOnUse" gradientTransform="translate(11.3284 0.0680239) scale(8.99697 9.04434)">
<stop stop-color="#F9C433"/>
<stop offset="1" stop-color="#FF9F33"/>
</radialGradient>
<radialGradient id="paint9_radial_19_3732" cx="0" cy="0" r="1" gradientUnits="userSpaceOnUse" gradientTransform="translate(7.921 28.129) scale(10.5579 10.6135)">
<stop stop-color="#DE8128"/>
<stop offset="1" stop-color="#994115"/>
</radialGradient>
<radialGradient id="paint10_radial_19_3732" cx="0" cy="0" r="1" gradientUnits="userSpaceOnUse" gradientTransform="translate(16.8438 22.1667) scale(10.715 10.7715)">
<stop stop-color="#DE8128"/>
<stop offset="1" stop-color="#994115"/>
</radialGradient>
<radialGradient id="paint11_radial_19_3732" cx="0" cy="0" r="1" gradientUnits="userSpaceOnUse" gradientTransform="translate(-0.0392416 7.99008) scale(10.941 10.9986)">
<stop stop-color="#DE8128"/>
<stop offset="1" stop-color="#994115"/>
</radialGradient>
<radialGradient id="paint12_radial_19_3732" cx="0" cy="0" r="1" gradientUnits="userSpaceOnUse" gradientTransform="translate(23.2445 7.85195) scale(9.8128 9.86446)">
<stop stop-color="#DE8128"/>
<stop offset="1" stop-color="#994115"/>
</radialGradient>
<radialGradient id="paint13_radial_19_3732" cx="0" cy="0" r="1" gradientUnits="userSpaceOnUse" gradientTransform="translate(9.08628 2.49721) scale(5.14892 5.17603)">
<stop stop-color="#FFFACF"/>
<stop offset="1"/>
</radialGradient>
<radialGradient id="paint14_radial_19_3732" cx="0" cy="0" r="1" gradientUnits="userSpaceOnUse" gradientTransform="translate(2.45892 8.75327) scale(5.65246 5.68223)">
<stop stop-color="#FFFACF"/>
<stop offset="1"/>
</radialGradient>
<radialGradient id="paint15_radial_19_3732" cx="0" cy="0" r="1" gradientUnits="userSpaceOnUse" gradientTransform="translate(14.9332 21.8942) scale(5.5616 5.59088)">
<stop stop-color="#FFF261"/>
<stop offset="0.11021" stop-color="#FAEE5F"/>
<stop offset="0.23412" stop-color="#EDE15A"/>
<stop offset="0.36472" stop-color="#D6CB52"/>
<stop offset="0.49992" stop-color="#B7AD46"/>
<stop offset="0.63879" stop-color="#8E8736"/>
<stop offset="0.78066" stop-color="#5C5823"/>
<stop offset="0.92227" stop-color="#23210D"/>
<stop offset="1"/>
</radialGradient>
</defs>
</svg>
