<svg width="40" height="40" viewBox="0 0 40 40" fill="none" xmlns="http://www.w3.org/2000/svg">
<g clip-path="url(#clip0_7_66954)">
<path d="M20 0C8.95312 0 0 8.95312 0 20C0 31.0469 8.95312 40 20 40C31.0469 40 40 31.0469 40 20C40 8.95312 31.0469 0 20 0ZM20 36.6641C10.7969 36.6641 3.33594 29.2031 3.33594 20C3.33594 10.7969 10.7969 3.33594 20 3.33594C29.2031 3.33594 36.6641 10.7969 36.6641 20C36.6641 29.2031 29.2031 36.6641 20 36.6641ZM18.3359 18.3359H10V21.6719H21.6641V6.67188H18.3281V18.3359H18.3359Z" fill="#FDCF1D"/>
</g>
<defs>
<clipPath id="clip0_7_66954">
<rect width="40" height="40" fill="white"/>
</clipPath>
</defs>
</svg>
