<svg width="90" height="114" viewBox="0 0 90 114" fill="none" xmlns="http://www.w3.org/2000/svg">
<g filter="url(#filter0_d_19_3471)">
<path d="M77.8822 12.2206H64.6266V12.1178C64.6266 10.3613 63.1976 8.93233 61.4411 8.93233H53.1178V8.82957C53.1178 6.16653 50.9513 4 48.2882 4H41.7118C39.0487 4 36.8822 6.16653 36.8822 8.82957V8.93233H28.5589C26.8024 8.93233 25.3734 10.3613 25.3734 12.1178V12.2206H12.1178C7.6417 12.2206 4 15.8623 4 20.3383V100.9C4 105.376 7.6417 109.018 12.1178 109.018H77.8822C82.3583 109.018 86 105.376 86 100.9V20.3383C86 15.8623 82.3583 12.2206 77.8822 12.2206ZM63.0848 21.8797H76.2381C76.2948 21.8797 76.3409 21.9257 76.3409 21.9825V99.2556C76.3409 99.3124 76.2948 99.3584 76.2381 99.3584H13.7619C13.7052 99.3584 13.6591 99.3124 13.6591 99.2556V21.9825C13.6591 21.9257 13.7052 21.8797 13.7619 21.8797H26.915C26.9333 21.8797 26.951 21.8776 26.969 21.877C28.4494 23.8722 30.8216 25.1679 33.4912 25.1679H56.5088C59.1784 25.1679 61.5506 23.8722 63.031 21.877C63.049 21.8776 63.0667 21.8797 63.0848 21.8797ZM39.9649 8.82957C39.9649 7.86633 40.7485 7.08271 41.7118 7.08271H48.2882C49.2515 7.08271 50.0351 7.86633 50.0351 8.82957V8.93233H39.9649V8.82957ZM28.4561 12.1178C28.4561 12.0611 28.5022 12.015 28.5589 12.015H61.4411C61.4978 12.015 61.5439 12.0611 61.5439 12.1178V13.75C61.5439 13.7541 61.5432 13.758 61.5432 13.7619C61.5432 13.7658 61.5439 13.7699 61.5439 13.7738V17.0501C61.5439 19.8264 59.2851 22.0852 56.5088 22.0852H33.4912C30.7149 22.0852 28.4561 19.8264 28.4561 17.0501V12.1178ZM82.9173 100.9C82.9173 103.676 80.6585 105.935 77.8822 105.935H12.1178C9.34151 105.935 7.08271 103.676 7.08271 100.9V20.3383C7.08271 17.5621 9.34151 15.3033 12.1178 15.3033H25.3734V17.0501C25.3734 17.6498 25.4408 18.2339 25.5648 18.797H13.7619C12.0054 18.797 10.5764 20.2259 10.5764 21.9825V99.2556C10.5764 101.012 12.0054 102.441 13.7619 102.441H76.2381C77.9946 102.441 79.4236 101.012 79.4236 99.2556V21.9825C79.4236 20.2259 77.9946 18.797 76.2381 18.797H64.4352C64.5594 18.2339 64.6266 17.6498 64.6266 17.0501V15.3033H77.8822C80.6585 15.3033 82.9173 17.5621 82.9173 20.3383V100.9Z" fill="#FDCF1D"/>
<path d="M22.1878 48.1855H34.9296C35.8929 48.1855 36.6765 47.4019 36.6765 46.4387V33.6968C36.6765 32.7336 35.8929 31.95 34.9296 31.95H22.1878C21.2245 31.95 20.4409 32.7336 20.4409 33.6968V46.4387C20.4409 47.4019 21.2245 48.1855 22.1878 48.1855ZM23.5236 35.0327H33.5938V45.1028H23.5236V35.0327Z" fill="#FDCF1D"/>
<path d="M34.9296 74.6968H22.1878C21.2245 74.6968 20.4409 75.4804 20.4409 76.4436V89.1855C20.4409 90.1487 21.2245 90.9324 22.1878 90.9324H34.9296C35.8929 90.9324 36.6765 90.1487 36.6765 89.1855V76.4436C36.6765 75.4804 35.8929 74.6968 34.9296 74.6968ZM33.5938 87.8497H23.5236V77.7795H33.5938V87.8497Z" fill="#FDCF1D"/>
<path d="M37.3335 53.7748L36.2254 54.8829C35.6691 53.9509 34.6532 53.3232 33.491 53.3232H23.6264C21.8699 53.3232 20.4409 54.7522 20.4409 56.5087V66.3734C20.4409 68.1299 21.8699 69.5588 23.6264 69.5588H33.491C35.2476 69.5588 36.6765 68.1299 36.6765 66.3734V64.7293C36.6765 63.878 35.9864 63.1879 35.1352 63.1879C34.2839 63.1879 33.5938 63.878 33.5938 64.7293V66.3734C33.5938 66.4301 33.5478 66.4761 33.491 66.4761H23.6264C23.5697 66.4761 23.5236 66.4301 23.5236 66.3734V56.5087C23.5236 56.452 23.5697 56.4059 23.6264 56.4059H33.491C33.5478 56.4059 33.5938 56.452 33.5938 56.5087V57.5145L30.2028 60.9055L28.0044 58.7071C27.4025 58.1051 26.4265 58.1051 25.8248 58.7071C25.2228 59.309 25.2228 60.2848 25.8248 60.8868L29.113 64.175C29.4139 64.4761 29.8084 64.6265 30.2028 64.6265C30.5972 64.6265 30.9918 64.4761 31.2927 64.175L36.2248 59.2429C36.225 59.2427 36.2252 59.2425 36.2252 59.2425L39.5132 55.9544C40.1152 55.3525 40.1152 54.3767 39.5132 53.7748C38.9115 53.1728 37.9353 53.1728 37.3335 53.7748Z" fill="#FDCF1D"/>
<path d="M41.7118 36.6767H46.6441C47.4953 36.6767 48.1854 35.9866 48.1854 35.1353C48.1854 34.2841 47.4953 33.594 46.6441 33.594H41.7118C40.8605 33.594 40.1704 34.2841 40.1704 35.1353C40.1704 35.9866 40.8605 36.6767 41.7118 36.6767Z" fill="#FDCF1D"/>
<path d="M40.1704 41.7118C40.1704 42.563 40.8605 43.2531 41.7118 43.2531H66.3734C67.2247 43.2531 67.9148 42.563 67.9148 41.7118C67.9148 40.8605 67.2247 40.1704 66.3734 40.1704H41.7118C40.8605 40.1704 40.1704 40.8605 40.1704 41.7118Z" fill="#FDCF1D"/>
<path d="M41.7118 59.6943H58.1529C59.0041 59.6943 59.6942 59.0042 59.6942 58.1529C59.6942 57.3017 59.0041 56.6116 58.1529 56.6116H41.7118C40.8605 56.6116 40.1704 57.3017 40.1704 58.1529C40.1704 59.0042 40.8605 59.6943 41.7118 59.6943Z" fill="#FDCF1D"/>
<path d="M66.3734 63.188H41.7118C40.8605 63.188 40.1704 63.8781 40.1704 64.7293C40.1704 65.5806 40.8605 66.2707 41.7118 66.2707H66.3734C67.2247 66.2707 67.9148 65.5806 67.9148 64.7293C67.9148 63.8781 67.2247 63.188 66.3734 63.188Z" fill="#FDCF1D"/>
<path d="M41.7118 81.0676H48.2882C49.1394 81.0676 49.8296 80.3775 49.8296 79.5262C49.8296 78.675 49.1394 77.9849 48.2882 77.9849H41.7118C40.8605 77.9849 40.1704 78.675 40.1704 79.5262C40.1704 80.3775 40.8605 81.0676 41.7118 81.0676Z" fill="#FDCF1D"/>
<path d="M66.3734 84.5615H41.7118C40.8605 84.5615 40.1704 85.2516 40.1704 86.1029C40.1704 86.9541 40.8605 87.6442 41.7118 87.6442H66.3734C67.2247 87.6442 67.9148 86.9541 67.9148 86.1029C67.9148 85.2516 67.2247 84.5615 66.3734 84.5615Z" fill="#FDCF1D"/>
</g>
<defs>
<filter id="filter0_d_19_3471" x="0" y="0" width="90" height="113.018" filterUnits="userSpaceOnUse" color-interpolation-filters="sRGB">
<feFlood flood-opacity="0" result="BackgroundImageFix"/>
<feColorMatrix in="SourceAlpha" type="matrix" values="0 0 0 0 0 0 0 0 0 0 0 0 0 0 0 0 0 0 127 0" result="hardAlpha"/>
<feOffset/>
<feGaussianBlur stdDeviation="2"/>
<feComposite in2="hardAlpha" operator="out"/>
<feColorMatrix type="matrix" values="0 0 0 0 1 0 0 0 0 0.858824 0 0 0 0 0.227451 0 0 0 0.5 0"/>
<feBlend mode="normal" in2="BackgroundImageFix" result="effect1_dropShadow_19_3471"/>
<feBlend mode="normal" in="SourceGraphic" in2="effect1_dropShadow_19_3471" result="shape"/>
</filter>
</defs>
</svg>
