<svg width="269" height="306" viewBox="0 0 269 306" fill="none" xmlns="http://www.w3.org/2000/svg">
<path fill-rule="evenodd" clip-rule="evenodd" d="M247.572 39.7214C246.555 38.0495 243.559 33.6026 239.462 31.6645C239.462 31.6645 238.195 35.5994 238.278 36.9871C238.278 36.9871 234.201 35.7074 230.457 36.9076C226.72 38.1085 225.334 49.3234 225.334 49.3234C225.334 49.3234 223.934 44.6996 223.856 43.1548C223.359 44.0894 218.816 48.8219 218.374 49.9333C217.774 51.4679 217.234 59.6142 221.223 60.2726C223.124 60.5978 223.6 59.3678 224.774 58.3842C225.283 58.2086 225.808 58.0833 226.341 58.0101C226.341 57.9808 226.336 57.9511 226.336 57.9218C226.321 56.9086 226.474 55.5016 226.474 55.5016C226.924 56.1584 227.304 56.8606 227.608 57.5966C227.642 57.7603 227.731 57.9071 227.861 58.0114C227.992 58.1157 228.154 58.171 228.321 58.1676C228.133 58.4288 227.856 58.6108 227.541 58.6781C227.227 58.7455 226.899 58.6934 226.621 58.532C225.985 58.5653 225.367 58.7616 224.828 59.1022C222.161 63.4015 219.7 62.7027 217.862 60.8044C215.849 58.7186 214.503 55.0095 214.159 53.6424C214.159 53.6424 212.43 54.7538 210.573 56.013C216.094 63.5592 216.566 71.0748 217.44 75.4721C218.314 79.8899 220.034 81.916 220.034 81.916C218.762 83.0673 215.161 84.8283 215.161 84.8283C219.012 90.2391 219.999 97.3321 219.999 97.3321C220.807 94.4278 221.199 91.4235 221.163 88.409C222.544 92.795 222.524 97.5033 221.105 101.877C223.06 99.1814 223.866 95.0895 223.866 95.0895C228.292 94.8744 232.617 93.6818 236.529 91.5969C242.881 88.1435 248.863 82.3685 248.863 82.3685C246.815 87.0022 239.585 93.564 239.585 93.564C244.689 90.7802 251.045 82.3591 251.045 82.3591C249.556 80.5782 249.016 76.7908 249.075 73.1507C249.134 69.5111 250.397 68.4877 252.086 66.1363C253.781 63.7948 252.544 61.788 253.182 61.2171C253.811 60.6368 255.746 60.7355 256.11 63.3027C256.463 65.8707 254.454 69.776 254.454 69.776C256.964 67.9566 256.915 64.0704 256.915 64.0704C257.465 62.7617 259.145 58.2365 259.352 56.5442C259.553 54.852 261.356 55.1871 261.356 55.1871C261.4 56.7708 260.187 64.1095 260.187 64.1095C262.083 60.0766 262.52 53.6617 263.37 53.7113C264.215 53.7505 264.946 53.6617 264.715 55.8362C264.49 58.0101 263.419 67.4252 263.419 67.4252C264.918 64.0995 265.669 56.2494 265.669 56.2494C267.585 56.7118 267.428 57.4297 267.192 59.84C266.946 62.2602 265.286 68.8513 265.286 68.8513C266.622 66.3727 267.727 61.2079 267.727 61.2079C267.727 61.2079 269.186 61.1581 268.98 62.8505C268.773 64.5328 267.884 72.7472 265.202 77.952C262.525 83.1659 257.721 87.1796 257.721 87.1796C257.721 87.1796 252.013 94.1449 248.102 100.933C244.193 107.721 238.386 113.161 231.381 117.46C224.376 121.769 222.893 122.773 219.095 120.077C215.299 117.392 212.862 112.434 208.701 106.137C204.54 99.8505 204.433 91.2525 204.433 91.2525C206.54 99.2311 212.194 107.751 212.194 107.751C209.647 101.994 208.019 95.8721 207.37 89.6092C209.767 99.0344 214.729 107.16 214.729 107.16C210.592 96.7519 211.3 86.0485 211.3 86.0485C208.761 87.5225 206.066 88.7071 203.264 89.5801C200.802 92.3248 192.063 99.2311 192.063 99.2311C192.132 99.1423 192.211 99.0437 192.289 98.9455C191.258 99.8505 190.594 100.421 190.594 100.421C212.872 74.2719 210.042 64.7296 210.042 64.7296C208.736 71.2424 203.828 75.7873 203.828 75.7873C205.297 52.6292 199.933 40.1446 195.968 34.2226C194.901 33.0467 193.768 31.933 192.574 30.8869C199.452 39.9968 201.358 55.6586 201.358 55.6586C198.508 48.182 191.425 39.5941 191.425 39.5941C200.109 55.5996 200.537 79.6045 200.537 79.6045C196.278 60.7845 185.742 46.1163 185.742 46.1163C193.213 68.6844 188.536 101.739 188.536 101.739C189.372 92.1182 184.631 79.5356 184.631 79.5356C187.618 95.0795 183.663 106.333 183.663 106.333C185.245 92.4526 179.586 73.0228 179.586 73.0228C183.197 97.7256 177.636 112.659 177.636 112.659C179.252 94.3019 173.2 68.4088 173.2 68.4088C176.934 94.1939 171.604 118.986 171.604 118.986C172.522 111.154 171.265 96.7719 171.265 96.7719C171.177 116.811 165.665 127.101 165.665 127.101C167.35 118.238 164.451 104.494 164.451 104.494C165.871 119.241 162.443 127.121 162.443 127.121C161.715 116.526 159.564 109.442 159.564 109.442C161.293 117.756 159.117 125.704 159.117 125.704C162.177 128.902 160.797 131.519 161.779 133.359C162.757 135.199 164.864 136.014 164.864 136.014C157.776 138.346 147.622 137.668 147.622 137.668C156.415 140.609 167.836 137.411 167.836 137.411C161.971 140.344 147.519 143.393 147.519 143.393C160.753 143.324 171.893 138.514 171.893 138.514C166.824 143.452 150.589 146.403 150.589 146.403C167.929 146.364 175.592 139.586 175.592 139.586C178.211 140.796 179.959 141.593 178.52 145.459C177.081 149.325 170.479 156.339 170.479 156.339C176.796 151.46 180.972 142.891 180.972 142.891C203.155 153.3 216.969 170.447 217.096 175.11C217.224 179.773 213.058 184.574 207.704 188.067C202.345 191.57 186.846 201.358 173.014 206.405C159.181 211.441 151.94 218.751 151.94 218.751C151.94 218.751 152.942 219.991 151.92 221.801C150.908 223.611 148.659 231.59 148.737 235.436C148.806 239.293 148.619 243.129 149.602 244.762C150.575 246.405 154.593 250.98 157.329 251.915C160.065 252.839 160.418 256.312 157.864 257.109C155.31 257.915 149.366 257.62 139.581 251.836C129.8 246.041 126.892 237.807 122.172 234.128C117.456 230.439 113.035 223.326 112.976 221.87C112.934 221.484 113.026 221.095 113.235 220.768C113.444 220.44 113.758 220.194 114.125 220.07C116.994 229.091 122.751 230.439 128.046 238.525C133.347 246.612 144.571 252.741 144.571 252.741C140.823 250.832 134.339 245.343 130.429 238.643C126.519 231.953 124.078 230.508 120.03 226.592C115.982 222.676 116.291 219.115 116.291 219.115C117.077 221.532 118.534 223.675 120.491 225.294C123.675 227.832 128.695 233.518 134.374 241.89C140.057 250.262 150.004 252.741 150.004 252.741C142.877 249.475 136.82 243.336 133.922 237.63C131.337 232.635 127.772 228.214 123.439 224.634C120 221.811 117.869 219.322 118.87 217.915C119.863 216.508 124.303 215.13 125.438 213.597C126.573 212.061 128.066 211.333 128.98 211.648C129.894 211.963 129.815 213.547 132.576 216.597C135.337 219.656 141.133 219.764 141.133 219.764C132.919 218.249 130.994 212.622 130.994 212.622C133.288 210.802 156.4 195.642 166.362 189.494C176.325 183.354 184.076 177.383 184.076 177.383C178.368 186.768 159.564 198.564 159.564 198.564C176.496 191.106 194.097 175.661 194.097 175.661C176.364 176.999 157.55 172.199 157.55 172.199C163.627 171.508 169.778 171.908 175.715 173.379C171.373 171.775 160.316 166.531 160.316 166.531C169.104 167.516 179.694 171.086 179.694 171.086C175.004 167.574 170.09 164.374 164.982 161.504C164.982 161.504 154.961 168.755 150.997 170.772C147.037 172.789 146.566 171.106 138.809 166.02C131.053 160.934 116.513 153.585 116.513 153.585C124.294 158.12 136.515 167.84 136.515 167.84C125.394 180.56 94.7905 202.263 93.5625 204.693C92.3394 207.123 87.373 212.681 82.8439 214.944C78.3149 217.206 72.6067 221.073 65.9557 227.104C59.3142 233.134 48.0848 242.529 39.3704 251.216C30.6658 259.913 29.6931 268.432 29.6931 268.432C29.7913 272.033 26.6672 273.814 21.7254 284.35C16.7936 294.886 22.0153 300.947 21.9221 302.875C21.8237 304.803 19.1709 308.266 14.1408 303.868C9.11068 299.48 2.77383 288.108 3.19639 279.559C3.61899 271.01 -0.743458 264.163 0.1113 258.122C0.961282 252.081 3.39767 253.036 3.39767 253.036C3.39767 253.036 2.44963 255.476 4.82718 268.855C7.2047 282.245 11.8076 295.191 11.8076 295.191C11.8076 295.191 7.29798 280.317 7.3767 273.135C7.45049 265.943 6.1781 252.613 6.1781 252.613C6.1781 252.613 8.78672 266.848 9.86703 278.506C10.9479 290.174 15.084 295.9 15.084 295.9C10.2013 282.943 12.4706 270.617 11.5866 266.15C10.7023 261.683 8.65884 252.741 8.65884 252.741C8.65884 252.741 13.6106 252.987 15.0546 251.679C16.5038 250.36 18.6896 250.744 18.6896 250.744C18.837 259.047 26.0286 264.379 26.0286 264.379C21.7696 261.133 21.1457 251.422 21.1457 251.422C28.1606 243.474 45.4712 228.304 45.4712 228.304C48.8805 215.199 57.8109 207.625 57.8109 207.625C48.1437 213.232 44.1746 221.053 44.1746 221.053C51.7345 202.076 70.2586 195.799 70.2586 195.799C67.3507 204.506 67.9007 210.064 67.9007 210.064C67.9007 210.064 80.7219 185.263 87.658 178.967C94.5891 172.681 108.383 167.279 108.383 167.279C104.586 171.52 89.7111 182.115 89.7111 182.115C97.8705 178.927 121.985 165.745 121.985 165.745C109.208 167.319 92.8503 163.197 92.8503 163.197C96.8537 160.354 104.212 151.037 104.212 151.037C105.981 154.441 110.225 157.973 110.225 157.973C110.225 157.973 101.402 140.953 105.603 128.439C109.812 115.935 122.118 112.679 122.118 112.679L125.983 112.591C98.8579 125.341 112.455 146.197 112.455 146.197C102.419 122.419 132.153 116.211 132.153 116.211C115.791 123.422 113.605 134.096 113.605 134.096C119.48 121.386 142.224 119.201 142.224 119.201C131.279 122.802 125.183 128.863 125.183 128.863C138.298 120.383 153.9 123.088 153.9 123.088C136.476 112.552 124.431 110.574 124.431 110.574C128.086 103.569 132.561 102.408 136.496 95.4141C140.425 88.4289 148.128 77.7453 148.128 77.7453C150.481 91.6851 159.436 105.95 159.436 105.95C152.746 84.8873 155.049 66.2053 155.049 66.2053C156.754 82.0439 163.906 99.2602 163.906 99.2602C156.543 75.1284 158.743 52.845 158.743 52.845C159.495 65.5951 166.284 84.7298 166.284 84.7298C162.039 65.566 160.93 38.4132 166.524 19.9277C163.832 24.847 160.664 33.9959 161.013 38.1475C146.251 33.229 139.6 24.6596 139.6 24.6596C147.411 30.2478 153.944 32.3036 153.944 32.3036C147.303 26.4895 140.504 21.0987 140.504 21.0987C148.914 23.5089 154.799 26.2538 158.571 28.3886C154.701 24.6502 150.142 21.2658 144.493 18.9633C114.115 21.0591 112.126 17.1829 100.548 13.4547C94.1667 11.3981 82.0776 13.4644 82.0776 13.4644C80.283 14.9683 78.7465 16.7562 77.5289 18.7573C75.7409 21.8365 73.8249 21.4332 71.5948 23.1646C69.3646 24.896 69.0896 28.4575 67.5963 25.6239C66.1029 22.7904 68.2939 19.731 69.2566 18.8553C70.2194 17.9897 68.3281 16.9764 65.5526 17.3506C62.7823 17.7242 61.1514 19.7899 59.4222 19.6031C57.693 19.4165 56.1358 16.8485 57.187 16.1894C58.2431 15.5204 60.4392 14.5661 61.4756 13.1592C59.7198 13.9094 57.9144 14.5373 56.0722 15.0383C54.8147 13.7495 54.898 12.0181 56.7599 11.4967C58.6215 10.9755 61.0826 10.3853 61.7508 9.59804C59.5107 10.0409 56.1308 10.5231 56.1308 10.5231C56.1308 10.5231 55.4187 7.65021 58.1009 7.06953C60.7828 6.47944 63.0182 5.04319 63.868 3.39028C62.168 5.04319 58.2973 6.04669 58.2973 6.04669C58.2973 6.04669 58.0665 4.09903 59.776 3.61674C61.4903 3.1346 65.7785 1.65891 69.1976 0.842223C72.6166 0.0259252 73.9626 1.21641 82.5738 0.655444C91.185 0.0948348 115.712 -0.948066 127.948 1.91464C130.951 2.61065 133.879 3.59569 136.692 4.85602C117.171 0.77335 104.32 3.55778 104.32 3.55778C121.061 3.49863 134.619 5.61375 149.081 10.641C156.538 11.4477 163.518 12.7559 167.964 15.0184C170.002 16.3861 172.65 16.9471 177.228 18.2943C181.801 19.6523 186.331 24.8072 186.331 24.8072C183.378 19.023 179.095 17.3996 179.095 17.3996C186.901 18.9143 192.505 25.1126 195.988 28.664C197.595 30.2721 199.38 31.6913 201.308 32.8939L207.508 29.6279C207.508 29.6279 210.922 31.9499 215.966 29.1264C215.966 29.1264 210.047 30.9856 207.168 27.1585C210.326 25.0174 212.977 22.2103 214.935 18.9342C218.113 13.5626 229.47 7.21726 240.243 12.6677C249.321 17.2518 252.75 30.5033 250.333 37.5276C249.91 38.7674 249.218 39.8988 248.142 40.302C247.017 41.9747 245.391 44.4339 244.645 45.7917C244.054 46.8641 243.431 48.231 240.042 47.8576C238.862 50.1766 237.969 52.6314 237.384 55.1673C236.848 57.6365 234.314 57.1344 232.619 55.8752C232.256 55.974 231.553 56.3376 230.929 57.6464C230.437 57.8397 229.896 57.8674 229.387 57.7253C229.387 57.7253 229.308 57.5476 229.17 57.2628C229.151 57.233 229.132 57.2034 229.112 57.174C228.62 56.3277 226.449 53.9571 226.449 53.9571C228.423 54.8227 229.893 55.6195 230.467 56.121C230.674 56.2494 230.875 56.3773 231.057 56.5051C231.059 56.2758 231.115 56.0503 231.223 55.848C231.331 55.6457 231.486 55.4728 231.676 55.3441C231.371 55.1673 231.067 54.9705 230.752 54.7737C229.775 54.1538 229.446 52.8749 229.947 52.0879C230.698 50.9269 232.486 50.8978 232.752 51.7926C232.597 51.6785 232.421 51.5964 232.234 51.5509C232.047 51.5055 231.852 51.4977 231.662 51.528C231.472 51.5582 231.29 51.6259 231.126 51.7271C230.963 51.8284 230.82 51.9611 230.708 52.1177C230.29 52.8259 230.472 53.6227 232.187 54.1538C233.906 54.6949 233.469 55.5116 235.07 55.7964C236.848 56.121 236.971 52.855 237.424 51.6057C237.997 50.0741 238.735 48.6095 239.624 47.2375C242.713 47.2867 243.392 46.3131 244.202 44.6896C244.645 43.804 246.58 41.0891 247.572 39.7214ZM239.241 46.8051L239.536 47.0905C239.655 46.7877 239.862 46.5273 240.13 46.3427C240.464 46.5004 240.833 46.5654 241.201 46.5308C241.568 46.4961 241.919 46.3632 242.217 46.146C241.167 44.365 240.203 41.8269 238.882 41.3943C237.561 40.9613 235.222 41.2169 235.222 41.2169C235.154 41.2659 236.868 41.3348 237.836 42.2991C238.269 42.7673 238.638 43.2899 238.936 43.8536C238.423 43.302 237.794 42.8718 237.094 42.5946C236.391 42.358 233.941 43.0469 233.941 43.0469C235.522 42.978 236.519 43.0568 237.059 43.3325C237.954 43.7847 238.19 44.316 238.656 45.2016C238.091 44.4538 237.713 43.9324 236.736 43.4994C236.023 43.1847 233.729 43.3914 233.729 43.3914C234.695 43.959 235.465 44.8063 235.94 45.8216C236.206 46.4717 236.657 47.0291 237.237 47.4243C236.488 47.0775 235.831 46.5585 235.32 45.9096C235.232 45.7917 235.184 45.7128 235.184 45.7128L235.193 45.7419C235.097 45.6118 235.011 45.4738 234.938 45.3293C235.901 48.6351 237.929 48.0934 237.929 48.0934C238.278 47.9066 238.416 48.0052 238.416 48.0052C238.42 47.8774 238.387 47.7512 238.322 47.6414C238.256 47.5315 238.161 47.4427 238.047 47.3852C238.257 47.4084 238.468 47.3761 238.662 47.2915C238.855 47.2068 239.022 47.0729 239.147 46.9031C239.182 46.874 239.211 46.8342 239.241 46.8051ZM237.418 46.8243C237.306 46.6618 237.25 46.4667 237.26 46.2693C237.27 46.0719 237.345 45.8833 237.473 45.7327C237.466 45.7925 237.483 45.8523 237.52 45.8999C237.556 45.9475 237.61 45.9792 237.669 45.9885C237.726 45.9997 237.785 45.9887 237.835 45.9577C237.884 45.9267 237.92 45.878 237.934 45.8216C237.94 45.7618 237.923 45.702 237.887 45.6543C237.85 45.6066 237.797 45.5747 237.738 45.5651C237.693 45.5579 237.648 45.5613 237.605 45.575C237.654 45.5358 237.705 45.4997 237.758 45.4671C237.399 45.118 236.949 44.876 236.461 44.7683C236.45 45.1618 236.532 45.5524 236.698 45.9091C236.864 46.2659 237.111 46.5792 237.418 46.8243ZM207.232 57.8332C208.907 55.2361 212.017 50.199 214.493 46.5594C214.493 46.5594 208.475 52.019 205.798 55.2262C206.115 56.175 206.601 57.0583 207.232 57.8332ZM224.568 32.5892C224.568 32.5892 225.447 31.3692 225.182 30.3464C224.917 29.3232 221.173 29.7655 219.577 32.717C219.577 32.717 220.913 28.615 225.113 29.2053C225.113 29.2053 222.966 27.9555 219.887 30.2675C216.806 32.5792 217.352 36.9076 218.314 37.9018C218.314 37.9018 216.384 36.0328 217.391 32.2937C218.393 28.5555 222.942 27.1393 224.926 27.9262C226.901 28.723 225.983 32.0182 224.568 32.5892Z" fill="#FDCF1D"/>
</svg>
