<svg width="40" height="40" viewBox="0 0 40 40" fill="none" xmlns="http://www.w3.org/2000/svg">
<path fill-rule="evenodd" clip-rule="evenodd" d="M20.6575 28.75H22.425L23.6462 22.5962L26.5287 22.6087C28.5413 22.6087 30.1962 22.0938 31.495 21.0637C32.795 20.0338 33.5363 18.6625 33.7188 16.9475C33.8288 15.7712 33.6488 14.7475 33.1763 13.8787L29.7638 15.6625C29.7888 15.8 29.8025 15.9412 29.8075 16.0812C29.835 17.1712 29.5788 18.0387 29.0388 18.685C28.4988 19.33 27.7388 19.66 26.7612 19.6763L24.2225 19.6512L24.465 18.4325L20.0712 20.7288L19.2712 24.785L18.1938 21.71L14.8875 23.4387L16.24 28.75H20.6575ZM19.0138 15.0125H21.2013L20.5363 18.3787L24.9312 16.0812L25.3063 14.1937L28.175 14.2188C28.2625 14.2238 28.35 14.235 28.435 14.2513L31.935 12.4213C31.0025 11.6888 29.8087 11.3025 28.3525 11.2625L21.945 11.25H19.1763L16.8263 15.0125H19.0138H16.8263L15.5125 17.2362L13.975 11.25H9.625L12.59 19.7837L9.50625 24.1462L17.83 19.7938L21.2013 15.0112L19.0138 15.0125ZM20 40C8.95375 40 0 31.0462 0 20C0 8.95375 8.95375 0 20 0C31.0462 0 40 8.95375 40 20C40 31.0462 31.0462 40 20 40ZM7.2325 27.44L7.2075 27.3938L6.25 28.75H10.9563L13.8912 23.9587L7.2325 27.44Z" fill="#FDCF1D"/>
</svg>
