<svg width="480" height="223" viewBox="0 0 480 223" fill="none" xmlns="http://www.w3.org/2000/svg">
<g clip-path="url(#clip0_481_1809)">
<path d="M285.971 36.1123C285.971 36.1123 285.971 36.1592 285.935 36.2374C285.982 36.5391 286.002 36.8446 285.992 37.1499V37.1499C285.98 37.3861 285.952 37.6213 285.908 37.8538C285.798 38.4671 285.569 39.0532 285.236 39.5796V39.5796C285.126 39.7611 285.004 39.9353 284.871 40.101V40.101C284.609 40.4128 284.309 40.6912 283.979 40.9301L283.932 40.9666C283.786 41.0639 283.635 41.1577 283.479 41.2481L283.406 41.2898C283.06 41.4741 282.692 41.6142 282.311 41.707L282.165 41.7435C282.019 41.7747 281.873 41.7956 281.727 41.8164H281.56C281.36 41.8295 281.16 41.8295 280.96 41.8164C280.472 41.8011 279.988 41.7114 279.526 41.5505C278.783 41.2881 278.114 40.8499 277.576 40.2731C276.702 39.3391 276.232 38.0966 276.271 36.8174C276.31 35.5383 276.855 34.3267 277.785 33.4479C277.889 33.3488 277.994 33.255 278.103 33.1663C278.224 33.0667 278.351 32.9744 278.484 32.89L278.557 32.8118C278.557 32.8118 282.869 18.1812 279.532 15.35H279.495C278.645 14.6565 276.888 14.7399 274.761 15.23C270.403 15.5794 266.201 17.0133 262.539 19.4013C262.398 19.4899 262.268 19.5785 262.143 19.6672C261.887 19.8392 261.658 20.0009 261.46 20.1469C260.865 20.5848 260.521 20.8768 260.417 20.9603L260.344 21.002L260.313 21.1271C260.366 21.4162 260.396 21.7091 260.401 22.0031V22.05C260.401 22.2875 260.382 22.5246 260.344 22.7591C260.256 23.3755 260.049 23.9689 259.734 24.5058V24.5058C259.629 24.6869 259.512 24.8611 259.385 25.0272V25.0272C259.136 25.3494 258.846 25.6384 258.524 25.8875L258.477 25.924C258.338 26.0326 258.192 26.1318 258.039 26.2212L257.961 26.2682C257.623 26.4643 257.262 26.6184 256.887 26.727L256.741 26.7635C256.597 26.8005 256.451 26.8301 256.303 26.8521L256.136 26.8782C255.943 26.8782 255.75 26.9147 255.552 26.9199H255.328C255.192 26.9199 255.062 26.9199 254.932 26.8886H254.807C254.666 26.8886 254.53 26.8365 254.395 26.8052H254.343L254.223 26.7739C253.846 26.6653 253.483 26.5112 253.143 26.3151L253.065 26.2682C252.916 26.1743 252.77 26.0752 252.627 25.971L252.58 25.9345C252.259 25.684 251.97 25.395 251.72 25.0742V25.0742C251.595 24.9073 251.48 24.7352 251.371 24.5527C250.902 23.7559 250.671 22.842 250.704 21.9184C250.738 20.9947 251.034 20.0998 251.558 19.3387V19.3126C251.647 19.1875 251.741 19.0676 251.84 18.9476L251.965 18.8121C252.048 18.7166 252.137 18.6261 252.231 18.5409L252.314 18.4627C252.45 18.3413 252.593 18.2281 252.742 18.1238L252.773 18.0769L252.804 18.0456C252.804 18.0456 253.326 15.8401 250.317 10.381C249.89 9.60407 249.389 8.75939 248.805 7.84172L248.519 7.40374C247.35 5.5904 245.947 3.93897 244.347 2.49211L244.253 2.4139C243.376 1.6268 242.389 0.971647 241.323 0.46906C241.177 0.401277 241.036 0.343922 240.911 0.296995C240.714 0.218696 240.512 0.152525 240.306 0.0988587C240.212 0.0737828 240.116 0.0546269 240.02 0.0415039H239.947H239.868C239.773 0.0544375 239.679 0.0735972 239.587 0.0988587C239.379 0.151598 239.176 0.217785 238.977 0.296995C238.852 0.343922 238.716 0.401277 238.565 0.46906C237.5 0.972867 236.513 1.62791 235.635 2.4139L235.546 2.49211C233.943 3.93618 232.54 5.58801 231.375 7.40374C231.276 7.54974 231.182 7.69051 231.088 7.84172C230.499 8.75939 229.998 9.60407 229.571 10.381C226.562 15.8401 227.084 18.0456 227.084 18.0456L227.115 18.0769L227.146 18.1238C227.295 18.2281 227.438 18.3413 227.574 18.4627L227.657 18.5409C227.751 18.6261 227.84 18.7166 227.923 18.8121L228.048 18.9476C228.147 19.0676 228.241 19.1875 228.33 19.3126V19.3387C228.854 20.0998 229.15 20.9947 229.184 21.9184C229.217 22.842 228.986 23.7559 228.517 24.5527C228.411 24.7329 228.294 24.907 228.168 25.0742V25.0742C227.918 25.395 227.629 25.684 227.308 25.9345L227.261 25.971C227.118 26.0752 226.972 26.1743 226.823 26.2682L226.745 26.3151C226.406 26.5103 226.046 26.6643 225.671 26.7739L225.551 26.8052H225.493C225.358 26.8365 225.222 26.8678 225.087 26.8886H224.956C224.826 26.8886 224.696 26.8886 224.56 26.9199H224.336C224.138 26.9199 223.945 26.9199 223.752 26.8782L223.585 26.8521C223.439 26.8306 223.295 26.801 223.152 26.7635L223.001 26.727C222.626 26.6174 222.265 26.4634 221.927 26.2682L221.854 26.2212C221.699 26.1331 221.551 26.0338 221.411 25.924L221.364 25.8875C221.043 25.6371 220.754 25.3481 220.503 25.0272C220.376 24.8611 220.259 24.6869 220.154 24.5058V24.5058C219.841 23.9679 219.634 23.375 219.544 22.7591C219.506 22.5246 219.487 22.2875 219.487 22.05V22.0031C219.492 21.7091 219.522 21.4162 219.575 21.1271C219.575 21.0489 219.544 21.002 219.544 21.002L219.471 20.9603C219.377 20.8768 219.033 20.5848 218.428 20.1469C218.23 20.0009 218.001 19.8392 217.75 19.6672L217.349 19.4013C215.488 18.1916 210.3 16.3198 206.102 15.4803C203.542 14.7868 201.363 14.5574 200.367 15.3604C196.988 18.1395 201.321 32.8431 201.321 32.8431L201.399 32.9213C201.529 33.007 201.654 33.0993 201.775 33.1976C201.884 33.2863 201.988 33.3801 202.093 33.4792C203.023 34.358 203.567 35.5696 203.606 36.8487C203.645 38.1279 203.176 39.3704 202.301 40.3044C201.87 40.778 201.349 41.1604 200.768 41.4291C200.186 41.6977 199.557 41.8472 198.917 41.8686C198.718 41.8817 198.517 41.8817 198.318 41.8686H198.151C198.005 41.8686 197.859 41.8269 197.713 41.7956L197.567 41.7591C197.186 41.6664 196.818 41.5262 196.472 41.342L196.399 41.3003C196.242 41.2099 196.091 41.116 195.945 41.0187L195.898 40.9822C195.568 40.7434 195.269 40.4649 195.007 40.1532V40.1532C194.874 39.9874 194.752 39.8133 194.642 39.6318V39.6318C194.308 39.1053 194.08 38.5192 193.969 37.9059C193.925 37.6734 193.898 37.4383 193.886 37.202V37.202C193.876 36.8967 193.895 36.5912 193.943 36.2896C193.943 36.2114 193.912 36.1644 193.912 36.1644C193.912 36.1644 185.861 29.3862 174.578 31.2007L175.501 33.4531L187.91 63.6425H291.967L304.377 33.4531L305.305 31.2007C294.016 29.3132 285.971 36.1123 285.971 36.1123Z" fill="url(#paint0_linear_481_1809)"/>
<g style="mix-blend-mode:overlay">
<path d="M260.421 22.0553C260.429 22.1856 260.429 22.3162 260.421 22.4464H260.458C260.552 22.363 260.896 22.0658 261.501 21.6278C261.699 21.4818 261.928 21.3202 262.184 21.1481L262.58 20.8822C266.242 18.4944 270.444 17.0605 274.802 16.7109C276.924 16.2208 278.686 16.1374 279.536 16.8257H279.572C280.396 17.5243 280.756 18.9478 280.824 20.6841C280.913 18.296 280.621 16.2521 279.572 15.3657H279.536C278.686 14.6723 276.929 14.7557 274.802 15.2458C270.444 15.5952 266.242 17.0291 262.58 19.417C262.439 19.5057 262.309 19.5943 262.184 19.683C261.928 19.855 261.699 20.0167 261.501 20.1626C260.906 20.6006 260.562 20.8926 260.458 20.976L260.385 21.0178L260.354 21.1429C260.407 21.432 260.437 21.7249 260.442 22.0188L260.421 22.0553Z" fill="white"/>
<path d="M252.602 25.9032C252.281 25.6527 251.992 25.3638 251.741 25.0429V25.0429C251.617 24.8757 251.502 24.7016 251.397 24.5215V24.5215C251.083 23.9876 250.874 23.3981 250.782 22.7852C250.744 23.0337 250.725 23.2847 250.725 23.536C250.724 24.3969 250.956 25.242 251.397 25.9814V25.9814C251.5 26.1631 251.615 26.3373 251.741 26.5028C251.992 26.8253 252.281 27.116 252.602 27.3683L252.649 27.3996C252.788 27.5081 252.934 27.6074 253.087 27.6968L253.165 27.7438C253.504 27.9421 253.866 28.0963 254.244 28.2026L254.364 28.2339H254.416C254.55 28.2692 254.686 28.297 254.823 28.3173H254.953C255.084 28.3173 255.214 28.3173 255.349 28.3486H255.574C255.769 28.3478 255.964 28.3339 256.158 28.3069L256.324 28.2808C256.472 28.2588 256.618 28.2292 256.762 28.1922L256.908 28.1557C257.285 28.0493 257.646 27.8951 257.983 27.6968L258.061 27.6551C258.212 27.5621 258.358 27.4612 258.499 27.3527L258.546 27.3214C258.868 27.0705 259.157 26.7796 259.406 26.4559V26.4559C259.532 26.2887 259.649 26.1147 259.755 25.9345V25.9345C260.071 25.3976 260.278 24.8042 260.365 24.1878C260.403 23.955 260.422 23.7196 260.423 23.4839V23.4317C260.418 23.2046 260.397 22.9781 260.36 22.7539C260.269 23.3604 260.064 23.9442 259.755 24.4746V24.4746C259.65 24.6556 259.533 24.8298 259.406 24.996V24.996C259.157 25.3181 258.868 25.6072 258.546 25.8563L258.499 25.8928C258.359 26.0013 258.213 26.1006 258.061 26.19L257.983 26.2369C257.645 26.433 257.284 26.5871 256.908 26.6957L256.762 26.7322C256.618 26.7693 256.472 26.7989 256.324 26.8209L256.158 26.8469C255.964 26.8696 255.769 26.8818 255.574 26.8834H255.349C255.214 26.8834 255.084 26.8834 254.953 26.8522H254.823C254.687 26.8522 254.552 26.8 254.416 26.7687H254.364L254.244 26.7374C253.867 26.6288 253.505 26.4747 253.165 26.2786L253.087 26.2317C252.937 26.1378 252.791 26.0388 252.649 25.9345L252.602 25.9032Z" fill="white"/>
<path d="M277.576 40.31C276.909 39.5956 276.475 38.6956 276.33 37.729C276.3 37.9137 276.281 38.1 276.273 38.2869C276.236 39.3238 276.532 40.3452 277.117 41.2018C277.702 42.0584 278.547 42.7051 279.526 43.0473C279.988 43.2074 280.471 43.2988 280.96 43.3185C281.16 43.3289 281.36 43.3289 281.56 43.3185H281.726C281.874 43.3018 282.02 43.2774 282.164 43.2455L282.31 43.2142C282.691 43.1172 283.058 42.9754 283.405 42.7919L283.478 42.7501C283.636 42.6662 283.787 42.5722 283.932 42.4686L283.979 42.4373C284.309 42.1966 284.609 41.9165 284.871 41.603V41.603C285.003 41.4372 285.125 41.263 285.236 41.0816V41.0816C285.569 40.557 285.797 39.9726 285.908 39.361C285.952 39.1285 285.98 38.8934 285.992 38.6571V38.6571C286.001 38.3536 285.982 38.0498 285.934 37.7499C285.934 37.8072 285.934 37.8594 285.934 37.9115C285.824 38.5248 285.595 39.1109 285.262 39.6373V39.6373C285.151 39.8189 285.029 39.993 284.897 40.1588V40.1588C284.634 40.4705 284.335 40.7489 284.005 40.9878L283.958 41.0243C283.812 41.1216 283.661 41.2155 283.504 41.3058L283.431 41.3476C283.085 41.5318 282.718 41.6719 282.337 41.7647L282.191 41.8012C282.045 41.8325 281.899 41.8533 281.753 41.8742H281.586C281.386 41.8873 281.186 41.8873 280.986 41.8742C280.497 41.8588 280.014 41.7691 279.552 41.6083C278.797 41.3436 278.119 40.8978 277.576 40.31Z" fill="white"/>
<path d="M285.992 37.1656C285.985 37.3403 285.968 37.5144 285.939 37.687C285.948 37.6517 285.958 37.6169 285.971 37.5827C285.971 37.5827 293.75 31.013 304.741 32.5355L305.31 31.1538C294.021 29.3184 285.976 36.1175 285.976 36.1175C285.976 36.1175 285.976 36.1645 285.939 36.2427C285.987 36.5443 286.007 36.8498 285.997 37.1551L285.992 37.1656Z" fill="white"/>
<path d="M219.58 23.4685V23.5207C219.581 23.7565 219.6 23.9918 219.638 24.2246C219.728 24.8404 219.935 25.4333 220.248 25.9713V25.9713C220.354 26.1515 220.471 26.3256 220.597 26.4927V26.4927C220.847 26.8152 221.136 27.1059 221.457 27.3582L221.504 27.3895C221.646 27.4992 221.794 27.6002 221.947 27.6919L222.02 27.7337C222.358 27.931 222.719 28.0852 223.095 28.1925L223.246 28.229C223.388 28.2665 223.533 28.2961 223.679 28.3176L223.845 28.3437C224.039 28.3707 224.234 28.3847 224.429 28.3854C224.508 28.3854 224.581 28.3854 224.654 28.3854C224.727 28.3854 224.919 28.3854 225.05 28.3541H225.18C225.317 28.3338 225.453 28.306 225.587 28.2707H225.644L225.764 28.2394C226.14 28.1321 226.501 27.9779 226.838 27.7806L226.916 27.7337C227.069 27.6443 227.215 27.545 227.354 27.4364L227.401 27.4052C227.722 27.1528 228.011 26.8622 228.262 26.5396V26.5396C228.39 26.3742 228.507 26.2 228.611 26.0182V26.0182C229.048 25.2774 229.278 24.433 229.278 23.5728C229.275 23.3054 229.251 23.0387 229.205 22.7751C229.115 23.3876 228.908 23.9771 228.595 24.5114V24.5114C228.489 24.6915 228.372 24.8656 228.246 25.0328V25.0328C227.996 25.3537 227.707 25.6426 227.386 25.8931L227.339 25.9296C227.196 26.0339 227.05 26.1329 226.901 26.2268L226.823 26.2737C226.484 26.4689 226.124 26.623 225.748 26.7325L225.629 26.7638H225.571C225.436 26.7951 225.3 26.8264 225.165 26.8473H225.034C224.904 26.8473 224.773 26.8473 224.638 26.8785H224.414C224.219 26.8769 224.024 26.8647 223.83 26.842L223.663 26.816C223.517 26.7945 223.373 26.7649 223.23 26.7273L223.079 26.6908C222.704 26.5813 222.343 26.4272 222.005 26.232L221.932 26.1851C221.777 26.097 221.629 25.9976 221.489 25.8879L221.442 25.8514C221.121 25.6009 220.832 25.312 220.581 24.9911V24.9911C220.454 24.8249 220.337 24.6507 220.232 24.4697V24.4697C219.924 23.9393 219.719 23.3555 219.627 22.749C219.594 22.9874 219.578 23.2279 219.58 23.4685V23.4685Z" fill="white"/>
<path d="M200.492 16.8256C201.467 16.0279 203.647 16.2521 206.227 16.9455C210.425 17.7902 215.613 19.6568 217.474 20.8665L217.876 21.1324C218.126 21.3045 218.355 21.4661 218.554 21.6121C219.148 22.0501 219.492 22.3473 219.596 22.4307H219.633C219.625 22.3005 219.625 22.1699 219.633 22.0397V21.9927C219.638 21.6988 219.668 21.4058 219.721 21.1168C219.721 21.0386 219.69 20.9916 219.69 20.9916L219.617 20.9499C219.523 20.8665 219.179 20.5745 218.574 20.1365C218.376 19.9905 218.147 19.8289 217.897 19.6568L217.495 19.3909C215.634 18.1813 210.446 16.3094 206.248 15.47C203.688 14.7765 201.509 14.5471 200.513 15.35C199.47 16.2208 199.152 18.2751 199.241 20.6788C199.293 18.9425 199.653 17.5139 200.492 16.8256Z" fill="white"/>
<path d="M194.011 38.6151C194.023 38.8514 194.051 39.0865 194.094 39.319C194.205 39.9306 194.434 40.515 194.767 41.0396V41.0396C194.877 41.221 194.999 41.3952 195.132 41.561V41.561C195.394 41.8745 195.693 42.1546 196.024 42.3953L196.07 42.4266C196.215 42.5302 196.367 42.6242 196.524 42.7081L196.597 42.7498C196.944 42.9334 197.312 43.0752 197.692 43.1722L197.838 43.2035C197.983 43.2354 198.129 43.2598 198.276 43.2765H198.443C198.643 43.2869 198.843 43.2869 199.042 43.2765C199.531 43.2568 200.014 43.1654 200.476 43.0053C201.456 42.6631 202.3 42.0164 202.885 41.1598C203.471 40.3032 203.767 39.2818 203.73 38.2449C203.724 38.0578 203.705 37.8714 203.673 37.687C203.528 38.6536 203.093 39.5536 202.426 40.268C201.889 40.8447 201.22 41.283 200.476 41.5454C200.015 41.7063 199.531 41.796 199.042 41.8113C198.843 41.8244 198.642 41.8244 198.443 41.8113H198.276C198.13 41.8113 197.984 41.7696 197.838 41.7383L197.692 41.7018C197.311 41.6091 196.943 41.4689 196.597 41.2847L196.524 41.243C196.368 41.1526 196.216 41.0588 196.07 40.9614L196.024 40.9249C195.694 40.6861 195.394 40.4077 195.132 40.0959V40.0959C194.999 39.9302 194.877 39.756 194.767 39.5745V39.5745C194.433 39.048 194.205 38.4619 194.094 37.8486C194.094 37.7965 194.094 37.7444 194.068 37.687C194.019 37.9938 194 38.3046 194.011 38.6151V38.6151Z" fill="white"/>
<path d="M227.192 18.0354C227.38 16.8309 227.959 14.8079 229.627 11.7785C230.055 10.9964 230.555 10.1517 231.144 9.23928C231.238 9.08808 231.332 8.94209 231.431 8.80131C232.595 6.98306 233.998 5.32935 235.602 3.88446L235.691 3.80625C236.571 3.02209 237.557 2.36723 238.621 1.86141C238.773 1.79363 238.908 1.73627 239.033 1.68935C239.233 1.61252 239.437 1.54638 239.643 1.49121C239.736 1.46595 239.83 1.4468 239.925 1.43386H240.003H240.076C240.173 1.44699 240.269 1.46613 240.363 1.49121C240.509 1.53292 240.712 1.59028 240.968 1.68935C241.093 1.73627 241.234 1.79363 241.38 1.86141C242.444 2.36598 243.431 3.02095 244.31 3.80625L244.404 3.88446C246.005 5.33216 247.408 6.98547 248.575 8.80131L248.862 9.23928C249.446 10.1517 249.946 10.9964 250.374 11.7785C252.042 14.8079 252.626 16.8309 252.814 18.0354L252.845 18.0041C252.845 18.0041 253.367 15.7986 250.358 10.3394C249.931 9.56256 249.43 8.71788 248.846 7.80021L248.559 7.36223C247.391 5.54888 245.988 3.89745 244.388 2.4506L244.294 2.37239C243.417 1.58529 242.43 0.930135 241.364 0.427548C241.218 0.359765 241.077 0.30241 240.952 0.255483C240.755 0.177184 240.553 0.111014 240.347 0.0573469C240.253 0.0322709 240.157 0.013123 240.06 0H239.987H239.909C239.814 0.0129336 239.72 0.0320854 239.628 0.0573469C239.42 0.110086 239.216 0.176273 239.018 0.255483C238.892 0.30241 238.757 0.359765 238.606 0.427548C237.54 0.931355 236.553 1.5864 235.675 2.37239L235.587 2.4506C233.984 3.89466 232.581 5.5465 231.416 7.36223C231.316 7.50823 231.223 7.649 231.129 7.80021C230.54 8.71788 230.039 9.56256 229.611 10.3394C226.603 15.7986 227.124 18.0041 227.124 18.0041L227.192 18.0354Z" fill="white"/>
<path d="M194.037 37.5777L194.063 37.682C194.035 37.5095 194.017 37.3353 194.011 37.1606V37.1606C194.001 36.8553 194.02 36.5498 194.068 36.2481C194.068 36.1699 194.037 36.123 194.037 36.123C194.037 36.123 185.986 29.3447 174.703 31.1592L175.271 32.541C186.252 31.008 194.037 37.5777 194.037 37.5777Z" fill="white"/>
</g>
<g style="mix-blend-mode:overlay" opacity="0.59">
<path d="M240.098 0H240.025H239.947C239.852 0.0129336 239.757 0.0320854 239.665 0.0573469C239.458 0.110086 239.254 0.176273 239.055 0.255483C238.93 0.30241 238.794 0.359765 238.643 0.427548C237.578 0.931355 236.591 1.5864 235.713 2.37239L235.624 2.4506C234.021 3.89466 232.618 5.5465 231.453 7.36223C231.354 7.50823 231.26 7.649 231.166 7.80021C230.577 8.71788 230.076 9.56256 229.649 10.3394C226.64 15.7986 227.162 18.0041 227.162 18.0041L227.193 18.0354L227.224 18.0823C227.375 18.1866 227.516 18.3013 227.652 18.416L227.735 18.4994C227.829 18.5846 227.918 18.6751 228.001 18.7706L228.126 18.9061C228.225 19.026 228.319 19.146 228.408 19.2711V19.2972C228.932 20.0582 229.229 20.9532 229.262 21.8768C229.295 22.8005 229.064 23.7144 228.596 24.5112V24.5112C228.489 24.6914 228.372 24.8655 228.246 25.0326V25.0326C227.996 25.3535 227.707 25.6425 227.386 25.893L227.339 25.9294C227.196 26.0337 227.05 26.1328 226.901 26.2267L226.823 26.2736C226.484 26.4688 226.124 26.6228 225.749 26.7324L225.629 26.7637H225.571C225.436 26.795 225.3 26.8263 225.165 26.8471H225.034C224.904 26.8471 224.774 26.8471 224.638 26.8784H224.414C224.219 26.8768 224.024 26.8646 223.83 26.8419L223.663 26.8158C223.517 26.7943 223.373 26.7647 223.23 26.7272L223.079 26.6907C222.704 26.5811 222.343 26.4271 222.005 26.2319L221.932 26.1849C221.777 26.0968 221.629 25.9975 221.489 25.8877L221.442 25.8512C221.121 25.6008 220.832 25.3118 220.582 24.9909V24.9909C220.454 24.8248 220.337 24.6506 220.232 24.4695V24.4695C219.919 23.9316 219.712 23.3386 219.622 22.7228C219.585 22.4883 219.565 22.2512 219.565 22.0137V21.9668C219.57 21.6729 219.6 21.3799 219.653 21.0908C219.653 21.0126 219.622 20.9657 219.622 20.9657L219.549 20.924C219.455 20.8406 219.111 20.5486 218.506 20.1106C218.308 19.9646 218.079 19.8029 217.829 19.6309L217.427 19.365C215.566 18.1553 210.378 16.2835 206.18 15.444C203.626 14.7505 201.441 14.5211 200.445 15.3241C197.066 18.1032 201.399 32.8068 201.399 32.8068L201.477 32.885C201.607 32.9707 201.732 33.063 201.853 33.1613C201.962 33.25 202.066 33.3438 202.171 33.4429C202.86 34.1012 203.339 34.948 203.549 35.8773C203.759 36.8066 203.69 37.7772 203.351 38.6676C203.012 39.5581 202.418 40.3288 201.643 40.8833C200.869 41.4379 199.948 41.7516 198.995 41.7854C198.796 41.7985 198.595 41.7985 198.396 41.7854H198.229C198.083 41.7854 197.937 41.7437 197.791 41.7124L197.645 41.6759C197.264 41.5831 196.896 41.443 196.55 41.2588L196.477 41.217C196.321 41.1267 196.169 41.0328 196.023 40.9355L195.976 40.899C195.646 40.6602 195.347 40.3817 195.085 40.07V40.07C194.952 39.9042 194.83 39.7301 194.72 39.5486V39.5486C194.386 39.0221 194.158 38.436 194.047 37.8227C194.004 37.5902 193.976 37.3551 193.964 37.1188V37.1188C193.954 36.8135 193.973 36.508 194.021 36.2063C194.021 36.1281 193.99 36.0812 193.99 36.0812C193.99 36.0812 185.939 29.3029 174.656 31.1174L175.579 33.3699L187.989 63.5592H240.051L240.098 0Z" fill="white"/>
</g>
<path d="M411.442 162.975C411.296 162.975 411.171 163.147 411.035 163.236C410.597 162.094 410.196 160.916 409.846 159.691C406.921 149.45 407.656 138.063 411.233 127.645C436.151 127.316 452.701 132.577 459.422 138.594C470.022 148.074 473.119 157.886 473.119 157.886C473.119 157.886 452.403 157.177 411.442 162.975Z" fill="url(#paint1_linear_481_1809)"/>
<g style="mix-blend-mode:overlay" opacity="0.4">
<path d="M411.442 162.975C411.296 162.975 411.171 163.147 411.035 163.236C410.597 162.094 410.196 160.916 409.847 159.69C408.463 154.745 407.865 149.612 408.074 144.481C444.254 125.637 473.119 157.871 473.119 157.871C473.119 157.871 454.27 157.104 411.442 162.975Z" fill="black"/>
</g>
<path d="M380.412 137.713C380.235 137.766 380.094 137.969 379.933 138.099C379.26 136.806 378.629 135.461 378.056 134.043C373.274 122.238 372.925 108.395 376.215 95.2294C407.187 90.4168 428.356 93.8164 437.412 99.8595C451.657 109.386 456.611 120.648 456.611 120.648C456.611 120.648 430.759 123.479 380.412 137.713Z" fill="url(#paint2_linear_481_1809)"/>
<g style="mix-blend-mode:overlay" opacity="0.4">
<path d="M380.413 137.714C380.236 137.766 380.095 137.969 379.933 138.099C379.261 136.806 378.63 135.461 378.056 134.043C375.778 128.3 374.46 122.22 374.156 116.049C417.084 86.9653 456.606 120.648 456.606 120.648C456.606 120.648 433.075 123.062 380.413 137.714Z" fill="black"/>
</g>
<path d="M347.913 108.442C347.736 108.515 347.611 108.734 347.46 108.88C346.688 107.686 345.948 106.439 345.265 105.115C339.56 94.0873 338.179 80.536 340.52 67.2141C371.429 58.8299 393.067 59.6693 402.635 64.5393C417.719 72.2143 423.553 82.6894 423.553 82.6894C423.553 82.6894 397.661 88.5187 347.913 108.442Z" fill="url(#paint3_linear_481_1809)"/>
<g style="mix-blend-mode:overlay" opacity="0.4">
<path d="M347.912 108.442C347.735 108.509 347.61 108.734 347.459 108.88C346.687 107.686 345.947 106.439 345.264 105.115C342.531 99.7251 340.748 93.9044 339.992 87.9087C381.183 54.2781 423.553 82.6947 423.553 82.6947C423.553 82.6947 399.969 87.8357 347.912 108.442Z" fill="black"/>
</g>
<path d="M459.42 158.168L473.118 157.871C473.118 157.871 468.326 148.715 455.421 143.548C442.516 138.381 433.418 138.621 433.418 138.621C433.418 138.621 459.488 146.671 463.352 151.333C467.215 155.994 459.42 158.168 459.42 158.168Z" fill="#B9B9C7"/>
<path d="M442.814 122.697L456.621 120.658C456.621 120.658 451.323 110.621 432.767 105.751C419.351 102.226 402.113 104.865 402.113 104.865C402.113 104.865 434.096 103.968 448.518 115.293C453.07 118.917 442.814 122.697 442.814 122.697Z" fill="#B9B9C7"/>
<path d="M408.287 86.9076L423.554 82.6946C423.554 82.6946 414.487 73.3928 389.001 71.3593C375.064 70.2487 365.225 74.227 365.225 74.227C365.225 74.227 392.098 67.9284 413.554 78.6902C418.632 81.2295 408.287 86.9076 408.287 86.9076Z" fill="#B9B9C7"/>
<path d="M68.5598 162.975C68.7058 162.975 68.8309 163.147 68.9665 163.236C69.4045 162.094 69.8059 160.916 70.1605 159.691C73.0804 149.45 72.3452 138.063 68.7683 127.645C43.8504 127.316 27.301 132.577 20.5801 138.594C9.98517 148.074 6.88281 157.886 6.88281 157.886C6.88281 157.886 27.6034 157.177 68.5598 162.975Z" fill="url(#paint4_linear_481_1809)"/>
<g style="mix-blend-mode:overlay" opacity="0.4">
<path d="M68.5598 162.975C68.7058 162.975 68.8309 163.147 68.9665 163.236C69.4045 162.094 69.8059 160.916 70.1605 159.69C71.5396 154.744 72.136 149.612 71.9281 144.481C35.7634 125.637 6.88281 157.871 6.88281 157.871C6.88281 157.871 25.7316 157.104 68.5598 162.975Z" fill="black"/>
</g>
<path d="M99.5737 137.713C99.7562 137.766 99.8918 137.969 100.053 138.099C100.726 136.806 101.357 135.461 101.93 134.043C106.712 122.238 107.061 108.395 103.771 95.2294C72.7996 90.4168 51.6306 93.8164 42.5738 99.8595C28.329 109.386 23.3809 120.648 23.3809 120.648C23.3809 120.648 49.2425 123.479 99.5737 137.713Z" fill="url(#paint5_linear_481_1809)"/>
<g style="mix-blend-mode:overlay" opacity="0.4">
<path d="M99.5737 137.714C99.7562 137.766 99.8918 137.969 100.053 138.099C100.726 136.806 101.357 135.461 101.93 134.043C104.207 128.299 105.523 122.22 105.825 116.049C62.8981 86.9653 23.3809 120.648 23.3809 120.648C23.3809 120.648 46.9223 123.062 99.5737 137.714Z" fill="black"/>
</g>
<path d="M132.087 108.442C132.265 108.515 132.39 108.734 132.541 108.88C133.336 107.662 134.068 106.406 134.736 105.115C140.44 94.0873 141.822 80.536 139.481 67.2141C108.572 58.8299 86.939 59.6693 77.3712 64.5393C62.2818 72.2143 56.4473 82.6894 56.4473 82.6894C56.4473 82.6894 82.3402 88.5187 132.087 108.442Z" fill="url(#paint6_linear_481_1809)"/>
<g style="mix-blend-mode:overlay" opacity="0.4">
<path d="M132.087 108.442C132.265 108.509 132.39 108.734 132.541 108.88C133.336 107.663 134.068 106.406 134.736 105.115C137.469 99.7251 139.252 93.9044 140.008 87.9087C98.8427 54.2781 56.4473 82.6947 56.4473 82.6947C56.4473 82.6947 80.0304 87.8357 132.087 108.442Z" fill="black"/>
</g>
<path d="M20.5801 158.168L6.88281 157.871C6.88281 157.871 11.6745 148.715 24.5793 143.548C37.4841 138.381 46.5826 138.621 46.5826 138.621C46.5826 138.621 20.5123 146.671 16.6487 151.333C12.7851 155.994 20.5801 158.168 20.5801 158.168Z" fill="#B9B9C7"/>
<path d="M37.1877 122.697L23.3809 120.658C23.3809 120.658 28.6679 110.621 47.2351 105.751C60.6509 102.226 77.8885 104.865 77.8885 104.865C77.8885 104.865 45.9055 103.968 31.4835 115.293C26.9316 118.917 37.1877 122.697 37.1877 122.697Z" fill="#B9B9C7"/>
<path d="M71.7413 86.9076L56.4746 82.6946C56.4746 82.6946 65.547 73.3928 91.0281 71.3593C104.97 70.2487 114.804 74.227 114.804 74.227C114.804 74.227 87.9362 67.9284 66.4751 78.6902C61.3706 81.2295 71.7413 86.9076 71.7413 86.9076Z" fill="#B9B9C7"/>
<path d="M0.27189 210.851C0.27189 210.851 6.63824 176.636 49.8523 171.021C93.0663 165.405 124.476 162.626 156.485 144.08C188.494 125.533 187.336 58.1939 165.349 55.3001C137.083 51.5773 112.082 88.5866 78.0915 107.915C31.3111 134.507 7.4047 166.834 3.05619 183.206C-1.29233 199.578 0.27189 210.851 0.27189 210.851Z" fill="url(#paint7_linear_481_1809)"/>
<g style="mix-blend-mode:overlay" opacity="0.59">
<path d="M49.8427 171.021C93.0516 165.411 124.461 162.626 156.475 144.08C173.979 133.939 176.32 111.972 171.252 93.6758C140.348 134.377 92.3581 132.911 48.2003 150.217C2.10814 168.278 0.267578 210.851 0.267578 210.851C0.267578 210.851 6.63914 176.636 49.8427 171.021Z" fill="black"/>
</g>
<path d="M72.1274 145.769C126.234 131.477 142.439 123.437 154.838 112.457C167.237 101.476 171.262 93.686 171.262 93.686C171.262 93.686 150.458 118.922 117.98 128.099C85.5014 137.275 56.7042 142.177 39.769 152.057C22.8338 161.938 8.58902 178.18 4.3135 190.516C0.0379842 202.853 0.277831 210.851 0.277831 210.851C0.277831 210.851 5.00176 191.71 19.6584 182.408C34.3151 173.106 46.6516 171.459 46.6516 171.459C40.0707 170.624 33.392 171.827 27.516 174.905C17.844 180.02 18.0369 160.056 72.1274 145.769Z" fill="#B9B9C7"/>
<path d="M49.7485 222.306C49.7485 222.306 55.2389 198.515 85.6993 195.876C116.16 193.238 138.262 192.226 161.261 180.192C184.26 168.158 172.894 126.868 157.57 124.183C137.871 120.721 131.807 139.956 107.4 152.485C73.827 169.728 56.0992 191.663 52.5328 203.014C48.9664 214.365 49.7485 222.306 49.7485 222.306Z" fill="url(#paint8_linear_481_1809)"/>
<g style="mix-blend-mode:overlay" opacity="0.59">
<path d="M85.6989 195.881C116.159 193.243 138.262 192.232 161.261 180.198C173.837 173.612 176.137 158.299 173.133 145.305C150.249 172.908 116.649 170.442 85.1723 181.246C52.3238 192.524 49.748 222.311 49.748 222.311C49.748 222.311 55.2384 198.515 85.6989 195.881Z" fill="black"/>
</g>
<path d="M102.071 178.842C140.431 170.447 152.037 165.285 161.058 157.986C170.078 150.686 173.133 145.305 173.133 145.305C173.133 145.305 157.794 162.371 134.747 167.83C111.701 173.289 91.3718 175.854 79.1866 182.278C67.0013 188.702 56.5419 199.651 53.1841 208.176C49.8263 216.701 49.748 222.311 49.748 222.311C49.748 222.311 53.6377 209.052 64.191 202.962C74.7442 196.872 83.4464 196.08 83.4464 196.08C78.8559 195.294 74.135 195.937 69.9212 197.92C62.9865 201.226 63.7113 187.237 102.071 178.842Z" fill="#B9B9C7"/>
<path d="M479.729 210.851C479.729 210.851 473.363 176.636 430.154 171.021C386.946 165.405 355.531 162.626 323.517 144.08C291.502 125.533 292.665 58.1939 314.653 55.3001C342.918 51.5773 367.925 88.5866 401.91 107.915C448.69 134.507 472.597 166.834 476.95 183.206C481.304 199.578 479.729 210.851 479.729 210.851Z" fill="url(#paint9_linear_481_1809)"/>
<g style="mix-blend-mode:overlay" opacity="0.59">
<path d="M430.155 171.021C386.941 165.411 355.531 162.626 323.517 144.08C306.014 133.939 303.672 111.972 308.741 93.6758C339.644 134.377 387.634 132.911 431.792 150.217C477.889 168.278 479.725 210.851 479.725 210.851C479.725 210.851 473.364 176.636 430.155 171.021Z" fill="black"/>
</g>
<path d="M407.874 145.769C353.768 131.477 337.563 123.437 325.143 112.457C312.723 101.476 308.719 93.686 308.719 93.686C308.719 93.686 329.523 118.922 362.001 128.099C394.479 137.275 423.277 142.177 440.212 152.057C457.147 161.938 471.392 178.18 475.667 190.516C479.943 202.853 479.703 210.851 479.703 210.851C479.703 210.851 474.974 191.731 460.317 182.408C445.66 173.086 433.324 171.459 433.324 171.459C439.905 170.624 446.584 171.827 452.46 174.905C462.158 180.02 461.986 160.056 407.874 145.769Z" fill="#B9B9C7"/>
<path d="M430.253 222.306C430.253 222.306 424.763 198.515 394.276 195.876C363.79 193.238 341.714 192.226 318.714 180.192C295.715 168.158 307.082 126.868 322.406 124.183C342.11 120.721 348.169 139.956 372.575 152.485C406.17 169.728 423.903 191.663 427.443 203.014C430.983 214.365 430.253 222.306 430.253 222.306Z" fill="url(#paint10_linear_481_1809)"/>
<g style="mix-blend-mode:overlay" opacity="0.59">
<path d="M394.303 195.881C363.842 193.243 341.74 192.232 318.741 180.198C306.164 173.612 303.865 158.299 306.868 145.305C329.753 172.908 363.352 170.442 394.834 181.246C427.683 192.524 430.253 222.311 430.253 222.311C430.253 222.311 424.763 198.515 394.303 195.881Z" fill="black"/>
</g>
<path d="M377.931 178.842C339.571 170.447 327.97 165.285 318.944 157.986C309.919 150.686 306.895 145.305 306.895 145.305C306.895 145.305 322.234 162.371 345.28 167.83C368.326 173.289 388.656 175.854 400.841 182.278C413.026 188.702 423.486 199.651 426.844 208.176C430.202 216.701 430.28 222.311 430.28 222.311C430.28 222.311 426.39 209.052 415.837 202.962C405.284 196.872 396.576 196.074 396.576 196.074C401.165 195.289 405.884 195.932 410.096 197.915C417.015 201.226 416.29 187.237 377.931 178.842Z" fill="#B9B9C7"/>
<path d="M327.126 52.8706H153.065L108.6 88.712V140.049L153.107 175.865H327.084L371.591 140.049V88.712L327.126 52.8706Z" fill="url(#paint11_linear_481_1809)"/>
<path d="M326.552 164.936H153.643L118.553 134.507V92.7945L153.643 62.4019H326.552L361.642 92.8102V134.523L326.552 164.936ZM155.687 157.298H324.508L354.019 130.091V97.19L324.508 69.9779H155.687L126.176 97.19V130.091L155.687 157.298Z" fill="#9797AA"/>
<path d="M326.546 62.3652H326.426V71.0883L354.018 97.1899V130.09L324.507 157.303H155.681L133.751 134.47H118.547V134.491L153.643 164.92H326.546L361.641 134.491V92.7944L326.546 62.3652Z" fill="url(#paint12_linear_481_1809)"/>
<path d="M325.53 66.9014H154.66L122.359 95.7194V133.021L154.66 161.839H325.53L357.831 133.021V95.7194L325.53 66.9014Z" fill="#1E1C1C"/>
<g style="mix-blend-mode:multiply" opacity="0.68">
<path d="M124.779 97.0645L157.08 68.2413H327.944L357.831 95.6671V94.9372L325.53 66.1191H154.66L122.359 94.9372V132.238L124.779 133.631V97.0645Z" fill="#6007B9"/>
</g>
<g style="mix-blend-mode:overlay" opacity="0.51">
<path d="M108.6 88.712L118.548 92.8102L153.644 62.381L153.065 52.8706L108.6 88.712Z" fill="white"/>
</g>
<g style="mix-blend-mode:multiply" opacity="0.19">
<path d="M153.105 175.865L153.643 164.92H326.546L327.083 175.865H153.105Z" fill="#181817"/>
</g>
<g style="mix-blend-mode:multiply" opacity="0.1">
<path d="M371.591 140.049L327.084 175.865L326.547 164.92L361.643 134.491L371.591 140.049Z" fill="#181817"/>
</g>
<g style="mix-blend-mode:overlay">
<path d="M371.591 88.712L360.61 91.4233L327.219 61.5676L327.126 52.8706L325.629 61.0932H154.629L153.065 52.8706L152.617 61.4112L118.016 91.6423L108.6 88.712L118.548 93.6445V92.8102L154.311 62.381L326.547 62.3654L359.734 92.8624V132.745L324.644 163.174H151.735L119.539 134.418H118.548V134.439L153.644 164.868H326.547L361.643 134.439V93.681L371.591 88.712Z" fill="white"/>
</g>
<path d="M107.4 86.7407V100.125L122.693 95.5629L107.4 86.7407Z" fill="#9797AA"/>
<path d="M107.4 86.7409L119.012 80.0825L122.657 95.6204L107.4 86.7409Z" fill="url(#paint13_linear_481_1809)"/>
<path d="M107.4 86.7411L107.745 86.543L122.657 95.6206L107.4 87.1322V86.7411Z" fill="white"/>
<path d="M372.601 86.7407V100.125L357.309 95.5629L372.601 86.7407Z" fill="#9797AA"/>
<path d="M372.602 86.7409L360.99 80.0825L357.346 95.6204L372.602 86.7409Z" fill="url(#paint14_linear_481_1809)"/>
<path d="M372.602 86.7411L372.258 86.543L357.346 95.6206L372.602 87.1322V86.7411Z" fill="white"/>
<path d="M372.601 139.971V126.586L357.309 131.149L372.601 139.971Z" fill="url(#paint15_linear_481_1809)"/>
<path d="M372.602 139.971L360.99 146.624L357.346 131.092L372.602 139.971Z" fill="#9797AA"/>
<path d="M372.602 139.971L372.258 140.169L357.346 131.092L372.602 139.575V139.971Z" fill="white"/>
<path d="M107.4 139.971V126.586L122.693 131.149L107.4 139.971Z" fill="url(#paint16_linear_481_1809)"/>
<path d="M107.4 139.971L119.012 146.624L122.657 131.092L107.4 139.971Z" fill="#9797AA"/>
<path d="M107.4 139.971L107.745 140.169L122.657 131.092L107.4 139.575V139.971Z" fill="white"/>
</g>
<defs>
<linearGradient id="paint0_linear_481_1809" x1="234.143" y1="-9.23429" x2="247.856" y2="85.2964" gradientUnits="userSpaceOnUse">
<stop stop-color="#A0A0B3"/>
<stop offset="1" stop-color="#1B1B30"/>
</linearGradient>
<linearGradient id="paint1_linear_481_1809" x1="438.015" y1="156.731" x2="476.052" y2="153.041" gradientUnits="userSpaceOnUse">
<stop stop-color="#A0A0B3"/>
<stop offset="1" stop-color="#3E3E52"/>
</linearGradient>
<linearGradient id="paint2_linear_481_1809" x1="397.3" y1="125.938" x2="443.277" y2="114.017" gradientUnits="userSpaceOnUse">
<stop stop-color="#A0A0B3"/>
<stop offset="1" stop-color="#3E3E52"/>
</linearGradient>
<linearGradient id="paint3_linear_481_1809" x1="367.682" y1="93.7821" x2="406.2" y2="76.7251" gradientUnits="userSpaceOnUse">
<stop stop-color="#A0A0B3"/>
<stop offset="1" stop-color="#3E3E52"/>
</linearGradient>
<linearGradient id="paint4_linear_481_1809" x1="39.4237" y1="142.945" x2="1.40597" y2="139.069" gradientUnits="userSpaceOnUse">
<stop stop-color="#A0A0B3"/>
<stop offset="1" stop-color="#3E3E52"/>
</linearGradient>
<linearGradient id="paint5_linear_481_1809" x1="80.2963" y1="112.356" x2="34.3717" y2="100.206" gradientUnits="userSpaceOnUse">
<stop stop-color="#A0A0B3"/>
<stop offset="1" stop-color="#3E3E52"/>
</linearGradient>
<linearGradient id="paint6_linear_481_1809" x1="110.064" y1="80.3412" x2="71.6288" y2="63.096" gradientUnits="userSpaceOnUse">
<stop stop-color="#A0A0B3"/>
<stop offset="1" stop-color="#3E3E52"/>
</linearGradient>
<linearGradient id="paint7_linear_481_1809" x1="206.961" y1="107.314" x2="28.9805" y2="143.424" gradientUnits="userSpaceOnUse">
<stop stop-color="#A0A0B3"/>
<stop offset="1" stop-color="#3E3E52"/>
</linearGradient>
<linearGradient id="paint8_linear_481_1809" x1="189.147" y1="158.849" x2="70.7083" y2="177.624" gradientUnits="userSpaceOnUse">
<stop stop-color="#A0A0B3"/>
<stop offset="1" stop-color="#3E3E52"/>
</linearGradient>
<linearGradient id="paint9_linear_481_1809" x1="280.513" y1="106.457" x2="459.012" y2="142.61" gradientUnits="userSpaceOnUse">
<stop stop-color="#A0A0B3"/>
<stop offset="1" stop-color="#3E3E52"/>
</linearGradient>
<linearGradient id="paint10_linear_481_1809" x1="283.253" y1="167.141" x2="401.308" y2="186.223" gradientUnits="userSpaceOnUse">
<stop stop-color="#A0A0B3"/>
<stop offset="1" stop-color="#3E3E52"/>
</linearGradient>
<linearGradient id="paint11_linear_481_1809" x1="247.643" y1="171.855" x2="219.977" y2="-38.7819" gradientUnits="userSpaceOnUse">
<stop stop-color="#1B1B30"/>
<stop offset="1" stop-color="#A0A0B3"/>
</linearGradient>
<linearGradient id="paint12_linear_481_1809" x1="118.547" y1="113.64" x2="361.636" y2="113.64" gradientUnits="userSpaceOnUse">
<stop offset="0.25" stop-color="#D7D7E8"/>
<stop offset="1" stop-color="#9797AA"/>
</linearGradient>
<linearGradient id="paint13_linear_481_1809" x1="115.195" y1="90.9747" x2="124.602" y2="79.3838" gradientUnits="userSpaceOnUse">
<stop offset="0.25" stop-color="#D7D7E8"/>
<stop offset="1" stop-color="#9797AA"/>
</linearGradient>
<linearGradient id="paint14_linear_481_1809" x1="364.812" y1="90.9747" x2="355.401" y2="79.3786" gradientUnits="userSpaceOnUse">
<stop offset="0.25" stop-color="#D7D7E8"/>
<stop offset="1" stop-color="#9797AA"/>
</linearGradient>
<linearGradient id="paint15_linear_481_1809" x1="360.025" y1="125.314" x2="377.346" y2="137.781" gradientUnits="userSpaceOnUse">
<stop offset="0.25" stop-color="#D7D7E8"/>
<stop offset="1" stop-color="#9797AA"/>
</linearGradient>
<linearGradient id="paint16_linear_481_1809" x1="117.156" y1="127.332" x2="99.9964" y2="139.794" gradientUnits="userSpaceOnUse">
<stop offset="0.25" stop-color="#D7D7E8"/>
<stop offset="1" stop-color="#9797AA"/>
</linearGradient>
<clipPath id="clip0_481_1809">
<rect width="480" height="222.311" fill="white"/>
</clipPath>
</defs>
</svg>
