<svg width="151" height="139" viewBox="0 0 151 139" fill="none" xmlns="http://www.w3.org/2000/svg">
<mask id="path-1-inside-1_524_788" fill="white">
<path d="M139.891 78.711C141.54 79.0055 143.097 78.5519 144.522 77.6143C145.28 77.1057 145.965 76.4955 146.559 75.8007C147.183 75.0939 147.75 74.3388 148.256 73.5424C149.106 72.1222 149.821 70.6235 150.389 69.0668C150.812 67.8211 151 66.9752 151 66.9752C151 66.9752 150.225 67.3223 149.103 67.9368C148.534 68.2356 147.907 68.6098 147.191 69.032C146.473 69.4588 145.724 69.9394 144.987 70.4625C143.515 71.479 142.194 72.7007 141.063 74.091C141.006 74.1541 140.97 74.2187 140.916 74.2849C141.435 71.8568 141.865 69.4092 142.184 66.9512C143.535 66.8725 144.819 66.3312 145.823 65.417C146.142 65.1396 146.442 64.8404 146.72 64.5216C146.998 64.1992 147.256 63.8588 147.49 63.5027C147.969 62.7773 148.39 62.0153 148.751 61.2235C148.933 60.8269 149.103 60.4256 149.252 60.0425C149.392 59.6594 149.518 59.284 149.64 58.9188C149.87 58.1917 150.051 57.5079 150.189 56.9205C150.357 56.27 150.483 55.6089 150.564 54.9416C150.564 54.9416 149.87 55.322 148.844 55.9709C147.562 56.7631 146.341 57.6521 145.193 58.6305C144.554 59.1812 143.952 59.775 143.392 60.4078C143.156 60.6693 142.938 60.9395 142.73 61.2177C142.849 59.1382 142.877 57.0612 142.813 54.9869C143.787 54.7051 144.669 54.1673 145.369 53.4286C145.922 52.8512 146.399 52.2049 146.789 51.5054C147.174 50.7779 147.499 50.0196 147.761 49.2382C148.029 48.4872 148.237 47.716 148.384 46.9319C148.516 46.182 148.605 45.4835 148.674 44.8811C148.733 44.277 148.769 43.7721 148.781 43.4222C148.789 43.2359 148.787 43.0492 148.775 42.8631C148.775 42.8631 148.632 42.9729 148.357 43.1696C148.098 43.3711 147.713 43.6625 147.254 44.0216C146.125 44.9142 145.061 45.8868 144.069 46.9319C143.798 47.2203 143.532 47.5224 143.279 47.832C143.013 48.1428 142.754 48.46 142.518 48.7874C142.45 48.8733 142.39 48.9647 142.324 49.0533C142.065 47.0605 141.693 45.0841 141.212 43.1336C142.118 42.7786 142.9 42.1624 143.46 41.3621C144.373 40.1722 144.8 38.581 145.035 36.9704C145.092 36.5692 145.146 36.1667 145.169 35.7713C145.175 35.3793 145.175 34.9826 145.163 34.6085C145.139 33.8512 145.086 33.145 145.023 32.5367C144.978 32.0466 144.897 31.5604 144.782 31.0821C144.692 30.7292 144.651 30.5276 144.651 30.5276C144.651 30.5276 144.155 31.0356 143.478 31.8603C142.603 32.89 141.791 33.9733 141.048 35.1042C140.64 35.7437 140.274 36.4087 139.95 37.0951C139.822 37.3474 139.709 37.6 139.604 37.86C138.844 35.7114 137.955 33.6115 136.941 31.572C137.909 31.1317 138.672 30.3342 139.073 29.3439C139.568 28.0878 139.649 26.4741 139.473 24.8981C139.239 23.4606 138.861 22.051 138.343 20.691C137.871 19.5925 137.49 18.8716 137.49 18.8716C137.49 18.8716 137.147 19.4257 136.694 20.3049C136.47 20.7437 136.222 21.2665 135.975 21.8388C135.739 22.4142 135.45 23.062 135.22 23.7291C134.984 24.401 134.796 25.0894 134.66 25.7889C134.591 26.1326 134.544 26.4804 134.519 26.8302C134.513 26.9548 134.501 27.0825 134.489 27.2071C133.079 24.9842 131.512 22.8658 129.801 20.8683C130.253 20.6417 130.649 20.3175 130.961 19.9187C131.319 19.4247 131.547 18.8482 131.626 18.242C131.716 17.5622 131.703 16.8727 131.588 16.1969C131.48 15.4579 131.288 14.7339 131.015 14.0393C130.51 12.7392 129.885 11.4897 129.148 10.3074C128.516 9.35471 128.045 8.74021 128.045 8.74021C127.853 9.20797 127.684 9.68534 127.541 10.1705C127.204 11.2774 126.953 12.4092 126.792 13.5556C126.585 14.887 126.647 16.2468 126.974 17.5537C126.998 17.6484 127.022 17.734 127.052 17.8241C125.047 15.7191 122.849 13.6248 120.443 11.437C122.823 10.0849 122.178 7.25275 120.848 4.67752C120.203 3.52276 119.461 2.42504 118.632 1.3961C117.949 0.540979 117.448 2.61481e-05 117.448 2.61481e-05C117.021 1.51785 116.803 3.08778 116.801 4.66552C116.8 5.95537 117.046 7.23332 117.526 8.42912C117.632 8.67397 117.756 8.91097 117.896 9.13839C117.89 9.13839 117.89 9.13839 117.89 9.13532C115.695 7.18198 111.883 5.16124 111.883 5.16124C127.057 17.9715 138.65 33.4623 140.38 51.223C141 57.6689 140.228 64.1083 139.232 70.5032C138.113 77.7239 136.306 84.9224 132.593 91.6176C126.852 101.962 119.199 110.242 108.779 116.711C108.779 116.711 93.1511 124.611 76.3933 124.783V124.777C75.9877 124.783 75.591 124.78 75.1854 124.78C74.9915 124.78 74.7976 124.78 74.6036 124.777V124.78C58.0516 124.537 42.2124 116.708 42.2124 116.708C31.804 110.239 24.1453 101.962 18.4073 91.6145C14.697 84.9224 12.8897 77.7211 11.7686 70.5031C10.7694 64.1025 9.99704 57.6689 10.6262 51.2171C12.3531 33.4622 23.9395 17.9715 39.1197 5.16122C39.1197 5.16122 35.3084 7.18195 33.1101 9.1353C33.1101 9.1353 33.1101 9.13837 33.1043 9.13837C33.2456 8.91243 33.3683 8.67521 33.4711 8.4291C33.951 7.23299 34.1999 5.95562 34.2047 4.6655C34.1994 3.088 33.9817 1.51852 33.5576 0C33.5576 0 33.0506 0.540956 32.3735 1.39608C31.5413 2.42466 30.7971 3.52238 30.1487 4.6775C28.8215 7.25273 28.1805 10.0849 30.5604 11.437C28.1506 13.6248 25.9584 15.7191 23.9456 17.8241C23.9752 17.7339 23.999 17.6453 24.0259 17.5509C24.3533 16.245 24.4142 14.8858 24.2049 13.5555C24.0442 12.4096 23.796 11.2779 23.4625 10.1704C23.191 9.29438 22.9613 8.74018 22.9613 8.74018C22.9613 8.74018 22.484 9.35468 21.8549 10.3043C21.1182 11.4887 20.4912 12.739 19.9819 14.0393C19.7093 14.7339 19.5171 15.4579 19.4093 16.1969C19.2952 16.8729 19.2831 17.5624 19.3736 18.242C19.452 18.8493 19.6829 19.4264 20.0445 19.9187C20.3543 20.3178 20.7486 20.6422 21.1986 20.8683C19.4886 22.8665 17.922 24.9848 16.5105 27.2071C16.5044 27.0825 16.4925 26.9548 16.4806 26.8301C16.4576 26.4802 16.4108 26.1323 16.3404 25.7889C16.2052 25.089 16.0178 24.4005 15.7797 23.729C15.55 23.0619 15.2639 22.4142 15.0223 21.8388C14.7746 21.2664 14.5273 20.7436 14.3034 20.3018C13.856 19.4257 13.5072 18.8715 13.5072 18.8715C13.5072 18.8715 13.1255 19.5897 12.6601 20.691C12.1448 22.0515 11.7671 23.461 11.5329 24.898C11.3509 26.4741 11.4345 28.0877 11.9235 29.3438C12.3251 30.3335 13.0885 31.13 14.056 31.5689C13.0441 33.6084 12.1567 35.7084 11.3988 37.8569C11.2974 37.6 11.1749 37.3474 11.0497 37.0892C10.7246 36.4049 10.357 35.7419 9.94911 35.1042C9.20957 33.9717 8.39872 32.8882 7.52153 31.8603C6.84447 31.0356 6.34943 30.5276 6.34943 30.5276C6.34943 30.5276 6.3079 30.7291 6.21536 31.0821C6.10096 31.5603 6.02215 32.0465 5.9796 32.5366C5.91424 33.145 5.86049 33.8512 5.84248 34.6084C5.82751 34.9826 5.82174 35.3731 5.83667 35.7713C5.86048 36.1667 5.90813 36.5692 5.96189 36.9704C6.19738 38.581 6.62704 40.1691 7.54535 41.3593C8.10214 42.1601 8.88134 42.7774 9.78511 43.1335C9.30479 45.0841 8.93447 47.0605 8.67592 49.0533C8.61304 48.9646 8.55347 48.8733 8.48783 48.7843C8.24623 48.46 7.98699 48.1427 7.71851 47.832C7.47392 47.5224 7.19965 47.2202 6.92815 46.9288C5.94007 45.882 4.87644 44.9102 3.74596 44.0216C3.29275 43.6594 2.89913 43.3711 2.63954 43.1668C2.37413 42.9729 2.22204 42.8603 2.22204 42.8603C2.22204 42.8603 2.21014 43.0659 2.21593 43.4222C2.23395 43.772 2.27273 44.277 2.33229 44.881C2.39184 45.4835 2.48131 46.182 2.61569 46.9319C2.92971 48.5249 3.46688 50.0648 4.21107 51.5054C4.59903 52.2076 5.07847 52.8544 5.63664 53.4286C6.33471 54.1648 7.21331 54.7024 8.18363 54.9868C8.11797 57.0602 8.154 59.1382 8.27005 61.2146C8.06452 60.9395 7.84067 60.6693 7.60524 60.4047C7.04518 59.773 6.44329 59.1802 5.8037 58.6304C4.65811 57.6501 3.43867 56.7609 2.15638 55.9709C1.13056 55.3188 0.435487 54.9416 0.435487 54.9416C0.518063 55.6081 0.640546 56.2689 0.802266 56.9205C0.948551 57.5079 1.13056 58.1916 1.36606 58.9188C1.47933 59.284 1.60759 59.6594 1.74475 60.0425C1.8968 60.4256 2.07271 60.8238 2.2517 61.2235C2.61283 62.0145 3.03356 62.7765 3.5102 63.5027C3.74649 63.8566 4.00241 64.1967 4.27673 64.5215C4.55467 64.841 4.85571 65.1392 5.17737 65.4139C6.18013 66.3286 7.46276 66.8709 8.81305 66.9512C9.13222 69.4092 9.56157 71.8567 10.0746 74.2849C10.0328 74.2187 9.99095 74.1541 9.94331 74.091C8.80946 72.6997 7.48493 71.4779 6.00953 70.4625C5.27293 69.9394 4.5183 69.4587 3.81162 69.0319C3.09883 68.6098 2.46361 68.2356 1.8968 67.9307C0.772648 67.3192 0 66.9752 0 66.9752C0 66.9752 0.188124 67.8211 0.608683 69.0667C1.18005 70.6226 1.89494 72.121 2.74396 73.5424C3.2536 74.3362 3.82073 75.091 4.44071 75.8007C5.03609 76.4955 5.72237 77.1056 6.48075 77.6143C7.90023 78.5519 9.46017 79.0055 11.1154 78.711C11.1869 79.0206 11.2733 79.3255 11.3509 79.6292C11.9233 81.8115 12.6234 83.9577 13.4477 86.0566C13.2895 85.8991 13.1313 85.7412 12.9704 85.5818C12.6243 85.2726 12.2576 84.9704 11.8758 84.6849C11.4883 84.3919 11.1273 84.1095 10.7217 83.8421C9.91234 83.2956 9.07188 82.7974 8.20469 82.35C7.34565 81.8964 6.45085 81.4921 5.67848 81.1271C4.89422 80.765 4.14845 80.4539 3.5224 80.1957C2.24585 79.6846 1.38984 79.4036 1.38984 79.4036C1.38984 79.4036 1.75084 80.2751 2.41596 81.5342C2.81579 82.262 3.25785 82.9654 3.73984 83.6408C4.2854 84.4407 4.87173 85.2115 5.49646 85.9502C6.19367 86.7126 6.94532 87.4227 7.74538 88.0746C8.12993 88.3925 8.53108 88.6895 8.9471 88.9642C9.15294 89.0947 9.35572 89.2224 9.56156 89.3442C9.7793 89.463 10.0028 89.5725 10.2206 89.6704C11.9116 90.4455 13.6144 90.6831 15.2401 90.1286C16.4245 92.5321 17.7883 94.8415 19.3198 97.037C19.0724 96.8493 18.8159 96.669 18.5444 96.5022C18.1208 96.2376 17.6765 95.9914 17.2114 95.7569C16.7759 95.5104 16.3107 95.2852 15.8395 95.0658C14.8846 94.6326 13.908 94.2494 12.9139 93.9177C12.4185 93.754 11.9296 93.5962 11.4403 93.446C10.9633 93.3032 10.504 93.1577 10.0627 93.0269C9.18286 92.7623 8.35372 92.5401 7.65284 92.3629C6.22727 92.0096 5.29093 91.837 5.29093 91.837C5.29093 91.837 5.8724 92.6887 6.85057 93.9026C7.41862 94.6102 8.03661 95.2756 8.69973 95.8935C9.41832 96.5997 10.2148 97.3268 11.0678 98.018C11.9655 98.691 12.9081 99.301 13.889 99.8436C14.3721 100.108 14.8553 100.349 15.3442 100.559C15.8174 100.775 16.3084 100.95 16.8116 101.082C18.7621 101.606 20.5814 101.562 22.0964 100.69C23.6203 102.607 25.2279 104.536 26.9366 106.426C26.8651 106.396 26.7964 106.366 26.725 106.336C26.4715 106.238 26.2238 106.146 25.9645 106.055C25.705 105.966 25.4634 105.873 25.2069 105.785C24.6999 105.61 24.1752 105.458 23.6384 105.316C22.5735 105.036 21.4643 104.814 20.3755 104.633C19.2633 104.464 18.2552 104.292 17.277 104.168C16.3107 104.043 15.4159 103.948 14.6494 103.879C13.1194 103.743 12.1174 103.708 12.1174 103.708C12.1174 103.708 12.9346 104.488 14.2499 105.565C14.5779 105.833 14.9328 106.122 15.3203 106.423C15.7113 106.716 16.1587 107.002 16.6177 107.303C17.5363 107.897 18.5383 108.499 19.5852 109.058C19.8447 109.197 20.0982 109.336 20.3697 109.464C20.647 109.589 20.9243 109.708 21.2105 109.82C21.7654 110.052 22.3261 110.265 22.8898 110.45C23.9478 110.819 25.0397 111.081 26.1493 111.233C27.927 111.42 29.5343 111.189 30.7782 110.426C32.1738 111.786 33.6293 113.094 35.1471 114.328C34.6878 114.263 34.2227 114.203 33.7515 114.153C32.6032 114.038 31.3954 114.019 30.295 113.971C28.0611 113.901 25.9169 113.999 24.3331 114.111C23.5339 114.165 22.8837 114.224 22.4363 114.272C21.9832 114.315 21.7354 114.339 21.7354 114.339C21.7354 114.339 21.7953 114.382 21.9114 114.461C22.0247 114.536 22.2067 114.643 22.4363 114.774C22.8898 115.049 23.5397 115.423 24.345 115.851C25.1473 116.284 26.0897 116.771 27.1247 117.251C28.1924 117.699 29.3526 118.138 30.5424 118.527C31.1358 118.719 31.7383 118.898 32.3378 119.062C32.6389 119.145 32.9342 119.218 33.2353 119.29C33.5398 119.352 33.8528 119.406 34.1482 119.455C35.3039 119.651 36.4747 119.74 37.6464 119.723C39.1316 119.684 40.4377 119.382 41.4578 118.762C42.0276 119.096 42.6003 119.418 43.1875 119.726C43.2789 119.784 43.3868 119.811 43.4947 119.803C51.3712 124.172 61.1147 126.86 69.1371 127.822C62.7101 129.026 55.1647 130.353 47.1482 131.584L38.4933 139C38.4933 139 57.9622 132.463 76.1279 128.302C94.2875 132.463 113.75 139 113.75 139L105.098 131.584C96.8791 130.323 89.1459 128.959 82.6144 127.73C92.5516 126.593 100.89 123.655 107.577 119.803C107.661 119.795 107.743 119.77 107.818 119.729C108.397 119.418 108.973 119.096 109.539 118.762C110.562 119.382 111.865 119.684 113.35 119.723C114.52 119.742 115.689 119.653 116.843 119.455C117.144 119.406 117.46 119.352 117.762 119.29C118.063 119.218 118.361 119.145 118.662 119.062C119.259 118.898 119.864 118.719 120.455 118.527C121.645 118.138 122.811 117.699 123.875 117.254C124.907 116.771 125.856 116.284 126.655 115.851C127.457 115.423 128.11 115.049 128.569 114.777C128.793 114.643 128.972 114.536 129.094 114.461C129.202 114.382 129.265 114.339 129.265 114.339C129.265 114.339 129.023 114.316 128.569 114.272C128.116 114.224 127.463 114.165 126.667 114.111C125.083 113.999 122.945 113.904 120.708 113.971C119.611 114.019 118.403 114.038 117.255 114.156C116.783 114.203 116.318 114.263 115.853 114.331C117.368 113.094 118.823 111.786 120.225 110.428C121.466 111.189 123.07 111.42 124.848 111.233C125.959 111.082 127.052 110.82 128.11 110.45C128.671 110.265 129.232 110.052 129.79 109.82C130.073 109.708 130.35 109.589 130.627 109.467C130.902 109.336 131.155 109.197 131.421 109.058C132.459 108.499 133.461 107.897 134.379 107.303C134.839 107.002 135.286 106.716 135.68 106.423C136.064 106.122 136.428 105.833 136.753 105.565C138.071 104.488 138.88 103.708 138.88 103.708C138.88 103.708 137.883 103.743 136.356 103.879C135.581 103.948 134.69 104.043 133.723 104.168C132.748 104.292 131.74 104.464 130.627 104.633C129.536 104.814 128.429 105.036 127.362 105.316C126.828 105.458 126.303 105.613 125.796 105.785C125.537 105.873 125.295 105.966 125.035 106.058C124.782 106.146 124.528 106.241 124.281 106.339C124.209 106.364 124.138 106.393 124.069 106.426C125.772 104.536 127.38 102.607 128.907 100.689C130.419 101.562 132.235 101.606 134.188 101.082C134.693 100.949 135.185 100.775 135.662 100.562C136.145 100.349 136.634 100.108 137.111 99.8436C138.093 99.303 139.036 98.693 139.932 98.018C140.776 97.3268 141.582 96.6028 142.306 95.8935C142.966 95.274 143.582 94.6088 144.149 93.9026C145.128 92.6918 145.712 91.837 145.712 91.837C145.712 91.837 144.77 92.0127 143.35 92.3629C142.643 92.5401 141.817 92.7623 140.935 93.0269C140.493 93.1577 140.034 93.3032 139.557 93.446C139.073 93.5962 138.578 93.754 138.083 93.9208C137.09 94.2516 136.115 94.6338 135.16 95.0658C134.69 95.2852 134.23 95.5104 133.789 95.7569C133.329 95.9914 132.882 96.2375 132.453 96.5022C132.181 96.6717 131.928 96.8493 131.68 97.037C133.216 94.8451 134.58 92.5352 135.757 90.1286C137.382 90.6831 139.091 90.4455 140.776 89.6732C140.994 89.5725 141.218 89.4658 141.435 89.3442C141.647 89.2254 141.847 89.0977 142.053 88.9642C142.461 88.6953 142.867 88.3946 143.261 88.0746C144.057 87.4206 144.807 86.7117 145.506 85.953C146.131 85.2133 146.718 84.4427 147.266 83.6439C147.744 82.9656 148.185 82.2613 148.587 81.5342C149.246 80.2751 149.61 79.4037 149.61 79.4037C149.61 79.4037 148.751 79.6846 147.484 80.1957C146.848 80.4539 146.106 80.765 145.327 81.1271C144.546 81.4921 143.654 81.8995 142.801 82.35C141.933 82.7974 141.092 83.2956 140.281 83.8421C139.879 84.1095 139.509 84.3919 139.127 84.6849C138.747 84.9658 138.383 85.2673 138.036 85.588C137.866 85.7443 137.707 85.8991 137.558 86.0567C138.38 83.9568 139.08 81.8107 139.655 79.6292C139.732 79.3255 139.81 79.0206 139.891 78.711Z"/>
</mask>
<path d="M139.891 78.711C141.54 79.0055 143.097 78.5519 144.522 77.6143C145.28 77.1057 145.965 76.4955 146.559 75.8007C147.183 75.0939 147.75 74.3388 148.256 73.5424C149.106 72.1222 149.821 70.6235 150.389 69.0668C150.812 67.8211 151 66.9752 151 66.9752C151 66.9752 150.225 67.3223 149.103 67.9368C148.534 68.2356 147.907 68.6098 147.191 69.032C146.473 69.4588 145.724 69.9394 144.987 70.4625C143.515 71.479 142.194 72.7007 141.063 74.091C141.006 74.1541 140.97 74.2187 140.916 74.2849C141.435 71.8568 141.865 69.4092 142.184 66.9512C143.535 66.8725 144.819 66.3312 145.823 65.417C146.142 65.1396 146.442 64.8404 146.72 64.5216C146.998 64.1992 147.256 63.8588 147.49 63.5027C147.969 62.7773 148.39 62.0153 148.751 61.2235C148.933 60.8269 149.103 60.4256 149.252 60.0425C149.392 59.6594 149.518 59.284 149.64 58.9188C149.87 58.1917 150.051 57.5079 150.189 56.9205C150.357 56.27 150.483 55.6089 150.564 54.9416C150.564 54.9416 149.87 55.322 148.844 55.9709C147.562 56.7631 146.341 57.6521 145.193 58.6305C144.554 59.1812 143.952 59.775 143.392 60.4078C143.156 60.6693 142.938 60.9395 142.73 61.2177C142.849 59.1382 142.877 57.0612 142.813 54.9869C143.787 54.7051 144.669 54.1673 145.369 53.4286C145.922 52.8512 146.399 52.2049 146.789 51.5054C147.174 50.7779 147.499 50.0196 147.761 49.2382C148.029 48.4872 148.237 47.716 148.384 46.9319C148.516 46.182 148.605 45.4835 148.674 44.8811C148.733 44.277 148.769 43.7721 148.781 43.4222C148.789 43.2359 148.787 43.0492 148.775 42.8631C148.775 42.8631 148.632 42.9729 148.357 43.1696C148.098 43.3711 147.713 43.6625 147.254 44.0216C146.125 44.9142 145.061 45.8868 144.069 46.9319C143.798 47.2203 143.532 47.5224 143.279 47.832C143.013 48.1428 142.754 48.46 142.518 48.7874C142.45 48.8733 142.39 48.9647 142.324 49.0533C142.065 47.0605 141.693 45.0841 141.212 43.1336C142.118 42.7786 142.9 42.1624 143.46 41.3621C144.373 40.1722 144.8 38.581 145.035 36.9704C145.092 36.5692 145.146 36.1667 145.169 35.7713C145.175 35.3793 145.175 34.9826 145.163 34.6085C145.139 33.8512 145.086 33.145 145.023 32.5367C144.978 32.0466 144.897 31.5604 144.782 31.0821C144.692 30.7292 144.651 30.5276 144.651 30.5276C144.651 30.5276 144.155 31.0356 143.478 31.8603C142.603 32.89 141.791 33.9733 141.048 35.1042C140.64 35.7437 140.274 36.4087 139.95 37.0951C139.822 37.3474 139.709 37.6 139.604 37.86C138.844 35.7114 137.955 33.6115 136.941 31.572C137.909 31.1317 138.672 30.3342 139.073 29.3439C139.568 28.0878 139.649 26.4741 139.473 24.8981C139.239 23.4606 138.861 22.051 138.343 20.691C137.871 19.5925 137.49 18.8716 137.49 18.8716C137.49 18.8716 137.147 19.4257 136.694 20.3049C136.47 20.7437 136.222 21.2665 135.975 21.8388C135.739 22.4142 135.45 23.062 135.22 23.7291C134.984 24.401 134.796 25.0894 134.66 25.7889C134.591 26.1326 134.544 26.4804 134.519 26.8302C134.513 26.9548 134.501 27.0825 134.489 27.2071C133.079 24.9842 131.512 22.8658 129.801 20.8683C130.253 20.6417 130.649 20.3175 130.961 19.9187C131.319 19.4247 131.547 18.8482 131.626 18.242C131.716 17.5622 131.703 16.8727 131.588 16.1969C131.48 15.4579 131.288 14.7339 131.015 14.0393C130.51 12.7392 129.885 11.4897 129.148 10.3074C128.516 9.35471 128.045 8.74021 128.045 8.74021C127.853 9.20797 127.684 9.68534 127.541 10.1705C127.204 11.2774 126.953 12.4092 126.792 13.5556C126.585 14.887 126.647 16.2468 126.974 17.5537C126.998 17.6484 127.022 17.734 127.052 17.8241C125.047 15.7191 122.849 13.6248 120.443 11.437C122.823 10.0849 122.178 7.25275 120.848 4.67752C120.203 3.52276 119.461 2.42504 118.632 1.3961C117.949 0.540979 117.448 2.61481e-05 117.448 2.61481e-05C117.021 1.51785 116.803 3.08778 116.801 4.66552C116.8 5.95537 117.046 7.23332 117.526 8.42912C117.632 8.67397 117.756 8.91097 117.896 9.13839C117.89 9.13839 117.89 9.13839 117.89 9.13532C115.695 7.18198 111.883 5.16124 111.883 5.16124C127.057 17.9715 138.65 33.4623 140.38 51.223C141 57.6689 140.228 64.1083 139.232 70.5032C138.113 77.7239 136.306 84.9224 132.593 91.6176C126.852 101.962 119.199 110.242 108.779 116.711C108.779 116.711 93.1511 124.611 76.3933 124.783V124.777C75.9877 124.783 75.591 124.78 75.1854 124.78C74.9915 124.78 74.7976 124.78 74.6036 124.777V124.78C58.0516 124.537 42.2124 116.708 42.2124 116.708C31.804 110.239 24.1453 101.962 18.4073 91.6145C14.697 84.9224 12.8897 77.7211 11.7686 70.5031C10.7694 64.1025 9.99704 57.6689 10.6262 51.2171C12.3531 33.4622 23.9395 17.9715 39.1197 5.16122C39.1197 5.16122 35.3084 7.18195 33.1101 9.1353C33.1101 9.1353 33.1101 9.13837 33.1043 9.13837C33.2456 8.91243 33.3683 8.67521 33.4711 8.4291C33.951 7.23299 34.1999 5.95562 34.2047 4.6655C34.1994 3.088 33.9817 1.51852 33.5576 0C33.5576 0 33.0506 0.540956 32.3735 1.39608C31.5413 2.42466 30.7971 3.52238 30.1487 4.6775C28.8215 7.25273 28.1805 10.0849 30.5604 11.437C28.1506 13.6248 25.9584 15.7191 23.9456 17.8241C23.9752 17.7339 23.999 17.6453 24.0259 17.5509C24.3533 16.245 24.4142 14.8858 24.2049 13.5555C24.0442 12.4096 23.796 11.2779 23.4625 10.1704C23.191 9.29438 22.9613 8.74018 22.9613 8.74018C22.9613 8.74018 22.484 9.35468 21.8549 10.3043C21.1182 11.4887 20.4912 12.739 19.9819 14.0393C19.7093 14.7339 19.5171 15.4579 19.4093 16.1969C19.2952 16.8729 19.2831 17.5624 19.3736 18.242C19.452 18.8493 19.6829 19.4264 20.0445 19.9187C20.3543 20.3178 20.7486 20.6422 21.1986 20.8683C19.4886 22.8665 17.922 24.9848 16.5105 27.2071C16.5044 27.0825 16.4925 26.9548 16.4806 26.8301C16.4576 26.4802 16.4108 26.1323 16.3404 25.7889C16.2052 25.089 16.0178 24.4005 15.7797 23.729C15.55 23.0619 15.2639 22.4142 15.0223 21.8388C14.7746 21.2664 14.5273 20.7436 14.3034 20.3018C13.856 19.4257 13.5072 18.8715 13.5072 18.8715C13.5072 18.8715 13.1255 19.5897 12.6601 20.691C12.1448 22.0515 11.7671 23.461 11.5329 24.898C11.3509 26.4741 11.4345 28.0877 11.9235 29.3438C12.3251 30.3335 13.0885 31.13 14.056 31.5689C13.0441 33.6084 12.1567 35.7084 11.3988 37.8569C11.2974 37.6 11.1749 37.3474 11.0497 37.0892C10.7246 36.4049 10.357 35.7419 9.94911 35.1042C9.20957 33.9717 8.39872 32.8882 7.52153 31.8603C6.84447 31.0356 6.34943 30.5276 6.34943 30.5276C6.34943 30.5276 6.3079 30.7291 6.21536 31.0821C6.10096 31.5603 6.02215 32.0465 5.9796 32.5366C5.91424 33.145 5.86049 33.8512 5.84248 34.6084C5.82751 34.9826 5.82174 35.3731 5.83667 35.7713C5.86048 36.1667 5.90813 36.5692 5.96189 36.9704C6.19738 38.581 6.62704 40.1691 7.54535 41.3593C8.10214 42.1601 8.88134 42.7774 9.78511 43.1335C9.30479 45.0841 8.93447 47.0605 8.67592 49.0533C8.61304 48.9646 8.55347 48.8733 8.48783 48.7843C8.24623 48.46 7.98699 48.1427 7.71851 47.832C7.47392 47.5224 7.19965 47.2202 6.92815 46.9288C5.94007 45.882 4.87644 44.9102 3.74596 44.0216C3.29275 43.6594 2.89913 43.3711 2.63954 43.1668C2.37413 42.9729 2.22204 42.8603 2.22204 42.8603C2.22204 42.8603 2.21014 43.0659 2.21593 43.4222C2.23395 43.772 2.27273 44.277 2.33229 44.881C2.39184 45.4835 2.48131 46.182 2.61569 46.9319C2.92971 48.5249 3.46688 50.0648 4.21107 51.5054C4.59903 52.2076 5.07847 52.8544 5.63664 53.4286C6.33471 54.1648 7.21331 54.7024 8.18363 54.9868C8.11797 57.0602 8.154 59.1382 8.27005 61.2146C8.06452 60.9395 7.84067 60.6693 7.60524 60.4047C7.04518 59.773 6.44329 59.1802 5.8037 58.6304C4.65811 57.6501 3.43867 56.7609 2.15638 55.9709C1.13056 55.3188 0.435487 54.9416 0.435487 54.9416C0.518063 55.6081 0.640546 56.2689 0.802266 56.9205C0.948551 57.5079 1.13056 58.1916 1.36606 58.9188C1.47933 59.284 1.60759 59.6594 1.74475 60.0425C1.8968 60.4256 2.07271 60.8238 2.2517 61.2235C2.61283 62.0145 3.03356 62.7765 3.5102 63.5027C3.74649 63.8566 4.00241 64.1967 4.27673 64.5215C4.55467 64.841 4.85571 65.1392 5.17737 65.4139C6.18013 66.3286 7.46276 66.8709 8.81305 66.9512C9.13222 69.4092 9.56157 71.8567 10.0746 74.2849C10.0328 74.2187 9.99095 74.1541 9.94331 74.091C8.80946 72.6997 7.48493 71.4779 6.00953 70.4625C5.27293 69.9394 4.5183 69.4587 3.81162 69.0319C3.09883 68.6098 2.46361 68.2356 1.8968 67.9307C0.772648 67.3192 0 66.9752 0 66.9752C0 66.9752 0.188124 67.8211 0.608683 69.0667C1.18005 70.6226 1.89494 72.121 2.74396 73.5424C3.2536 74.3362 3.82073 75.091 4.44071 75.8007C5.03609 76.4955 5.72237 77.1056 6.48075 77.6143C7.90023 78.5519 9.46017 79.0055 11.1154 78.711C11.1869 79.0206 11.2733 79.3255 11.3509 79.6292C11.9233 81.8115 12.6234 83.9577 13.4477 86.0566C13.2895 85.8991 13.1313 85.7412 12.9704 85.5818C12.6243 85.2726 12.2576 84.9704 11.8758 84.6849C11.4883 84.3919 11.1273 84.1095 10.7217 83.8421C9.91234 83.2956 9.07188 82.7974 8.20469 82.35C7.34565 81.8964 6.45085 81.4921 5.67848 81.1271C4.89422 80.765 4.14845 80.4539 3.5224 80.1957C2.24585 79.6846 1.38984 79.4036 1.38984 79.4036C1.38984 79.4036 1.75084 80.2751 2.41596 81.5342C2.81579 82.262 3.25785 82.9654 3.73984 83.6408C4.2854 84.4407 4.87173 85.2115 5.49646 85.9502C6.19367 86.7126 6.94532 87.4227 7.74538 88.0746C8.12993 88.3925 8.53108 88.6895 8.9471 88.9642C9.15294 89.0947 9.35572 89.2224 9.56156 89.3442C9.7793 89.463 10.0028 89.5725 10.2206 89.6704C11.9116 90.4455 13.6144 90.6831 15.2401 90.1286C16.4245 92.5321 17.7883 94.8415 19.3198 97.037C19.0724 96.8493 18.8159 96.669 18.5444 96.5022C18.1208 96.2376 17.6765 95.9914 17.2114 95.7569C16.7759 95.5104 16.3107 95.2852 15.8395 95.0658C14.8846 94.6326 13.908 94.2494 12.9139 93.9177C12.4185 93.754 11.9296 93.5962 11.4403 93.446C10.9633 93.3032 10.504 93.1577 10.0627 93.0269C9.18286 92.7623 8.35372 92.5401 7.65284 92.3629C6.22727 92.0096 5.29093 91.837 5.29093 91.837C5.29093 91.837 5.8724 92.6887 6.85057 93.9026C7.41862 94.6102 8.03661 95.2756 8.69973 95.8935C9.41832 96.5997 10.2148 97.3268 11.0678 98.018C11.9655 98.691 12.9081 99.301 13.889 99.8436C14.3721 100.108 14.8553 100.349 15.3442 100.559C15.8174 100.775 16.3084 100.95 16.8116 101.082C18.7621 101.606 20.5814 101.562 22.0964 100.69C23.6203 102.607 25.2279 104.536 26.9366 106.426C26.8651 106.396 26.7964 106.366 26.725 106.336C26.4715 106.238 26.2238 106.146 25.9645 106.055C25.705 105.966 25.4634 105.873 25.2069 105.785C24.6999 105.61 24.1752 105.458 23.6384 105.316C22.5735 105.036 21.4643 104.814 20.3755 104.633C19.2633 104.464 18.2552 104.292 17.277 104.168C16.3107 104.043 15.4159 103.948 14.6494 103.879C13.1194 103.743 12.1174 103.708 12.1174 103.708C12.1174 103.708 12.9346 104.488 14.2499 105.565C14.5779 105.833 14.9328 106.122 15.3203 106.423C15.7113 106.716 16.1587 107.002 16.6177 107.303C17.5363 107.897 18.5383 108.499 19.5852 109.058C19.8447 109.197 20.0982 109.336 20.3697 109.464C20.647 109.589 20.9243 109.708 21.2105 109.82C21.7654 110.052 22.3261 110.265 22.8898 110.45C23.9478 110.819 25.0397 111.081 26.1493 111.233C27.927 111.42 29.5343 111.189 30.7782 110.426C32.1738 111.786 33.6293 113.094 35.1471 114.328C34.6878 114.263 34.2227 114.203 33.7515 114.153C32.6032 114.038 31.3954 114.019 30.295 113.971C28.0611 113.901 25.9169 113.999 24.3331 114.111C23.5339 114.165 22.8837 114.224 22.4363 114.272C21.9832 114.315 21.7354 114.339 21.7354 114.339C21.7354 114.339 21.7953 114.382 21.9114 114.461C22.0247 114.536 22.2067 114.643 22.4363 114.774C22.8898 115.049 23.5397 115.423 24.345 115.851C25.1473 116.284 26.0897 116.771 27.1247 117.251C28.1924 117.699 29.3526 118.138 30.5424 118.527C31.1358 118.719 31.7383 118.898 32.3378 119.062C32.6389 119.145 32.9342 119.218 33.2353 119.29C33.5398 119.352 33.8528 119.406 34.1482 119.455C35.3039 119.651 36.4747 119.74 37.6464 119.723C39.1316 119.684 40.4377 119.382 41.4578 118.762C42.0276 119.096 42.6003 119.418 43.1875 119.726C43.2789 119.784 43.3868 119.811 43.4947 119.803C51.3712 124.172 61.1147 126.86 69.1371 127.822C62.7101 129.026 55.1647 130.353 47.1482 131.584L38.4933 139C38.4933 139 57.9622 132.463 76.1279 128.302C94.2875 132.463 113.75 139 113.75 139L105.098 131.584C96.8791 130.323 89.1459 128.959 82.6144 127.73C92.5516 126.593 100.89 123.655 107.577 119.803C107.661 119.795 107.743 119.77 107.818 119.729C108.397 119.418 108.973 119.096 109.539 118.762C110.562 119.382 111.865 119.684 113.35 119.723C114.52 119.742 115.689 119.653 116.843 119.455C117.144 119.406 117.46 119.352 117.762 119.29C118.063 119.218 118.361 119.145 118.662 119.062C119.259 118.898 119.864 118.719 120.455 118.527C121.645 118.138 122.811 117.699 123.875 117.254C124.907 116.771 125.856 116.284 126.655 115.851C127.457 115.423 128.11 115.049 128.569 114.777C128.793 114.643 128.972 114.536 129.094 114.461C129.202 114.382 129.265 114.339 129.265 114.339C129.265 114.339 129.023 114.316 128.569 114.272C128.116 114.224 127.463 114.165 126.667 114.111C125.083 113.999 122.945 113.904 120.708 113.971C119.611 114.019 118.403 114.038 117.255 114.156C116.783 114.203 116.318 114.263 115.853 114.331C117.368 113.094 118.823 111.786 120.225 110.428C121.466 111.189 123.07 111.42 124.848 111.233C125.959 111.082 127.052 110.82 128.11 110.45C128.671 110.265 129.232 110.052 129.79 109.82C130.073 109.708 130.35 109.589 130.627 109.467C130.902 109.336 131.155 109.197 131.421 109.058C132.459 108.499 133.461 107.897 134.379 107.303C134.839 107.002 135.286 106.716 135.68 106.423C136.064 106.122 136.428 105.833 136.753 105.565C138.071 104.488 138.88 103.708 138.88 103.708C138.88 103.708 137.883 103.743 136.356 103.879C135.581 103.948 134.69 104.043 133.723 104.168C132.748 104.292 131.74 104.464 130.627 104.633C129.536 104.814 128.429 105.036 127.362 105.316C126.828 105.458 126.303 105.613 125.796 105.785C125.537 105.873 125.295 105.966 125.035 106.058C124.782 106.146 124.528 106.241 124.281 106.339C124.209 106.364 124.138 106.393 124.069 106.426C125.772 104.536 127.38 102.607 128.907 100.689C130.419 101.562 132.235 101.606 134.188 101.082C134.693 100.949 135.185 100.775 135.662 100.562C136.145 100.349 136.634 100.108 137.111 99.8436C138.093 99.303 139.036 98.693 139.932 98.018C140.776 97.3268 141.582 96.6028 142.306 95.8935C142.966 95.274 143.582 94.6088 144.149 93.9026C145.128 92.6918 145.712 91.837 145.712 91.837C145.712 91.837 144.77 92.0127 143.35 92.3629C142.643 92.5401 141.817 92.7623 140.935 93.0269C140.493 93.1577 140.034 93.3032 139.557 93.446C139.073 93.5962 138.578 93.754 138.083 93.9208C137.09 94.2516 136.115 94.6338 135.16 95.0658C134.69 95.2852 134.23 95.5104 133.789 95.7569C133.329 95.9914 132.882 96.2375 132.453 96.5022C132.181 96.6717 131.928 96.8493 131.68 97.037C133.216 94.8451 134.58 92.5352 135.757 90.1286C137.382 90.6831 139.091 90.4455 140.776 89.6732C140.994 89.5725 141.218 89.4658 141.435 89.3442C141.647 89.2254 141.847 89.0977 142.053 88.9642C142.461 88.6953 142.867 88.3946 143.261 88.0746C144.057 87.4206 144.807 86.7117 145.506 85.953C146.131 85.2133 146.718 84.4427 147.266 83.6439C147.744 82.9656 148.185 82.2613 148.587 81.5342C149.246 80.2751 149.61 79.4037 149.61 79.4037C149.61 79.4037 148.751 79.6846 147.484 80.1957C146.848 80.4539 146.106 80.765 145.327 81.1271C144.546 81.4921 143.654 81.8995 142.801 82.35C141.933 82.7974 141.092 83.2956 140.281 83.8421C139.879 84.1095 139.509 84.3919 139.127 84.6849C138.747 84.9658 138.383 85.2673 138.036 85.588C137.866 85.7443 137.707 85.8991 137.558 86.0567C138.38 83.9568 139.08 81.8107 139.655 79.6292C139.732 79.3255 139.81 79.0206 139.891 78.711Z" fill="black" stroke="#444343" stroke-width="2" mask="url(#path-1-inside-1_524_788)"/>
</svg>
