<svg width="151" height="139" viewBox="0 0 151 139" fill="none" xmlns="http://www.w3.org/2000/svg">
<g clip-path="url(#clip0_480_1806)">
<path d="M42.4997 102.775C42.1656 102.265 41.8641 101.855 41.6525 101.573C41.5453 101.431 41.4586 101.319 41.4051 101.244C41.3514 101.164 41.3276 101.125 41.3276 101.125C41.3276 101.125 41.2231 101.301 41.0799 101.606C40.9339 101.906 40.7458 102.345 40.54 102.89C40.0299 104.265 39.7127 105.704 39.5978 107.167C39.4918 108.91 39.862 110.65 40.6682 112.197C40.7757 112.397 40.8921 112.592 41.0112 112.788C41.1442 112.975 41.2877 113.154 41.4409 113.325C41.7569 113.688 42.1053 114.02 42.4817 114.318C43.3158 114.98 44.26 115.486 45.2702 115.815C46.6539 114.628 46.9612 113.082 46.7346 111.491C46.5977 110.665 46.3582 109.861 46.0218 109.096C45.9353 108.891 45.8398 108.699 45.7472 108.499C45.6639 108.298 45.5802 108.094 45.4879 107.894C45.309 107.494 45.1151 107.099 44.9034 106.716C44.4918 105.948 44.0443 105.23 43.6089 104.579C43.2302 103.891 42.8426 103.283 42.4997 102.775Z" fill="#FFCD4F"/>
<path d="M36.392 99.5086L36.2518 98.9122C36.068 98.1622 35.8439 97.4228 35.5805 96.6973C35.4614 96.3564 35.3213 96.0394 35.2138 95.7314C35.1154 95.4188 35.0198 95.1228 34.9303 94.8554C34.5486 93.7901 34.2295 93.1245 34.2295 93.1245C33.8103 93.621 33.421 94.1423 33.0635 94.6855C32.6846 95.2454 32.3391 95.8273 32.0285 96.4284C31.6573 97.1232 31.3585 97.8548 31.1368 98.6116C30.9074 99.4026 30.7674 100.217 30.7193 101.04C30.6955 101.461 30.7016 101.883 30.7373 102.303C30.7531 102.514 30.7809 102.725 30.8207 102.933C30.8686 103.137 30.9253 103.337 30.9908 103.532C31.2608 104.364 31.6848 105.136 32.2404 105.809C32.5363 106.178 32.8781 106.507 33.2574 106.788C33.6838 107.093 34.1382 107.356 34.6143 107.574C36.2038 106.607 36.7707 105.2 36.887 103.678C36.9581 102.88 36.9281 102.076 36.7975 101.286C36.7356 100.884 36.6519 100.486 36.5468 100.093C36.4992 99.8948 36.4454 99.7009 36.392 99.5086Z" fill="#FFCD4F"/>
<path d="M24.8701 97.5614C25.1991 97.9161 25.5639 98.2354 25.9585 98.5141C26.6988 98.2354 27.3647 97.7871 27.9035 97.2046C28.4423 96.6221 28.8393 95.9213 29.0631 95.1576C29.1706 94.8043 29.287 94.4243 29.3704 94.0427C29.4539 93.6593 29.5166 93.2715 29.5582 92.8811C29.6383 92.1076 29.6563 91.3288 29.612 90.5524C29.6296 89.8118 29.6037 89.0707 29.5344 88.3332C29.466 87.6464 29.3585 87.0303 29.3346 86.4777C29.2867 85.8818 29.204 85.2892 29.087 84.7031C28.5698 85.1162 28.076 85.5581 27.6079 86.0269C27.1132 86.5056 26.6452 87.0117 26.2062 87.5427C25.9646 87.8344 25.705 88.1513 25.4873 88.4713C25.2637 88.796 25.046 89.1311 24.8463 89.484C24.4334 90.1965 24.0975 90.9515 23.8443 91.7361C23.7161 92.1305 23.6143 92.533 23.5398 92.9411C23.4952 93.3392 23.4832 93.7403 23.5041 94.1403C23.5488 94.958 23.7567 95.7582 24.1155 96.493C24.3065 96.8888 24.5615 97.2499 24.8701 97.5614Z" fill="#FFCD4F"/>
<path d="M18.4485 87.5303C18.6776 87.9135 18.9443 88.2725 19.2447 88.6018C20.0299 88.4428 20.7726 88.1175 21.4235 87.6474C22.0744 87.1772 22.6187 86.5731 23.0203 85.8749C23.1248 85.7124 23.2142 85.5487 23.3037 85.3819C23.3962 85.2105 23.4857 85.0348 23.5779 84.8576C23.745 84.5043 23.8971 84.1394 24.0314 83.7683C24.2885 83.041 24.4859 82.2938 24.6218 81.534C24.7949 80.8192 24.9323 80.0961 25.0335 79.3674C25.0811 79.0265 25.111 78.7018 25.1409 78.3938C25.1706 78.0889 25.1886 77.8033 25.2332 77.5298C25.3645 76.4497 25.3764 75.7466 25.3764 75.7466C24.7906 76.0821 24.2222 76.4477 23.6735 76.8417C23.1724 77.195 22.6059 77.623 22.0122 78.1264C21.402 78.6387 20.8345 79.2005 20.3154 79.8062C19.7599 80.4307 19.2665 81.1086 18.8422 81.83C18.6293 82.1838 18.4448 82.5541 18.2904 82.9375C18.1559 83.308 18.0512 83.6888 17.9773 84.0763C17.8221 84.8448 17.8282 85.6375 17.995 86.4035C18.0812 86.8025 18.2346 87.1836 18.4485 87.5303V87.5303Z" fill="#FFCD4F"/>
<path d="M19.922 75.2342C20.4437 74.6436 20.9091 74.0048 21.3118 73.3261C21.7026 72.6506 22.0415 71.9459 22.3257 71.2183C22.8634 69.9629 23.3002 68.6661 23.6319 67.3402C23.9272 66.29 24.0793 65.5869 24.0793 65.5869C24.0793 65.5869 23.3308 65.9039 22.2481 66.4854C21.7174 66.7768 21.0699 67.139 20.4408 67.5596C19.7729 68.0056 19.1297 68.4881 18.5141 69.005C17.2467 70.0884 16.027 71.4091 15.4632 72.8424C15.1634 73.5498 15.0072 74.3106 15.0039 75.0798C15.0443 75.8864 15.2965 76.6677 15.7347 77.3439C16.5372 77.2923 17.3213 77.0789 18.0405 76.7166C18.7597 76.3542 19.3995 75.8501 19.922 75.2342V75.2342Z" fill="#FFCD4F"/>
<path d="M17.5478 65.515C17.8407 65.2606 18.1196 64.9903 18.3831 64.7051C18.6617 64.4153 18.9255 64.1114 19.1734 63.7946C19.6601 63.1675 20.1025 62.5068 20.4973 61.8173C20.6882 61.4822 20.8644 61.1471 21.0342 60.812C21.2163 60.4741 21.3772 60.1375 21.5354 59.8113C21.8365 59.1593 22.09 58.5478 22.29 58.025C22.6775 56.9748 22.9072 56.2896 22.9072 56.2896C22.9072 56.2896 22.1407 56.5496 21.0461 57.0573C19.6819 57.6879 18.3722 58.4317 17.1304 59.2811C16.4372 59.7659 15.7795 60.3001 15.1621 60.8797C14.5864 61.4383 14.0796 62.0649 13.6528 62.7459C13.2469 63.3849 12.9731 64.0998 12.8478 64.8479C12.7639 65.6144 12.8726 66.3899 13.1639 67.1031C14.9144 67.1886 16.3638 66.5184 17.5478 65.515Z" fill="#FFCD4F"/>
<path d="M12.3941 56.2021C14.0673 56.4079 15.5375 55.867 16.7933 54.9595C17.4268 54.4992 18.0079 53.9696 18.5258 53.3804C19.0676 52.811 19.5643 52.1996 20.0112 51.552C20.4644 50.9328 20.8282 50.2913 21.2041 49.7217C21.5708 49.1432 21.8781 48.6084 22.1285 48.1456C22.3731 47.6828 22.5609 47.2997 22.6953 47.0292C22.8263 46.7664 22.9011 46.6147 22.9011 46.6147C22.9011 46.6147 22.7191 46.6566 22.382 46.7452C22.0421 46.8311 21.5889 46.9738 21.034 47.1662C19.6489 47.6356 18.3084 48.2294 17.0287 48.9404C16.6708 49.1404 16.3101 49.3568 15.9641 49.5851C15.6212 49.8165 15.302 50.0599 14.9799 50.3214C14.3668 50.8248 13.8116 51.3958 13.3246 52.0237C12.3764 53.2496 11.9974 54.6801 12.3941 56.2021Z" fill="#FFCD4F"/>
<path d="M18.0081 43.4344C19.2997 42.6465 20.4803 41.6873 21.5183 40.5825C21.7718 40.3182 22.0014 40.0477 22.2311 39.7893C22.4787 39.5428 22.7084 39.2874 22.9261 39.0471C23.3555 38.5618 23.7223 38.1064 24.0265 37.7098C24.3157 37.3146 24.5814 36.9977 24.7631 36.7752C24.9362 36.5543 25.0346 36.4238 25.0346 36.4238C25.0346 36.4238 24.2861 36.4869 23.1439 36.6971C21.7453 36.9582 20.3749 37.3547 19.0519 37.8811C18.2969 38.1808 17.5661 38.5389 16.8659 38.9523C16.2072 39.3617 15.5995 39.849 15.0555 40.4037C14.7982 40.6649 14.5637 40.9479 14.3547 41.2496C14.1453 41.5357 13.9776 41.8504 13.8566 42.1842C13.608 42.8507 13.5341 43.5705 13.6419 44.2741C15.2287 44.5883 16.7019 44.175 18.0081 43.4344Z" fill="#FFCD4F"/>
<path d="M28.3448 27.7495C27.781 27.7646 27.125 27.8006 26.4003 27.8713C25.6501 27.9469 24.9052 28.0678 24.1694 28.2332C23.3851 28.4044 22.6137 28.6308 21.8609 28.9108C21.4822 29.0551 21.1124 29.213 20.7575 29.3856C20.4214 29.5593 20.0984 29.7577 19.7913 29.9792C18.5865 30.8448 17.6083 31.97 17.5723 33.4003C19.0098 33.9218 20.4772 33.7354 21.8551 33.2427C23.272 32.7353 24.6089 32.0248 25.8246 31.1331C26.8962 30.4329 27.9231 29.6656 28.8993 28.8357C29.7107 28.2061 30.1878 27.7646 30.1878 27.7646C30.1878 27.7646 29.46 27.715 28.3448 27.7495Z" fill="#FFCD4F"/>
<path d="M35.509 19.3987C34.1436 19.2681 32.7694 19.2596 31.4024 19.3732C29.8663 19.5117 28.2052 19.824 26.8154 20.4505C25.4823 21.1056 24.3402 22.0463 23.8809 23.3639C24.4826 23.705 25.1495 23.9134 25.8372 23.9753C26.561 24.0415 27.2904 24.0087 28.0055 23.8778C28.7486 23.74 29.4788 23.5395 30.1885 23.2784C30.9074 23.0199 31.5814 22.7119 32.2942 22.4023C33.4937 21.8468 34.6598 21.2206 35.7863 20.5271C36.7169 19.9954 37.2864 19.6108 37.2864 19.6108C37.2864 19.6108 36.5974 19.4889 35.509 19.3987Z" fill="#FFCD4F"/>
<path d="M34.4529 11.6802C33.1406 12.3098 32.0161 13.2052 31.5449 14.4764C33.8235 15.8648 37.0982 14.8296 39.7078 13.5209C40.895 12.9483 42.0463 12.3031 43.1554 11.5888C44.0322 11.0251 44.5629 10.618 44.5629 10.618C42.6751 10.4006 40.7697 10.385 38.8786 10.5715C37.3697 10.7306 35.7502 11.0463 34.4529 11.6802Z" fill="#FFCD4F"/>
<path d="M105.728 115.818C106.74 115.489 107.685 114.981 108.52 114.318C108.895 114.02 109.243 113.688 109.558 113.325C109.712 113.156 109.856 112.976 109.987 112.788C110.115 112.592 110.223 112.397 110.339 112.197C110.748 111.411 111.044 110.571 111.219 109.701C111.399 108.869 111.46 108.016 111.401 107.167C111.289 105.704 110.972 104.266 110.458 102.893C110.259 102.345 110.065 101.906 109.927 101.606C109.775 101.301 109.68 101.125 109.68 101.125C109.68 101.125 109.65 101.164 109.593 101.247C109.54 101.319 109.456 101.431 109.346 101.573C109.137 101.855 108.839 102.265 108.502 102.775C108.156 103.283 107.777 103.891 107.389 104.579C106.96 105.23 106.506 105.948 106.098 106.716C105.892 107.099 105.692 107.494 105.511 107.897C105.427 108.096 105.334 108.298 105.251 108.499C105.162 108.699 105.069 108.894 104.98 109.096C104.64 109.859 104.402 110.664 104.273 111.491C104.043 113.082 104.344 114.628 105.728 115.818Z" fill="#FFCD4F"/>
<path d="M117.943 94.6886C117.584 94.1438 117.193 93.6215 116.771 93.1245C116.51 93.689 116.278 94.2667 116.076 94.8554C115.978 95.1228 115.882 95.4188 115.787 95.7314C115.677 96.0425 115.539 96.3564 115.423 96.6973C115.158 97.423 114.932 98.1623 114.746 98.9122L114.609 99.5086C114.552 99.704 114.498 99.8947 114.451 100.093C114.349 100.486 114.268 100.884 114.209 101.286C114.077 102.076 114.044 102.88 114.114 103.678C114.227 105.2 114.794 106.607 116.389 107.574C116.865 107.353 117.32 107.09 117.749 106.788C118.126 106.508 118.464 106.18 118.757 105.812C119.317 105.14 119.744 104.366 120.016 103.532C120.075 103.337 120.135 103.137 120.183 102.933C120.22 102.724 120.247 102.514 120.263 102.303C120.302 101.883 120.308 101.461 120.281 101.04C120.235 100.217 120.095 99.4022 119.864 98.6116C119.641 97.8547 119.341 97.123 118.969 96.4284C118.66 95.8295 118.317 95.2487 117.943 94.6886V94.6886Z" fill="#FFCD4F"/>
<path d="M126.154 89.484C125.954 89.1311 125.736 88.796 125.518 88.4744C125.295 88.1513 125.041 87.8344 124.8 87.5427C124.311 86.9583 123.828 86.4475 123.398 86.0269C122.928 85.5579 122.432 85.116 121.913 84.7031C121.799 85.2899 121.716 85.8822 121.662 86.4777C121.638 87.0303 121.531 87.6464 121.471 88.3332C121.398 89.0704 121.369 89.8116 121.385 90.5524C121.343 91.3289 121.362 92.1076 121.442 92.8811C121.484 93.2715 121.548 93.6593 121.633 94.0427C121.719 94.4301 121.826 94.8043 121.937 95.1576C122.161 95.922 122.559 96.6234 123.099 97.206C123.639 97.7886 124.306 98.2365 125.047 98.5141C125.439 98.2365 125.801 97.9182 126.127 97.5645C126.437 97.2523 126.693 96.8902 126.884 96.493C127.245 95.759 127.452 94.9582 127.493 94.1403C127.517 93.7403 127.505 93.3389 127.457 92.9411C127.385 92.5333 127.287 92.1307 127.162 91.7361C126.905 90.9518 126.567 90.1969 126.154 89.484Z" fill="#FFCD4F"/>
<path d="M127.977 85.8776C128.379 86.5752 128.923 87.1788 129.574 87.6484C130.225 88.118 130.968 88.443 131.753 88.6018C132.057 88.2748 132.325 87.9156 132.552 87.5303C132.763 87.1818 132.917 86.8013 133.008 86.4035C133.172 85.6372 133.179 84.8454 133.029 84.0763C132.879 83.2796 132.584 82.5179 132.158 81.83C131.736 81.1099 131.244 80.4331 130.691 79.8093C130.168 79.2062 129.601 78.6437 128.994 78.1264C128.401 77.623 127.828 77.195 127.324 76.8448C126.777 76.4501 126.211 76.0836 125.627 75.7466C125.643 76.3432 125.692 76.9385 125.773 77.5298C125.815 77.8033 125.833 78.0889 125.857 78.3938C125.886 78.7018 125.922 79.0265 125.967 79.3674C126.069 80.0962 126.207 80.8193 126.381 81.534C126.516 82.2937 126.712 83.041 126.969 83.7683C127.101 84.14 127.254 84.5037 127.428 84.8576C127.518 85.0348 127.604 85.2105 127.7 85.3819C127.789 85.5487 127.882 85.7155 127.977 85.8776Z" fill="#FFCD4F"/>
<path d="M135.992 75.0798C135.992 74.3113 135.835 73.5509 135.533 72.8455C134.972 71.4091 133.752 70.0884 132.482 69.005C131.869 68.4861 131.225 68.0045 130.555 67.5627C129.926 67.139 129.288 66.7799 128.748 66.4854C127.668 65.9039 126.926 65.5869 126.926 65.5869C126.926 65.5869 127.063 66.29 127.373 67.3402C127.703 68.6655 128.136 69.9623 128.67 71.2183C128.955 71.9465 129.296 72.6513 129.69 73.3261C130.09 74.0065 130.553 74.6466 131.074 75.2373C132.103 76.3762 133.454 77.2251 135.267 77.3439C135.699 76.6648 135.948 75.8848 135.992 75.0798V75.0798Z" fill="#FFCD4F"/>
<path d="M138.148 64.8479C138.025 64.0996 137.752 63.3844 137.346 62.7459C136.921 62.064 136.413 61.4381 135.834 60.8827C135.219 60.3001 134.561 59.7647 133.866 59.2811C132.627 58.4314 131.32 57.6875 129.959 57.0573C128.858 56.5496 128.098 56.2896 128.098 56.2896C128.098 56.2896 128.321 56.9748 128.712 58.0281C128.912 58.5509 129.159 59.1593 129.47 59.8113C129.619 60.1375 129.783 60.4741 129.965 60.812C130.132 61.1471 130.308 61.4822 130.502 61.8203C130.894 62.5118 131.339 63.1718 131.832 63.7946C132.077 64.1114 132.339 64.4153 132.616 64.7051C132.879 64.9926 133.159 65.2639 133.454 65.5178C134.638 66.5184 136.085 67.1886 137.835 67.1031C138.125 66.3897 138.233 65.6142 138.148 64.8479V64.8479Z" fill="#FFCD4F"/>
<path d="M137.671 52.0237C137.188 51.3922 136.633 50.8208 136.016 50.3214C135.703 50.0657 135.375 49.8165 135.038 49.5851C134.689 49.3568 134.325 49.1404 133.97 48.9404C132.69 48.2307 131.349 47.637 129.965 47.1662C129.413 46.9738 128.954 46.8311 128.617 46.7483C128.277 46.6566 128.098 46.6147 128.098 46.6147C128.098 46.6147 128.169 46.7664 128.31 47.0292C128.435 47.2997 128.623 47.6859 128.87 48.1456C129.118 48.6084 129.425 49.1463 129.789 49.7217C130.168 50.2913 130.526 50.9328 130.979 51.552C131.433 52.1954 131.932 52.8064 132.47 53.3804C132.99 53.9682 133.572 54.4976 134.206 54.9595C135.461 55.867 136.934 56.411 138.608 56.2021C139.001 54.6801 138.62 53.2496 137.671 52.0237Z" fill="#FFCD4F"/>
<path d="M136.647 41.2496C136.438 40.948 136.203 40.6649 135.946 40.4037C135.401 39.849 134.792 39.3617 134.132 38.9523C133.434 38.5365 132.702 38.1783 131.946 37.8811C130.625 37.3536 129.255 36.957 127.857 36.6971C126.715 36.4869 125.967 36.4238 125.967 36.4238C125.967 36.4238 126.062 36.5543 126.238 36.7752C126.42 36.9977 126.686 37.3177 126.975 37.7128C127.276 38.1064 127.646 38.5618 128.081 39.0471C128.293 39.2874 128.529 39.5428 128.77 39.7893C129 40.0477 129.232 40.3213 129.483 40.5825C130.521 41.6867 131.7 42.6458 132.99 43.4344C134.296 44.175 135.77 44.5883 137.365 44.2772C137.468 43.5732 137.393 42.8544 137.148 42.1872C137.025 41.8528 136.856 41.5373 136.647 41.2496V41.2496Z" fill="#FFCD4F"/>
<path d="M131.215 29.9794C130.905 29.7586 130.58 29.5602 130.243 29.3858C129.885 29.2132 129.512 29.0554 129.136 28.911C128.384 28.6303 127.612 28.4038 126.828 28.2335C126.093 28.0683 125.349 27.9474 124.6 27.8716C123.881 27.8008 123.222 27.7648 122.656 27.7528C121.537 27.7153 120.812 27.7648 120.812 27.7648C120.812 27.7648 121.296 28.2095 122.104 28.836C123.08 29.6639 124.105 30.4321 125.173 31.1364C126.391 32.0261 127.73 32.7355 129.148 33.243C130.52 33.7356 131.987 33.9221 133.431 33.4036C133.389 31.9703 132.411 30.845 131.215 29.9794Z" fill="#FFCD4F"/>
<path d="M124.189 20.4504C122.793 19.824 121.138 19.5116 119.605 19.3762C118.235 19.2647 116.858 19.2722 115.489 19.3987C114.41 19.4889 113.721 19.6107 113.721 19.6107C113.721 19.6107 114.281 19.9984 115.212 20.5271C116.339 21.2193 117.505 21.8454 118.704 22.4023C119.417 22.7118 120.1 23.0229 120.813 23.2783C121.523 23.5415 122.254 23.7421 122.999 23.8777C123.712 24.01 124.439 24.0428 125.161 23.9753C125.852 23.9143 126.522 23.7059 127.127 23.3639C126.661 22.0462 125.519 21.1056 124.189 20.4504Z" fill="#FFCD4F"/>
<path d="M111.292 13.521C113.907 14.8297 117.176 15.8648 119.457 14.4795C118.98 13.2053 117.856 12.3099 116.553 11.6803C115.252 11.0464 113.636 10.7307 112.124 10.5716C110.231 10.385 108.323 10.4005 106.434 10.6181C106.434 10.6181 106.964 11.0252 107.841 11.5889C108.952 12.3024 110.104 12.9477 111.292 13.521Z" fill="#FFCD4F"/>
<path d="M139.891 78.711C141.54 79.0055 143.097 78.5519 144.522 77.6143C145.28 77.1057 145.965 76.4955 146.559 75.8007C147.183 75.0939 147.75 74.3388 148.256 73.5424C149.106 72.1222 149.821 70.6235 150.389 69.0668C150.812 67.8211 151 66.9752 151 66.9752C151 66.9752 150.225 67.3223 149.103 67.9368C148.534 68.2356 147.907 68.6098 147.191 69.032C146.473 69.4588 145.724 69.9394 144.987 70.4625C143.515 71.479 142.194 72.7007 141.063 74.091C141.006 74.1541 140.97 74.2187 140.916 74.2849C141.435 71.8568 141.865 69.4092 142.184 66.9512C143.535 66.8725 144.819 66.3312 145.823 65.417C146.142 65.1396 146.442 64.8404 146.72 64.5216C146.998 64.1992 147.256 63.8588 147.49 63.5027C147.969 62.7773 148.39 62.0153 148.751 61.2235C148.933 60.8269 149.103 60.4256 149.252 60.0425C149.392 59.6594 149.518 59.284 149.64 58.9188C149.87 58.1917 150.051 57.5079 150.189 56.9205C150.357 56.27 150.483 55.6089 150.564 54.9416C150.564 54.9416 149.87 55.322 148.844 55.9709C147.562 56.7631 146.341 57.6521 145.193 58.6305C144.554 59.1812 143.952 59.775 143.392 60.4078C143.156 60.6693 142.938 60.9395 142.73 61.2177C142.849 59.1382 142.877 57.0612 142.813 54.9869C143.787 54.7051 144.669 54.1673 145.369 53.4286C145.922 52.8512 146.399 52.2049 146.789 51.5054C147.174 50.7779 147.499 50.0196 147.761 49.2382C148.029 48.4872 148.237 47.716 148.384 46.9319C148.516 46.182 148.605 45.4835 148.674 44.8811C148.733 44.277 148.769 43.7721 148.781 43.4222C148.789 43.2359 148.787 43.0492 148.775 42.8631C148.775 42.8631 148.632 42.9729 148.357 43.1696C148.098 43.3711 147.713 43.6625 147.254 44.0216C146.125 44.9142 145.061 45.8868 144.069 46.9319C143.798 47.2203 143.532 47.5224 143.279 47.832C143.013 48.1428 142.754 48.46 142.518 48.7874C142.45 48.8733 142.39 48.9647 142.324 49.0533C142.065 47.0605 141.693 45.0841 141.212 43.1336C142.118 42.7786 142.9 42.1624 143.46 41.3621C144.373 40.1722 144.8 38.581 145.035 36.9704C145.092 36.5692 145.146 36.1667 145.169 35.7713C145.175 35.3793 145.175 34.9826 145.163 34.6085C145.139 33.8512 145.086 33.145 145.023 32.5367C144.978 32.0466 144.897 31.5604 144.782 31.0821C144.692 30.7292 144.651 30.5276 144.651 30.5276C144.651 30.5276 144.155 31.0356 143.478 31.8603C142.603 32.89 141.791 33.9733 141.048 35.1042C140.64 35.7437 140.274 36.4087 139.95 37.0951C139.822 37.3474 139.709 37.6 139.604 37.86C138.844 35.7114 137.955 33.6115 136.941 31.572C137.909 31.1317 138.672 30.3342 139.073 29.3439C139.568 28.0878 139.649 26.4741 139.473 24.8981C139.239 23.4606 138.861 22.051 138.343 20.691C137.871 19.5925 137.49 18.8716 137.49 18.8716C137.49 18.8716 137.147 19.4257 136.694 20.3049C136.47 20.7437 136.222 21.2665 135.975 21.8388C135.739 22.4142 135.45 23.062 135.22 23.7291C134.984 24.401 134.796 25.0894 134.66 25.7889C134.591 26.1326 134.544 26.4804 134.519 26.8302C134.513 26.9548 134.501 27.0825 134.489 27.2071C133.079 24.9842 131.512 22.8658 129.801 20.8683C130.253 20.6417 130.649 20.3175 130.961 19.9187C131.319 19.4247 131.547 18.8482 131.626 18.242C131.716 17.5622 131.703 16.8727 131.588 16.1969C131.48 15.4579 131.288 14.7339 131.015 14.0393C130.51 12.7392 129.885 11.4897 129.148 10.3074C128.516 9.35471 128.045 8.74021 128.045 8.74021C127.853 9.20797 127.684 9.68534 127.541 10.1705C127.204 11.2774 126.953 12.4092 126.792 13.5556C126.585 14.887 126.647 16.2468 126.974 17.5537C126.998 17.6484 127.022 17.734 127.052 17.8241C125.047 15.7191 122.849 13.6248 120.443 11.437C122.823 10.0849 122.178 7.25275 120.848 4.67752C120.203 3.52276 119.461 2.42504 118.632 1.3961C117.949 0.540979 117.448 2.61481e-05 117.448 2.61481e-05C117.021 1.51785 116.803 3.08778 116.801 4.66552C116.8 5.95537 117.046 7.23332 117.526 8.42912C117.632 8.67397 117.756 8.91097 117.896 9.13839C117.89 9.13839 117.89 9.13839 117.89 9.13532C115.695 7.18198 111.883 5.16124 111.883 5.16124C127.057 17.9715 138.65 33.4623 140.38 51.223C141 57.6689 140.228 64.1083 139.232 70.5032C138.113 77.7239 136.306 84.9224 132.593 91.6176C126.852 101.962 119.199 110.242 108.779 116.711C108.779 116.711 93.1511 124.611 76.3933 124.783V124.777C75.9877 124.783 75.591 124.78 75.1854 124.78C74.9915 124.78 74.7976 124.78 74.6036 124.777V124.78C58.0516 124.537 42.2124 116.708 42.2124 116.708C31.804 110.239 24.1453 101.962 18.4073 91.6145C14.697 84.9224 12.8897 77.7211 11.7686 70.5031C10.7694 64.1025 9.99704 57.6689 10.6262 51.2171C12.3531 33.4622 23.9395 17.9715 39.1197 5.16122C39.1197 5.16122 35.3084 7.18195 33.1101 9.1353C33.1101 9.1353 33.1101 9.13837 33.1043 9.13837C33.2456 8.91243 33.3683 8.67521 33.4711 8.4291C33.951 7.23299 34.1999 5.95562 34.2047 4.6655C34.1994 3.088 33.9817 1.51852 33.5576 0C33.5576 0 33.0506 0.540956 32.3735 1.39608C31.5413 2.42466 30.7971 3.52238 30.1487 4.6775C28.8215 7.25273 28.1805 10.0849 30.5604 11.437C28.1506 13.6248 25.9584 15.7191 23.9456 17.8241C23.9752 17.7339 23.999 17.6453 24.0259 17.5509C24.3533 16.245 24.4142 14.8858 24.2049 13.5555C24.0442 12.4096 23.796 11.2779 23.4625 10.1704C23.191 9.29438 22.9613 8.74018 22.9613 8.74018C22.9613 8.74018 22.484 9.35468 21.8549 10.3043C21.1182 11.4887 20.4912 12.739 19.9819 14.0393C19.7093 14.7339 19.5171 15.4579 19.4093 16.1969C19.2952 16.8729 19.2831 17.5624 19.3736 18.242C19.452 18.8493 19.6829 19.4264 20.0445 19.9187C20.3543 20.3178 20.7486 20.6422 21.1986 20.8683C19.4886 22.8665 17.922 24.9848 16.5105 27.2071C16.5044 27.0825 16.4925 26.9548 16.4806 26.8301C16.4576 26.4802 16.4108 26.1323 16.3404 25.7889C16.2052 25.089 16.0178 24.4005 15.7797 23.729C15.55 23.0619 15.2639 22.4142 15.0223 21.8388C14.7746 21.2664 14.5273 20.7436 14.3034 20.3018C13.856 19.4257 13.5072 18.8715 13.5072 18.8715C13.5072 18.8715 13.1255 19.5897 12.6601 20.691C12.1448 22.0515 11.7671 23.461 11.5329 24.898C11.3509 26.4741 11.4345 28.0877 11.9235 29.3438C12.3251 30.3335 13.0885 31.13 14.056 31.5689C13.0441 33.6084 12.1567 35.7084 11.3988 37.8569C11.2974 37.6 11.1749 37.3474 11.0497 37.0892C10.7246 36.4049 10.357 35.7419 9.94911 35.1042C9.20957 33.9717 8.39872 32.8882 7.52153 31.8603C6.84447 31.0356 6.34943 30.5276 6.34943 30.5276C6.34943 30.5276 6.3079 30.7291 6.21536 31.0821C6.10096 31.5603 6.02215 32.0465 5.9796 32.5366C5.91424 33.145 5.86049 33.8512 5.84248 34.6084C5.82751 34.9826 5.82174 35.3731 5.83667 35.7713C5.86048 36.1667 5.90813 36.5692 5.96189 36.9704C6.19738 38.581 6.62704 40.1691 7.54535 41.3593C8.10214 42.1601 8.88134 42.7774 9.78511 43.1335C9.30479 45.0841 8.93447 47.0605 8.67592 49.0533C8.61304 48.9646 8.55347 48.8733 8.48783 48.7843C8.24623 48.46 7.98699 48.1427 7.71851 47.832C7.47392 47.5224 7.19965 47.2202 6.92815 46.9288C5.94007 45.882 4.87644 44.9102 3.74596 44.0216C3.29275 43.6594 2.89913 43.3711 2.63954 43.1668C2.37413 42.9729 2.22204 42.8603 2.22204 42.8603C2.22204 42.8603 2.21014 43.0659 2.21593 43.4222C2.23395 43.772 2.27273 44.277 2.33229 44.881C2.39184 45.4835 2.48131 46.182 2.61569 46.9319C2.92971 48.5249 3.46688 50.0648 4.21107 51.5054C4.59903 52.2076 5.07847 52.8544 5.63664 53.4286C6.33471 54.1648 7.21331 54.7024 8.18363 54.9868C8.11797 57.0602 8.154 59.1382 8.27005 61.2146C8.06452 60.9395 7.84067 60.6693 7.60524 60.4047C7.04518 59.773 6.44329 59.1802 5.8037 58.6304C4.65811 57.6501 3.43867 56.7609 2.15638 55.9709C1.13056 55.3188 0.435487 54.9416 0.435487 54.9416C0.518063 55.6081 0.640546 56.2689 0.802266 56.9205C0.948551 57.5079 1.13056 58.1916 1.36606 58.9188C1.47933 59.284 1.60759 59.6594 1.74475 60.0425C1.8968 60.4256 2.07271 60.8238 2.2517 61.2235C2.61283 62.0145 3.03356 62.7765 3.5102 63.5027C3.74649 63.8566 4.00241 64.1967 4.27673 64.5215C4.55467 64.841 4.85571 65.1392 5.17737 65.4139C6.18013 66.3286 7.46276 66.8709 8.81305 66.9512C9.13222 69.4092 9.56157 71.8567 10.0746 74.2849C10.0328 74.2187 9.99095 74.1541 9.94331 74.091C8.80946 72.6997 7.48493 71.4779 6.00953 70.4625C5.27293 69.9394 4.5183 69.4587 3.81162 69.0319C3.09883 68.6098 2.46361 68.2356 1.8968 67.9307C0.772648 67.3192 0 66.9752 0 66.9752C0 66.9752 0.188124 67.8211 0.608683 69.0667C1.18005 70.6226 1.89494 72.121 2.74396 73.5424C3.2536 74.3362 3.82073 75.091 4.44071 75.8007C5.03609 76.4955 5.72237 77.1056 6.48075 77.6143C7.90023 78.5519 9.46017 79.0055 11.1154 78.711C11.1869 79.0206 11.2733 79.3255 11.3509 79.6292C11.9233 81.8115 12.6234 83.9577 13.4477 86.0566C13.2895 85.8991 13.1313 85.7412 12.9704 85.5818C12.6243 85.2726 12.2576 84.9704 11.8758 84.6849C11.4883 84.3919 11.1273 84.1095 10.7217 83.8421C9.91234 83.2956 9.07188 82.7974 8.20469 82.35C7.34565 81.8964 6.45085 81.4921 5.67848 81.1271C4.89422 80.765 4.14845 80.4539 3.5224 80.1957C2.24585 79.6846 1.38984 79.4036 1.38984 79.4036C1.38984 79.4036 1.75084 80.2751 2.41596 81.5342C2.81579 82.262 3.25785 82.9654 3.73984 83.6408C4.2854 84.4407 4.87173 85.2115 5.49646 85.9502C6.19367 86.7126 6.94532 87.4227 7.74538 88.0746C8.12993 88.3925 8.53108 88.6895 8.9471 88.9642C9.15294 89.0947 9.35572 89.2224 9.56156 89.3442C9.7793 89.463 10.0028 89.5725 10.2206 89.6704C11.9116 90.4455 13.6144 90.6831 15.2401 90.1286C16.4245 92.5321 17.7883 94.8415 19.3198 97.037C19.0724 96.8493 18.8159 96.669 18.5444 96.5022C18.1208 96.2376 17.6765 95.9914 17.2114 95.7569C16.7759 95.5104 16.3107 95.2852 15.8395 95.0658C14.8846 94.6326 13.908 94.2494 12.9139 93.9177C12.4185 93.754 11.9296 93.5962 11.4403 93.446C10.9633 93.3032 10.504 93.1577 10.0627 93.0269C9.18286 92.7623 8.35372 92.5401 7.65284 92.3629C6.22727 92.0096 5.29093 91.837 5.29093 91.837C5.29093 91.837 5.8724 92.6887 6.85057 93.9026C7.41862 94.6102 8.03661 95.2756 8.69973 95.8935C9.41832 96.5997 10.2148 97.3268 11.0678 98.018C11.9655 98.691 12.9081 99.301 13.889 99.8436C14.3721 100.108 14.8553 100.349 15.3442 100.559C15.8174 100.775 16.3084 100.95 16.8116 101.082C18.7621 101.606 20.5814 101.562 22.0964 100.69C23.6203 102.607 25.2279 104.536 26.9366 106.426C26.8651 106.396 26.7964 106.366 26.725 106.336C26.4715 106.238 26.2238 106.146 25.9645 106.055C25.705 105.966 25.4634 105.873 25.2069 105.785C24.6999 105.61 24.1752 105.458 23.6384 105.316C22.5735 105.036 21.4643 104.814 20.3755 104.633C19.2633 104.464 18.2552 104.292 17.277 104.168C16.3107 104.043 15.4159 103.948 14.6494 103.879C13.1194 103.743 12.1174 103.708 12.1174 103.708C12.1174 103.708 12.9346 104.488 14.2499 105.565C14.5779 105.833 14.9328 106.122 15.3203 106.423C15.7113 106.716 16.1587 107.002 16.6177 107.303C17.5363 107.897 18.5383 108.499 19.5852 109.058C19.8447 109.197 20.0982 109.336 20.3697 109.464C20.647 109.589 20.9243 109.708 21.2105 109.82C21.7654 110.052 22.3261 110.265 22.8898 110.45C23.9478 110.819 25.0397 111.081 26.1493 111.233C27.927 111.42 29.5343 111.189 30.7782 110.426C32.1738 111.786 33.6293 113.094 35.1471 114.328C34.6878 114.263 34.2227 114.203 33.7515 114.153C32.6032 114.038 31.3954 114.019 30.295 113.971C28.0611 113.901 25.9169 113.999 24.3331 114.111C23.5339 114.165 22.8837 114.224 22.4363 114.272C21.9832 114.315 21.7354 114.339 21.7354 114.339C21.7354 114.339 21.7953 114.382 21.9114 114.461C22.0247 114.536 22.2067 114.643 22.4363 114.774C22.8898 115.049 23.5397 115.423 24.345 115.851C25.1473 116.284 26.0897 116.771 27.1247 117.251C28.1924 117.699 29.3526 118.138 30.5424 118.527C31.1358 118.719 31.7383 118.898 32.3378 119.062C32.6389 119.145 32.9342 119.218 33.2353 119.29C33.5398 119.352 33.8528 119.406 34.1482 119.455C35.3039 119.651 36.4747 119.74 37.6464 119.723C39.1316 119.684 40.4377 119.382 41.4578 118.762C42.0276 119.096 42.6003 119.418 43.1875 119.726C43.2789 119.784 43.3868 119.811 43.4947 119.803C51.3712 124.172 61.1147 126.86 69.1371 127.822C62.7101 129.026 55.1647 130.353 47.1482 131.584L38.4933 139C38.4933 139 57.9622 132.463 76.1279 128.302C94.2875 132.463 113.75 139 113.75 139L105.098 131.584C96.8791 130.323 89.1459 128.959 82.6144 127.73C92.5516 126.593 100.89 123.655 107.577 119.803C107.661 119.795 107.743 119.77 107.818 119.729C108.397 119.418 108.973 119.096 109.539 118.762C110.562 119.382 111.865 119.684 113.35 119.723C114.52 119.742 115.689 119.653 116.843 119.455C117.144 119.406 117.46 119.352 117.762 119.29C118.063 119.218 118.361 119.145 118.662 119.062C119.259 118.898 119.864 118.719 120.455 118.527C121.645 118.138 122.811 117.699 123.875 117.254C124.907 116.771 125.856 116.284 126.655 115.851C127.457 115.423 128.11 115.049 128.569 114.777C128.793 114.643 128.972 114.536 129.094 114.461C129.202 114.382 129.265 114.339 129.265 114.339C129.265 114.339 129.023 114.316 128.569 114.272C128.116 114.224 127.463 114.165 126.667 114.111C125.083 113.999 122.945 113.904 120.708 113.971C119.611 114.019 118.403 114.038 117.255 114.156C116.783 114.203 116.318 114.263 115.853 114.331C117.368 113.094 118.823 111.786 120.225 110.428C121.466 111.189 123.07 111.42 124.848 111.233C125.959 111.082 127.052 110.82 128.11 110.45C128.671 110.265 129.232 110.052 129.79 109.82C130.073 109.708 130.35 109.589 130.627 109.467C130.902 109.336 131.155 109.197 131.421 109.058C132.459 108.499 133.461 107.897 134.379 107.303C134.839 107.002 135.286 106.716 135.68 106.423C136.064 106.122 136.428 105.833 136.753 105.565C138.071 104.488 138.88 103.708 138.88 103.708C138.88 103.708 137.883 103.743 136.356 103.879C135.581 103.948 134.69 104.043 133.723 104.168C132.748 104.292 131.74 104.464 130.627 104.633C129.536 104.814 128.429 105.036 127.362 105.316C126.828 105.458 126.303 105.613 125.796 105.785C125.537 105.873 125.295 105.966 125.035 106.058C124.782 106.146 124.528 106.241 124.281 106.339C124.209 106.364 124.138 106.393 124.069 106.426C125.772 104.536 127.38 102.607 128.907 100.689C130.419 101.562 132.235 101.606 134.188 101.082C134.693 100.949 135.185 100.775 135.662 100.562C136.145 100.349 136.634 100.108 137.111 99.8436C138.093 99.303 139.036 98.693 139.932 98.018C140.776 97.3268 141.582 96.6028 142.306 95.8935C142.966 95.274 143.582 94.6088 144.149 93.9026C145.128 92.6918 145.712 91.837 145.712 91.837C145.712 91.837 144.77 92.0127 143.35 92.3629C142.643 92.5401 141.817 92.7623 140.935 93.0269C140.493 93.1577 140.034 93.3032 139.557 93.446C139.073 93.5962 138.578 93.754 138.083 93.9208C137.09 94.2516 136.115 94.6338 135.16 95.0658C134.69 95.2852 134.23 95.5104 133.789 95.7569C133.329 95.9914 132.882 96.2375 132.453 96.5022C132.181 96.6717 131.928 96.8493 131.68 97.037C133.216 94.8451 134.58 92.5352 135.757 90.1286C137.382 90.6831 139.091 90.4455 140.776 89.6732C140.994 89.5725 141.218 89.4658 141.435 89.3442C141.647 89.2254 141.847 89.0977 142.053 88.9642C142.461 88.6953 142.867 88.3946 143.261 88.0746C144.057 87.4206 144.807 86.7117 145.506 85.953C146.131 85.2133 146.718 84.4427 147.266 83.6439C147.744 82.9656 148.185 82.2613 148.587 81.5342C149.246 80.2751 149.61 79.4037 149.61 79.4037C149.61 79.4037 148.751 79.6846 147.484 80.1957C146.848 80.4539 146.106 80.765 145.327 81.1271C144.546 81.4921 143.654 81.8995 142.801 82.35C141.933 82.7974 141.092 83.2956 140.281 83.8421C139.879 84.1095 139.509 84.3919 139.127 84.6849C138.747 84.9658 138.383 85.2673 138.036 85.588C137.866 85.7443 137.707 85.8991 137.558 86.0567C138.38 83.9568 139.08 81.8107 139.655 79.6292C139.732 79.3255 139.81 79.0206 139.891 78.711Z" fill="#FFCD4F"/>
</g>
<defs>
<clipPath id="clip0_480_1806">
<rect width="151" height="139" fill="white"/>
</clipPath>
</defs>
</svg>
