<svg preserveAspectRatio="none" viewBox="0 0 686 778" fill="none" xmlns="http://www.w3.org/2000/svg">
<path d="M14 756.455V717.329L0 691V756.455H14Z" fill="#FCF00D"/>
<path d="M7 83.0139L33 39.6713H184.5H239L250 18H343.5H437L447 39.6713H653L682 83.5557V397.79V680.6L663 711.482V741.28H634H600L587 762.409H346H101L88.5 742.364H47.5H24.5V709.315L7 678.433V83.0139Z" fill="#232222"/>
<path d="M593.21 778H96.86L83.34 756.458H3V751.259H84.59L98.12 772.8H591.97L605.73 751.259H686V756.458H606.97L593.21 778Z" fill="#FCF00D"/>
<path d="M652.72 25.1254H454.55L445.17 5.1997H244.75L235.37 25.1254H34.8398V19.9257H233.85L243.23 0H446.7L456.08 19.9257H652.72V25.1254Z" fill="#FCF00D"/>
<path d="M667.1 53.8604H667L654.61 32.9313H448.22L439 13.0317H244L234.74 32.9704H28.36L16 53.8604H15.93L0 80.719V678.541L18.47 711.668V743.453H83.47L97 764.968H586L599.52 743.414H664.52V711.668L683 678.541V80.719L667.1 53.8604ZM676.69 563.757L669.12 584.608V686.777L658.34 707.628V722.133L658.28 722.289V733.118H597L583.47 754.673H99.47L86 733.053H24.72V722.224L24.66 722.067V707.628L13.88 686.777V584.555L6.31 563.705V205.173L13.07 189.535V95.1322L23.86 74.2813V55.3591L30.98 43.3177H237.7L247.09 23.4572H435.91L445.3 43.3829H652L659.12 55.4243V74.2813L669.91 95.1322V189.626L676.67 205.264L676.69 563.757Z" fill="#FCF00D"/>
<path d="M671.551 753.852V714.405L686.001 688.224V753.852H671.551Z" fill="#FCF00D"/>
</svg>
