<svg width="683" height="778" viewBox="0 0 683 778" fill="none" xmlns="http://www.w3.org/2000/svg">
<g clip-path="url(#clip0_507_3149)">
<path d="M590.21 778H93.86L80.34 756.458H0V751.259H81.59L95.12 772.8H588.97L602.73 751.259H683V756.458H603.97L590.21 778Z" fill="#CDCDD5"/>
<path d="M649.72 25.1254H451.55L442.17 5.1997H241.75L232.37 25.1254H31.8398V19.9257H230.85L240.23 0H443.7L453.08 19.9257H649.72V25.1254Z" fill="#CDCDD5"/>
<path d="M667.1 53.8604H667L654.61 32.9313H448.22L439 13.0317H244L234.74 32.9704H28.36L16 53.8604H15.93L0 80.719V678.541L18.47 711.668V743.453H83.47L97 764.968H586L599.52 743.413H664.52V711.668L683 678.541V80.719L667.1 53.8604ZM676.69 563.757L669.12 584.608V686.777L658.34 707.628V722.132L658.28 722.289V733.118H597L583.47 754.673H99.47L86 733.053H24.72V722.224L24.66 722.067V707.628L13.88 686.777V584.555L6.31 563.705V205.173L13.07 189.535V95.1322L23.86 74.2813V55.3591L30.98 43.3177H237.7L247.09 23.4572H435.91L445.3 43.3829H652L659.12 55.4243V74.2813L669.91 95.1322V189.626L676.67 205.264L676.69 563.757Z" fill="#CDCDD5"/>
<path d="M14.45 753.852V714.405L0 688.224V753.852H14.45Z" fill="#CDCDD5"/>
<path d="M668.551 753.852V714.405L683.001 688.224V753.852H668.551Z" fill="#CDCDD5"/>
<path d="M8 82.0139L34 38.6713H185.5H240L251 17H344.5H438L448 38.6713H654L683 82.5557V396.79V679.6L664 710.482V740.28H635H601L588 761.409H347H102L89.5 741.364H48.5H25.5V708.315L8 677.433V82.0139Z" fill="#232222"/>
</g>
<defs>
<clipPath id="clip0_507_3149">
<rect width="683" height="778" fill="white"/>
</clipPath>
</defs>
</svg>
