<svg width="467" height="172" viewBox="0 0 467 172" fill="none" xmlns="http://www.w3.org/2000/svg">
<path d="M277.63 34.8372C277.621 34.8771 277.61 34.9164 277.597 34.955C277.642 35.2481 277.662 35.5446 277.654 35.841C277.618 36.6765 277.365 37.4884 276.919 38.1975V38.1975C276.81 38.362 276.692 38.5194 276.563 38.6687V38.6687C276.309 38.9701 276.019 39.2392 275.699 39.4699L275.652 39.5029C275.512 39.6022 275.366 39.6935 275.215 39.7763L275.14 39.8139C274.805 39.9918 274.45 40.1279 274.082 40.2193L273.939 40.2522C273.797 40.2805 273.655 40.3041 273.512 40.3229H273.351C273.156 40.3229 272.967 40.3465 272.767 40.3229C272.292 40.305 271.822 40.2177 271.373 40.0637C270.61 39.7992 269.928 39.3442 269.394 38.7425C268.859 38.1408 268.489 37.4126 268.32 36.6279C268.15 35.8432 268.186 35.0283 268.425 34.2616C268.664 33.4949 269.098 32.8022 269.684 32.2499C269.783 32.1556 269.888 32.0661 269.997 31.9765C270.106 31.887 270.234 31.7927 270.362 31.7079L270.433 31.6372C270.433 31.6372 274.622 17.527 271.382 14.7936H271.344C270.523 14.1291 268.811 14.2092 266.747 14.6805C262.518 15.016 258.441 16.3963 254.887 18.6958L254.498 18.9503C254.251 19.12 254.023 19.2755 253.838 19.4216C253.259 19.841 252.927 20.1238 252.832 20.2086L252.761 20.2416C252.761 20.2416 252.761 20.2887 252.733 20.3641C252.786 20.644 252.814 20.9278 252.818 21.2124C252.818 21.2124 252.818 21.2407 252.818 21.2549C252.816 21.4837 252.797 21.7122 252.761 21.9382C252.674 22.5316 252.472 23.1028 252.168 23.6207V23.6207C252.064 23.7937 251.95 23.9605 251.827 24.1203C251.584 24.4313 251.303 24.7115 250.992 24.9544L250.949 24.9874C250.811 25.0911 250.669 25.1853 250.522 25.2749L250.446 25.3173C250.117 25.5059 249.767 25.6547 249.402 25.7603L249.26 25.798C249.122 25.831 248.98 25.8593 248.838 25.8829L248.676 25.9064C248.488 25.9308 248.297 25.9434 248.107 25.9441H247.889L247.505 25.9158H247.381C247.248 25.8923 247.116 25.8687 246.987 25.8357H246.93L246.817 25.8074C246.451 25.7019 246.099 25.5531 245.768 25.3644L245.692 25.322C245.545 25.2325 245.403 25.1382 245.265 25.0345L245.223 25.0016C244.911 24.7586 244.63 24.4785 244.388 24.1674V24.1674C244.265 24.0095 244.153 23.8443 244.051 23.6725C243.6 22.904 243.377 22.0244 243.408 21.1354C243.439 20.2464 243.723 19.3842 244.226 18.6487L244.25 18.6204C244.335 18.499 244.427 18.3826 244.525 18.2716C244.562 18.2255 244.602 18.1814 244.644 18.1397C244.724 18.0501 244.815 17.9606 244.905 17.8758L244.985 17.8004C245.116 17.684 245.254 17.5754 245.398 17.4752C245.398 17.4752 245.422 17.4422 245.431 17.4328L245.46 17.3998C245.46 17.3998 245.963 15.2743 243.045 10.0101C242.627 9.26073 242.144 8.44541 241.574 7.5594C241.479 7.41801 241.389 7.27664 241.294 7.13997C240.17 5.38892 238.815 3.79452 237.267 2.39887L237.181 2.32346C236.328 1.56273 235.37 0.927846 234.335 0.438333C234.188 0.372354 234.055 0.32051 233.931 0.273382C233.74 0.197075 233.543 0.134088 233.343 0.0848719C233.253 0.0596268 233.161 0.040731 233.068 0.0283203H232.997H232.921C232.828 0.040731 232.736 0.0596268 232.646 0.0848719C232.445 0.134088 232.249 0.197075 232.057 0.273382C231.934 0.32051 231.801 0.372354 231.654 0.438333C230.619 0.926755 229.66 1.56173 228.808 2.32346L228.717 2.39887C227.17 3.79576 225.816 5.38997 224.69 7.13997C224.595 7.27664 224.505 7.41801 224.41 7.5594C223.84 8.44541 223.357 9.26073 222.939 10.0101C220.021 15.2743 220.524 17.3998 220.524 17.3998L220.553 17.4328L220.586 17.4752C220.73 17.5754 220.868 17.684 220.999 17.8004L221.079 17.8758C221.169 17.9606 221.26 18.0501 221.34 18.1397C221.382 18.1814 221.422 18.2255 221.459 18.2716C221.557 18.3826 221.649 18.499 221.734 18.6204L221.758 18.6487C222.261 19.3842 222.545 20.2464 222.576 21.1354C222.607 22.0244 222.384 22.904 221.933 23.6725C221.831 23.8443 221.719 24.0095 221.596 24.1674V24.1674C221.354 24.4785 221.073 24.7586 220.761 25.0016L220.719 25.0345C220.581 25.1382 220.439 25.2325 220.292 25.322L220.216 25.3644C219.887 25.5523 219.536 25.701 219.172 25.8074L219.054 25.8357H219.001C218.868 25.8687 218.736 25.8923 218.603 25.9158H218.479L218.095 25.9441H217.877C217.687 25.9434 217.496 25.9308 217.308 25.9064L217.146 25.8829C217.004 25.8593 216.866 25.831 216.724 25.798L216.582 25.7603C216.217 25.6547 215.867 25.5059 215.538 25.3173L215.467 25.2749C215.318 25.1873 215.173 25.0913 215.035 24.9874L214.992 24.9544C214.681 24.7115 214.4 24.4313 214.158 24.1203V24.1203C214.034 23.9605 213.92 23.7937 213.816 23.6207V23.6207C213.512 23.1028 213.31 22.5316 213.223 21.9382C213.188 21.712 213.171 21.4836 213.171 21.2549V21.2124C213.175 20.9278 213.203 20.644 213.256 20.3641C213.256 20.2887 213.228 20.2416 213.228 20.2416L213.156 20.2086C213.062 20.1238 212.729 19.841 212.151 19.4216C211.956 19.2802 211.738 19.1247 211.491 18.9503L211.102 18.6958C209.299 17.527 204.261 15.7267 200.191 14.9255C197.705 14.2516 195.589 14.0348 194.645 14.8077C191.362 17.4893 195.593 31.6702 195.593 31.6702L195.665 31.7409C195.793 31.8257 195.911 31.9153 196.03 32.0095C196.148 32.1038 196.243 32.1886 196.343 32.2829C196.931 32.8373 197.365 33.5327 197.604 34.3022C197.843 35.0717 197.878 35.8893 197.706 36.6763C197.535 37.4633 197.162 38.1931 196.624 38.7955C196.086 39.3979 195.401 39.8525 194.635 40.1156C194.185 40.2695 193.716 40.3569 193.24 40.3748C193.041 40.3748 192.851 40.3748 192.657 40.3748H192.495C192.353 40.3748 192.211 40.3324 192.073 40.3041L191.926 40.2711C191.558 40.1797 191.203 40.0436 190.868 39.8658L190.792 39.8281C190.642 39.7453 190.496 39.654 190.356 39.5547L190.308 39.5218C189.988 39.2911 189.698 39.022 189.445 38.7206V38.7206C189.316 38.5712 189.197 38.4138 189.089 38.2493V38.2493C188.764 37.7441 188.542 37.1805 188.434 36.5904C188.393 36.3661 188.366 36.1394 188.354 35.9117V35.9117C188.346 35.6153 188.365 35.3188 188.411 35.0257L188.377 34.9079C188.377 34.9079 180.564 28.3477 169.609 30.1197L170.506 32.2923L182.552 61.4081H283.456L295.502 32.231L296.398 30.0584C285.444 28.277 277.63 34.8372 277.63 34.8372Z" fill="url(#paint0_linear_477_1547)"/>
<g style="mix-blend-mode:overlay">
<path d="M252.833 21.2784C252.833 21.4056 252.833 21.5329 252.833 21.6554H252.861C252.956 21.5706 253.288 21.2878 253.867 20.8684C254.062 20.727 254.28 20.5714 254.527 20.3971L254.916 20.1379C258.47 17.8383 262.547 16.458 266.776 16.1225C268.84 15.6513 270.571 15.5711 271.373 16.2356H271.411V16.2592C272.213 16.9331 272.555 18.2999 272.626 19.9776C272.711 17.6731 272.426 15.7031 271.411 14.8454H271.373C270.552 14.1808 268.84 14.261 266.776 14.7323C262.547 15.0678 258.47 16.4481 254.916 18.7476L254.527 19.0021C254.28 19.1717 254.052 19.3273 253.867 19.4733C253.288 19.8928 252.956 20.1756 252.861 20.2604L252.79 20.2934C252.79 20.2934 252.79 20.3405 252.762 20.4159C252.815 20.6957 252.843 20.9796 252.847 21.2642C252.847 21.2642 252.833 21.2642 252.833 21.2784Z" fill="white"/>
<path d="M245.236 24.9781C244.924 24.7351 244.644 24.455 244.401 24.1439V24.1439C244.278 23.9861 244.166 23.8208 244.064 23.6491V23.6491C243.762 23.1337 243.56 22.566 243.471 21.976C243.433 22.2145 243.414 22.4556 243.414 22.6971C243.414 23.5263 243.638 24.3402 244.064 25.0535C244.165 25.2259 244.277 25.3913 244.401 25.5483V25.5483C244.644 25.8594 244.924 26.1396 245.236 26.3825L245.279 26.4155C245.416 26.5192 245.558 26.6134 245.706 26.703L245.781 26.7454C246.111 26.936 246.463 27.0849 246.83 27.1884L246.944 27.2167H247.001C247.13 27.2506 247.262 27.2773 247.394 27.2968H247.518L247.902 27.3251H248.12C248.311 27.3244 248.501 27.3118 248.69 27.2874L248.851 27.2638C248.993 27.2402 249.136 27.212 249.273 27.179L249.415 27.1413C249.781 27.0377 250.131 26.8889 250.459 26.6983L250.535 26.6558C250.682 26.5663 250.825 26.472 250.962 26.3684L251.005 26.3354C251.318 26.0937 251.598 25.8134 251.84 25.5012V25.5012C251.963 25.3414 252.077 25.1746 252.181 25.0016V25.0016C252.486 24.4841 252.688 23.9128 252.774 23.3192C252.81 23.0947 252.829 22.8678 252.831 22.6405C252.831 22.6405 252.831 22.6075 252.831 22.5934C252.829 22.3723 252.81 22.1518 252.774 21.9336C252.686 22.5188 252.487 23.0818 252.186 23.5925V23.5925C252.082 23.7655 251.968 23.9323 251.845 24.0921V24.0921C251.602 24.4031 251.321 24.6833 251.01 24.9262L250.967 24.9592C250.829 25.0629 250.687 25.1572 250.54 25.2467L250.464 25.2891C250.135 25.4777 249.785 25.6265 249.42 25.7321L249.278 25.7698C249.14 25.8028 248.998 25.8311 248.856 25.8547L248.694 25.8782C248.506 25.9027 248.315 25.9153 248.125 25.9159H247.907L247.523 25.8877H247.399C247.266 25.8641 247.134 25.8405 247.005 25.8075H246.949L246.835 25.7793C246.469 25.6737 246.117 25.5249 245.786 25.3363L245.71 25.2938C245.563 25.2043 245.421 25.11 245.283 25.0064L245.236 24.9781Z" fill="white"/>
<path d="M269.484 38.8853C268.838 38.1952 268.415 37.3284 268.269 36.397C268.246 36.5713 268.227 36.7504 268.217 36.9342C268.185 37.9328 268.474 38.9155 269.041 39.7406C269.608 40.5656 270.424 41.1903 271.372 41.5245C271.822 41.6785 272.292 41.7658 272.767 41.7837C272.961 41.7956 273.156 41.7956 273.35 41.7837H273.512L273.939 41.713L274.081 41.68C274.449 41.5903 274.804 41.4558 275.139 41.2795L275.215 41.237C275.366 41.1542 275.511 41.063 275.651 40.9637L275.699 40.9307C276.019 40.7 276.309 40.4309 276.562 40.1295V40.1295C276.691 39.9802 276.81 39.8228 276.918 39.6583V39.6583C277.364 38.9492 277.618 38.1373 277.653 37.3018V37.3018C277.661 37.0101 277.642 36.7183 277.597 36.43C277.597 36.4818 277.597 36.5336 277.597 36.5855C277.489 37.1756 277.267 37.7392 276.942 38.2444V38.2444C276.834 38.4089 276.715 38.5664 276.586 38.7157V38.7157C276.333 39.0171 276.043 39.2862 275.723 39.5169L275.675 39.5499C275.535 39.6491 275.389 39.7404 275.239 39.8232L275.163 39.8609C274.828 40.0387 274.473 40.1748 274.105 40.2662L273.962 40.2992C273.82 40.3275 273.678 40.351 273.535 40.3699H273.374C273.18 40.3699 272.99 40.3934 272.791 40.3699C272.315 40.352 271.845 40.2646 271.396 40.1107C270.667 39.8634 270.011 39.4427 269.484 38.8853V38.8853Z" fill="white"/>
<path d="M277.658 35.855C277.65 36.0208 277.633 36.186 277.606 36.3499C277.606 36.2886 277.635 36.2462 277.635 36.2462C277.635 36.2462 285.188 29.9122 295.853 31.3826L296.403 30.0488C285.448 28.2768 277.635 34.8371 277.635 34.8371C277.626 34.8769 277.615 34.9163 277.602 34.9549C277.647 35.248 277.666 35.5445 277.658 35.8409V35.855Z" fill="white"/>
<path d="M213.18 22.6453V22.6925C213.18 22.9196 213.198 23.1465 213.232 23.3711C213.318 23.9647 213.52 24.536 213.825 25.0536V25.0536C213.929 25.2265 214.043 25.3933 214.166 25.5531C214.408 25.8653 214.689 26.1456 215.001 26.3873L215.044 26.4203C215.182 26.5242 215.327 26.6202 215.476 26.7078L215.547 26.7502C215.875 26.9408 216.226 27.0897 216.591 27.1932L216.733 27.2309C216.875 27.2639 217.013 27.2922 217.155 27.3157L217.317 27.3393C217.505 27.3637 217.696 27.3763 217.886 27.377H218.104L218.488 27.3487H218.612C218.746 27.3288 218.879 27.3021 219.01 27.2686H219.062L219.181 27.2403C219.546 27.1359 219.897 26.9871 220.225 26.7973L220.301 26.7549C220.448 26.6654 220.59 26.5711 220.728 26.4674L220.77 26.4344C221.082 26.1915 221.363 25.9113 221.605 25.6003V25.6003C221.729 25.4432 221.842 25.2779 221.942 25.1054C222.368 24.3921 222.592 23.5782 222.592 22.749C222.592 22.5077 222.574 22.2668 222.54 22.0279C222.448 22.6179 222.245 23.1854 221.942 23.701V23.701C221.84 23.8727 221.728 24.038 221.605 24.1958V24.1958C221.363 24.5069 221.082 24.7871 220.77 25.03L220.728 25.063C220.59 25.1667 220.448 25.2609 220.301 25.3505L220.225 25.3929C219.896 25.5807 219.545 25.7294 219.181 25.8359L219.062 25.8642H219.01C218.877 25.8972 218.745 25.9207 218.612 25.9443H218.488L218.104 25.9726H217.886C217.696 25.9719 217.505 25.9593 217.317 25.9349L217.155 25.9113C217.013 25.8877 216.875 25.8595 216.733 25.8265L216.591 25.7888C216.226 25.6831 215.876 25.5344 215.547 25.3458L215.476 25.3033C215.327 25.2157 215.182 25.1198 215.044 25.0159L215.001 24.9829C214.69 24.7399 214.409 24.4598 214.166 24.1487V24.1487C214.043 23.9889 213.929 23.8221 213.825 23.6492V23.6492C213.524 23.1385 213.325 22.5754 213.237 21.9902C213.203 22.2071 213.184 22.426 213.18 22.6453V22.6453Z" fill="white"/>
<path d="M194.636 16.2355C195.585 15.4626 197.696 15.6841 200.182 16.3534C204.257 17.164 209.295 18.969 211.093 20.1236L211.482 20.3828C211.729 20.5478 211.957 20.7033 212.142 20.8541C212.721 21.2735 213.053 21.5563 213.148 21.6412H213.181C213.174 21.5156 213.174 21.3897 213.181 21.2641V21.2217C213.185 20.937 213.213 20.6532 213.266 20.3734C213.266 20.298 213.238 20.2509 213.238 20.2509L213.167 20.2179C213.072 20.1331 212.74 19.8503 212.161 19.4308C211.966 19.2895 211.748 19.1339 211.501 18.9596L211.112 18.7051C209.31 17.5363 204.271 15.736 200.201 14.9348C197.715 14.2609 195.599 14.0441 194.655 14.817C193.62 15.6606 193.331 17.6447 193.416 19.954C193.483 18.2762 193.834 16.9001 194.636 16.2355Z" fill="white"/>
<path d="M188.353 37.2504C188.366 37.4781 188.393 37.7047 188.434 37.929C188.541 38.5191 188.764 39.0827 189.089 39.5879V39.5879C189.197 39.7525 189.316 39.9099 189.445 40.0592C189.698 40.3606 189.988 40.6297 190.308 40.8604L190.356 40.8934C190.496 40.9927 190.641 41.0839 190.792 41.1667L190.868 41.2091C191.203 41.3855 191.558 41.52 191.926 41.6097L192.073 41.6427C192.211 41.671 192.353 41.6946 192.495 41.7134H192.656C192.851 41.7253 193.046 41.7253 193.24 41.7134C193.715 41.6955 194.185 41.6082 194.635 41.4542C195.583 41.12 196.399 40.4953 196.966 39.6702C197.533 38.8452 197.821 37.8624 197.79 36.8639C197.782 36.684 197.765 36.5047 197.738 36.3267C197.606 37.1669 197.248 37.9561 196.702 38.6107C196.156 39.2653 195.442 39.761 194.635 40.0451C194.185 40.199 193.715 40.2864 193.24 40.3043C193.041 40.3043 192.851 40.3043 192.656 40.3043H192.495C192.353 40.3043 192.211 40.2619 192.073 40.2336L191.926 40.2006C191.558 40.1092 191.202 39.9731 190.868 39.7953L190.792 39.7576C190.641 39.6748 190.496 39.5835 190.356 39.4843L190.308 39.4513C189.988 39.2206 189.698 38.9515 189.445 38.6501V38.6501C189.316 38.5008 189.197 38.3433 189.089 38.1788V38.1788C188.764 37.6736 188.541 37.11 188.434 36.5199C188.434 36.468 188.434 36.4162 188.41 36.3644C188.364 36.6573 188.345 36.9539 188.353 37.2504V37.2504Z" fill="white"/>
<path d="M220.567 17.4045C220.752 16.2404 221.311 14.2893 222.939 11.3673C223.356 10.618 223.84 9.80267 224.409 8.91666C224.504 8.77528 224.594 8.6339 224.689 8.49723C225.815 6.74724 227.17 5.15301 228.717 3.75612L228.807 3.68073C229.659 2.919 230.618 2.28402 231.654 1.7956C231.801 1.72962 231.934 1.67777 232.057 1.63065C232.249 1.5565 232.446 1.49356 232.645 1.44214C232.736 1.41689 232.828 1.39798 232.92 1.38557H232.996H233.068C233.16 1.39798 233.252 1.41689 233.343 1.44214C233.542 1.49356 233.739 1.5565 233.931 1.63065C234.054 1.67777 234.187 1.72962 234.334 1.7956C235.369 2.28511 236.328 2.91999 237.181 3.68073L237.266 3.75612C238.815 5.15177 240.169 6.74618 241.294 8.49723C241.389 8.6339 241.479 8.77528 241.574 8.91666C242.143 9.80267 242.627 10.618 243.045 11.3673C244.667 14.2893 245.227 16.2404 245.417 17.4045L245.445 17.3715C245.445 17.3715 245.948 15.246 243.03 9.98177C242.613 9.23243 242.129 8.4171 241.56 7.53109C241.465 7.38971 241.375 7.24833 241.28 7.11166C240.155 5.36061 238.801 3.76622 237.252 2.37056L237.167 2.29516C236.314 1.53442 235.355 0.89954 234.32 0.410028C234.173 0.344048 234.04 0.292204 233.917 0.245076C233.725 0.168769 233.529 0.105782 233.328 0.0565659C233.238 0.0313209 233.146 0.0124107 233.053 0H232.982H232.906C232.813 0.0124107 232.721 0.0313209 232.631 0.0565659C232.431 0.105782 232.234 0.168769 232.043 0.245076C231.919 0.292204 231.787 0.344048 231.64 0.410028C230.604 0.898449 229.645 1.53343 228.793 2.29516L228.703 2.37056C227.156 3.76746 225.801 5.36167 224.675 7.11166C224.58 7.24833 224.49 7.38971 224.395 7.53109C223.826 8.4171 223.342 9.23243 222.924 9.98177C220.007 15.246 220.51 17.3715 220.51 17.3715L220.567 17.4045Z" fill="white"/>
<path d="M188.377 36.2462C188.377 36.2462 188.377 36.2886 188.406 36.3499C188.382 36.185 188.363 36.02 188.354 35.8551C188.346 35.5586 188.365 35.2621 188.411 34.9691L188.377 34.8512C188.377 34.8512 180.564 28.291 169.609 30.063L170.16 31.3967C180.825 29.9122 188.377 36.2462 188.377 36.2462Z" fill="white"/>
</g>
<g style="mix-blend-mode:overlay" opacity="0.59">
<path d="M233.096 0.00927734H233.025H232.949C232.856 0.0216881 232.764 0.0405838 232.674 0.0658289C232.474 0.115045 232.277 0.178032 232.086 0.254339C231.963 0.301467 231.83 0.353311 231.683 0.41929C230.647 0.907712 229.688 1.54269 228.836 2.30442L228.746 2.37983C227.199 3.77672 225.844 5.37093 224.718 7.12092C224.623 7.25759 224.533 7.39897 224.438 7.54036C223.869 8.42637 223.385 9.24169 222.967 9.99103C220.05 15.2552 220.553 17.3807 220.553 17.3807L220.581 17.4137L220.614 17.4561C220.758 17.5564 220.896 17.6649 221.027 17.7813L221.108 17.8567C221.198 17.9416 221.288 18.0311 221.369 18.1206C221.411 18.1624 221.45 18.2064 221.487 18.2526C221.586 18.3635 221.678 18.48 221.762 18.6013L221.786 18.6296C222.29 19.3652 222.573 20.2274 222.605 21.1164C222.636 22.0054 222.413 22.885 221.962 23.6535C221.86 23.8252 221.747 23.9905 221.625 24.1483V24.1483C221.382 24.4594 221.102 24.7396 220.79 24.9825L220.747 25.0155C220.61 25.1192 220.467 25.2134 220.32 25.303L220.244 25.3454C219.915 25.5332 219.565 25.6819 219.201 25.7884L219.082 25.8167H219.03C218.897 25.8497 218.764 25.8732 218.631 25.8968H218.508L218.124 25.9251H217.905C217.715 25.9244 217.525 25.9118 217.336 25.8874L217.175 25.8638C217.032 25.8402 216.895 25.812 216.753 25.779L216.61 25.7413C216.246 25.6356 215.895 25.4869 215.567 25.2983L215.495 25.2559C215.346 25.1683 215.202 25.0723 215.064 24.9684L215.021 24.9354C214.709 24.6924 214.429 24.4123 214.186 24.1012V24.1012C214.062 23.9414 213.948 23.7746 213.844 23.6017V23.6017C213.54 23.0838 213.339 22.5126 213.251 21.9192C213.217 21.693 213.199 21.4646 213.199 21.2358V21.1934C213.203 20.9087 213.232 20.6249 213.285 20.3451C213.285 20.2697 213.256 20.2226 213.256 20.2226L213.185 20.1896C213.09 20.1047 212.758 19.822 212.179 19.4025C211.985 19.2611 211.766 19.1056 211.52 18.9313L211.131 18.6768C209.328 17.508 204.29 15.7077 200.219 14.9065C197.733 14.2326 195.617 14.0158 194.673 14.7887C191.39 17.4703 195.622 31.6511 195.622 31.6511L195.693 31.7219C195.821 31.8067 195.94 31.8962 196.058 31.9905C196.177 32.0847 196.272 32.1696 196.371 32.2638C196.963 32.8198 197.4 33.5184 197.64 34.2918C197.88 35.0653 197.914 35.8871 197.739 36.6775C197.564 37.4679 197.187 38.1999 196.643 38.8023C196.099 39.4048 195.407 39.8571 194.635 40.1154C194.185 40.2693 193.716 40.3567 193.24 40.3746C193.041 40.3746 192.851 40.3746 192.657 40.3746H192.495C192.353 40.3746 192.211 40.3322 192.073 40.3039L191.926 40.2709C191.558 40.1796 191.203 40.0434 190.868 39.8656L190.792 39.8279C190.642 39.7451 190.496 39.6538 190.356 39.5546L190.308 39.5216C189.988 39.2909 189.698 39.0218 189.445 38.7204V38.7204C189.316 38.5711 189.197 38.4136 189.089 38.2491V38.2491C188.764 37.7439 188.542 37.1803 188.434 36.5902C188.393 36.3659 188.366 36.1392 188.354 35.9115V35.9115C188.346 35.6151 188.365 35.3186 188.411 35.0255L188.377 34.9077C188.377 34.9077 180.564 28.3475 169.609 30.1195L170.506 32.2921L182.552 61.4079H233.096V0.00927734Z" fill="white"/>
</g>
<path d="M399.448 66.9127C399.306 66.9127 399.182 66.743 399.05 66.6582C398.623 67.761 398.234 68.8968 397.892 70.0797C395.046 79.9531 395.771 90.9387 399.244 100.982C423.44 101.302 439.499 96.2264 446.027 90.4297C456.312 81.2915 459.311 71.8329 459.311 71.8329C459.311 71.8329 439.209 72.5021 399.448 66.9127Z" fill="url(#paint1_linear_477_1547)"/>
<g style="mix-blend-mode:overlay" opacity="0.4">
<path d="M399.449 66.9127C399.307 66.9127 399.183 66.743 399.051 66.6582C398.624 67.761 398.235 68.8968 397.893 70.0797C396.554 74.8496 395.975 79.7982 396.176 84.746C431.283 102.919 459.321 71.8329 459.321 71.8329C459.321 71.8329 441.027 72.5728 399.449 66.9127Z" fill="white"/>
</g>
<path d="M369.337 91.2732C369.161 91.2261 369.028 91.0234 368.862 90.9009C368.207 92.1498 367.595 93.4458 367.04 94.8125C362.401 106.199 362.059 119.545 365.252 132.246C395.321 136.889 415.892 133.608 424.664 127.779C438.493 118.589 443.299 107.73 443.299 107.73C443.299 107.73 418.202 105.002 369.337 91.2732Z" fill="url(#paint2_linear_477_1547)"/>
<g style="mix-blend-mode:overlay" opacity="0.4">
<path d="M369.336 91.2732C369.16 91.2261 369.027 91.0234 368.861 90.9009C368.207 92.1498 367.595 93.4458 367.04 94.8125C364.824 100.351 363.542 106.213 363.244 112.165C404.922 140.216 443.288 107.73 443.288 107.73C443.288 107.73 420.459 105.402 369.336 91.2732Z" fill="white"/>
</g>
<path d="M337.774 119.503C337.598 119.437 337.48 119.225 337.328 119.083C336.578 120.233 335.862 121.44 335.198 122.712C329.661 133.349 328.319 146.418 330.591 159.26C360.598 167.347 381.606 166.546 390.895 161.834C405.54 154.434 411.205 144.33 411.205 144.33C411.205 144.33 386.065 138.741 337.774 119.503Z" fill="url(#paint3_linear_477_1547)"/>
<g style="mix-blend-mode:overlay" opacity="0.4">
<path d="M337.774 119.503C337.599 119.437 337.48 119.225 337.328 119.083C336.579 120.233 335.862 121.44 335.198 122.712C332.544 127.911 330.814 133.527 330.084 139.311C370.049 171.745 411.21 144.34 411.21 144.34C411.21 144.34 388.31 139.372 337.774 119.503Z" fill="white"/>
</g>
<path d="M465.739 20.7412C465.739 20.7412 459.571 53.731 417.609 59.1507C375.646 64.5704 345.165 67.2473 314.085 85.1325C283.006 103.018 284.13 167.96 305.47 170.755C332.91 174.341 357.182 138.656 390.178 120.012C435.594 94.3555 458.807 63.1943 463.03 47.4016C467.252 31.609 465.739 20.7412 465.739 20.7412Z" fill="url(#paint4_linear_477_1547)"/>
<g style="mix-blend-mode:overlay" opacity="0.59">
<path d="M417.613 59.1507C375.665 64.5657 345.169 67.2473 314.09 85.1325C297.11 94.9116 294.819 116.119 299.738 133.741C329.741 94.4922 376.338 95.906 419.207 79.2179C463.959 61.7805 465.738 20.7412 465.738 20.7412C465.738 20.7412 459.561 53.7357 417.613 59.1507Z" fill="white"/>
</g>
<path d="M395.984 83.5064C343.456 97.2679 327.724 105.039 315.684 115.648C303.643 126.256 299.738 133.745 299.738 133.745C299.738 133.745 319.934 109.408 351.45 100.557C382.966 91.7067 410.971 86.9892 427.414 77.474C443.858 67.9588 457.687 52.2793 461.824 40.3841C465.961 28.489 465.738 20.7646 465.738 20.7646C465.738 20.7646 461.146 39.2012 446.918 48.1885C432.69 57.1759 420.716 58.7735 420.716 58.7735C427.102 59.584 433.586 58.4328 439.294 55.4746C448.683 50.4743 448.512 69.7261 395.984 83.5064Z" fill="white"/>
<path d="M417.708 9.68945C417.708 9.68945 412.395 32.6362 382.805 35.1811C353.215 37.726 331.776 38.6922 309.445 50.3045C287.114 61.9169 298.154 101.731 313.032 104.337C332.156 107.674 338.043 89.1288 361.736 77.0404C394.352 60.4088 411.55 39.2577 415.004 28.3145C418.458 17.3713 417.708 9.68945 417.708 9.68945Z" fill="url(#paint5_linear_477_1547)"/>
<g style="mix-blend-mode:overlay" opacity="0.59">
<path d="M382.806 35.1813C353.235 37.7215 331.777 38.6924 309.446 50.3047C297.239 56.6576 295.005 71.437 297.922 83.9543C320.14 57.3363 352.761 59.7162 383.318 49.2962C415.218 38.419 417.709 9.7085 417.709 9.7085C417.709 9.7085 412.396 32.6364 382.806 35.1813Z" fill="white"/>
</g>
<path d="M366.912 51.61C329.67 59.7019 318.407 64.6692 309.645 71.7432C300.882 78.8171 297.922 83.9541 297.922 83.9541C297.922 83.9541 312.814 67.4969 335.188 62.2327C357.561 56.9685 377.288 54.499 389.148 48.3016C401.009 42.1042 411.133 31.5428 414.392 23.3236C417.652 15.1045 417.713 9.68945 417.713 9.68945C417.713 9.68945 413.918 22.4753 403.694 28.3522C393.47 34.2291 385.002 34.9926 385.002 34.9926C389.456 35.7469 394.036 35.1268 398.124 33.2158C404.856 30.0253 404.154 43.5134 366.912 51.61Z" fill="white"/>
<path d="M446.022 71.5503L459.306 71.8331C459.306 71.8331 454.657 80.6649 442.132 85.6464C429.607 90.6278 420.783 90.3969 420.783 90.3969C420.783 90.3969 446.075 82.6301 449.841 78.1435C453.608 73.6569 446.022 71.5503 446.022 71.5503Z" fill="white"/>
<path d="M429.9 105.751L443.308 107.716C443.308 107.716 438.174 117.396 420.146 122.095C407.123 125.493 390.391 122.943 390.391 122.943C390.391 122.943 421.441 123.815 435.423 112.872C439.863 109.403 429.9 105.751 429.9 105.751Z" fill="white"/>
<path d="M396.384 140.272L411.205 144.34C411.205 144.34 402.4 153.294 377.659 155.269C364.123 156.343 354.578 152.502 354.578 152.502C354.578 152.502 380.671 158.577 401.494 148.204C406.428 145.744 396.384 140.272 396.384 140.272Z" fill="white"/>
<path d="M66.5656 66.9127C66.7079 66.9127 66.8265 66.743 66.9593 66.6582C67.3863 67.761 67.7753 68.8968 68.1169 70.0797C70.9635 79.9531 70.2376 90.9387 66.7648 100.982C42.5693 101.302 26.5102 96.2264 19.9869 90.4297C9.69672 81.2915 6.70312 71.8329 6.70312 71.8329C6.70312 71.8329 26.7996 72.5021 66.5656 66.9127Z" fill="url(#paint6_linear_477_1547)"/>
<g style="mix-blend-mode:overlay" opacity="0.4">
<path d="M66.5661 66.9127C66.7085 66.9127 66.8271 66.743 66.9599 66.6582C67.3869 67.761 67.7759 68.8968 68.1175 70.0797C69.4564 74.8496 70.0359 79.7982 69.8349 84.746C34.7135 102.923 6.68945 71.8187 6.68945 71.8187C6.68945 71.8187 24.9831 72.5728 66.5661 66.9127Z" fill="white"/>
</g>
<path d="M96.6732 91.2732C96.8487 91.2261 96.9815 91.0234 97.1476 90.9009C97.8023 92.1498 98.4143 93.4458 98.9694 94.8125C103.614 106.199 103.956 119.545 100.758 132.246C70.6891 136.889 50.1182 133.608 41.3462 127.779C27.5168 118.589 22.7109 107.73 22.7109 107.73C22.7109 107.73 47.8078 105.002 96.6732 91.2732Z" fill="url(#paint7_linear_477_1547)"/>
<g style="mix-blend-mode:overlay" opacity="0.4">
<path d="M96.6735 91.2732C96.849 91.2261 96.9818 91.0234 97.1479 90.9009C97.8026 92.1498 98.4146 93.4458 98.9696 94.8125C101.185 100.351 102.467 106.213 102.765 112.165C61.0871 140.216 22.7207 107.73 22.7207 107.73C22.7207 107.73 45.5546 105.402 96.6735 91.2732Z" fill="white"/>
</g>
<path d="M128.217 119.503C128.392 119.437 128.511 119.225 128.663 119.083C129.412 120.233 130.129 121.44 130.793 122.712C136.329 133.349 137.672 146.418 135.399 159.26C105.411 167.347 84.4038 166.546 75.1147 161.834C60.4693 154.434 54.8047 144.33 54.8047 144.33C54.8047 144.33 79.9443 138.741 128.217 119.503Z" fill="url(#paint8_linear_477_1547)"/>
<g style="mix-blend-mode:overlay" opacity="0.4">
<path d="M128.216 119.503C128.392 119.437 128.51 119.225 128.662 119.083C129.412 120.233 130.128 121.44 130.792 122.712C133.446 127.912 135.177 133.527 135.911 139.311C95.9412 171.745 54.7852 144.34 54.7852 144.34C54.7852 144.34 77.6997 139.372 128.216 119.503Z" fill="white"/>
</g>
<path d="M0.270345 20.7412C0.270345 20.7412 6.43782 53.731 48.4003 59.1507C90.3629 64.5704 120.844 67.2473 151.938 85.1325C183.032 103.018 181.879 167.96 160.539 170.755C133.099 174.341 108.827 138.656 75.8314 120.012C30.4151 94.3555 7.20164 63.1943 2.9698 47.4016C-1.26203 31.609 0.270345 20.7412 0.270345 20.7412Z" fill="url(#paint9_linear_477_1547)"/>
<g style="mix-blend-mode:overlay" opacity="0.59">
<path d="M48.3995 59.1507C90.3478 64.5657 120.844 67.2473 151.923 85.1325C168.917 94.9116 171.189 116.119 166.269 133.741C136.281 94.4922 89.6789 95.906 46.8055 79.2179C2.05335 61.7805 0.269531 20.7412 0.269531 20.7412C0.269531 20.7412 6.45124 53.7357 48.3995 59.1507Z" fill="white"/>
</g>
<path d="M70.0252 83.5066C122.553 97.268 138.29 105.039 150.326 115.648C162.362 126.257 166.271 133.745 166.271 133.745C166.271 133.745 146.075 109.408 114.559 100.558C83.0433 91.7069 55.0714 86.9941 38.609 77.4648C22.1466 67.9354 8.33624 52.27 4.19929 40.3748C0.0623367 28.4797 0.285314 20.7554 0.285314 20.7554C0.285314 20.7554 4.86822 39.1778 19.1009 48.1651C33.3335 57.1525 45.3079 58.7501 45.3079 58.7501C38.9197 59.5603 32.435 58.4091 26.7248 55.4512C17.3265 50.4744 17.4973 69.7263 70.0252 83.5066Z" fill="white"/>
<path d="M48.3011 9.68945C48.3011 9.68945 53.6288 32.6362 83.2042 35.1811C112.78 37.726 134.238 38.6922 156.564 50.3045C178.89 61.9169 167.855 101.731 152.977 104.323C133.853 107.66 127.966 89.1146 104.273 77.0262C71.6568 60.3947 54.4591 39.2436 51.0053 28.3004C47.5515 17.3572 48.3011 9.68945 48.3011 9.68945Z" fill="url(#paint10_linear_477_1547)"/>
<g style="mix-blend-mode:overlay" opacity="0.59">
<path d="M83.2039 35.1813C112.775 37.7215 134.233 38.6924 156.564 50.3047C168.77 56.6576 171.005 71.437 168.087 83.9543C145.87 57.3363 113.249 59.7162 82.6916 49.2962C50.7915 38.419 48.3008 9.7085 48.3008 9.7085C48.3008 9.7085 53.6285 32.6364 83.2039 35.1813Z" fill="white"/>
</g>
<path d="M99.0979 51.61C136.34 59.7019 147.607 64.6692 156.365 71.7432C165.123 78.8171 168.069 83.9541 168.069 83.9541C168.069 83.9541 153.177 67.4969 130.803 62.2327C108.43 56.9685 88.6938 54.499 76.8618 48.3016C65.0297 42.1042 54.8771 31.5428 51.6178 23.3236C48.3585 15.1045 48.2969 9.68945 48.2969 9.68945C48.2969 9.68945 52.0922 22.4753 62.3208 28.3522C72.5493 34.2291 81.0082 34.9926 81.0082 34.9926C76.5541 35.7469 71.9742 35.1268 67.8857 33.2158C61.1537 30.0253 61.8558 43.5134 99.0979 51.61Z" fill="white"/>
<path d="M19.9869 71.5503L6.70312 71.8331C6.70312 71.8331 11.3524 80.6649 23.8772 85.6464C36.4019 90.6278 45.2261 90.3969 45.2261 90.3969C45.2261 90.3969 19.9347 82.6301 16.1678 78.1435C12.4009 73.6569 19.9869 71.5503 19.9869 71.5503Z" fill="white"/>
<path d="M36.1083 105.751L22.7012 107.716C22.7012 107.716 27.8344 117.396 45.8624 122.095C58.8853 125.493 75.6228 122.943 75.6228 122.943C75.6228 122.943 44.5672 123.815 30.5861 112.872C26.1502 109.403 36.1083 105.751 36.1083 105.751Z" fill="white"/>
<path d="M69.6256 140.272L54.8047 144.34C54.8047 144.34 63.6099 153.294 88.351 155.269C101.886 156.343 111.432 152.502 111.432 152.502C111.432 152.502 85.3384 158.577 64.5161 148.204C59.5821 145.744 69.6256 140.272 69.6256 140.272Z" fill="white"/>
<path d="M317.592 51.002H148.603L105.436 85.5611V135.074L148.646 169.614H317.549L360.755 135.074V85.5611L317.592 51.002Z" fill="url(#paint11_linear_477_1547)"/>
<path d="M317.036 159.076H149.162L115.094 129.73V89.5152L149.162 60.1685H317.036L351.104 89.5152V129.73L317.036 159.076ZM151.145 151.729H315.048L343.698 125.488V93.7567L315.048 67.5157H151.145L122.495 93.7567V125.488L151.145 151.729Z" fill="#EA8D00"/>
<path d="M317.026 60.1543H316.908V68.5714L343.698 93.7426V125.469L315.043 151.71H151.145L129.853 129.692H115.094V129.716L149.162 159.058H317.026L351.094 129.716V89.501L317.026 60.1543Z" fill="url(#paint12_linear_477_1547)"/>
<path d="M316.035 64.5278H150.154L118.795 92.3241V128.292L150.154 156.089H316.035L347.399 128.292V92.3241L316.035 64.5278Z" fill="#1E1C1C"/>
<g style="mix-blend-mode:multiply" opacity="0.68">
<path d="M121.139 93.6155L152.503 65.824H318.384L347.399 92.2724V91.5701L316.035 63.7739H150.154L118.795 91.5701V127.543L121.139 128.886V93.6155Z" fill="#B30503"/>
</g>
<g style="mix-blend-mode:overlay" opacity="0.51">
<path d="M105.436 85.5611L115.095 89.5198L149.163 60.1731L148.603 51.002L105.436 85.5611Z" fill="white"/>
</g>
<g style="mix-blend-mode:multiply">
<path d="M148.645 169.614L149.162 159.058H317.026L317.548 169.614H148.645Z" fill="#E57D00"/>
</g>
<g style="mix-blend-mode:multiply" opacity="0.2">
<path d="M360.755 85.561L351.096 89.501V129.715L360.755 135.074V85.561Z" fill="#E57D00"/>
</g>
<g style="mix-blend-mode:multiply" opacity="0.5">
<path d="M360.755 135.074L317.549 169.615L317.027 159.058L351.096 129.716L360.755 135.074Z" fill="#E57D00"/>
</g>
<g style="mix-blend-mode:overlay">
<path d="M360.754 85.5611L350.094 88.1814L317.676 59.3861L317.591 51.002L316.135 58.9289H150.12L148.602 51.002L148.171 59.2353L114.577 88.3888L105.439 85.5611L115.094 90.321V89.5198L149.812 60.1731L317.026 60.1543L349.244 89.567V128.028L315.176 157.375H147.312L116.057 129.64H115.094V129.664L149.162 159.01H317.026L351.095 129.664V90.354L360.754 85.5611Z" fill="white"/>
</g>
<path d="M104.268 85.9336V98.842L119.117 94.4449L104.268 85.9336Z" fill="#EA8D00"/>
<path d="M104.268 85.9335L115.545 79.5146L119.084 94.5014L104.268 85.9335Z" fill="url(#paint13_linear_477_1547)"/>
<path d="M104.268 85.9336L104.604 85.7451L119.084 94.5015L104.268 86.3154V85.9336Z" fill="#F7FF88"/>
<path d="M361.742 85.9336V98.842L346.893 94.4449L361.742 85.9336Z" fill="#EA8D00"/>
<path d="M361.742 85.9335L350.465 79.5146L346.926 94.5014L361.742 85.9335Z" fill="url(#paint14_linear_477_1547)"/>
<path d="M361.742 85.9336L361.4 85.7451L346.926 94.5015L361.742 86.3154V85.9336Z" fill="#F7FF88"/>
<path d="M361.742 134.999V122.09L346.893 126.487L361.742 134.999Z" fill="url(#paint15_linear_477_1547)"/>
<path d="M361.742 134.999L350.465 141.417L346.926 126.431L361.742 134.999Z" fill="#EA8D00"/>
<path d="M361.742 134.999L361.4 135.187L346.926 126.431L361.742 134.617V134.999Z" fill="#F7FF88"/>
<path d="M104.268 134.999V122.09L119.117 126.487L104.268 134.999Z" fill="url(#paint16_linear_477_1547)"/>
<path d="M104.268 134.999L115.545 141.417L119.084 126.431L104.268 134.999Z" fill="#EA8D00"/>
<path d="M104.268 134.999L104.604 135.187L119.084 126.431L104.268 134.617V134.999Z" fill="#F7FF88"/>
<defs>
<linearGradient id="paint0_linear_477_1547" x1="169.609" y1="30.6711" x2="296.398" y2="30.6711" gradientUnits="userSpaceOnUse">
<stop stop-color="#E57D00"/>
<stop offset="1" stop-color="#FDE403"/>
</linearGradient>
<linearGradient id="paint1_linear_477_1547" x1="427.88" y1="86.2876" x2="464.785" y2="90.0734" gradientUnits="userSpaceOnUse">
<stop stop-color="#E57D00"/>
<stop offset="1" stop-color="#FDE403"/>
</linearGradient>
<linearGradient id="paint2_linear_477_1547" x1="388.201" y1="115.792" x2="432.745" y2="127.649" gradientUnits="userSpaceOnUse">
<stop stop-color="#E57D00"/>
<stop offset="1" stop-color="#FDE403"/>
</linearGradient>
<linearGradient id="paint3_linear_477_1547" x1="359.299" y1="146.662" x2="396.533" y2="163.483" gradientUnits="userSpaceOnUse">
<stop stop-color="#E57D00"/>
<stop offset="1" stop-color="#FDE403"/>
</linearGradient>
<linearGradient id="paint4_linear_477_1547" x1="264.88" y1="120.859" x2="437.579" y2="85.5891" gradientUnits="userSpaceOnUse">
<stop stop-color="#E57D00"/>
<stop offset="1" stop-color="#FDE403"/>
</linearGradient>
<linearGradient id="paint5_linear_477_1547" x1="282.448" y1="70.7683" x2="397.393" y2="52.4206" gradientUnits="userSpaceOnUse">
<stop stop-color="#E57D00"/>
<stop offset="1" stop-color="#FDE403"/>
</linearGradient>
<linearGradient id="paint6_linear_477_1547" x1="41.7406" y1="56.5151" x2="4.81782" y2="60.1192" gradientUnits="userSpaceOnUse">
<stop stop-color="#E57D00"/>
<stop offset="1" stop-color="#FDE403"/>
</linearGradient>
<linearGradient id="paint7_linear_477_1547" x1="81.2716" y1="86.206" x2="36.6682" y2="97.8488" gradientUnits="userSpaceOnUse">
<stop stop-color="#E57D00"/>
<stop offset="1" stop-color="#FDE403"/>
</linearGradient>
<linearGradient id="paint8_linear_477_1547" x1="110.024" y1="117.222" x2="72.7087" y2="133.856" gradientUnits="userSpaceOnUse">
<stop stop-color="#E57D00"/>
<stop offset="1" stop-color="#FDE403"/>
</linearGradient>
<linearGradient id="paint9_linear_477_1547" x1="183.859" y1="121.764" x2="10.653" y2="86.4465" gradientUnits="userSpaceOnUse">
<stop stop-color="#E57D00"/>
<stop offset="1" stop-color="#FDE403"/>
</linearGradient>
<linearGradient id="paint10_linear_477_1547" x1="200.935" y1="53.5804" x2="86.3624" y2="34.9387" gradientUnits="userSpaceOnUse">
<stop stop-color="#E57D00"/>
<stop offset="1" stop-color="#FDE403"/>
</linearGradient>
<linearGradient id="paint11_linear_477_1547" x1="240.427" y1="165.745" x2="213.914" y2="-37.4419" gradientUnits="userSpaceOnUse">
<stop stop-color="#E57D00"/>
<stop offset="1" stop-color="#FDE403"/>
</linearGradient>
<linearGradient id="paint12_linear_477_1547" x1="115.094" y1="109.606" x2="351.094" y2="109.606" gradientUnits="userSpaceOnUse">
<stop offset="0.25" stop-color="#FDE403"/>
<stop offset="1" stop-color="#EA8D00"/>
</linearGradient>
<linearGradient id="paint13_linear_477_1547" x1="111.835" y1="90.0195" x2="120.899" y2="78.7818" gradientUnits="userSpaceOnUse">
<stop offset="0.25" stop-color="#FDE403"/>
<stop offset="1" stop-color="#EA8D00"/>
</linearGradient>
<linearGradient id="paint14_linear_477_1547" x1="354.175" y1="90.0195" x2="345.111" y2="78.7771" gradientUnits="userSpaceOnUse">
<stop offset="0.25" stop-color="#FDE403"/>
<stop offset="1" stop-color="#EA8D00"/>
</linearGradient>
<linearGradient id="paint15_linear_477_1547" x1="349.53" y1="120.865" x2="366.267" y2="132.993" gradientUnits="userSpaceOnUse">
<stop offset="0.25" stop-color="#FDE403"/>
<stop offset="1" stop-color="#EA8D00"/>
</linearGradient>
<linearGradient id="paint16_linear_477_1547" x1="113.742" y1="122.807" x2="97.1614" y2="134.934" gradientUnits="userSpaceOnUse">
<stop offset="0.25" stop-color="#FDE403"/>
<stop offset="1" stop-color="#EA8D00"/>
</linearGradient>
</defs>
</svg>
