<svg width="38" height="38" viewBox="0 0 38 38" fill="none" xmlns="http://www.w3.org/2000/svg">
<path d="M20.1875 13.0625H13.0625C12.1177 13.0625 11.2115 13.4378 10.5434 14.1059C9.87533 14.774 9.5 15.6802 9.5 16.625V21.375H11.875V16.625C11.875 16.3101 12.0001 16.008 12.2228 15.7853C12.4455 15.5626 12.7476 15.4375 13.0625 15.4375H20.1875C20.5024 15.4375 20.8045 15.5626 21.0272 15.7853C21.2499 16.008 21.375 16.3101 21.375 16.625V17.8125H23.75V16.625C23.75 15.6802 23.3747 14.774 22.7066 14.1059C22.0385 13.4378 21.1323 13.0625 20.1875 13.0625ZM11.875 7.125C11.875 8.06446 12.1536 8.98282 12.6755 9.76396C13.1975 10.5451 13.9393 11.1539 14.8073 11.5134C15.6752 11.8729 16.6303 11.967 17.5517 11.7837C18.4731 11.6005 19.3195 11.1481 19.9838 10.4838C20.6481 9.81946 21.1005 8.97309 21.2837 8.05168C21.467 7.13027 21.3729 6.1752 21.0134 5.30725C20.6539 4.4393 20.0451 3.69746 19.264 3.17552C18.4828 2.65358 17.5645 2.375 16.625 2.375C15.3652 2.375 14.157 2.87545 13.2662 3.76624C12.3754 4.65704 11.875 5.86522 11.875 7.125ZM19 7.125C19 7.59473 18.8607 8.05391 18.5997 8.44448C18.3388 8.83505 17.9678 9.13946 17.5339 9.31921C17.0999 9.49897 16.6224 9.54601 16.1617 9.45437C15.701 9.36273 15.2778 9.13653 14.9456 8.80438C14.6135 8.47223 14.3873 8.04904 14.2956 7.58834C14.204 7.12763 14.251 6.6501 14.4308 6.21613C14.6105 5.78215 14.915 5.41123 15.3055 5.15026C15.6961 4.88929 16.1553 4.75 16.625 4.75C17.2549 4.75 17.859 5.00022 18.3044 5.44562C18.7498 5.89102 19 6.49511 19 7.125ZM26.125 32.0625H19C18.3703 32.0619 17.7666 31.8114 17.3213 31.3662C16.8761 30.9209 16.6256 30.3172 16.625 29.6875V22.5625C16.6256 21.9328 16.8761 21.3291 17.3213 20.8838C17.7666 20.4386 18.3703 20.1881 19 20.1875H26.125C26.7547 20.1881 27.3584 20.4386 27.8037 20.8838C28.2489 21.3291 28.4994 21.9328 28.5 22.5625V29.6875C28.4994 30.3172 28.2489 30.9209 27.8037 31.3662C27.3584 31.8114 26.7547 32.0619 26.125 32.0625ZM19 22.5625V29.6875H26.125V22.5625H19ZM9.5 35.625H4.75C4.1203 35.6244 3.51658 35.3739 3.07132 34.9287C2.62605 34.4834 2.37563 33.8797 2.375 33.25V4.75C2.37563 4.1203 2.62605 3.51658 3.07132 3.07132C3.51658 2.62605 4.1203 2.37563 4.75 2.375H9.5V4.75H4.75V33.25H9.5V35.625ZM33.25 35.625H28.5V33.25H33.25V4.75H28.5V2.375H33.25C33.8797 2.37563 34.4834 2.62605 34.9287 3.07132C35.3739 3.51658 35.6244 4.1203 35.625 4.75V33.25C35.6244 33.8797 35.3739 34.4834 34.9287 34.9287C34.4834 35.3739 33.8797 35.6244 33.25 35.625Z" fill="#FDCF1D"/>
</svg>
