<svg width="38" height="38" viewBox="0 0 38 38" fill="none" xmlns="http://www.w3.org/2000/svg">
<path d="M5.69141 13.2962C5.69408 14.6787 6.19814 16.0133 7.11008 17.0525C8.02202 18.0916 9.27992 18.7646 10.6504 18.9468C11.0367 20.6884 11.9577 22.2657 13.2846 23.4581C14.6116 24.6505 16.278 25.3982 18.0509 25.5968V28.4392H14.2566C13.2488 28.4392 12.2822 28.8395 11.5696 29.5522C10.857 30.2648 10.4566 31.2313 10.4566 32.2392V33.1892C10.4566 33.4411 10.5567 33.6828 10.7349 33.8609C10.913 34.0391 11.1547 34.1392 11.4066 34.1392H26.6066C26.8586 34.1392 27.1002 34.0391 27.2784 33.8609C27.4565 33.6828 27.5566 33.4411 27.5566 33.1892V32.2392C27.5566 31.2313 27.1562 30.2648 26.4436 29.5522C25.731 28.8395 24.7644 28.4392 23.7566 28.4392H19.9509V25.5987C21.7232 25.3999 23.389 24.6522 24.7156 23.4602C26.0421 22.2683 26.963 20.6916 27.3495 18.9506C28.7172 18.7687 29.9723 18.0962 30.8814 17.0582C31.7904 16.0202 32.2915 14.6873 32.2914 13.3076V10.45C32.2914 9.69411 31.9911 8.9692 31.4567 8.43472C30.9222 7.90024 30.1973 7.59997 29.4414 7.59997H27.5509C27.5499 6.59281 27.1491 5.62724 26.4366 4.91542C25.724 4.20361 24.7581 3.80377 23.7509 3.80377H14.2509C13.2434 3.80327 12.277 4.20288 11.564 4.91475C10.8511 5.62662 10.45 6.59248 10.449 7.59997H8.54141C7.78554 7.59997 7.06063 7.90024 6.52615 8.43472C5.99167 8.9692 5.69141 9.69411 5.69141 10.45V13.2962ZM8.54141 9.49997H10.4509V16.9746C9.63457 16.764 8.91108 16.2888 8.39366 15.6232C7.87625 14.9576 7.59411 14.1392 7.59141 13.2962V10.45C7.59141 10.198 7.69149 9.95638 7.86965 9.77822C8.04781 9.60006 8.28945 9.49997 8.54141 9.49997ZM27.5509 9.49997H29.4414C29.6934 9.49997 29.935 9.60006 30.1132 9.77822C30.2913 9.95638 30.3914 10.198 30.3914 10.45V13.3095C30.3914 15.0746 29.1849 16.5585 27.5509 16.9803V9.49997ZM25.6509 7.60377V17.1C25.6567 18.8418 24.9788 20.5163 23.763 21.7637C22.5472 23.011 20.8906 23.7315 19.1492 23.7703C17.4078 23.8091 15.7207 23.1632 14.4505 21.9713C13.1803 20.7794 12.4285 19.1367 12.3566 17.3964V7.59997H12.3509C12.3519 7.09672 12.5525 6.61442 12.9087 6.25893C13.265 5.90343 13.7477 5.70377 14.2509 5.70377H23.7509C24.2548 5.70377 24.7381 5.90395 25.0944 6.26027C25.4507 6.61659 25.6509 7.09986 25.6509 7.60377ZM12.3566 32.2392C12.3566 31.7353 12.5568 31.252 12.9131 30.8957C13.2694 30.5393 13.7527 30.3392 14.2566 30.3392H23.7566C24.2605 30.3392 24.7438 30.5393 25.1001 30.8957C25.4564 31.252 25.6566 31.7353 25.6566 32.2392H12.3566Z" fill="#FDCF1D"/>
</svg>
