<svg width="32" height="24" viewBox="0 0 32 24" fill="none" xmlns="http://www.w3.org/2000/svg">
<path d="M2 24C2 24 0 24 0 22C0 20 2 14 12 14C22 14 24 20 24 22C24 24 22 24 22 24H2ZM12 12C13.5913 12 15.1174 11.3679 16.2426 10.2426C17.3679 9.11742 18 7.5913 18 6C18 4.4087 17.3679 2.88258 16.2426 1.75736C15.1174 0.632141 13.5913 0 12 0C10.4087 0 8.88258 0.632141 7.75736 1.75736C6.63214 2.88258 6 4.4087 6 6C6 7.5913 6.63214 9.11742 7.75736 10.2426C8.88258 11.3679 10.4087 12 12 12V12Z" fill="#FDCF1D"/>
<path fill-rule="evenodd" clip-rule="evenodd" d="M27 6C27.2652 6 27.5196 6.10536 27.7071 6.29289C27.8946 6.48043 28 6.73478 28 7V10H31C31.2652 10 31.5196 10.1054 31.7071 10.2929C31.8946 10.4804 32 10.7348 32 11C32 11.2652 31.8946 11.5196 31.7071 11.7071C31.5196 11.8946 31.2652 12 31 12H28V15C28 15.2652 27.8946 15.5196 27.7071 15.7071C27.5196 15.8946 27.2652 16 27 16C26.7348 16 26.4804 15.8946 26.2929 15.7071C26.1054 15.5196 26 15.2652 26 15V12H23C22.7348 12 22.4804 11.8946 22.2929 11.7071C22.1054 11.5196 22 11.2652 22 11C22 10.7348 22.1054 10.4804 22.2929 10.2929C22.4804 10.1054 22.7348 10 23 10H26V7C26 6.73478 26.1054 6.48043 26.2929 6.29289C26.4804 6.10536 26.7348 6 27 6Z" fill="#FDCF1D"/>
</svg>
