<svg width="38" height="38" viewBox="0 0 38 38" fill="none" xmlns="http://www.w3.org/2000/svg">
<path d="M19.0013 3.16669C10.2566 3.16669 3.16797 10.2553 3.16797 19C3.16797 27.7448 10.2566 34.8334 19.0013 34.8334C27.7461 34.8334 34.8346 27.7448 34.8346 19C34.8346 10.2553 27.7461 3.16669 19.0013 3.16669Z" stroke="#FDCF1D" stroke-width="1.5" stroke-linecap="round" stroke-linejoin="round"/>
<path d="M6.76562 29.0478C6.76562 29.0478 10.2949 24.5417 19.0032 24.5417C27.7115 24.5417 31.2424 29.0478 31.2424 29.0478M19.0032 19C20.263 19 21.4712 18.4996 22.362 17.6088C23.2528 16.718 23.7532 15.5098 23.7532 14.25C23.7532 12.9902 23.2528 11.782 22.362 10.8912C21.4712 10.0004 20.263 9.5 19.0032 9.5C17.7434 9.5 16.5352 10.0004 15.6445 10.8912C14.7537 11.782 14.2532 12.9902 14.2532 14.25C14.2532 15.5098 14.7537 16.718 15.6445 17.6088C16.5352 18.4996 17.7434 19 19.0032 19V19Z" stroke="#FDCF1D" stroke-width="1.5" stroke-linecap="round" stroke-linejoin="round"/>
</svg>
