<svg width="38" height="38" viewBox="0 0 38 38" fill="none" xmlns="http://www.w3.org/2000/svg">
<path d="M18.9983 12.8929C18.1963 12.8929 17.4022 13.0508 16.6612 13.3577C15.9203 13.6647 15.247 14.1145 14.6799 14.6816C14.1128 15.2487 13.663 15.922 13.356 16.6629C13.0491 17.4039 12.8912 18.198 12.8912 19C12.8912 19.802 13.0491 20.5962 13.356 21.3371C13.663 22.0781 14.1128 22.7513 14.6799 23.3184C15.247 23.8855 15.9203 24.3354 16.6612 24.6423C17.4022 24.9492 18.1963 25.1072 18.9983 25.1072C20.618 25.1072 22.1714 24.4637 23.3167 23.3184C24.462 22.1731 25.1055 20.6197 25.1055 19C25.1055 17.3803 24.462 15.8269 23.3167 14.6816C22.1714 13.5363 20.618 12.8929 18.9983 12.8929ZM14.9269 19C14.9269 18.4653 15.0322 17.9359 15.2368 17.4419C15.4414 16.948 15.7413 16.4991 16.1194 16.1211C16.4974 15.743 16.9463 15.4431 17.4402 15.2385C17.9342 15.0339 18.4636 14.9286 18.9983 14.9286C19.533 14.9286 20.0624 15.0339 20.5564 15.2385C21.0503 15.4431 21.4992 15.743 21.8772 16.1211C22.2553 16.4991 22.5552 16.948 22.7598 17.4419C22.9644 17.9359 23.0697 18.4653 23.0697 19C23.0697 20.0798 22.6408 21.1154 21.8772 21.8789C21.1137 22.6425 20.0781 23.0714 18.9983 23.0714C17.9185 23.0714 16.8829 22.6425 16.1194 21.8789C15.3558 21.1154 14.9269 20.0798 14.9269 19ZM29.4619 30.3932L27.1167 29.3631C26.783 29.2181 26.4199 29.1532 26.0565 29.1734C25.6932 29.1937 25.3396 29.2986 25.024 29.4799C24.3902 29.8463 23.9858 30.4937 23.9057 31.2224L23.6235 33.7739C23.595 34.0303 23.4881 34.2716 23.3173 34.465C23.1466 34.6583 22.9203 34.7942 22.6694 34.8541C20.2549 35.4297 17.739 35.4297 15.3245 34.8541C15.0739 34.794 14.8479 34.658 14.6774 34.4646C14.5069 34.2713 14.4002 34.0301 14.3718 33.7739L14.0895 31.2265C14.049 30.868 13.925 30.524 13.7275 30.2221C13.53 29.9202 13.2645 29.6688 12.9522 29.488C12.6403 29.3076 12.2904 29.2031 11.9307 29.1828C11.5709 29.1625 11.2114 29.2271 10.8812 29.3713L8.5361 30.4014C8.29903 30.5055 8.03544 30.5334 7.78184 30.4811C7.52823 30.4288 7.29715 30.299 7.1206 30.1096C5.43267 28.3008 4.17662 26.133 3.44681 23.769C3.37007 23.5205 3.37248 23.2544 3.45369 23.0073C3.5349 22.7603 3.6909 22.5446 3.9001 22.3902L5.97245 20.8593C6.2642 20.645 6.50141 20.365 6.66491 20.042C6.8284 19.719 6.91359 19.362 6.91359 19C6.91359 18.638 6.8284 18.281 6.66491 17.9581C6.50141 17.6351 6.2642 17.3551 5.97245 17.1407L3.9001 15.6139C3.69063 15.4594 3.53445 15.2435 3.45323 14.9962C3.37201 14.7488 3.36976 14.4824 3.44681 14.2337C4.17813 11.8718 5.4351 9.70637 7.12331 7.89994C7.30003 7.71076 7.53118 7.58118 7.78478 7.52915C8.03838 7.47712 8.30188 7.5052 8.53881 7.60951L10.8731 8.63687C11.2052 8.77981 11.5662 8.84303 11.9272 8.82145C12.2881 8.79987 12.639 8.6941 12.9518 8.5126C13.2645 8.33111 13.5304 8.07892 13.7282 7.77623C13.926 7.47353 14.0502 7.12874 14.0909 6.76944L14.3759 4.22072C14.4046 3.96144 14.5135 3.71759 14.6875 3.5232C14.8614 3.3288 15.0917 3.19357 15.3462 3.13637C16.5419 2.87037 17.762 2.72922 19.016 2.71429C20.2401 2.72787 21.4588 2.87037 22.6531 3.13637C22.9079 3.19346 23.1385 3.32884 23.3125 3.52354C23.4865 3.71823 23.5952 3.96249 23.6235 4.22208L23.9071 6.77079C23.9683 7.33601 24.2358 7.85879 24.6586 8.23894C25.0813 8.6191 25.6294 8.82989 26.198 8.83094C26.5142 8.83094 26.8277 8.76444 27.1208 8.63551L29.4551 7.60815C29.692 7.50384 29.9555 7.47576 30.2091 7.52779C30.4627 7.57982 30.6939 7.7094 30.8706 7.89858C32.5584 9.7051 33.8149 11.8706 34.5457 14.2324C34.6226 14.4807 34.6204 14.7468 34.5395 14.9938C34.4585 15.2408 34.3028 15.4566 34.0938 15.6112L32.0242 17.1407C31.4338 17.575 31.0769 18.2658 31.0769 19C31.0769 19.7329 31.4338 20.4237 32.0255 20.8593L34.0965 22.3874C34.5254 22.705 34.7072 23.2587 34.5498 23.7677C33.819 26.1292 32.563 28.2946 30.876 30.1014C30.6995 30.2908 30.4684 30.4207 30.2148 30.473C29.9612 30.5252 29.6976 30.4974 29.4605 30.3932H29.4619ZM22.0695 30.1245C22.3934 29.1103 23.0826 28.2527 24.0035 27.7183C24.5958 27.377 25.26 27.1794 25.9426 27.1415C26.6252 27.1035 27.3072 27.2262 27.9337 27.4998L29.7577 28.3005C30.9293 26.9439 31.8362 25.3797 32.4313 23.6889L30.8177 22.4987V22.4974C30.2683 22.094 29.8213 21.5673 29.5128 20.9596C29.2042 20.3519 29.0427 19.6802 29.0412 18.9986C29.0412 17.6049 29.7157 16.3115 30.815 15.5027L30.8177 15.5013L32.4286 14.3111C31.8331 12.6206 30.9257 11.0568 29.7537 9.70087L27.9446 10.4962L27.9419 10.4975C27.3909 10.7418 26.7978 10.8667 26.1966 10.8667C25.1275 10.865 24.0964 10.4694 23.3007 9.75527C22.505 9.04118 22.0005 8.05882 21.8836 6.99608V6.99337L21.6624 5.01194C20.7893 4.84934 19.9039 4.76171 19.016 4.75001C18.1167 4.76132 17.22 4.84895 16.3356 5.01194L16.1144 6.99472C16.0383 7.67134 15.8045 8.32068 15.4319 8.89053C15.0592 9.46039 14.5581 9.93486 13.9687 10.2758C13.3793 10.6168 12.7182 10.8147 12.0384 10.8537C11.3586 10.8926 10.6792 10.7716 10.0547 10.5002L8.2416 9.70222C7.06947 11.0581 6.16213 12.6219 5.56667 14.3124L7.18167 15.5027C7.72989 15.9064 8.17555 16.4333 8.48269 17.0409C8.78983 17.6485 8.94985 18.3198 8.94985 19.0007C8.94985 19.6815 8.78983 20.3528 8.48269 20.9605C8.17555 21.5681 7.72989 22.095 7.18167 22.4987L5.56667 23.6903C6.16101 25.3835 7.0679 26.9501 8.24024 28.3086L10.0656 27.5079C10.6881 27.2354 11.3659 27.1131 12.0444 27.1509C12.7229 27.1886 13.383 27.3853 13.9715 27.7251C14.5597 28.0649 15.06 28.5379 15.4321 29.1062C15.8043 29.6745 16.038 30.3222 16.1144 30.9972V31.0039L16.3342 32.9908C18.0945 33.3369 19.9035 33.3369 21.6637 32.9908L21.8836 30.9999C21.9162 30.7013 21.9786 30.4068 22.0709 30.1245H22.0695Z" fill="#FDCF1D"/>
</svg>
