<svg width="38" height="38" viewBox="0 0 38 38" fill="none" xmlns="http://www.w3.org/2000/svg">
<path d="M24.9363 3.5625C19.6757 3.5625 15.4363 7.80187 15.4363 13.0625C15.4363 13.3416 15.4802 13.7192 15.5111 14.0647L5.34256 24.2321C4.78712 24.784 4.34631 25.4402 4.04551 26.1631C3.7447 26.886 3.58984 27.6612 3.58984 28.4442C3.58984 29.2272 3.7447 30.0024 4.04551 30.7253C4.34631 31.4482 4.78712 32.1044 5.34256 32.6562C5.8944 33.2117 6.55065 33.6525 7.27353 33.9533C7.99641 34.2541 8.77165 34.409 9.55462 34.409C10.3376 34.409 11.1128 34.2541 11.8357 33.9533C12.5586 33.6525 13.2148 33.2117 13.7667 32.6562L23.9341 22.4877C24.2784 22.5186 24.6584 22.5625 24.9363 22.5625C30.1969 22.5625 34.4363 18.3231 34.4363 13.0625C34.4426 11.5318 34.0593 10.0247 33.3224 8.683L32.5802 7.31025L31.4676 8.42412L26.3459 13.5066L24.491 11.6517L29.5735 6.53125L30.6897 5.41737L29.3158 4.67519C27.9736 3.9398 26.4668 3.55696 24.9363 3.5625ZM24.9363 5.9375C25.5134 5.9375 25.9433 6.18687 26.4563 6.30919L21.9676 10.7979L21.1126 11.6529L21.9676 12.4687L25.5301 16.0312L26.3471 16.8862L27.1997 16.0312L31.6908 11.5425C31.8131 12.0555 32.0613 12.4854 32.0613 13.0625C32.0613 17.0644 28.9382 20.1875 24.9363 20.1875C24.4613 20.1875 24.0813 20.1875 23.7844 20.1127L23.1551 19.9274L22.6729 20.4107L12.0959 30.9878C10.6352 32.4484 8.474 32.4484 7.01337 30.9878L6.97537 30.9498C5.55037 29.4892 5.56225 27.3517 7.011 25.9029L17.5881 15.3271L18.0714 14.8449L17.8837 14.2156C17.8125 13.9187 17.8101 13.5387 17.8101 13.0637C17.8101 9.06181 20.9332 5.93869 24.9351 5.93869L24.9363 5.9375Z" fill="#FDCF1D"/>
</svg>
