<svg preserveAspectRatio="none" viewBox="0 0 805 500" fill="none" xmlns="http://www.w3.org/2000/svg">
<path d="M227.757 0L235.112 3.80117V11.4035L227.757 15.2047L220.403 11.4035V3.80117L227.757 0Z" fill="#FDCF1D"/>
<path d="M528.903 0L536.258 3.80117V11.4035L528.903 15.2047L521.549 11.4035V3.80117L528.903 0Z" fill="#FDCF1D"/>
<path d="M252.58 0L259.935 3.80117V11.4035L252.58 15.2047L245.226 11.4035V3.80117L252.58 0Z" fill="#FDCF1D"/>
<path d="M553.726 0L561.081 3.80117V11.4035L553.726 15.2047L546.372 11.4035V3.80117L553.726 0Z" fill="#FDCF1D"/>
<path d="M277.403 0L284.758 3.80117V11.4035L277.403 15.2047L270.049 11.4035V3.80117L277.403 0Z" fill="#FDCF1D"/>
<path d="M578.549 0L585.903 3.80117V11.4035L578.549 15.2047L571.194 11.4035V3.80117L578.549 0Z" fill="#FDCF1D"/>
<path d="M207.179 6.43286H25.7855C14.306 6.43286 5 15.7389 5 27.2184V471.612C5 483.092 14.306 492.398 25.7855 492.398H207.179M599.78 6.43286H779.214C790.694 6.43286 800 15.7389 800 27.2184V471.612C800 483.092 790.694 492.398 779.214 492.398H599.78" stroke="#FDCF1D" stroke-width="9.17009" stroke-linecap="round"/>
<path d="M227.757 500L235.112 496.199V488.596L227.757 484.795L220.403 488.596V496.199L227.757 500Z" fill="#FDCF1D"/>
<path d="M528.903 500L536.258 496.199V488.596L528.903 484.795L521.549 488.596V496.199L528.903 500Z" fill="#FDCF1D"/>
<path d="M252.58 500L259.935 496.199V488.596L252.58 484.795L245.226 488.596V496.199L252.58 500Z" fill="#FDCF1D"/>
<path d="M553.726 500L561.081 496.199V488.596L553.726 484.795L546.372 488.596V496.199L553.726 500Z" fill="#FDCF1D"/>
<path d="M277.403 500L284.758 496.199V488.596L277.403 484.795L270.049 488.596V496.199L277.403 500Z" fill="#FDCF1D"/>
<path d="M578.549 500L585.903 496.199V488.596L578.549 484.795L571.194 488.596V496.199L578.549 500Z" fill="#FDCF1D"/>
<path d="M800 333.918V164.328L792.204 168.717C784.51 173.05 779.749 181.195 779.749 190.025V307.487C779.749 315.765 783.938 323.482 790.88 327.992L800 333.918Z" fill="#FDCF1D"/>
<path d="M5 356.726L5 187.135L12.7957 191.525C20.4899 195.858 25.2506 204.002 25.2506 212.832L25.2506 330.294C25.2506 338.573 21.0622 346.289 14.1204 350.8L5 356.726Z" fill="#FDCF1D"/>
</svg>
