<svg preserveAspectRatio="none" viewBox="0 0 427 896" fill="none" xmlns="http://www.w3.org/2000/svg">
<path d="M427 896H199.666L206.467 885.049H416.337V375.324L427 384.284L427 896Z" fill="#FFDB3A"/>
<path d="M0 0H227.334L220.878 10.9511H10.6632V520.676L0 513.209V0Z" fill="#FFDB3A"/>
<path d="M231.484 0H235.173L228.717 10.9511H225.028L231.484 0Z" fill="#FDCF1D"/>
<path d="M238.862 0H242.551L236.095 10.9511H232.406L238.862 0Z" fill="#FDCF1D"/>
<path d="M246.24 0H249.929L243.473 10.9511H239.784L246.24 0Z" fill="#FDCF1D"/>
<path d="M253.618 0H257.307L250.851 10.9511H247.162L253.618 0Z" fill="#FDCF1D"/>
<path d="M260.996 0H264.685L258.229 10.9511H254.54L260.996 0Z" fill="#FDCF1D"/>
<path d="M268.374 0H272.063L265.607 10.9511H261.918L268.374 0Z" fill="#FDCF1D"/>
<path d="M275.752 0H279.441L272.985 10.9511H269.296L275.752 0Z" fill="#FDCF1D"/>
<path d="M283.13 0H286.819L280.363 10.9511H276.674L283.13 0Z" fill="#FDCF1D"/>
<path d="M290.507 0H294.196L287.741 10.9511H284.052L290.507 0Z" fill="#FDCF1D"/>
<path d="M297.885 0H301.574L295.119 10.9511H291.43L297.885 0Z" fill="#FDCF1D"/>
<path d="M305.264 0H308.953L302.497 10.9511H298.808L305.264 0Z" fill="#FDCF1D"/>
<path d="M312.642 0H316.33L309.875 10.9511H306.186L312.642 0Z" fill="#FDCF1D"/>
<path d="M320.019 0H323.708L317.253 10.9511H313.564L320.019 0Z" fill="#FDCF1D"/>
<path d="M327.397 0H331.086L324.631 10.9511H320.942L327.397 0Z" fill="#FDCF1D"/>
<path d="M334.775 0H338.464L332.009 10.9511H328.32L334.775 0Z" fill="#FDCF1D"/>
<path d="M342.153 0H345.842L339.387 10.9511H335.698L342.153 0Z" fill="#FDCF1D"/>
<path d="M349.531 0H353.22L346.765 10.9511H343.076L349.531 0Z" fill="#FDCF1D"/>
<path d="M356.909 0H360.598L354.143 10.9511H350.454L356.909 0Z" fill="#FDCF1D"/>
<path d="M364.287 0H367.976L361.521 10.9511H357.832L364.287 0Z" fill="#FDCF1D"/>
<path d="M371.665 0H375.354L368.898 10.9511H365.209L371.665 0Z" fill="#FDCF1D"/>
<path d="M379.043 0H382.732L376.276 10.9511H372.587L379.043 0Z" fill="#FDCF1D"/>
<path d="M386.421 0H390.11L383.654 10.9511H379.965L386.421 0Z" fill="#FDCF1D"/>
<path d="M416.855 371.342V367.36L427 374.329V378.311L416.855 371.342Z" fill="#FDCF1D"/>
<path d="M416.855 363.378V359.395L427 366.364V370.347L416.855 363.378Z" fill="#FDCF1D"/>
<path d="M416.855 355.413V351.431L427 358.4V362.382L416.855 355.413Z" fill="#FDCF1D"/>
<path d="M416.855 347.449V343.467L427 350.436V354.418L416.855 347.449Z" fill="#FDCF1D"/>
<path d="M416.855 339.484V335.502L427 342.471V346.453L416.855 339.484Z" fill="#FDCF1D"/>
<path d="M416.855 331.52V327.538L427 334.507V338.489L416.855 331.52Z" fill="#FDCF1D"/>
<path d="M416.855 323.556V319.573L427 326.542V330.524L416.855 323.556Z" fill="#FDCF1D"/>
<path d="M416.855 315.591V311.609L427 318.578V322.56L416.855 315.591Z" fill="#FDCF1D"/>
<path d="M416.855 307.627V303.644L427 310.613V314.596L416.855 307.627Z" fill="#FDCF1D"/>
<path d="M416.855 299.662V295.68L427 302.649V306.631L416.855 299.662Z" fill="#FDCF1D"/>
<path d="M416.855 291.698V287.715L427 294.684V298.667L416.855 291.698Z" fill="#FDCF1D"/>
<path d="M416.855 283.733V279.751L427 286.72V290.702L416.855 283.733Z" fill="#FDCF1D"/>
<path d="M416.855 275.769V271.787L427 278.756V282.738L416.855 275.769Z" fill="#FDCF1D"/>
<path d="M416.855 267.804V263.822L427 270.791V274.773L416.855 267.804Z" fill="#FDCF1D"/>
<path d="M416.855 259.84V255.858L427 262.827V266.809L416.855 259.84Z" fill="#FDCF1D"/>
<path d="M416.855 251.876V247.893L427 254.862V258.844L416.855 251.876Z" fill="#FDCF1D"/>
<path d="M416.855 243.911V239.929L427 246.898V250.88L416.855 243.911Z" fill="#FDCF1D"/>
<path d="M416.855 235.947V231.964L427 238.933V242.916L416.855 235.947Z" fill="#FDCF1D"/>
<path d="M416.855 227.982V224L427 230.969V234.951L416.855 227.982Z" fill="#FDCF1D"/>
<path d="M416.855 220.018V216.035L427 223.004V226.987L416.855 220.018Z" fill="#FDCF1D"/>
<path d="M416.855 212.053V208.071L427 215.04V219.022L416.855 212.053Z" fill="#FDCF1D"/>
<path d="M416.855 204.089V200.107L427 207.076V211.058L416.855 204.089Z" fill="#FDCF1D"/>
<path d="M0 687.929L0 683.947L10.1447 690.915V694.898L0 687.929Z" fill="#FDCF1D"/>
<path d="M0 679.964L0 675.982L10.1447 682.951V686.933L0 679.964Z" fill="#FDCF1D"/>
<path d="M0 672L0 668.018L10.1447 674.987V678.969L0 672Z" fill="#FDCF1D"/>
<path d="M0 664.036L0 660.053L10.1447 667.022V671.004L0 664.036Z" fill="#FDCF1D"/>
<path d="M0 656.071L0 652.089L10.1447 659.058V663.04L0 656.071Z" fill="#FDCF1D"/>
<path d="M0 648.107L0 644.124L10.1447 651.093V655.075L0 648.107Z" fill="#FDCF1D"/>
<path d="M0 640.142L0 636.16L10.1447 643.129V647.111L0 640.142Z" fill="#FDCF1D"/>
<path d="M0 632.178L0 628.195L10.1447 635.164V639.147L0 632.178Z" fill="#FDCF1D"/>
<path d="M0 624.213L0 620.231L10.1447 627.2V631.182L0 624.213Z" fill="#FDCF1D"/>
<path d="M0 616.249L0 612.267L10.1447 619.235V623.218L0 616.249Z" fill="#FDCF1D"/>
<path d="M0 608.284L0 604.302L10.1447 611.271V615.253L0 608.284Z" fill="#FDCF1D"/>
<path d="M0 600.32L0 596.338L10.1447 603.307V607.289L0 600.32Z" fill="#FDCF1D"/>
<path d="M0 592.355L0 588.373L10.1447 595.342V599.324L0 592.355Z" fill="#FDCF1D"/>
<path d="M0 584.391L0 580.409L10.1447 587.378V591.36L0 584.391Z" fill="#FDCF1D"/>
<path d="M0 576.427L0 572.444L10.1447 579.413V583.396L0 576.427Z" fill="#FDCF1D"/>
<path d="M0 568.462L0 564.48L10.1447 571.449V575.431L0 568.462Z" fill="#FDCF1D"/>
<path d="M0 560.498L0 556.515L10.1447 563.484V567.467L0 560.498Z" fill="#FDCF1D"/>
<path d="M0 552.533L0 548.551L10.1447 555.52V559.502L0 552.533Z" fill="#FDCF1D"/>
<path d="M0 544.569L0 540.587L10.1447 547.555V551.538L0 544.569Z" fill="#FDCF1D"/>
<path d="M0 536.604L0 532.622L10.1447 539.591V543.573L0 536.604Z" fill="#FDCF1D"/>
<path d="M0 528.64L0 524.658L10.1447 531.627V535.609L0 528.64Z" fill="#FDCF1D"/>
<path d="M0 520.676L0 516.693L10.1447 523.662V527.644L0 520.676Z" fill="#FDCF1D"/>
<path d="M43.3456 885.049H47.0346L40.5789 896H36.8899L43.3456 885.049Z" fill="#FDCF1D"/>
<path d="M50.7235 885.049H54.4125L47.9568 896H44.2678L50.7235 885.049Z" fill="#FDCF1D"/>
<path d="M58.1015 885.049H61.7905L55.3347 896H51.6458L58.1015 885.049Z" fill="#FDCF1D"/>
<path d="M65.4794 885.049H69.1684L62.7127 896H59.0237L65.4794 885.049Z" fill="#FDCF1D"/>
<path d="M72.8576 885.049H76.5466L70.0908 896H66.4019L72.8576 885.049Z" fill="#FDCF1D"/>
<path d="M80.2355 885.049H83.9245L77.4688 896H73.7798L80.2355 885.049Z" fill="#FDCF1D"/>
<path d="M87.6134 885.049H91.3024L84.8467 896H81.1577L87.6134 885.049Z" fill="#FDCF1D"/>
<path d="M94.9914 885.049H98.6804L92.2246 896H88.5356L94.9914 885.049Z" fill="#FDCF1D"/>
<path d="M102.369 885.049H106.058L99.6026 896H95.9136L102.369 885.049Z" fill="#FDCF1D"/>
<path d="M109.747 885.049H113.436L106.98 896H103.292L109.747 885.049Z" fill="#FDCF1D"/>
<path d="M117.125 885.049H120.814L114.359 896H110.67L117.125 885.049Z" fill="#FDCF1D"/>
<path d="M124.503 885.049H128.192L121.737 896H118.048L124.503 885.049Z" fill="#FDCF1D"/>
<path d="M131.881 885.049H135.57L129.115 896H125.426L131.881 885.049Z" fill="#FDCF1D"/>
<path d="M139.259 885.049H142.948L136.492 896H132.803L139.259 885.049Z" fill="#FDCF1D"/>
<path d="M146.637 885.049H150.326L143.87 896H140.181L146.637 885.049Z" fill="#FDCF1D"/>
<path d="M154.015 885.049H157.704L151.248 896H147.559L154.015 885.049Z" fill="#FDCF1D"/>
<path d="M161.393 885.049H165.082L158.626 896H154.938L161.393 885.049Z" fill="#FDCF1D"/>
<path d="M168.771 885.049H172.46L166.004 896H162.315L168.771 885.049Z" fill="#FDCF1D"/>
<path d="M176.149 885.049H179.838L173.382 896H169.693L176.149 885.049Z" fill="#FDCF1D"/>
<path d="M183.527 885.049H187.216L180.76 896H177.071L183.527 885.049Z" fill="#FDCF1D"/>
<path d="M190.905 885.049H194.594L188.138 896H184.449L190.905 885.049Z" fill="#FDCF1D"/>
<path d="M198.283 885.049H201.972L195.516 896H191.827L198.283 885.049Z" fill="#FDCF1D"/>
</svg>
