<svg width="60" height="56" viewBox="0 0 60 56" fill="none" xmlns="http://www.w3.org/2000/svg">
<path fill-rule="evenodd" clip-rule="evenodd" d="M29.6124 2.44873L39.237 19.3752L59.2248 20.3555V22.8046L45.1846 36.6952L47.9138 53.2915V55.7406L29.6124 47.3992L11.3111 55.7406V53.2915L14.0402 36.6952L0 22.8046V20.3555L19.9886 19.3752L29.6124 2.44873Z" fill="#4D4D4D"/>
<path fill-rule="evenodd" clip-rule="evenodd" d="M29.6124 0L39.237 16.9265L59.2248 20.3558L45.1846 34.2464L47.9138 53.2919L29.6124 44.9504L11.3111 53.2919L14.0402 34.2464L0 20.3558L19.9886 16.9265L29.6124 0Z" fill="#999999"/>
<path fill-rule="evenodd" clip-rule="evenodd" d="M29.6144 3.79883L21.231 18.5421L3.82031 21.5293L16.0506 33.6287L13.6729 50.2181L29.6144 42.9527L45.556 50.2181L43.1782 33.6287L55.4086 21.5293L37.997 18.5421L29.6144 3.79883Z" fill="url(#paint0_radial_498_1880)"/>
<path fill-rule="evenodd" clip-rule="evenodd" d="M29.6119 44.9503V42.9526L13.6703 50.218L11.3105 53.2917L29.6119 44.9503Z" fill="url(#paint1_radial_498_1880)"/>
<path fill-rule="evenodd" clip-rule="evenodd" d="M13.6703 50.2173L16.0481 33.6279L14.0397 34.2456L11.3105 53.2911L13.6703 50.2173Z" fill="url(#paint2_radial_498_1880)"/>
<path fill-rule="evenodd" clip-rule="evenodd" d="M0 20.356L14.0402 34.2466L16.0486 33.6289L3.81829 21.5295L0 20.356Z" fill="url(#paint3_radial_498_1880)"/>
<path fill-rule="evenodd" clip-rule="evenodd" d="M3.81829 21.5292L21.229 18.542L19.9886 16.9263L0 20.3556L3.81829 21.5292Z" fill="url(#paint4_radial_498_1880)"/>
<path fill-rule="evenodd" clip-rule="evenodd" d="M29.6121 0L19.9883 16.9265L21.2286 18.5422L29.6121 3.79889V0Z" fill="url(#paint5_radial_498_1880)"/>
<path fill-rule="evenodd" clip-rule="evenodd" d="M29.6113 44.9503V42.9526L45.5529 50.218L47.9127 53.2917L29.6113 44.9503Z" fill="url(#paint6_radial_498_1880)"/>
<path fill-rule="evenodd" clip-rule="evenodd" d="M45.5555 50.2173L43.1777 33.6279L45.1862 34.2456L47.9153 53.2911L45.5555 50.2173Z" fill="url(#paint7_radial_498_1880)"/>
<path fill-rule="evenodd" clip-rule="evenodd" d="M59.2263 20.356L45.1862 34.2466L43.1777 33.6289L55.408 21.5295L59.2263 20.356Z" fill="url(#paint8_radial_498_1880)"/>
<path fill-rule="evenodd" clip-rule="evenodd" d="M55.4076 21.5292L37.9961 18.542L39.2381 16.9263L59.2259 20.3556L55.4076 21.5292Z" fill="url(#paint9_radial_498_1880)"/>
<path fill-rule="evenodd" clip-rule="evenodd" d="M29.6113 0L39.2359 16.9265L37.9939 18.5422L29.6113 3.79889V0Z" fill="url(#paint10_radial_498_1880)"/>
<path style="mix-blend-mode:screen" opacity="0.5" fill-rule="evenodd" clip-rule="evenodd" d="M14.0185 47.7946L43.8711 19.5503L37.9954 18.5422L33.7669 11.1045L13.0723 30.6842L16.049 33.6288L14.0185 47.7946Z" fill="url(#paint11_radial_498_1880)"/>
<path style="mix-blend-mode:screen" opacity="0.5" fill-rule="evenodd" clip-rule="evenodd" d="M43.38 35.0513L33.2676 44.6188L38.6653 47.0788L44.3352 41.7136L43.38 35.0513Z" fill="url(#paint12_radial_498_1880)"/>
<path fill-rule="evenodd" clip-rule="evenodd" d="M11.3105 55.7408L29.6119 47.3993V44.9502L11.3105 53.2917V55.7408Z" fill="url(#paint13_radial_498_1880)"/>
<path fill-rule="evenodd" clip-rule="evenodd" d="M29.6113 47.3993L47.9127 55.7408V53.2917L29.6113 44.9502V47.3993Z" fill="url(#paint14_radial_498_1880)"/>
<path fill-rule="evenodd" clip-rule="evenodd" d="M13.733 36.3911L14.0402 34.2466L0 20.356V22.8051L13.733 36.3911Z" fill="url(#paint15_radial_498_1880)"/>
<path fill-rule="evenodd" clip-rule="evenodd" d="M59.2257 20.356L45.1855 34.2466L45.4928 36.3911L59.2257 22.8051V20.356Z" fill="url(#paint16_radial_498_1880)"/>
<path style="mix-blend-mode:screen" fill-rule="evenodd" clip-rule="evenodd" d="M25.9117 6.50391L22.4219 12.6413C23.1205 12.7859 23.8632 13.4283 23.663 14.2578L27.1529 8.1204C26.6512 8.1003 25.9272 7.22982 25.9117 6.50468V6.50391Z" fill="url(#paint17_radial_498_1880)"/>
<path style="mix-blend-mode:screen" fill-rule="evenodd" clip-rule="evenodd" d="M7.59728 20.8804L16.9939 19.2693C16.3941 19.1766 15.5525 18.1499 15.7527 17.6528L6.35938 19.2647C7.12336 19.4812 7.98703 20.2279 7.59973 20.8804H7.59728Z" fill="url(#paint18_radial_498_1880)"/>
<path fill-rule="evenodd" clip-rule="evenodd" d="M7.31181 24.986L3.73538 21.6858L0.943359 20.6452L3.86121 21.348C9.3137 20.5061 17.6644 19.2436 20.905 18.4273L20.1991 17.202L21.2008 18.2309L28.6062 5.56641L21.3544 18.8324C17.3 19.4446 9.16499 20.8107 4.07529 21.6031L7.31181 24.9868V24.986Z" fill="white"/>
<path style="mix-blend-mode:screen" fill-rule="evenodd" clip-rule="evenodd" d="M38.6624 49.0752C38.3886 48.4614 38.3993 47.3598 38.6624 47.0776L33.2695 44.6177C33.6315 45.2006 33.6421 46.0432 33.2695 46.6153L38.6624 49.0752Z" fill="url(#paint19_radial_498_1880)"/>
<defs>
<radialGradient id="paint0_radial_498_1880" cx="0" cy="0" r="1" gradientUnits="userSpaceOnUse" gradientTransform="translate(23.3024 8.05383) scale(55.2162 52.2413)">
<stop stop-color="#FCF800"/>
<stop offset="1" stop-color="#FC9700"/>
</radialGradient>
<radialGradient id="paint1_radial_498_1880" cx="0" cy="0" r="1" gradientUnits="userSpaceOnUse" gradientTransform="translate(25.3377 50.9416) scale(36.4066 34.4451)">
<stop stop-color="#BD5F00"/>
<stop offset="1" stop-color="#EBA82C"/>
</radialGradient>
<radialGradient id="paint2_radial_498_1880" cx="0" cy="0" r="1" gradientUnits="userSpaceOnUse" gradientTransform="translate(10.9698 54.6084) scale(26.2541 24.8397)">
<stop stop-color="#F9C433"/>
<stop offset="1" stop-color="#FF9F33"/>
</radialGradient>
<radialGradient id="paint3_radial_498_1880" cx="0" cy="0" r="1" gradientUnits="userSpaceOnUse" gradientTransform="translate(17.6411 34.606) scale(19.1601 18.1278)">
<stop stop-color="#CF8100"/>
<stop offset="1" stop-color="#DE9000"/>
</radialGradient>
<radialGradient id="paint4_radial_498_1880" cx="0" cy="0" r="1" gradientUnits="userSpaceOnUse" gradientTransform="translate(0.952735 19.7194) scale(16.7676 15.8643)">
<stop stop-color="#FFF8C9"/>
<stop offset="1" stop-color="#FFD23B"/>
</radialGradient>
<radialGradient id="paint5_radial_498_1880" cx="0" cy="0" r="1" gradientUnits="userSpaceOnUse" gradientTransform="translate(24.9039 3.47188) scale(15.2397 14.4186)">
<stop stop-color="#FFF8C9"/>
<stop offset="1" stop-color="#FFE89C"/>
</radialGradient>
<radialGradient id="paint6_radial_498_1880" cx="0" cy="0" r="1" gradientUnits="userSpaceOnUse" gradientTransform="translate(33.7507 30.0523) scale(36.1606 34.2124)">
<stop stop-color="#BD5F00"/>
<stop offset="1" stop-color="#EBA82C"/>
</radialGradient>
<radialGradient id="paint7_radial_498_1880" cx="0" cy="0" r="1" gradientUnits="userSpaceOnUse" gradientTransform="translate(44.7335 35.0017) scale(48.7603 46.1332)">
<stop stop-color="#BD5F00"/>
<stop offset="1" stop-color="#EBA82C"/>
</radialGradient>
<radialGradient id="paint8_radial_498_1880" cx="0" cy="0" r="1" gradientUnits="userSpaceOnUse" gradientTransform="translate(46.7321 35.5028) scale(26.0147 24.6132)">
<stop stop-color="#CF8100"/>
<stop offset="1" stop-color="#DE9000"/>
</radialGradient>
<radialGradient id="paint9_radial_498_1880" cx="0" cy="0" r="1" gradientUnits="userSpaceOnUse" gradientTransform="translate(40.0781 16.28) scale(21.1955 20.0536)">
<stop stop-color="#CF8100"/>
<stop offset="1" stop-color="#EBA82C"/>
</radialGradient>
<radialGradient id="paint10_radial_498_1880" cx="0" cy="0" r="1" gradientUnits="userSpaceOnUse" gradientTransform="translate(30.4954 0.172396) scale(24.2204 22.9155)">
<stop stop-color="#F9C433"/>
<stop offset="1" stop-color="#FF9F33"/>
</radialGradient>
<radialGradient id="paint11_radial_498_1880" cx="0" cy="0" r="1" gradientUnits="userSpaceOnUse" gradientTransform="translate(23.8065 8.15831) scale(42.2741 39.9966)">
<stop stop-color="#FFF261"/>
<stop offset="0.11" stop-color="#FAEE5F"/>
<stop offset="0.23" stop-color="#EDE15A"/>
<stop offset="0.36" stop-color="#D6CB52"/>
<stop offset="0.5" stop-color="#B7AD46"/>
<stop offset="0.64" stop-color="#8E8736"/>
<stop offset="0.78" stop-color="#5C5823"/>
<stop offset="0.92" stop-color="#23210D"/>
<stop offset="1"/>
</radialGradient>
<radialGradient id="paint12_radial_498_1880" cx="0" cy="0" r="1" gradientUnits="userSpaceOnUse" gradientTransform="translate(48.9558 29.6405) scale(28.2119 26.692)">
<stop stop-color="#FFF261"/>
<stop offset="0.11" stop-color="#FAEE5F"/>
<stop offset="0.23" stop-color="#EDE15A"/>
<stop offset="0.36" stop-color="#D6CB52"/>
<stop offset="0.5" stop-color="#B7AD46"/>
<stop offset="0.64" stop-color="#8E8736"/>
<stop offset="0.78" stop-color="#5C5823"/>
<stop offset="0.92" stop-color="#23210D"/>
<stop offset="1"/>
</radialGradient>
<radialGradient id="paint13_radial_498_1880" cx="0" cy="0" r="1" gradientUnits="userSpaceOnUse" gradientTransform="translate(21.3241 71.2703) scale(28.4227 26.8914)">
<stop stop-color="#DE8128"/>
<stop offset="1" stop-color="#994115"/>
</radialGradient>
<radialGradient id="paint14_radial_498_1880" cx="0" cy="0" r="1" gradientUnits="userSpaceOnUse" gradientTransform="translate(45.3429 56.1636) scale(28.8452 27.2911)">
<stop stop-color="#DE8128"/>
<stop offset="1" stop-color="#994115"/>
</radialGradient>
<radialGradient id="paint15_radial_498_1880" cx="0" cy="0" r="1" gradientUnits="userSpaceOnUse" gradientTransform="translate(-0.105406 20.2446) scale(29.4539 27.867)">
<stop stop-color="#DE8128"/>
<stop offset="1" stop-color="#994115"/>
</radialGradient>
<radialGradient id="paint16_radial_498_1880" cx="0" cy="0" r="1" gradientUnits="userSpaceOnUse" gradientTransform="translate(62.5758 19.8944) scale(26.4167 24.9935)">
<stop stop-color="#DE8128"/>
<stop offset="1" stop-color="#994115"/>
</radialGradient>
<radialGradient id="paint17_radial_498_1880" cx="0" cy="0" r="1" gradientUnits="userSpaceOnUse" gradientTransform="translate(24.4581 6.3261) scale(13.8612 13.1144)">
<stop stop-color="#FFFACF"/>
<stop offset="1"/>
</radialGradient>
<radialGradient id="paint18_radial_498_1880" cx="0" cy="0" r="1" gradientUnits="userSpaceOnUse" gradientTransform="translate(6.62003 22.1776) scale(15.2168 14.397)">
<stop stop-color="#FFFACF"/>
<stop offset="1"/>
</radialGradient>
<radialGradient id="paint19_radial_498_1880" cx="0" cy="0" r="1" gradientUnits="userSpaceOnUse" gradientTransform="translate(40.1993 55.4724) scale(14.9725 14.1658)">
<stop stop-color="#FFF261"/>
<stop offset="0.11" stop-color="#FAEE5F"/>
<stop offset="0.23" stop-color="#EDE15A"/>
<stop offset="0.36" stop-color="#D6CB52"/>
<stop offset="0.5" stop-color="#B7AD46"/>
<stop offset="0.64" stop-color="#8E8736"/>
<stop offset="0.78" stop-color="#5C5823"/>
<stop offset="0.92" stop-color="#23210D"/>
<stop offset="1"/>
</radialGradient>
</defs>
</svg>
