<svg width="42" height="42" viewBox="0 0 42 42" fill="none" xmlns="http://www.w3.org/2000/svg">
<g clip-path="url(#clip0_498_1912)">
<path d="M11.4007 7.43338V8.00568L14.326 10.9697L14.668 11.3186L22.1352 18.8906C22.5212 19.2912 22.7474 19.8192 22.7713 20.375C22.7713 20.4251 22.8009 20.4684 22.8009 20.5209C22.7986 20.7816 22.7459 21.0394 22.6459 21.2801C22.5435 21.5702 22.3829 21.8364 22.1739 22.0622C22.164 22.0838 22.1509 22.1037 22.1352 22.1215C22.1237 22.1319 22.1106 22.1404 22.0964 22.1466C21.8743 22.3574 21.6112 22.5204 21.3235 22.6254C21.0705 22.7374 20.7975 22.7971 20.5209 22.8009C20.4753 22.8009 20.4388 22.7781 20.3932 22.7759C19.83 22.7569 19.2942 22.5284 18.8906 22.1352L14.3305 17.6435L10.9697 14.326L8.00568 11.4007H5.72562C5.41744 11.3768 5.12906 11.2395 4.9162 11.0153L3.28825 9.40335L0.335577 6.47576C0.175569 6.31908 0.0663385 6.11793 0.0220582 5.89841C-0.0222221 5.67889 0.000491378 5.45112 0.0872517 5.24467C0.174012 5.03821 0.320815 4.86259 0.508614 4.7406C0.696413 4.6186 0.91654 4.55586 1.14044 4.56052H4.56052V1.14044C4.55586 0.91654 4.6186 0.696413 4.7406 0.508614C4.86259 0.320815 5.03821 0.174012 5.24467 0.0872517C5.45112 0.000491378 5.67889 -0.0222221 5.89841 0.0220582C6.11793 0.0663385 6.31908 0.175569 6.47576 0.335577L11.0153 4.9162C11.2395 5.12906 11.3768 5.41744 11.4007 5.72562V7.43338Z" fill="#FDCF1D"/>
<path d="M1.17408 13.7281L1.70305 14.2502C2.65759 15.1942 3.90787 15.7811 5.24397 15.9123C4.21416 19.3193 4.35184 22.9726 5.63515 26.2924C6.91846 29.6122 9.27387 32.4082 12.3275 34.2366C15.3811 36.0651 18.958 36.8212 22.4904 36.3849C26.0227 35.9486 29.3081 34.345 31.8251 31.8285C34.3421 29.3121 35.9465 26.027 36.3835 22.4947C36.8205 18.9625 36.0652 15.3854 34.2374 12.3314C32.4096 9.2774 29.6141 6.92139 26.2946 5.63737C22.9751 4.35335 19.3218 4.21489 15.9146 5.24397C15.7846 3.90867 15.1984 2.65896 14.2547 1.70533L13.7281 1.17408C18.1289 -0.379781 22.9273 -0.391599 27.3358 1.14056C31.7443 2.67272 35.5011 5.65786 37.9897 9.60616C40.4784 13.5545 41.551 18.2314 41.0317 22.8696C40.5124 27.5077 38.432 31.8317 35.1318 35.1318C31.8317 38.432 27.5077 40.5124 22.8696 41.0317C18.2314 41.551 13.5545 40.4784 9.60616 37.9897C5.65786 35.5011 2.67272 31.7443 1.14056 27.3358C-0.391599 22.9273 -0.379781 18.1289 1.17408 13.7281V13.7281Z" fill="#FDCF1D"/>
<path d="M25.3824 15.689L19.0507 9.26832C19.5371 9.18658 20.0284 9.13707 20.5214 9.12012C22.7761 9.12012 24.9802 9.78873 26.855 11.0414C28.7298 12.2941 30.191 14.0746 31.0538 16.1577C31.9167 18.2408 32.1425 20.533 31.7026 22.7445C31.2627 24.9559 30.1769 26.9872 28.5826 28.5816C26.9882 30.1759 24.9569 31.2617 22.7454 31.7016C20.534 32.1415 18.2418 31.9157 16.1587 31.0529C14.0755 30.19 12.2951 28.7288 11.0424 26.854C9.78971 24.9793 9.12109 22.7751 9.12109 20.5204C9.13804 20.0274 9.18755 19.5362 9.2693 19.0497L15.6808 25.3746H15.715C16.9886 26.6101 18.6932 27.3013 20.4676 27.3018C22.242 27.3024 23.9469 26.6122 25.2213 25.3776C26.4957 24.1429 27.2395 22.4606 27.2951 20.6871C27.3507 18.9136 26.7138 17.188 25.5192 15.8759C25.4791 15.8098 25.4333 15.7472 25.3824 15.689V15.689Z" fill="#FDCF1D"/>
</g>
<defs>
<clipPath id="clip0_498_1912">
<rect width="41.041" height="41.041" fill="white"/>
</clipPath>
</defs>
</svg>
