<svg width="42" height="42" viewBox="0 0 42 42" fill="none" xmlns="http://www.w3.org/2000/svg">
<g clip-path="url(#clip0_498_1905)">
<path d="M20.5205 0H18.6698V9.75805H22.37V3.80256C30.8487 4.7257 37.3383 11.8668 37.3383 20.5206C37.3383 29.7955 29.7931 37.3405 20.5205 37.3405C11.2475 37.3405 3.70268 29.7955 3.70268 20.5206C3.70268 16.7246 4.93615 13.1427 7.26842 10.1631L7.92055 9.3324L5.00527 7.05096L4.35457 7.88183C1.5058 11.5192 0 15.89 0 20.5205C0 31.8349 9.20497 41.041 20.5205 41.041C31.8349 41.041 41.041 31.8363 41.041 20.5205C41.041 9.20497 31.8349 0 20.5205 0Z" fill="#FDCF1D"/>
<path d="M17.5707 23.6643C18.2411 24.4681 19.1831 24.9616 20.2207 25.0543C20.3406 25.0657 20.4603 25.0714 20.578 25.0714C22.5801 25.0714 24.291 23.5068 24.4707 21.512C24.5647 20.473 24.2481 19.4578 23.5785 18.6531C22.9081 17.8483 21.9668 17.354 20.9263 17.2593C20.5843 17.2293 20.2374 17.2475 19.8687 17.3199L8.56641 7.7417L16.8689 19.9429C16.7645 20.2467 16.701 20.5302 16.6759 20.8062C16.582 21.8451 16.8997 22.8606 17.5707 23.6643Z" fill="#FDCF1D"/>
</g>
<defs>
<clipPath id="clip0_498_1905">
<rect width="41.041" height="41.041" fill="white"/>
</clipPath>
</defs>
</svg>
