<svg preserveAspectRatio="none" viewBox="0 0 1201 969" fill="none" xmlns="http://www.w3.org/2000/svg">
<path d="M930 944H1095L1090.03 961.762C1088.83 966.041 1084.93 969 1080.49 969H945.308C941.012 969 937.206 966.232 935.881 962.146L930 944Z" fill="#FFDB3A"/>
<path d="M106 944H271L266.028 961.762C264.83 966.041 260.93 969 256.486 969H121.308C117.012 969 113.206 966.232 111.881 962.146L106 944Z" fill="#FFDB3A"/>
<path fill-rule="evenodd" clip-rule="evenodd" d="M833.664 73.2609H367.955L366 68.537H410.431C414.741 68.5971 418.988 67.4957 422.726 65.3485C426.464 63.2013 429.555 60.0874 431.675 56.3337L459.179 9.18673C460.764 6.3663 463.08 4.02497 465.883 2.40871C468.687 0.792442 471.873 -0.0391066 475.109 0.00141312H726.576C729.812 -0.0391066 732.998 0.792442 735.801 2.40871C738.605 4.02497 740.921 6.3663 742.506 9.18673L769.944 56.3205C772.066 60.0753 775.159 63.1897 778.9 65.3369C782.64 67.4841 786.889 68.585 791.202 68.5239H835.619L833.664 73.2609Z" fill="#E8C007"/>
<path fill-rule="evenodd" clip-rule="evenodd" d="M472.626 13.3411L444.808 61.1179C444.275 62.0504 443.997 63.1063 444 64.1801C444.003 65.2539 444.288 66.3081 444.826 67.2376C445.363 68.167 446.135 68.9392 447.065 69.4771C447.994 70.0151 449.048 70.2999 450.122 70.3032H750.889C751.963 70.2999 753.017 70.0151 753.946 69.4771C754.876 68.9392 755.648 68.167 756.185 67.2376C756.723 66.3081 757.008 65.2539 757.011 64.1801C757.014 63.1063 756.736 62.0504 756.203 61.1179L728.385 13.3411C727.439 11.7078 726.082 10.3506 724.448 9.40451C722.81 8.46976 720.954 7.98534 719.068 8.00048H481.916C480.033 7.98255 478.178 8.46816 476.545 9.40707C474.911 10.346 473.559 11.7041 472.626 13.3411V13.3411Z" fill="#FFDB3A"/>
<path fill-rule="evenodd" clip-rule="evenodd" d="M451 64.0612H751.767L723.948 16.2844C723.566 15.578 722.997 14.9909 722.302 14.588C721.607 14.1851 720.815 13.982 720.012 14.0013H482.794C481.987 13.988 481.191 14.1871 480.485 14.5786C479.787 14.9881 479.211 15.5771 478.818 16.2844L451 64.0612Z" fill="#5B6744"/>
<path style="mix-blend-mode:screen" fill-rule="evenodd" clip-rule="evenodd" d="M725.486 22.1609L721.983 16.138C721.735 15.6617 721.356 15.2657 720.892 14.9962C720.427 14.7267 719.895 14.5948 719.359 14.6158H482.154C481.615 14.6049 481.082 14.7313 480.606 14.9832C480.144 15.2657 479.764 15.6637 479.504 16.138L476 22.1609H725.486Z" fill="url(#paint0_linear_166_87)"/>
<path style="mix-blend-mode:screen" d="M478.013 21.2535L527.207 21.4897L477.738 21.7128L478.013 21.2535ZM475.389 25.7937L527.233 26.0299L475.113 26.2792L475.389 25.7937V25.7937ZM472.764 30.3339L527.246 30.5832L472.463 30.8456L472.764 30.3339ZM470.14 34.8741L527.26 35.1365L469.825 35.4121L470.14 34.8741ZM467.516 39.4142L527.286 39.6898L467.188 39.9654L467.516 39.4142V39.4142ZM464.891 43.9413L527.299 44.2431L464.55 44.5318L464.891 43.9413ZM462.267 48.4815L527.325 48.7964L461.912 49.0982L462.267 48.4815V48.4815ZM459.642 53.0216L527.338 53.3366L459.275 53.6646L459.642 53.0216ZM457.018 57.5618L527.351 57.8898L456.624 58.231L457.018 57.5618V57.5618ZM454.394 62.102L527.378 62.4431L454 62.7974L454.394 62.102Z" fill="url(#paint1_linear_166_87)"/>
<path style="mix-blend-mode:screen" opacity="0.5" d="M725.502 21.2535L676.308 21.4897L725.778 21.7128L725.502 21.2535ZM728.127 25.7937L676.282 26.0299L728.402 26.2792L728.127 25.7937ZM730.751 30.3339L676.269 30.5832L731.053 30.8456L730.751 30.3339ZM733.375 34.8741L676.256 35.1365L733.69 35.4121L733.375 34.8741ZM736 39.4142L676.23 39.6898L736.328 39.9654L736 39.4142V39.4142ZM738.624 43.9413L676.216 44.2431L738.965 44.5318L738.624 43.9413V43.9413ZM741.249 48.4815L676.19 48.7964L741.603 49.0982L741.249 48.4815ZM743.873 53.0216L676.177 53.3366L744.24 53.6646L743.873 53.0216ZM746.497 57.5618L676.164 57.8898L746.891 58.231L746.497 57.5618ZM749.122 62.102L676.138 62.4431L749.515 62.7974L749.122 62.102Z" fill="url(#paint2_linear_166_87)"/>
<rect x="3" y="72" width="1195" height="869" rx="16.0565" fill="#1E1B1B" stroke="#FFDB3A" stroke-width="6"/>
<defs>
<linearGradient id="paint0_linear_166_87" x1="600.75" y1="22.1609" x2="600.75" y2="14.6158" gradientUnits="userSpaceOnUse">
<stop stop-color="#010101"/>
<stop offset="1" stop-color="#3CAA49"/>
</linearGradient>
<linearGradient id="paint1_linear_166_87" x1="453.829" y1="42.0255" x2="527.207" y2="42.0255" gradientUnits="userSpaceOnUse">
<stop stop-color="#079A48"/>
<stop offset="1" stop-color="#010101"/>
</linearGradient>
<linearGradient id="paint2_linear_166_87" x1="676.308" y1="42.0255" x2="749.686" y2="42.0255" gradientUnits="userSpaceOnUse">
<stop stop-color="#010101"/>
<stop offset="1" stop-color="#079A48"/>
</linearGradient>
</defs>
</svg>
