<svg preserveAspectRatio="none" viewBox="0 0 461 1005" fill="none" xmlns="http://www.w3.org/2000/svg">
<path fill-rule="evenodd" clip-rule="evenodd" d="M4.55821 67H456.442L461 72.6449V999.355L456.442 1005H4.55821L0 999.355V72.6449L4.55821 67V67Z" fill="#E8C007"/>
<path fill-rule="evenodd" clip-rule="evenodd" d="M450.139 999H6.86102L5 1005H452L450.139 999Z" fill="#E8C007"/>
<path fill-rule="evenodd" clip-rule="evenodd" d="M4 998.5L457 997L452 993.5L9.63387 994L4 998.5Z" fill="#FFDB3A"/>
<path fill-rule="evenodd" clip-rule="evenodd" d="M452 78.3084V993.692L457 997V75L452 78.3084Z" fill="#FFDB3A"/>
<path fill-rule="evenodd" clip-rule="evenodd" d="M9 78.3084L9.5 994L4 998.5V75L9 78.3084Z" fill="#FFDB3A"/>
<path fill-rule="evenodd" clip-rule="evenodd" d="M4 75H457.5L452 78.5H9L4 75Z" fill="#FFDB3A"/>
<path fill-rule="evenodd" clip-rule="evenodd" d="M9 78H452V994H9V78Z" fill="#191717"/>
<g style="mix-blend-mode:screen" opacity="0.2">
<path fill-rule="evenodd" clip-rule="evenodd" d="M452 994V78H406.511L9 830.225V994H452Z" fill="#191717"/>
</g>
<path fill-rule="evenodd" clip-rule="evenodd" d="M335.453 99.9602L344.713 111.371H427.417V198.97L436.676 210.365V244.034L442.229 250.852V345.558L436.676 352.376V450.935L427.417 462.33V798.363L436.676 809.758V980.942H290.271L283.212 955.928H179.605L172.56 980.942H26.1412V875.002L20.6406 868.184V379.389L26.1804 372.571V226.563L21.7538 221.131V161.336L26.1804 155.904V99.9602H71.7168L80.9891 111.371H112.106L121.366 99.9602H198.818L208.09 111.371H276.192L285.451 99.9602H335.453ZM292.772 976.574H397.819L403.542 969.531H296.845L295.614 965.179L289.786 944.517H173.031L166.011 969.579H35.4396V237.845L29.7165 230.786V976.574H170.045L177.104 951.576H285.713L292.772 976.574V976.574ZM299.32 965.179H423.881V115.788H38.9757V965.179H163.497L170.556 940.165H292.353L299.412 965.179H299.32ZM433.114 812.063V932.944L427.391 939.988V805.084L433.114 812.127V812.063ZM433.114 939.73V976.51H403.254L408.977 969.466H427.417V946.837L433.14 939.794L433.114 939.73ZM29.651 224.113V104.328H69.7785L75.5017 111.371H35.4003V231.157L29.6772 224.113H29.651ZM26.1149 375.473V392.573L22.186 397.408V380.243L26.1149 375.408V375.473ZM22.186 791.014L26.1149 795.849V872.165L22.186 867.33V791.014ZM123.225 104.328H196.919L202.642 111.371H117.554L123.278 104.328H123.225ZM287.35 104.328H333.45L339.173 111.371H281.705L287.429 104.328H287.35ZM433.179 212.734V448.565L427.456 455.609V205.691L433.179 212.734Z" fill="#E8C007"/>
<path fill-rule="evenodd" clip-rule="evenodd" d="M454.131 73H8.86934L7 68.2929H49.4799C53.6011 68.3528 57.6618 67.2554 61.2357 65.1158C64.8096 62.9762 67.7649 59.8734 69.7915 56.133L96.0874 9.15402C97.6035 6.34363 99.8179 4.01064 102.498 2.40013C105.178 0.78962 108.225 -0.0389673 111.318 0.00140809H351.745C354.838 -0.0389673 357.885 0.78962 360.565 2.40013C363.245 4.01064 365.459 6.34363 366.975 9.15402L393.209 56.12C395.237 59.8614 398.195 62.9647 401.771 65.1042C405.347 67.2438 409.41 68.3407 413.533 68.2799H456L454.131 73Z" fill="#E8C007"/>
<path fill-rule="evenodd" clip-rule="evenodd" d="M109.171 13.3411L82.5152 61.1179C82.0051 62.0504 81.7382 63.1063 81.7412 64.1801C81.7442 65.2539 82.017 66.3081 82.5323 67.2376C83.0476 68.167 83.7874 68.9392 84.6779 69.4771C85.5684 70.0151 86.5785 70.2999 87.6075 70.3032H375.809C376.838 70.2999 377.848 70.0151 378.739 69.4771C379.629 68.9392 380.369 68.167 380.884 67.2376C381.4 66.3081 381.672 65.2539 381.675 64.1801C381.678 63.1063 381.412 62.0504 380.902 61.1179L354.245 13.3411C353.339 11.7078 352.038 10.3506 350.473 9.40451C348.904 8.46976 347.125 7.98534 345.318 8.00048H118.074C116.268 7.98255 114.491 8.46816 112.926 9.40707C111.361 10.346 110.065 11.7041 109.171 13.3411V13.3411Z" fill="#FFDB3A"/>
<path fill-rule="evenodd" clip-rule="evenodd" d="M88.4492 64.0612H376.651L349.995 16.2844C349.629 15.578 349.083 14.9909 348.417 14.588C347.751 14.1851 346.992 13.982 346.223 14.0013H118.915C118.142 13.988 117.379 14.1871 116.702 14.5786C116.034 14.9881 115.482 15.5771 115.105 16.2844L88.4492 64.0612Z" fill="#5B6744"/>
<path style="mix-blend-mode:screen" fill-rule="evenodd" clip-rule="evenodd" d="M351.468 22.1609L348.111 16.138C347.873 15.6617 347.511 15.2657 347.066 14.9962C346.62 14.7267 346.111 14.5948 345.597 14.6158H118.302C117.785 14.6049 117.275 14.7313 116.818 14.9832C116.376 15.2657 116.012 15.6637 115.762 16.138L112.405 22.1609H351.468Z" fill="url(#paint0_linear_166_68)"/>
<path style="mix-blend-mode:screen" d="M114.334 21.2535L161.472 21.4897L114.07 21.7128L114.334 21.2535ZM111.819 25.7937L161.498 26.0299L111.555 26.2792L111.819 25.7937V25.7937ZM109.304 30.3339L161.51 30.5832L109.015 30.8456L109.304 30.3339ZM106.789 34.8741L161.523 35.1365L106.488 35.4121L106.789 34.8741ZM104.275 39.4142L161.548 39.6898L103.96 39.9654L104.275 39.4142V39.4142ZM101.76 43.9413L161.56 44.2431L101.433 44.5318L101.76 43.9413ZM99.2452 48.4815L161.586 48.7964L98.9057 49.0982L99.2452 48.4815V48.4815ZM96.7304 53.0216L161.598 53.3366L96.3784 53.6646L96.7304 53.0216ZM94.2157 57.5618L161.611 57.8898L93.8385 58.231L94.2157 57.5618V57.5618ZM91.701 62.102L161.636 62.4431L91.3237 62.7974L91.701 62.102Z" fill="url(#paint1_linear_166_68)"/>
<path style="mix-blend-mode:screen" opacity="0.5" d="M351.484 21.2535L304.345 21.4897L351.748 21.7128L351.484 21.2535ZM353.999 25.7937L304.32 26.0299L354.263 26.2792L353.999 25.7937ZM356.513 30.3339L304.307 30.5832L356.803 30.8456L356.513 30.3339ZM359.028 34.8741L304.295 35.1365L359.33 35.4121L359.028 34.8741ZM361.543 39.4142L304.27 39.6898L361.857 39.9654L361.543 39.4142V39.4142ZM364.058 43.9413L304.257 44.2431L364.385 44.5318L364.058 43.9413V43.9413ZM366.572 48.4815L304.232 48.7964L366.912 49.0982L366.572 48.4815ZM369.087 53.0216L304.219 53.3366L369.439 53.6646L369.087 53.0216ZM371.602 57.5618L304.207 57.8898L371.979 58.231L371.602 57.5618ZM374.117 62.102L304.182 62.4431L374.494 62.7974L374.117 62.102Z" fill="url(#paint2_linear_166_68)"/>
<defs>
<linearGradient id="paint0_linear_166_68" x1="231.943" y1="22.1609" x2="231.943" y2="14.6158" gradientUnits="userSpaceOnUse">
<stop stop-color="#010101"/>
<stop offset="1" stop-color="#3CAA49"/>
</linearGradient>
<linearGradient id="paint1_linear_166_68" x1="91.1603" y1="42.0255" x2="161.472" y2="42.0255" gradientUnits="userSpaceOnUse">
<stop stop-color="#079A48"/>
<stop offset="1" stop-color="#010101"/>
</linearGradient>
<linearGradient id="paint2_linear_166_68" x1="304.345" y1="42.0255" x2="374.657" y2="42.0255" gradientUnits="userSpaceOnUse">
<stop stop-color="#010101"/>
<stop offset="1" stop-color="#079A48"/>
</linearGradient>
</defs>
</svg>
